<?xml version="1.0" encoding="UTF-8"?><svg id="Calque_1" xmlns="http://www.w3.org/2000/svg" viewBox="0 0 1920 1080"><defs><style>.cls-1{fill:none;stroke:#1d1d1b;stroke-miterlimit:10;stroke-width:1.07px;}</style></defs><polygon class="cls-1" points="403.51 535.39 371.52 537.34 339.54 539.28 353.85 510.61 368.16 481.93 385.83 508.66 403.51 535.39"/><polyline class="cls-1" points="362.95 492.37 369.01 497.93 375.06 492.38"/><polyline class="cls-1" points="360.83 496.71 369.01 504.38 377.47 496.43"/><polyline class="cls-1" points="358.53 501.72 368.86 511.55 380.33 500.59"/><polyline class="cls-1" points="355.93 506.49 368.86 518.92 383.26 505.03"/><polyline class="cls-1" points="352.54 513 368.86 528.82 387.19 511"/><polyline class="cls-1" points="349.9 518.55 368.59 536.74 390.23 515.62"/><line class="cls-1" x1="346.07" y1="526.18" x2="357.92" y2="538.16"/><line class="cls-1" x1="396.08" y1="524.16" x2="382.01" y2="536.7"/><polygon class="cls-1" points="542.44 426.35 510.46 428.29 478.47 430.23 492.78 401.56 507.09 372.89 524.77 399.62 542.44 426.35"/><polyline class="cls-1" points="501.88 383.32 507.94 388.88 514 383.33"/><polyline class="cls-1" points="499.76 387.66 507.94 395.34 516.4 387.38"/><polyline class="cls-1" points="497.47 392.68 507.79 402.5 519.26 391.55"/><polyline class="cls-1" points="494.86 397.45 507.79 409.87 522.19 395.99"/><polyline class="cls-1" points="491.47 403.95 507.79 419.78 526.13 401.95"/><polyline class="cls-1" points="488.83 409.51 507.52 427.7 529.16 406.57"/><line class="cls-1" x1="485.01" y1="417.13" x2="496.86" y2="429.12"/><line class="cls-1" x1="535.01" y1="415.11" x2="520.94" y2="427.65"/><polygon class="cls-1" points="545.98 213.09 514 215.03 482.01 216.98 496.32 188.3 510.63 159.63 528.31 186.36 545.98 213.09"/><polyline class="cls-1" points="505.42 170.07 511.48 175.62 517.54 170.08"/><polyline class="cls-1" points="503.3 174.41 511.48 182.08 519.94 174.13"/><polyline class="cls-1" points="501.01 179.42 511.34 189.24 522.8 178.29"/><polyline class="cls-1" points="498.41 184.19 511.34 196.62 525.73 182.73"/><polyline class="cls-1" points="495.01 190.7 511.34 206.52 529.67 188.7"/><polyline class="cls-1" points="492.37 196.25 511.07 214.44 532.7 193.32"/><line class="cls-1" x1="488.55" y1="203.88" x2="500.4" y2="215.86"/><line class="cls-1" x1="538.55" y1="201.85" x2="524.48" y2="214.4"/><polygon class="cls-1" points="407.05 329.27 375.06 331.21 343.08 333.15 357.39 304.48 371.7 275.81 389.37 302.54 407.05 329.27"/><polyline class="cls-1" points="366.49 286.25 372.55 291.8 378.61 286.25"/><polyline class="cls-1" points="364.37 290.58 372.55 298.26 381.01 290.3"/><polyline class="cls-1" points="362.08 295.6 372.4 305.42 383.87 294.47"/><polyline class="cls-1" points="359.47 300.37 372.4 312.79 386.8 298.91"/><polyline class="cls-1" points="356.08 306.87 372.4 322.7 390.74 304.88"/><polyline class="cls-1" points="353.44 312.43 372.13 330.62 393.77 309.49"/><line class="cls-1" x1="349.62" y1="320.05" x2="361.46" y2="332.04"/><line class="cls-1" x1="399.62" y1="318.03" x2="385.55" y2="330.57"/><polygon class="cls-1" points="264.5 431.36 232.51 433.3 200.53 435.24 214.84 406.57 229.15 377.9 246.82 404.63 264.5 431.36"/><polyline class="cls-1" points="223.94 388.34 230 393.89 236.06 388.34"/><polyline class="cls-1" points="221.82 392.67 230 400.35 238.46 392.39"/><polyline class="cls-1" points="219.53 397.69 229.85 407.51 241.32 396.56"/><polyline class="cls-1" points="216.92 402.46 229.85 414.89 244.25 401"/><polyline class="cls-1" points="213.53 408.96 229.85 424.79 248.19 406.97"/><polyline class="cls-1" points="210.89 414.52 229.58 432.71 251.22 411.58"/><line class="cls-1" x1="207.06" y1="422.15" x2="218.91" y2="434.13"/><line class="cls-1" x1="257.07" y1="420.12" x2="243" y2="432.66"/><polygon class="cls-1" points="132.15 536.76 100.16 538.71 68.17 540.65 82.48 511.98 96.8 483.3 114.47 510.03 132.15 536.76"/><polyline class="cls-1" points="91.59 493.74 97.64 499.3 103.7 493.75"/><polyline class="cls-1" points="89.47 498.08 97.64 505.75 106.11 497.8"/><polyline class="cls-1" points="87.17 503.09 97.5 512.92 108.96 501.96"/><polyline class="cls-1" points="84.57 507.86 97.5 520.29 111.9 506.4"/><polyline class="cls-1" points="81.17 514.37 97.5 530.19 115.83 512.37"/><polyline class="cls-1" points="78.54 519.92 97.23 538.11 118.87 516.99"/><line class="cls-1" x1="74.71" y1="527.55" x2="86.56" y2="539.53"/><line class="cls-1" x1="124.72" y1="525.53" x2="110.64" y2="538.07"/><polygon class="cls-1" points="276.24 638.84 244.25 640.79 212.26 642.73 226.57 614.06 240.88 585.38 258.56 612.11 276.24 638.84"/><polyline class="cls-1" points="235.68 595.82 241.73 601.37 247.79 595.83"/><polyline class="cls-1" points="233.56 600.16 241.73 607.83 250.2 599.88"/><polyline class="cls-1" points="231.26 605.17 241.59 615 253.05 604.04"/><polyline class="cls-1" points="228.66 609.94 241.59 622.37 255.99 608.48"/><polyline class="cls-1" points="225.26 616.45 241.59 632.27 259.92 614.45"/><polyline class="cls-1" points="222.63 622 241.32 640.19 262.96 619.07"/><line class="cls-1" x1="218.8" y1="629.63" x2="230.65" y2="641.61"/><line class="cls-1" x1="268.81" y1="627.61" x2="254.73" y2="640.15"/><polygon class="cls-1" points="135.69 738.09 103.7 740.03 71.72 741.98 86.03 713.3 100.34 684.63 118.01 711.36 135.69 738.09"/><polyline class="cls-1" points="95.13 695.07 101.19 700.62 107.24 695.08"/><polyline class="cls-1" points="93.01 699.41 101.19 707.08 109.65 699.13"/><polyline class="cls-1" points="90.71 704.42 101.04 714.24 112.51 703.29"/><polyline class="cls-1" points="88.11 709.19 101.04 721.62 115.44 707.73"/><polyline class="cls-1" points="84.71 715.7 101.04 731.52 119.37 713.7"/><polyline class="cls-1" points="82.08 721.25 100.77 739.44 122.41 718.32"/><line class="cls-1" x1="78.25" y1="728.88" x2="90.1" y2="740.86"/><line class="cls-1" x1="128.26" y1="726.85" x2="114.18" y2="739.4"/><polygon class="cls-1" points="263.04 841.03 231.05 842.98 199.07 844.92 213.38 816.25 227.69 787.57 245.37 814.3 263.04 841.03"/><polyline class="cls-1" points="222.48 798.01 228.54 803.56 234.6 798.02"/><polyline class="cls-1" points="220.36 802.35 228.54 810.02 237 802.07"/><polyline class="cls-1" points="218.07 807.36 228.39 817.19 239.86 806.23"/><polyline class="cls-1" points="215.46 812.13 228.39 824.56 242.79 810.67"/><polyline class="cls-1" points="212.07 818.64 228.39 834.46 246.73 816.64"/><polyline class="cls-1" points="209.43 824.19 228.12 842.38 249.76 821.26"/><line class="cls-1" x1="205.61" y1="831.82" x2="217.45" y2="843.8"/><line class="cls-1" x1="255.61" y1="829.8" x2="241.54" y2="842.34"/><polygon class="cls-1" points="140.95 939.42 108.96 941.36 76.98 943.3 91.29 914.63 105.6 885.96 123.27 912.69 140.95 939.42"/><polyline class="cls-1" points="100.39 896.4 106.45 901.95 112.51 896.4"/><polyline class="cls-1" points="98.27 900.73 106.45 908.41 114.91 900.45"/><polyline class="cls-1" points="95.98 905.75 106.3 915.57 117.77 904.62"/><polyline class="cls-1" points="93.37 910.52 106.3 922.94 120.7 909.06"/><polyline class="cls-1" points="89.98 917.02 106.3 932.85 124.64 915.03"/><polyline class="cls-1" points="87.34 922.58 106.03 940.77 127.67 919.64"/><line class="cls-1" x1="83.51" y1="930.2" x2="95.36" y2="942.19"/><line class="cls-1" x1="133.52" y1="928.18" x2="119.45" y2="940.72"/><polygon class="cls-1" points="407.05 939.42 375.06 941.36 343.08 943.3 357.39 914.63 371.7 885.96 389.37 912.69 407.05 939.42"/><polyline class="cls-1" points="366.49 896.4 372.55 901.95 378.61 896.4"/><polyline class="cls-1" points="364.37 900.73 372.55 908.41 381.01 900.45"/><polyline class="cls-1" points="362.08 905.75 372.4 915.57 383.87 904.62"/><polyline class="cls-1" points="359.47 910.52 372.4 922.94 386.8 909.06"/><polyline class="cls-1" points="356.08 917.02 372.4 932.85 390.74 915.03"/><polyline class="cls-1" points="353.44 922.58 372.13 940.77 393.77 919.64"/><line class="cls-1" x1="349.62" y1="930.2" x2="361.46" y2="942.19"/><line class="cls-1" x1="399.62" y1="928.18" x2="385.55" y2="940.72"/><polygon class="cls-1" points="268.99 1038.09 237 1040.03 205.02 1041.98 219.33 1013.3 233.64 984.63 251.31 1011.36 268.99 1038.09"/><polyline class="cls-1" points="228.43 995.07 234.49 1000.62 240.54 995.08"/><polyline class="cls-1" points="226.31 999.41 234.49 1007.08 242.95 999.13"/><polyline class="cls-1" points="224.01 1004.42 234.34 1014.24 245.81 1003.29"/><polyline class="cls-1" points="221.41 1009.19 234.34 1021.62 248.74 1007.73"/><polyline class="cls-1" points="218.02 1015.7 234.34 1031.52 252.67 1013.7"/><polyline class="cls-1" points="215.38 1021.25 234.07 1039.44 255.71 1018.32"/><line class="cls-1" x1="211.55" y1="1028.88" x2="223.4" y2="1040.86"/><line class="cls-1" x1="261.56" y1="1026.85" x2="247.49" y2="1039.4"/><polygon class="cls-1" points="548.39 1039.46 516.4 1041.4 484.42 1043.35 498.73 1014.67 513.04 986 530.71 1012.73 548.39 1039.46"/><polyline class="cls-1" points="507.83 996.44 513.89 1001.99 519.94 996.45"/><polyline class="cls-1" points="505.71 1000.78 513.89 1008.45 522.35 1000.5"/><polyline class="cls-1" points="503.41 1005.79 513.74 1015.61 525.21 1004.66"/><polyline class="cls-1" points="500.81 1010.56 513.74 1022.99 528.14 1009.1"/><polyline class="cls-1" points="497.42 1017.07 513.74 1032.89 532.08 1015.07"/><polyline class="cls-1" points="494.78 1022.62 513.47 1040.81 535.11 1019.69"/><line class="cls-1" x1="490.95" y1="1030.25" x2="502.8" y2="1042.23"/><line class="cls-1" x1="540.96" y1="1028.22" x2="526.89" y2="1040.77"/><polygon class="cls-1" points="548.39 836.5 516.4 838.44 484.42 840.38 498.73 811.71 513.04 783.04 530.71 809.77 548.39 836.5"/><polyline class="cls-1" points="507.83 793.47 513.89 799.03 519.94 793.48"/><polyline class="cls-1" points="505.71 797.81 513.89 805.48 522.35 797.53"/><polyline class="cls-1" points="503.41 802.82 513.74 812.65 525.21 801.7"/><polyline class="cls-1" points="500.81 807.6 513.74 820.02 528.14 806.14"/><polyline class="cls-1" points="497.42 814.1 513.74 829.93 532.08 812.1"/><polyline class="cls-1" points="494.78 819.65 513.47 837.84 535.11 816.72"/><line class="cls-1" x1="490.95" y1="827.28" x2="502.8" y2="839.26"/><line class="cls-1" x1="540.96" y1="825.26" x2="526.89" y2="837.8"/><polygon class="cls-1" points="682.15 742.86 650.16 744.8 618.17 746.75 632.48 718.07 646.8 689.4 664.47 716.13 682.15 742.86"/><polyline class="cls-1" points="641.59 699.84 647.64 705.39 653.7 699.85"/><polyline class="cls-1" points="639.47 704.18 647.64 711.85 656.11 703.89"/><polyline class="cls-1" points="637.17 709.19 647.5 719.01 658.96 708.06"/><polyline class="cls-1" points="634.57 713.96 647.5 726.39 661.9 712.5"/><polyline class="cls-1" points="631.17 720.47 647.5 736.29 665.83 718.47"/><polyline class="cls-1" points="628.54 726.02 647.23 744.21 668.87 723.08"/><line class="cls-1" x1="624.71" y1="733.65" x2="636.56" y2="745.63"/><line class="cls-1" x1="674.72" y1="731.62" x2="660.64" y2="744.17"/><polygon class="cls-1" points="812.63 835.46 780.64 837.4 748.66 839.34 762.97 810.67 777.28 782 794.95 808.73 812.63 835.46"/><polyline class="cls-1" points="772.07 792.44 778.13 797.99 784.18 792.44"/><polyline class="cls-1" points="769.95 796.77 778.13 804.45 786.59 796.49"/><polyline class="cls-1" points="767.65 801.79 777.98 811.61 789.45 800.66"/><polyline class="cls-1" points="765.05 806.56 777.98 818.99 792.38 805.1"/><polyline class="cls-1" points="761.66 813.07 777.98 828.89 796.32 811.07"/><polyline class="cls-1" points="759.02 818.62 777.71 836.81 799.35 815.68"/><line class="cls-1" x1="755.19" y1="826.25" x2="767.04" y2="838.23"/><line class="cls-1" x1="805.2" y1="824.22" x2="791.13" y2="836.76"/><polygon class="cls-1" points="679.63 940.79 647.64 942.73 615.66 944.67 629.97 916 644.28 887.33 661.95 914.06 679.63 940.79"/><polyline class="cls-1" points="639.07 897.77 645.13 903.32 651.19 897.77"/><polyline class="cls-1" points="636.95 902.1 645.13 909.78 653.59 901.82"/><polyline class="cls-1" points="634.66 907.12 644.98 916.94 656.45 905.99"/><polyline class="cls-1" points="632.05 911.89 644.98 924.31 659.38 910.43"/><polyline class="cls-1" points="628.66 918.39 644.98 934.22 663.32 916.4"/><polyline class="cls-1" points="626.02 923.95 644.71 942.14 666.35 921.01"/><line class="cls-1" x1="622.19" y1="931.57" x2="634.04" y2="943.56"/><line class="cls-1" x1="672.2" y1="929.55" x2="658.13" y2="942.09"/><polygon class="cls-1" points="812.63 1046.4 780.64 1048.35 748.66 1050.29 762.97 1021.62 777.28 992.94 794.95 1019.67 812.63 1046.4"/><polyline class="cls-1" points="772.07 1003.38 778.13 1008.94 784.18 1003.39"/><polyline class="cls-1" points="769.95 1007.72 778.13 1015.39 786.59 1007.44"/><polyline class="cls-1" points="767.65 1012.73 777.98 1022.56 789.45 1011.6"/><polyline class="cls-1" points="765.05 1017.5 777.98 1029.93 792.38 1016.04"/><polyline class="cls-1" points="761.66 1024.01 777.98 1039.83 796.32 1022.01"/><polyline class="cls-1" points="759.02 1029.56 777.71 1047.75 799.35 1026.63"/><line class="cls-1" x1="755.19" y1="1037.19" x2="767.04" y2="1049.17"/><line class="cls-1" x1="805.2" y1="1035.17" x2="791.13" y2="1047.71"/><polygon class="cls-1" points="951.27 939.42 919.28 941.36 887.29 943.3 901.6 914.63 915.91 885.96 933.59 912.69 951.27 939.42"/><polyline class="cls-1" points="910.7 896.4 916.76 901.95 922.82 896.4"/><polyline class="cls-1" points="908.58 900.73 916.76 908.41 925.23 900.45"/><polyline class="cls-1" points="906.29 905.75 916.62 915.57 928.08 904.62"/><polyline class="cls-1" points="903.69 910.52 916.62 922.94 931.02 909.06"/><polyline class="cls-1" points="900.29 917.02 916.62 932.85 934.95 915.03"/><polyline class="cls-1" points="897.66 922.58 916.35 940.77 937.98 919.64"/><line class="cls-1" x1="893.83" y1="930.2" x2="905.68" y2="942.19"/><line class="cls-1" x1="943.83" y1="928.18" x2="929.76" y2="940.72"/><polygon class="cls-1" points="957.21 734.92 925.23 736.87 893.24 738.81 907.55 710.14 921.86 681.46 939.54 708.19 957.21 734.92"/><polyline class="cls-1" points="916.65 691.9 922.71 697.46 928.77 691.91"/><polyline class="cls-1" points="914.53 696.24 922.71 703.91 931.18 695.96"/><polyline class="cls-1" points="912.24 701.25 922.57 711.08 934.03 700.12"/><polyline class="cls-1" points="909.64 706.02 922.57 718.45 936.96 704.56"/><polyline class="cls-1" points="906.24 712.53 922.57 728.35 940.9 710.53"/><polyline class="cls-1" points="903.6 718.08 922.3 736.27 943.93 715.15"/><line class="cls-1" x1="899.78" y1="725.71" x2="911.63" y2="737.69"/><line class="cls-1" x1="949.78" y1="723.69" x2="935.71" y2="736.23"/><polygon class="cls-1" points="1093.91 640.21 1061.93 642.15 1029.94 644.1 1044.25 615.43 1058.56 586.75 1076.24 613.48 1093.91 640.21"/><polyline class="cls-1" points="1053.35 597.19 1059.41 602.74 1065.47 597.2"/><polyline class="cls-1" points="1051.23 601.53 1059.41 609.2 1067.87 601.25"/><polyline class="cls-1" points="1048.94 606.54 1059.26 616.37 1070.73 605.41"/><polyline class="cls-1" points="1046.33 611.31 1059.26 623.74 1073.66 609.85"/><polyline class="cls-1" points="1042.94 617.82 1059.26 633.64 1077.6 615.82"/><polyline class="cls-1" points="1040.3 623.37 1059 641.56 1080.63 620.44"/><line class="cls-1" x1="1036.48" y1="631" x2="1048.33" y2="642.98"/><line class="cls-1" x1="1086.48" y1="628.98" x2="1072.41" y2="641.52"/><polygon class="cls-1" points="957.21 533.6 925.23 535.54 893.24 537.48 907.55 508.81 921.86 480.14 939.54 506.87 957.21 533.6"/><polyline class="cls-1" points="916.65 490.58 922.71 496.13 928.77 490.58"/><polyline class="cls-1" points="914.53 494.91 922.71 502.59 931.18 494.63"/><polyline class="cls-1" points="912.24 499.93 922.57 509.75 934.03 498.8"/><polyline class="cls-1" points="909.64 504.7 922.57 517.12 936.96 503.24"/><polyline class="cls-1" points="906.24 511.2 922.57 527.03 940.9 509.21"/><polyline class="cls-1" points="903.6 516.76 922.3 534.95 943.93 513.82"/><line class="cls-1" x1="899.78" y1="524.38" x2="911.63" y2="536.37"/><line class="cls-1" x1="949.78" y1="522.36" x2="935.71" y2="534.9"/><polygon class="cls-1" points="1092.45 849.01 1060.47 850.95 1028.48 852.9 1042.79 824.22 1057.1 795.55 1074.78 822.28 1092.45 849.01"/><polyline class="cls-1" points="1051.89 805.99 1057.95 811.54 1064.01 805.99"/><polyline class="cls-1" points="1049.77 810.32 1057.95 818 1066.41 810.04"/><polyline class="cls-1" points="1047.48 815.34 1057.81 825.16 1069.27 814.21"/><polyline class="cls-1" points="1044.88 820.11 1057.81 832.54 1072.2 818.65"/><polyline class="cls-1" points="1041.48 826.62 1057.81 842.44 1076.14 824.62"/><polyline class="cls-1" points="1038.84 832.17 1057.54 850.36 1079.17 829.23"/><line class="cls-1" x1="1035.02" y1="839.8" x2="1046.87" y2="851.78"/><line class="cls-1" x1="1085.02" y1="837.77" x2="1070.95" y2="850.31"/><polygon class="cls-1" points="1236.75 729.02 1204.76 730.96 1172.77 732.9 1187.08 704.23 1201.4 675.56 1219.07 702.29 1236.75 729.02"/><polyline class="cls-1" points="1196.19 686 1202.24 691.55 1208.3 686"/><polyline class="cls-1" points="1194.07 690.33 1202.24 698.01 1210.71 690.05"/><polyline class="cls-1" points="1191.77 695.35 1202.1 705.17 1213.56 694.22"/><polyline class="cls-1" points="1189.17 700.12 1202.1 712.54 1216.5 698.66"/><polyline class="cls-1" points="1185.77 706.62 1202.1 722.45 1220.43 704.63"/><polyline class="cls-1" points="1183.14 712.18 1201.83 730.37 1223.47 709.24"/><line class="cls-1" x1="1179.31" y1="719.8" x2="1191.16" y2="731.79"/><line class="cls-1" x1="1229.32" y1="717.78" x2="1215.24" y2="730.32"/><polygon class="cls-1" points="1368.89 837.87 1336.91 839.81 1304.92 841.75 1319.23 813.08 1333.54 784.41 1351.22 811.14 1368.89 837.87"/><polyline class="cls-1" points="1328.33 794.84 1334.39 800.4 1340.45 794.85"/><polyline class="cls-1" points="1326.21 799.18 1334.39 806.85 1342.85 798.9"/><polyline class="cls-1" points="1323.92 804.19 1334.24 814.02 1345.71 803.07"/><polyline class="cls-1" points="1321.31 808.97 1334.24 821.39 1348.64 807.51"/><polyline class="cls-1" points="1317.92 815.47 1334.24 831.3 1352.58 813.47"/><polyline class="cls-1" points="1315.28 821.02 1333.97 839.21 1355.61 818.09"/><line class="cls-1" x1="1311.46" y1="828.65" x2="1323.31" y2="840.63"/><line class="cls-1" x1="1361.46" y1="826.63" x2="1347.39" y2="839.17"/><polygon class="cls-1" points="1497 739.94 1465.02 741.88 1433.03 743.82 1447.34 715.15 1461.65 686.48 1479.33 713.21 1497 739.94"/><polyline class="cls-1" points="1456.44 696.91 1462.5 702.47 1468.56 696.92"/><polyline class="cls-1" points="1454.32 701.25 1462.5 708.93 1470.97 700.97"/><polyline class="cls-1" points="1452.03 706.26 1462.36 716.09 1473.82 705.14"/><polyline class="cls-1" points="1449.43 711.04 1462.36 723.46 1476.75 709.58"/><polyline class="cls-1" points="1446.03 717.54 1462.36 733.37 1480.69 715.54"/><polyline class="cls-1" points="1443.39 723.09 1462.09 741.28 1483.72 720.16"/><line class="cls-1" x1="1439.57" y1="730.72" x2="1451.42" y2="742.71"/><line class="cls-1" x1="1489.57" y1="728.7" x2="1475.5" y2="741.24"/><polygon class="cls-1" points="1497 944.43 1465.02 946.37 1433.03 948.32 1447.34 919.64 1461.65 890.97 1479.33 917.7 1497 944.43"/><polyline class="cls-1" points="1456.44 901.41 1462.5 906.96 1468.56 901.41"/><polyline class="cls-1" points="1454.32 905.74 1462.5 913.42 1470.97 905.46"/><polyline class="cls-1" points="1452.03 910.76 1462.36 920.58 1473.82 909.63"/><polyline class="cls-1" points="1449.43 915.53 1462.36 927.96 1476.75 914.07"/><polyline class="cls-1" points="1446.03 922.04 1462.36 937.86 1480.69 920.04"/><polyline class="cls-1" points="1443.39 927.59 1462.09 945.78 1483.72 924.65"/><line class="cls-1" x1="1439.57" y1="935.22" x2="1451.42" y2="947.2"/><line class="cls-1" x1="1489.57" y1="933.19" x2="1475.5" y2="945.74"/><polygon class="cls-1" points="1633.62 836.5 1601.63 838.44 1569.64 840.38 1583.96 811.71 1598.27 783.04 1615.94 809.77 1633.62 836.5"/><polyline class="cls-1" points="1593.06 793.47 1599.11 799.03 1605.17 793.48"/><polyline class="cls-1" points="1590.94 797.81 1599.11 805.48 1607.58 797.53"/><polyline class="cls-1" points="1588.64 802.82 1598.97 812.65 1610.43 801.7"/><polyline class="cls-1" points="1586.04 807.6 1598.97 820.02 1613.37 806.14"/><polyline class="cls-1" points="1582.64 814.1 1598.97 829.93 1617.3 812.1"/><polyline class="cls-1" points="1580.01 819.65 1598.7 837.84 1620.34 816.72"/><line class="cls-1" x1="1576.18" y1="827.28" x2="1588.03" y2="839.26"/><line class="cls-1" x1="1626.19" y1="825.26" x2="1612.11" y2="837.8"/><polygon class="cls-1" points="1633.62 1041.87 1601.63 1043.81 1569.64 1045.75 1583.96 1017.08 1598.27 988.41 1615.94 1015.14 1633.62 1041.87"/><polyline class="cls-1" points="1593.06 998.85 1599.11 1004.4 1605.17 998.85"/><polyline class="cls-1" points="1590.94 1003.18 1599.11 1010.86 1607.58 1002.9"/><polyline class="cls-1" points="1588.64 1008.2 1598.97 1018.02 1610.43 1007.07"/><polyline class="cls-1" points="1586.04 1012.97 1598.97 1025.39 1613.37 1011.51"/><polyline class="cls-1" points="1582.64 1019.47 1598.97 1035.3 1617.3 1017.48"/><polyline class="cls-1" points="1580.01 1025.03 1598.7 1043.22 1620.34 1022.09"/><line class="cls-1" x1="1576.18" y1="1032.65" x2="1588.03" y2="1044.64"/><line class="cls-1" x1="1626.19" y1="1030.63" x2="1612.11" y2="1043.17"/><polygon class="cls-1" points="1757.49 945.56 1725.51 947.5 1693.52 949.44 1707.83 920.77 1722.14 892.1 1739.82 918.83 1757.49 945.56"/><polyline class="cls-1" points="1716.93 902.53 1722.99 908.09 1729.05 902.54"/><polyline class="cls-1" points="1714.81 906.87 1722.99 914.55 1731.46 906.59"/><polyline class="cls-1" points="1712.52 911.89 1722.85 921.71 1734.31 910.76"/><polyline class="cls-1" points="1709.92 916.66 1722.85 929.08 1737.24 915.2"/><polyline class="cls-1" points="1706.52 923.16 1722.85 938.99 1741.18 921.16"/><polyline class="cls-1" points="1703.88 928.72 1722.58 946.91 1744.21 925.78"/><line class="cls-1" x1="1700.06" y1="936.34" x2="1711.91" y2="948.33"/><line class="cls-1" x1="1750.06" y1="934.32" x2="1735.99" y2="946.86"/><polygon class="cls-1" points="1880.68 1050.18 1848.69 1052.12 1816.7 1054.07 1831.01 1025.39 1845.32 996.72 1863 1023.45 1880.68 1050.18"/><polyline class="cls-1" points="1840.12 1007.16 1846.17 1012.71 1852.23 1007.17"/><polyline class="cls-1" points="1838 1011.5 1846.17 1019.17 1854.64 1011.22"/><polyline class="cls-1" points="1835.7 1016.51 1846.03 1026.33 1857.49 1015.38"/><polyline class="cls-1" points="1833.1 1021.28 1846.03 1033.71 1860.43 1019.82"/><polyline class="cls-1" points="1829.7 1027.79 1846.03 1043.61 1864.36 1025.79"/><polyline class="cls-1" points="1827.07 1033.34 1845.76 1051.53 1867.4 1030.41"/><line class="cls-1" x1="1823.24" y1="1040.97" x2="1835.09" y2="1052.95"/><line class="cls-1" x1="1873.25" y1="1038.94" x2="1859.17" y2="1051.49"/><polygon class="cls-1" points="1898.2 842.78 1866.21 844.73 1834.22 846.67 1848.53 818 1862.84 789.32 1880.52 816.05 1898.2 842.78"/><polyline class="cls-1" points="1857.63 799.76 1863.69 805.32 1869.75 799.77"/><polyline class="cls-1" points="1855.52 804.1 1863.69 811.77 1872.16 803.82"/><polyline class="cls-1" points="1853.22 809.11 1863.55 818.94 1875.01 807.98"/><polyline class="cls-1" points="1850.62 813.88 1863.55 826.31 1877.95 812.42"/><polyline class="cls-1" points="1847.22 820.39 1863.55 836.21 1881.88 818.39"/><polyline class="cls-1" points="1844.59 825.94 1863.28 844.13 1884.91 823.01"/><line class="cls-1" x1="1840.76" y1="833.57" x2="1852.61" y2="845.55"/><line class="cls-1" x1="1890.77" y1="831.55" x2="1876.69" y2="844.09"/><polygon class="cls-1" points="1909.93 633.99 1877.95 635.93 1845.96 637.87 1860.27 609.2 1874.58 580.53 1892.26 607.26 1909.93 633.99"/><polyline class="cls-1" points="1869.37 590.97 1875.43 596.52 1881.49 590.97"/><polyline class="cls-1" points="1867.25 595.3 1875.43 602.98 1883.9 595.02"/><polyline class="cls-1" points="1864.96 600.32 1875.29 610.14 1886.75 599.19"/><polyline class="cls-1" points="1862.36 605.09 1875.29 617.51 1889.68 603.63"/><polyline class="cls-1" points="1858.96 611.59 1875.29 627.42 1893.62 609.6"/><polyline class="cls-1" points="1856.32 617.15 1875.02 635.34 1896.65 614.21"/><line class="cls-1" x1="1852.5" y1="624.77" x2="1864.35" y2="636.76"/><line class="cls-1" x1="1902.5" y1="622.75" x2="1888.43" y2="635.29"/><polygon class="cls-1" points="1775.01 724.91 1743.03 726.85 1711.04 728.8 1725.35 700.12 1739.66 671.45 1757.34 698.18 1775.01 724.91"/><polyline class="cls-1" points="1734.45 681.89 1740.51 687.44 1746.57 681.9"/><polyline class="cls-1" points="1732.33 686.23 1740.51 693.9 1748.98 685.95"/><polyline class="cls-1" points="1730.04 691.24 1740.37 701.06 1751.83 690.11"/><polyline class="cls-1" points="1727.44 696.01 1740.37 708.44 1754.76 694.55"/><polyline class="cls-1" points="1724.04 702.52 1740.37 718.34 1758.7 700.52"/><polyline class="cls-1" points="1721.4 708.07 1740.1 726.26 1761.73 705.14"/><line class="cls-1" x1="1717.58" y1="715.7" x2="1729.43" y2="727.68"/><line class="cls-1" x1="1767.58" y1="713.67" x2="1753.51" y2="726.22"/><polygon class="cls-1" points="1631.1 641.15 1599.11 643.1 1567.13 645.04 1581.44 616.37 1595.75 587.69 1613.43 614.42 1631.1 641.15"/><polyline class="cls-1" points="1590.54 598.13 1596.6 603.68 1602.66 598.14"/><polyline class="cls-1" points="1588.42 602.47 1596.6 610.14 1605.06 602.19"/><polyline class="cls-1" points="1586.13 607.48 1596.45 617.31 1607.92 606.35"/><polyline class="cls-1" points="1583.52 612.25 1596.45 624.68 1610.85 610.79"/><polyline class="cls-1" points="1580.13 618.76 1596.45 634.58 1614.79 616.76"/><polyline class="cls-1" points="1577.49 624.31 1596.18 642.5 1617.82 621.38"/><line class="cls-1" x1="1573.67" y1="631.94" x2="1585.51" y2="643.92"/><line class="cls-1" x1="1623.67" y1="629.92" x2="1609.6" y2="642.46"/><polygon class="cls-1" points="1769.23 533.6 1737.24 535.54 1705.26 537.48 1719.57 508.81 1733.88 480.14 1751.56 506.87 1769.23 533.6"/><polyline class="cls-1" points="1728.67 490.58 1734.73 496.13 1740.79 490.58"/><polyline class="cls-1" points="1726.55 494.91 1734.73 502.59 1743.19 494.63"/><polyline class="cls-1" points="1724.26 499.93 1734.58 509.75 1746.05 498.8"/><polyline class="cls-1" points="1721.65 504.7 1734.58 517.12 1748.98 503.24"/><polyline class="cls-1" points="1718.26 511.2 1734.58 527.03 1752.92 509.21"/><polyline class="cls-1" points="1715.62 516.76 1734.31 534.95 1755.95 513.82"/><line class="cls-1" x1="1711.8" y1="524.38" x2="1723.64" y2="536.37"/><line class="cls-1" x1="1761.8" y1="522.36" x2="1747.73" y2="534.9"/><polygon class="cls-1" points="1905.23 431.36 1873.25 433.3 1841.26 435.24 1855.57 406.57 1869.88 377.9 1887.56 404.63 1905.23 431.36"/><polyline class="cls-1" points="1864.67 388.34 1870.73 393.89 1876.79 388.34"/><polyline class="cls-1" points="1862.55 392.67 1870.73 400.35 1879.2 392.39"/><polyline class="cls-1" points="1860.26 397.69 1870.59 407.51 1882.05 396.56"/><polyline class="cls-1" points="1857.66 402.46 1870.59 414.89 1884.98 401"/><polyline class="cls-1" points="1854.26 408.96 1870.59 424.79 1888.92 406.97"/><polyline class="cls-1" points="1851.62 414.52 1870.32 432.71 1891.95 411.58"/><line class="cls-1" x1="1847.8" y1="422.15" x2="1859.65" y2="434.13"/><line class="cls-1" x1="1897.8" y1="420.12" x2="1883.73" y2="432.66"/><polygon class="cls-1" points="1784.9 324.09 1752.92 326.03 1720.93 327.97 1735.24 299.3 1749.55 270.63 1767.23 297.36 1784.9 324.09"/><polyline class="cls-1" points="1744.34 281.07 1750.4 286.62 1756.46 281.07"/><polyline class="cls-1" points="1742.22 285.4 1750.4 293.08 1758.86 285.12"/><polyline class="cls-1" points="1739.93 290.42 1750.26 300.24 1761.72 289.29"/><polyline class="cls-1" points="1737.33 295.19 1750.26 307.62 1764.65 293.73"/><polyline class="cls-1" points="1733.93 301.69 1750.26 317.52 1768.59 299.7"/><polyline class="cls-1" points="1731.29 307.25 1749.99 325.44 1771.62 304.31"/><line class="cls-1" x1="1727.47" y1="314.88" x2="1739.32" y2="326.86"/><line class="cls-1" x1="1777.47" y1="312.85" x2="1763.4" y2="325.39"/><polygon class="cls-1" points="1639.9 431.12 1607.92 433.06 1575.93 435 1590.24 406.33 1604.55 377.66 1622.23 404.39 1639.9 431.12"/><polyline class="cls-1" points="1599.34 388.09 1605.4 393.65 1611.46 388.1"/><polyline class="cls-1" points="1597.22 392.43 1605.4 400.11 1613.87 392.15"/><polyline class="cls-1" points="1594.93 397.44 1605.26 407.27 1616.72 396.32"/><polyline class="cls-1" points="1592.33 402.22 1605.26 414.64 1619.65 400.76"/><polyline class="cls-1" points="1588.93 408.72 1605.26 424.55 1623.59 406.72"/><polyline class="cls-1" points="1586.29 414.27 1604.99 432.46 1626.62 411.34"/><line class="cls-1" x1="1582.47" y1="421.9" x2="1594.32" y2="433.89"/><line class="cls-1" x1="1632.47" y1="419.88" x2="1618.4" y2="432.42"/><polygon class="cls-1" points="1505.81 526 1473.82 527.95 1441.83 529.89 1456.14 501.22 1470.45 472.54 1488.13 499.27 1505.81 526"/><polyline class="cls-1" points="1465.24 482.98 1471.3 488.54 1477.36 482.99"/><polyline class="cls-1" points="1463.13 487.32 1471.3 494.99 1479.77 487.04"/><polyline class="cls-1" points="1460.83 492.33 1471.16 502.16 1482.62 491.2"/><polyline class="cls-1" points="1458.23 497.1 1471.16 509.53 1485.56 495.64"/><polyline class="cls-1" points="1454.83 503.61 1471.16 519.43 1489.49 501.61"/><polyline class="cls-1" points="1452.2 509.16 1470.89 527.35 1492.52 506.23"/><line class="cls-1" x1="1448.37" y1="516.79" x2="1460.22" y2="528.77"/><line class="cls-1" x1="1498.38" y1="514.77" x2="1484.3" y2="527.31"/><polygon class="cls-1" points="1351.51 426.35 1319.53 428.29 1287.54 430.23 1301.85 401.56 1316.16 372.89 1333.84 399.62 1351.51 426.35"/><polyline class="cls-1" points="1310.95 383.32 1317.01 388.88 1323.07 383.33"/><polyline class="cls-1" points="1308.83 387.66 1317.01 395.34 1325.48 387.38"/><polyline class="cls-1" points="1306.54 392.68 1316.87 402.5 1328.33 391.55"/><polyline class="cls-1" points="1303.94 397.45 1316.87 409.87 1331.26 395.99"/><polyline class="cls-1" points="1300.54 403.95 1316.87 419.78 1335.2 401.95"/><polyline class="cls-1" points="1297.9 409.51 1316.6 427.7 1338.23 406.57"/><line class="cls-1" x1="1294.08" y1="417.13" x2="1305.93" y2="429.12"/><line class="cls-1" x1="1344.08" y1="415.11" x2="1330.01" y2="427.65"/><polygon class="cls-1" points="1235.09 535.31 1203.1 537.25 1171.12 539.2 1185.43 510.52 1199.74 481.85 1217.41 508.58 1235.09 535.31"/><polyline class="cls-1" points="1194.53 492.29 1200.59 497.84 1206.64 492.29"/><polyline class="cls-1" points="1192.41 496.62 1200.59 504.3 1209.05 496.34"/><polyline class="cls-1" points="1190.11 501.64 1200.44 511.46 1211.91 500.51"/><polyline class="cls-1" points="1187.51 506.41 1200.44 518.84 1214.84 504.95"/><polyline class="cls-1" points="1184.12 512.92 1200.44 528.74 1218.78 510.92"/><polyline class="cls-1" points="1181.48 518.47 1200.17 536.66 1221.81 515.53"/><line class="cls-1" x1="1177.65" y1="526.1" x2="1189.5" y2="538.08"/><line class="cls-1" x1="1227.66" y1="524.07" x2="1213.59" y2="536.62"/><polygon class="cls-1" points="1095.63 431.12 1063.64 433.06 1031.66 435 1045.97 406.33 1060.28 377.66 1077.96 404.39 1095.63 431.12"/><polyline class="cls-1" points="1055.07 388.09 1061.13 393.65 1067.19 388.1"/><polyline class="cls-1" points="1052.95 392.43 1061.13 400.11 1069.59 392.15"/><polyline class="cls-1" points="1050.66 397.44 1060.98 407.27 1072.45 396.32"/><polyline class="cls-1" points="1048.05 402.22 1060.98 414.64 1075.38 400.76"/><polyline class="cls-1" points="1044.66 408.72 1060.98 424.55 1079.32 406.72"/><polyline class="cls-1" points="1042.02 414.27 1060.71 432.46 1082.35 411.34"/><line class="cls-1" x1="1038.2" y1="421.9" x2="1050.04" y2="433.89"/><line class="cls-1" x1="1088.2" y1="419.88" x2="1074.13" y2="432.42"/><polygon class="cls-1" points="1221.16 324.73 1189.17 326.67 1157.18 328.62 1171.49 299.94 1185.8 271.27 1203.48 298 1221.16 324.73"/><polyline class="cls-1" points="1180.59 281.71 1186.65 287.26 1192.71 281.72"/><polyline class="cls-1" points="1178.48 286.05 1186.65 293.72 1195.12 285.77"/><polyline class="cls-1" points="1176.18 291.06 1186.51 300.88 1197.97 289.93"/><polyline class="cls-1" points="1173.58 295.83 1186.51 308.26 1200.91 294.37"/><polyline class="cls-1" points="1170.18 302.34 1186.51 318.16 1204.84 300.34"/><polyline class="cls-1" points="1167.55 307.89 1186.24 326.08 1207.87 304.96"/><line class="cls-1" x1="1163.72" y1="315.52" x2="1175.57" y2="327.5"/><line class="cls-1" x1="1213.73" y1="313.49" x2="1199.65" y2="326.04"/><polygon class="cls-1" points="1368.89 213.09 1336.91 215.03 1304.92 216.98 1319.23 188.3 1333.54 159.63 1351.22 186.36 1368.89 213.09"/><polyline class="cls-1" points="1328.33 170.07 1334.39 175.62 1340.45 170.08"/><polyline class="cls-1" points="1326.21 174.41 1334.39 182.08 1342.85 174.13"/><polyline class="cls-1" points="1323.92 179.42 1334.24 189.24 1345.71 178.29"/><polyline class="cls-1" points="1321.31 184.19 1334.24 196.62 1348.64 182.73"/><polyline class="cls-1" points="1317.92 190.7 1334.24 206.52 1352.58 188.7"/><polyline class="cls-1" points="1315.28 196.25 1333.97 214.44 1355.61 193.32"/><line class="cls-1" x1="1311.46" y1="203.88" x2="1323.31" y2="215.86"/><line class="cls-1" x1="1361.46" y1="201.85" x2="1347.39" y2="214.4"/><polygon class="cls-1" points="1505.81 332.4 1473.82 334.35 1441.83 336.29 1456.14 307.62 1470.45 278.94 1488.13 305.67 1505.81 332.4"/><polyline class="cls-1" points="1465.24 289.38 1471.3 294.93 1477.36 289.39"/><polyline class="cls-1" points="1463.13 293.72 1471.3 301.39 1479.77 293.44"/><polyline class="cls-1" points="1460.83 298.73 1471.16 308.56 1482.62 297.6"/><polyline class="cls-1" points="1458.23 303.5 1471.16 315.93 1485.56 302.04"/><polyline class="cls-1" points="1454.83 310.01 1471.16 325.83 1489.49 308.01"/><polyline class="cls-1" points="1452.2 315.56 1470.89 333.75 1492.52 312.63"/><line class="cls-1" x1="1448.37" y1="323.19" x2="1460.22" y2="335.17"/><line class="cls-1" x1="1498.38" y1="321.17" x2="1484.3" y2="333.71"/><polygon class="cls-1" points="1614.46 222.4 1582.47 224.34 1550.48 226.28 1564.79 197.61 1579.1 168.94 1596.78 195.67 1614.46 222.4"/><polyline class="cls-1" points="1573.89 179.37 1579.95 184.93 1586.01 179.38"/><polyline class="cls-1" points="1571.77 183.71 1579.95 191.39 1588.42 183.43"/><polyline class="cls-1" points="1569.48 188.73 1579.81 198.55 1591.27 187.6"/><polyline class="cls-1" points="1566.88 193.5 1579.81 205.92 1594.21 192.04"/><polyline class="cls-1" points="1563.48 200 1579.81 215.83 1598.14 198"/><polyline class="cls-1" points="1560.84 205.56 1579.54 223.75 1601.17 202.62"/><line class="cls-1" x1="1557.02" y1="213.18" x2="1568.87" y2="225.17"/><line class="cls-1" x1="1607.02" y1="211.16" x2="1592.95" y2="223.7"/><polygon class="cls-1" points="1465.02 126.81 1433.03 128.75 1401.04 130.69 1415.35 102.02 1429.66 73.35 1447.34 100.08 1465.02 126.81"/><polyline class="cls-1" points="1424.45 83.79 1430.51 89.34 1436.57 83.79"/><polyline class="cls-1" points="1422.34 88.12 1430.51 95.8 1438.98 87.84"/><polyline class="cls-1" points="1420.04 93.14 1430.37 102.96 1441.83 92.01"/><polyline class="cls-1" points="1417.44 97.91 1430.37 110.34 1444.77 96.45"/><polyline class="cls-1" points="1414.04 104.41 1430.37 120.24 1448.7 102.42"/><polyline class="cls-1" points="1411.41 109.97 1430.1 128.16 1451.73 107.03"/><line class="cls-1" x1="1407.58" y1="117.6" x2="1419.43" y2="129.58"/><line class="cls-1" x1="1457.59" y1="115.57" x2="1443.51" y2="128.11"/><polygon class="cls-1" points="1753.64 122.51 1721.65 124.46 1689.67 126.4 1703.98 97.73 1718.29 69.05 1735.96 95.78 1753.64 122.51"/><polyline class="cls-1" points="1713.08 79.49 1719.14 85.05 1725.19 79.5"/><polyline class="cls-1" points="1710.96 83.83 1719.14 91.5 1727.6 83.55"/><polyline class="cls-1" points="1708.66 88.84 1718.99 98.67 1730.46 87.71"/><polyline class="cls-1" points="1706.06 93.61 1718.99 106.04 1733.39 92.15"/><polyline class="cls-1" points="1702.67 100.12 1718.99 115.94 1737.33 98.12"/><polyline class="cls-1" points="1700.03 105.67 1718.72 123.86 1740.36 102.74"/><line class="cls-1" x1="1696.2" y1="113.3" x2="1708.05" y2="125.28"/><line class="cls-1" x1="1746.21" y1="111.28" x2="1732.14" y2="123.82"/><polygon class="cls-1" points="1210.46 123.45 1178.48 125.4 1146.49 127.34 1160.8 98.67 1175.11 69.99 1192.79 96.72 1210.46 123.45"/><polyline class="cls-1" points="1169.9 80.43 1175.96 85.99 1182.02 80.44"/><polyline class="cls-1" points="1167.78 84.77 1175.96 92.44 1184.42 84.49"/><polyline class="cls-1" points="1165.49 89.78 1175.81 99.61 1187.28 88.65"/><polyline class="cls-1" points="1162.88 94.55 1175.81 106.98 1190.21 93.09"/><polyline class="cls-1" points="1159.49 101.06 1175.81 116.88 1194.15 99.06"/><polyline class="cls-1" points="1156.85 106.61 1175.55 124.8 1197.18 103.68"/><line class="cls-1" x1="1153.03" y1="114.24" x2="1164.88" y2="126.22"/><line class="cls-1" x1="1203.03" y1="112.22" x2="1188.96" y2="124.76"/><polygon class="cls-1" points="1353.3 24.79 1321.31 26.73 1289.33 28.67 1303.64 0 1317.95 -28.67 1335.62 -1.94 1353.3 24.79"/><polyline class="cls-1" points="1308.33 -8.88 1318.65 .94 1330.12 -10.01"/><polyline class="cls-1" points="1305.72 -4.11 1318.65 8.31 1333.05 -5.57"/><polyline class="cls-1" points="1302.33 2.39 1318.65 18.22 1336.99 .39"/><polyline class="cls-1" points="1299.69 7.95 1318.38 26.14 1340.02 5.01"/><line class="cls-1" x1="1295.86" y1="15.57" x2="1307.71" y2="27.56"/><line class="cls-1" x1="1345.87" y1="13.55" x2="1331.8" y2="26.09"/><polygon class="cls-1" points="1090.99 1051.42 1059.01 1053.36 1027.02 1055.3 1041.33 1026.63 1055.64 997.96 1073.32 1024.69 1090.99 1051.42"/><polyline class="cls-1" points="1050.43 1008.39 1056.49 1013.95 1062.55 1008.4"/><polyline class="cls-1" points="1048.31 1012.73 1056.49 1020.41 1064.96 1012.45"/><polyline class="cls-1" points="1046.02 1017.74 1056.35 1027.57 1067.81 1016.62"/><polyline class="cls-1" points="1043.42 1022.52 1056.35 1034.94 1070.74 1021.06"/><polyline class="cls-1" points="1040.02 1029.02 1056.35 1044.85 1074.68 1027.02"/><polyline class="cls-1" points="1037.38 1034.57 1056.08 1052.76 1077.71 1031.64"/><line class="cls-1" x1="1033.56" y1="1042.2" x2="1045.41" y2="1054.19"/><line class="cls-1" x1="1083.56" y1="1040.18" x2="1069.49" y2="1052.72"/><polygon class="cls-1" points="1226.27 936.25 1194.28 938.19 1162.29 940.14 1176.6 911.46 1190.91 882.79 1208.59 909.52 1226.27 936.25"/><polyline class="cls-1" points="1185.7 893.23 1191.76 898.78 1197.82 893.24"/><polyline class="cls-1" points="1183.58 897.57 1191.76 905.24 1200.23 897.29"/><polyline class="cls-1" points="1181.29 902.58 1191.62 912.4 1203.08 901.45"/><polyline class="cls-1" points="1178.69 907.35 1191.62 919.78 1206.02 905.89"/><polyline class="cls-1" points="1175.29 913.86 1191.62 929.68 1209.95 911.86"/><polyline class="cls-1" points="1172.66 919.41 1191.35 937.6 1212.98 916.48"/><line class="cls-1" x1="1168.83" y1="927.04" x2="1180.68" y2="939.02"/><line class="cls-1" x1="1218.83" y1="925.01" x2="1204.76" y2="937.56"/><polygon class="cls-1" points="1360.09 1051.42 1328.1 1053.36 1296.12 1055.3 1310.43 1026.63 1324.74 997.96 1342.41 1024.69 1360.09 1051.42"/><polyline class="cls-1" points="1319.53 1008.39 1325.59 1013.95 1331.64 1008.4"/><polyline class="cls-1" points="1317.41 1012.73 1325.59 1020.41 1334.05 1012.45"/><polyline class="cls-1" points="1315.11 1017.74 1325.44 1027.57 1336.91 1016.62"/><polyline class="cls-1" points="1312.51 1022.52 1325.44 1034.94 1339.84 1021.06"/><polyline class="cls-1" points="1309.11 1029.02 1325.44 1044.85 1343.77 1027.02"/><polyline class="cls-1" points="1306.48 1034.57 1325.17 1052.76 1346.81 1031.64"/><line class="cls-1" x1="1302.65" y1="1042.2" x2="1314.5" y2="1054.19"/><line class="cls-1" x1="1352.66" y1="1040.18" x2="1338.58" y2="1052.72"/><polygon class="cls-1" points="389.91 733.55 357.92 735.5 325.94 737.44 340.25 708.77 354.56 680.09 372.23 706.82 389.91 733.55"/><polyline class="cls-1" points="349.35 690.53 355.41 696.09 361.46 690.54"/><polyline class="cls-1" points="347.23 694.87 355.41 702.54 363.87 694.59"/><polyline class="cls-1" points="344.93 699.88 355.26 709.71 366.73 698.75"/><polyline class="cls-1" points="342.33 704.65 355.26 717.08 369.66 703.19"/><polyline class="cls-1" points="338.94 711.16 355.26 726.98 373.59 709.16"/><polyline class="cls-1" points="336.3 716.71 354.99 734.9 376.63 713.78"/><line class="cls-1" x1="332.47" y1="724.34" x2="344.32" y2="736.32"/><line class="cls-1" x1="382.48" y1="722.32" x2="368.41" y2="734.86"/><polygon class="cls-1" points="542.44 638.84 510.46 640.79 478.47 642.73 492.78 614.06 507.09 585.38 524.77 612.11 542.44 638.84"/><polyline class="cls-1" points="501.88 595.82 507.94 601.37 514 595.83"/><polyline class="cls-1" points="499.76 600.16 507.94 607.83 516.4 599.88"/><polyline class="cls-1" points="497.47 605.17 507.79 615 519.26 604.04"/><polyline class="cls-1" points="494.86 609.94 507.79 622.37 522.19 608.48"/><polyline class="cls-1" points="491.47 616.45 507.79 632.27 526.13 614.45"/><polyline class="cls-1" points="488.83 622 507.52 640.19 529.16 619.07"/><line class="cls-1" x1="485.01" y1="629.63" x2="496.86" y2="641.61"/><line class="cls-1" x1="535.01" y1="627.61" x2="520.94" y2="640.15"/><polygon class="cls-1" points="682.15 532.23 650.16 534.17 618.17 536.11 632.48 507.44 646.8 478.77 664.47 505.5 682.15 532.23"/><polyline class="cls-1" points="641.59 489.21 647.64 494.76 653.7 489.21"/><polyline class="cls-1" points="639.47 493.54 647.64 501.22 656.11 493.26"/><polyline class="cls-1" points="637.17 498.56 647.5 508.38 658.96 497.43"/><polyline class="cls-1" points="634.57 503.33 647.5 515.75 661.9 501.87"/><polyline class="cls-1" points="631.17 509.83 647.5 525.66 665.83 507.84"/><polyline class="cls-1" points="628.54 515.39 647.23 533.58 668.87 512.45"/><line class="cls-1" x1="624.71" y1="523.01" x2="636.56" y2="535"/><line class="cls-1" x1="674.72" y1="520.99" x2="660.64" y2="533.53"/><polygon class="cls-1" points="823.32 421.81 791.34 423.75 759.35 425.7 773.66 397.02 787.97 368.35 805.65 395.08 823.32 421.81"/><polyline class="cls-1" points="782.76 378.79 788.82 384.34 794.88 378.8"/><polyline class="cls-1" points="780.64 383.13 788.82 390.8 797.29 382.85"/><polyline class="cls-1" points="778.35 388.14 788.68 397.96 800.14 387.01"/><polyline class="cls-1" points="775.75 392.91 788.68 405.34 803.07 391.45"/><polyline class="cls-1" points="772.35 399.42 788.68 415.24 807.01 397.42"/><polyline class="cls-1" points="769.71 404.97 788.41 423.16 810.04 402.03"/><line class="cls-1" x1="765.89" y1="412.6" x2="777.74" y2="424.58"/><line class="cls-1" x1="815.89" y1="410.57" x2="801.82" y2="423.12"/><polygon class="cls-1" points="951.27 323.69 919.28 325.64 887.29 327.58 901.6 298.91 915.91 270.23 933.59 296.96 951.27 323.69"/><polyline class="cls-1" points="910.7 280.67 916.76 286.23 922.82 280.68"/><polyline class="cls-1" points="908.58 285.01 916.76 292.68 925.23 284.73"/><polyline class="cls-1" points="906.29 290.02 916.62 299.85 928.08 288.89"/><polyline class="cls-1" points="903.69 294.79 916.62 307.22 931.02 293.33"/><polyline class="cls-1" points="900.29 301.3 916.62 317.12 934.95 299.3"/><polyline class="cls-1" points="897.66 306.85 916.35 325.04 937.98 303.92"/><line class="cls-1" x1="893.83" y1="314.48" x2="905.68" y2="326.46"/><line class="cls-1" x1="943.83" y1="312.46" x2="929.76" y2="325"/><polygon class="cls-1" points="1104.21 231.31 1072.22 233.25 1040.23 235.19 1054.54 206.52 1068.85 177.85 1086.53 204.58 1104.21 231.31"/><polyline class="cls-1" points="1063.64 188.29 1069.7 193.84 1075.76 188.29"/><polyline class="cls-1" points="1061.53 192.62 1069.7 200.3 1078.17 192.34"/><polyline class="cls-1" points="1059.23 197.64 1069.56 207.46 1081.02 196.51"/><polyline class="cls-1" points="1056.63 202.41 1069.56 214.83 1083.96 200.95"/><polyline class="cls-1" points="1053.23 208.91 1069.56 224.74 1087.89 206.92"/><polyline class="cls-1" points="1050.6 214.47 1069.29 232.66 1090.92 211.53"/><line class="cls-1" x1="1046.77" y1="222.09" x2="1058.62" y2="234.08"/><line class="cls-1" x1="1096.78" y1="220.07" x2="1082.7" y2="232.61"/><polygon class="cls-1" points="949.81 117.5 917.82 119.45 885.83 121.39 900.14 92.72 914.45 64.04 932.13 90.77 949.81 117.5"/><polyline class="cls-1" points="909.24 74.48 915.3 80.04 921.36 74.49"/><polyline class="cls-1" points="907.12 78.82 915.3 86.49 923.77 78.54"/><polyline class="cls-1" points="904.83 83.83 915.16 93.66 926.62 82.7"/><polyline class="cls-1" points="902.23 88.6 915.16 101.03 929.56 87.14"/><polyline class="cls-1" points="898.83 95.11 915.16 110.93 933.49 93.11"/><polyline class="cls-1" points="896.2 100.66 914.89 118.85 936.52 97.73"/><line class="cls-1" x1="892.37" y1="108.29" x2="904.22" y2="120.27"/><line class="cls-1" x1="942.38" y1="106.27" x2="928.3" y2="118.81"/><polygon class="cls-1" points="814.75 231.31 782.76 233.25 750.78 235.19 765.09 206.52 779.4 177.85 797.07 204.58 814.75 231.31"/><polyline class="cls-1" points="774.19 188.29 780.25 193.84 786.3 188.29"/><polyline class="cls-1" points="772.07 192.62 780.25 200.3 788.71 192.34"/><polyline class="cls-1" points="769.77 197.64 780.1 207.46 791.57 196.51"/><polyline class="cls-1" points="767.17 202.41 780.1 214.83 794.5 200.95"/><polyline class="cls-1" points="763.77 208.91 780.1 224.74 798.43 206.92"/><polyline class="cls-1" points="761.14 214.47 779.83 232.66 801.47 211.53"/><line class="cls-1" x1="757.31" y1="222.09" x2="769.16" y2="234.08"/><line class="cls-1" x1="807.32" y1="220.07" x2="793.24" y2="232.61"/><polygon class="cls-1" points="264.5 225.08 232.51 227.03 200.53 228.97 214.84 200.3 229.15 171.62 246.82 198.35 264.5 225.08"/><polyline class="cls-1" points="223.94 182.06 230 187.62 236.06 182.07"/><polyline class="cls-1" points="221.82 186.4 230 194.07 238.46 186.12"/><polyline class="cls-1" points="219.53 191.41 229.85 201.24 241.32 190.28"/><polyline class="cls-1" points="216.92 196.18 229.85 208.61 244.25 194.72"/><polyline class="cls-1" points="213.53 202.69 229.85 218.51 248.19 200.69"/><polyline class="cls-1" points="210.89 208.24 229.58 226.43 251.22 205.31"/><line class="cls-1" x1="207.06" y1="215.87" x2="218.91" y2="227.85"/><line class="cls-1" x1="257.07" y1="213.85" x2="243" y2="226.39"/><polygon class="cls-1" points="130.69 325.06 98.7 327.01 66.71 328.95 81.03 300.28 95.34 271.6 113.01 298.33 130.69 325.06"/><polyline class="cls-1" points="90.13 282.04 96.18 287.6 102.24 282.05"/><polyline class="cls-1" points="88.01 286.38 96.18 294.05 104.65 286.1"/><polyline class="cls-1" points="85.71 291.39 96.04 301.22 107.5 290.26"/><polyline class="cls-1" points="83.11 296.16 96.04 308.59 110.44 294.7"/><polyline class="cls-1" points="79.71 302.67 96.04 318.49 114.37 300.67"/><polyline class="cls-1" points="77.08 308.22 95.77 326.41 117.41 305.29"/><line class="cls-1" x1="73.25" y1="315.85" x2="85.1" y2="327.83"/><line class="cls-1" x1="123.26" y1="313.83" x2="109.18" y2="326.37"/><polygon class="cls-1" points="405.59 117.5 373.6 119.45 341.62 121.39 355.93 92.72 370.24 64.04 387.92 90.77 405.59 117.5"/><polyline class="cls-1" points="365.03 74.48 371.09 80.04 377.15 74.49"/><polyline class="cls-1" points="362.91 78.82 371.09 86.49 379.55 78.54"/><polyline class="cls-1" points="360.62 83.83 370.94 93.66 382.41 82.7"/><polyline class="cls-1" points="358.01 88.6 370.94 101.03 385.34 87.14"/><polyline class="cls-1" points="354.62 95.11 370.94 110.93 389.28 93.11"/><polyline class="cls-1" points="351.98 100.66 370.67 118.85 392.31 97.73"/><line class="cls-1" x1="348.16" y1="108.29" x2="360.01" y2="120.27"/><line class="cls-1" x1="398.16" y1="106.27" x2="384.09" y2="118.81"/><polygon class="cls-1" points="130.69 125.82 98.7 127.76 66.71 129.7 81.03 101.03 95.34 72.36 113.01 99.09 130.69 125.82"/><polyline class="cls-1" points="90.13 82.79 96.18 88.35 102.24 82.8"/><polyline class="cls-1" points="88.01 87.13 96.18 94.81 104.65 86.85"/><polyline class="cls-1" points="85.71 92.15 96.04 101.97 107.5 91.02"/><polyline class="cls-1" points="83.11 96.92 96.04 109.34 110.44 95.46"/><polyline class="cls-1" points="79.71 103.42 96.04 119.25 114.37 101.42"/><polyline class="cls-1" points="77.08 108.98 95.77 127.17 117.41 106.04"/><line class="cls-1" x1="73.25" y1="116.6" x2="85.1" y2="128.59"/><line class="cls-1" x1="123.26" y1="114.58" x2="109.18" y2="127.12"/></svg>