<?xml version="1.0" encoding="UTF-8"?><svg id="Calque_3" xmlns="http://www.w3.org/2000/svg" viewBox="0 0 1920 1080"><path d="m187.38,41.87c13.4.32,26.81.64,40.21.96l-2.16-3.76c-9.28,13.72-10.25,31.8-3.08,46.62,3.54,7.32,8.74,13.99,10.78,21.97,1.68,6.62.41,13.69-3.03,19.55-3.44,5.87-8.96,10.25-15.6,11.87s-13.76.5-19.62-2.83c-13.25-7.53-15.11-24.02-13.19-37.73,2.48-17.61,11.08-34.26,9.99-52.36-.14-2.38-.46-4.75-.94-7.09-.27-1.32-1.84-2.09-3.08-1.75-1.38.38-2.02,1.75-1.75,3.08,3.76,18.5-5.52,36.26-8.63,54.12-2.59,14.86-1.88,32.94,10.91,43.19,12.01,9.64,30.27,9.53,41.32-1.59,5.31-5.34,8.56-12.52,9.24-20,.76-8.42-2.69-16.08-6.74-23.23-2.13-3.76-4.39-7.46-6.14-11.42-1.56-3.54-2.61-7.42-3.04-11.27-.9-7.96.36-16.21,3.89-23.42.88-1.8,1.89-3.52,3.01-5.18s-.37-3.72-2.16-3.76c-13.4-.32-26.81-.64-40.21-.96-3.22-.08-3.22,4.92,0,5h0Z"/><path d="m188.83,56.1c-6.17-3.96-14.79-2.4-19.85,2.68-5.75,5.77-5.06,14.59.01,20.54,2.84,3.33,7.03,5.43,11.42,5.47,3.22.03,3.22-4.97,0-5-5.25-.05-10-4.89-10.53-10.02s3.47-9.44,8.47-10.62c2.71-.64,5.53-.29,7.96,1.27,2.72,1.74,5.23-2.58,2.52-4.32h0Z"/><path d="m221.01,77.87c6.63,0,13.66,1.59,18.49,6.41,4.04,4.03,6.31,10.29,3.65,15.69-1.35,2.74-3.56,4.93-6.55,5.76s-1.78,5.68,1.33,4.82c7.25-2.01,12.03-9.67,11.31-17.06-.79-8.08-6.56-14.72-13.87-17.87-4.54-1.95-9.43-2.74-14.36-2.75-3.22,0-3.22,5,0,5h0Z"/><path d="m358.92,138.65c13.4.32,26.81.64,40.21.96l-2.16-3.76c-9.28,13.72-10.25,31.8-3.08,46.62,3.54,7.32,8.74,13.99,10.78,21.97,1.68,6.62.41,13.69-3.03,19.55-3.44,5.87-8.96,10.25-15.6,11.87s-13.76.5-19.62-2.83c-13.25-7.53-15.11-24.02-13.19-37.73,2.48-17.61,11.08-34.26,9.99-52.36-.14-2.38-.46-4.75-.94-7.09-.27-1.32-1.84-2.09-3.08-1.75-1.38.38-2.02,1.75-1.75,3.08,3.76,18.5-5.52,36.26-8.63,54.12-2.59,14.86-1.88,32.94,10.91,43.19,12.01,9.64,30.27,9.53,41.32-1.59,5.31-5.34,8.56-12.52,9.24-20,.76-8.42-2.69-16.08-6.74-23.23-2.13-3.76-4.39-7.46-6.14-11.42-1.56-3.54-2.61-7.42-3.04-11.27-.9-7.96.36-16.21,3.89-23.42.88-1.8,1.89-3.52,3.01-5.18s-.37-3.72-2.16-3.76c-13.4-.32-26.81-.64-40.21-.96-3.22-.08-3.22,4.92,0,5h0Z"/><path d="m360.37,152.89c-6.17-3.96-14.79-2.4-19.85,2.68-5.75,5.77-5.06,14.59.01,20.54,2.84,3.33,7.03,5.43,11.42,5.47,3.22.03,3.22-4.97,0-5-5.25-.05-10-4.89-10.53-10.02s3.47-9.44,8.47-10.62c2.71-.64,5.53-.29,7.96,1.27,2.72,1.74,5.23-2.58,2.52-4.32h0Z"/><path d="m392.55,174.66c6.63,0,13.66,1.59,18.49,6.41,4.04,4.03,6.31,10.29,3.65,15.69-1.35,2.74-3.56,4.93-6.55,5.76s-1.78,5.68,1.33,4.82c7.25-2.01,12.03-9.67,11.31-17.06-.79-8.08-6.56-14.72-13.87-17.87-4.54-1.95-9.43-2.74-14.36-2.75-3.22,0-3.22,5,0,5h0Z"/><path d="m528.7,31.47c13.4.32,26.81.64,40.21.96l-2.16-3.76c-9.28,13.72-10.25,31.8-3.08,46.62,3.54,7.32,8.74,13.99,10.78,21.97,1.68,6.62.41,13.69-3.03,19.55-3.44,5.87-8.96,10.25-15.6,11.87s-13.76.5-19.62-2.83c-13.25-7.53-15.11-24.02-13.19-37.73,2.48-17.61,11.08-34.26,9.99-52.36-.14-2.38-.46-4.75-.94-7.09-.27-1.32-1.84-2.09-3.08-1.75-1.38.38-2.02,1.75-1.75,3.08,3.76,18.5-5.52,36.26-8.63,54.12-2.59,14.86-1.88,32.94,10.91,43.19,12.01,9.64,30.27,9.53,41.32-1.59,5.31-5.34,8.56-12.52,9.24-20,.76-8.42-2.69-16.08-6.74-23.23-2.13-3.76-4.39-7.46-6.14-11.42-1.56-3.54-2.61-7.42-3.04-11.27-.9-7.96.36-16.21,3.89-23.42.88-1.8,1.89-3.52,3.01-5.18s-.37-3.72-2.16-3.76c-13.4-.32-26.81-.64-40.21-.96-3.22-.08-3.22,4.92,0,5h0Z"/><path d="m530.15,45.7c-6.17-3.96-14.79-2.4-19.85,2.68-5.75,5.77-5.06,14.59.01,20.54,2.84,3.33,7.03,5.43,11.42,5.47,3.22.03,3.22-4.97,0-5-5.25-.05-10-4.89-10.53-10.02s3.47-9.44,8.47-10.62c2.71-.64,5.53-.29,7.96,1.27,2.72,1.74,5.23-2.58,2.52-4.32h0Z"/><path d="m562.34,67.48c6.63,0,13.66,1.59,18.49,6.41,4.04,4.03,6.31,10.29,3.65,15.69-1.35,2.74-3.56,4.93-6.55,5.76s-1.78,5.68,1.33,4.82c7.25-2.01,12.03-9.67,11.31-17.06-.79-8.08-6.56-14.72-13.87-17.87-4.54-1.95-9.43-2.74-14.36-2.75-3.22,0-3.22,5,0,5h0Z"/><path d="m503.11,251.92c13.4.32,26.81.64,40.21.96l-2.16-3.76c-9.28,13.72-10.25,31.8-3.08,46.62,3.54,7.32,8.74,13.99,10.78,21.97,1.68,6.62.41,13.69-3.03,19.55-3.44,5.87-8.96,10.25-15.6,11.87s-13.76.5-19.62-2.83c-13.25-7.53-15.11-24.02-13.19-37.73,2.48-17.61,11.08-34.26,9.99-52.36-.14-2.38-.46-4.75-.94-7.09-.27-1.32-1.84-2.09-3.08-1.75-1.38.38-2.02,1.75-1.75,3.08,3.76,18.5-5.52,36.26-8.63,54.12-2.59,14.86-1.88,32.94,10.91,43.19,12.01,9.64,30.27,9.53,41.32-1.59,5.31-5.34,8.56-12.52,9.24-20,.76-8.42-2.69-16.08-6.74-23.23-2.13-3.76-4.39-7.46-6.14-11.42-1.56-3.54-2.61-7.42-3.04-11.27-.9-7.96.36-16.21,3.89-23.42.88-1.8,1.89-3.52,3.01-5.18s-.37-3.72-2.16-3.76c-13.4-.32-26.81-.64-40.21-.96-3.22-.08-3.22,4.92,0,5h0Z"/><path d="m504.56,266.15c-6.17-3.96-14.79-2.4-19.85,2.68-5.75,5.77-5.06,14.59.01,20.54,2.84,3.33,7.03,5.43,11.42,5.47,3.22.03,3.22-4.97,0-5-5.25-.05-10-4.89-10.53-10.02s3.47-9.44,8.47-10.62c2.71-.64,5.53-.29,7.96,1.27,2.72,1.74,5.23-2.58,2.52-4.32h0Z"/><path d="m536.75,287.93c6.63,0,13.66,1.59,18.49,6.41,4.04,4.03,6.31,10.29,3.65,15.69-1.35,2.74-3.56,4.93-6.55,5.76s-1.78,5.68,1.33,4.82c7.25-2.01,12.03-9.67,11.31-17.06-.79-8.08-6.56-14.72-13.87-17.87-4.54-1.95-9.43-2.74-14.36-2.75-3.22,0-3.22,5,0,5h0Z"/><path d="m212.83,252.85c13.4.32,26.81.64,40.21.96l-2.16-3.76c-9.28,13.72-10.25,31.8-3.08,46.62,3.54,7.32,8.74,13.99,10.78,21.97,1.68,6.62.41,13.69-3.03,19.55-3.44,5.87-8.96,10.25-15.6,11.87s-13.76.5-19.62-2.83c-13.25-7.53-15.11-24.02-13.19-37.73,2.48-17.61,11.08-34.26,9.99-52.36-.14-2.38-.46-4.75-.94-7.09-.27-1.32-1.84-2.09-3.08-1.75-1.38.38-2.02,1.75-1.75,3.08,3.76,18.5-5.52,36.26-8.63,54.12-2.59,14.86-1.88,32.94,10.91,43.19,12.01,9.64,30.27,9.53,41.32-1.59,5.31-5.34,8.56-12.52,9.24-20,.76-8.42-2.69-16.08-6.74-23.23-2.13-3.76-4.39-7.46-6.14-11.42-1.56-3.54-2.61-7.42-3.04-11.27-.9-7.96.36-16.21,3.89-23.42.88-1.8,1.89-3.52,3.01-5.18s-.37-3.72-2.16-3.76c-13.4-.32-26.81-.64-40.21-.96-3.22-.08-3.22,4.92,0,5h0Z"/><path d="m214.28,267.08c-6.17-3.96-14.79-2.4-19.85,2.68-5.75,5.77-5.06,14.59.01,20.54,2.84,3.33,7.03,5.43,11.42,5.47,3.22.03,3.22-4.97,0-5-5.25-.05-10-4.89-10.53-10.02s3.47-9.44,8.47-10.62c2.71-.64,5.53-.29,7.96,1.27,2.72,1.74,5.23-2.58,2.52-4.32h0Z"/><path d="m246.46,288.86c6.63,0,13.66,1.59,18.49,6.41,4.04,4.03,6.31,10.29,3.65,15.69-1.35,2.74-3.56,4.93-6.55,5.76s-1.78,5.68,1.33,4.82c7.25-2.01,12.03-9.67,11.31-17.06-.79-8.08-6.56-14.72-13.87-17.87-4.54-1.95-9.43-2.74-14.36-2.75-3.22,0-3.22,5,0,5h0Z"/><path d="m84.01,151.33c13.4.32,26.81.64,40.21.96l-2.16-3.76c-9.28,13.72-10.25,31.8-3.08,46.62,3.54,7.32,8.74,13.99,10.78,21.97,1.68,6.62.41,13.69-3.03,19.55-3.44,5.87-8.96,10.25-15.6,11.87s-13.76.5-19.62-2.83c-13.25-7.53-15.11-24.02-13.19-37.73,2.48-17.61,11.08-34.26,9.99-52.36-.14-2.38-.46-4.75-.94-7.09-.27-1.32-1.84-2.09-3.08-1.75-1.38.38-2.02,1.75-1.75,3.08,3.76,18.5-5.52,36.26-8.63,54.12-2.59,14.86-1.88,32.94,10.91,43.19,12.01,9.64,30.27,9.53,41.32-1.59,5.31-5.34,8.56-12.52,9.24-20,.76-8.42-2.69-16.08-6.74-23.23-2.13-3.76-4.39-7.46-6.14-11.42-1.56-3.54-2.61-7.42-3.04-11.27-.9-7.96.36-16.21,3.89-23.42.88-1.8,1.89-3.52,3.01-5.18s-.37-3.72-2.16-3.76c-13.4-.32-26.81-.64-40.21-.96-3.22-.08-3.22,4.92,0,5h0Z"/><path d="m85.47,165.57c-6.17-3.96-14.79-2.4-19.85,2.68-5.75,5.77-5.06,14.59.01,20.54,2.84,3.33,7.03,5.43,11.42,5.47,3.22.03,3.22-4.97,0-5-5.25-.05-10-4.89-10.53-10.02s3.47-9.44,8.47-10.62c2.71-.64,5.53-.29,7.96,1.27,2.72,1.74,5.23-2.58,2.52-4.32h0Z"/><path d="m117.65,187.34c6.63,0,13.66,1.59,18.49,6.41,4.04,4.03,6.31,10.29,3.65,15.69-1.35,2.74-3.56,4.93-6.55,5.76s-1.78,5.68,1.33,4.82c7.25-2.01,12.03-9.67,11.31-17.06-.79-8.08-6.56-14.72-13.87-17.87-4.54-1.95-9.43-2.74-14.36-2.75-3.22,0-3.22,5,0,5h0Z"/><path d="m63.42,358c13.4.32,26.81.64,40.21.96l-2.16-3.76c-9.28,13.72-10.25,31.8-3.08,46.62,3.54,7.32,8.74,13.99,10.78,21.97,1.68,6.62.41,13.69-3.03,19.55-3.44,5.87-8.96,10.25-15.6,11.87s-13.76.5-19.62-2.83c-13.25-7.53-15.11-24.02-13.19-37.73,2.48-17.61,11.08-34.26,9.99-52.36-.14-2.38-.46-4.75-.94-7.09-.27-1.32-1.84-2.09-3.08-1.75-1.38.38-2.02,1.75-1.75,3.08,3.76,18.5-5.52,36.26-8.63,54.12-2.59,14.86-1.88,32.94,10.91,43.19,12.01,9.64,30.27,9.53,41.32-1.59,5.31-5.34,8.56-12.52,9.24-20,.76-8.42-2.69-16.08-6.74-23.23-2.13-3.76-4.39-7.46-6.14-11.42-1.56-3.54-2.61-7.42-3.04-11.27-.9-7.96.36-16.21,3.89-23.42.88-1.8,1.89-3.52,3.01-5.18s-.37-3.72-2.16-3.76c-13.4-.32-26.81-.64-40.21-.96-3.22-.08-3.22,4.92,0,5h0Z"/><path d="m64.87,372.24c-6.17-3.96-14.79-2.4-19.85,2.68-5.75,5.77-5.06,14.59.01,20.54,2.84,3.33,7.03,5.43,11.42,5.47,3.22.03,3.22-4.97,0-5-5.25-.05-10-4.89-10.53-10.02s3.47-9.44,8.47-10.62c2.71-.64,5.53-.29,7.96,1.27,2.72,1.74,5.23-2.58,2.52-4.32h0Z"/><path d="m97.06,394.01c6.63,0,13.66,1.59,18.49,6.41,4.04,4.03,6.31,10.29,3.65,15.69-1.35,2.74-3.56,4.93-6.55,5.76s-1.78,5.68,1.33,4.82c7.25-2.01,12.03-9.67,11.31-17.06-.79-8.08-6.56-14.72-13.87-17.87-4.54-1.95-9.43-2.74-14.36-2.75-3.22,0-3.22,5,0,5h0Z"/><path d="m216.15,468.03c13.4.32,26.81.64,40.21.96l-2.16-3.76c-9.28,13.72-10.25,31.8-3.08,46.62,3.54,7.32,8.74,13.99,10.78,21.97,1.68,6.62.41,13.69-3.03,19.55-3.44,5.87-8.96,10.25-15.6,11.87s-13.76.5-19.62-2.83c-13.25-7.53-15.11-24.02-13.19-37.73,2.48-17.61,11.08-34.26,9.99-52.36-.14-2.38-.46-4.75-.94-7.09-.27-1.32-1.84-2.09-3.08-1.75-1.38.38-2.02,1.75-1.75,3.08,3.76,18.5-5.52,36.26-8.63,54.12-2.59,14.86-1.88,32.94,10.91,43.19,12.01,9.64,30.27,9.53,41.32-1.59,5.31-5.34,8.56-12.52,9.24-20,.76-8.42-2.69-16.08-6.74-23.23-2.13-3.76-4.39-7.46-6.14-11.42-1.56-3.54-2.61-7.42-3.04-11.27-.9-7.96.36-16.21,3.89-23.42.88-1.8,1.89-3.52,3.01-5.18s-.37-3.72-2.16-3.76c-13.4-.32-26.81-.64-40.21-.96-3.22-.08-3.22,4.92,0,5h0Z"/><path d="m217.61,482.26c-6.17-3.96-14.79-2.4-19.85,2.68-5.75,5.77-5.06,14.59.01,20.54,2.84,3.33,7.03,5.43,11.42,5.47,3.22.03,3.22-4.97,0-5-5.25-.05-10-4.89-10.53-10.02s3.47-9.44,8.47-10.62c2.71-.64,5.53-.29,7.96,1.27,2.72,1.74,5.23-2.58,2.52-4.32h0Z"/><path d="m249.79,504.03c6.63,0,13.66,1.59,18.49,6.41,4.04,4.03,6.31,10.29,3.65,15.69-1.35,2.74-3.56,4.93-6.55,5.76s-1.78,5.68,1.33,4.82c7.25-2.01,12.03-9.67,11.31-17.06-.79-8.08-6.56-14.72-13.87-17.87-4.54-1.95-9.43-2.74-14.36-2.75-3.22,0-3.22,5,0,5h0Z"/><path d="m353.72,365.92c13.4.32,26.81.64,40.21.96l-2.16-3.76c-9.28,13.72-10.25,31.8-3.08,46.62,3.54,7.32,8.74,13.99,10.78,21.97,1.68,6.62.41,13.69-3.03,19.55-3.44,5.87-8.96,10.25-15.6,11.87s-13.76.5-19.62-2.83c-13.25-7.53-15.11-24.02-13.19-37.73,2.48-17.61,11.08-34.26,9.99-52.36-.14-2.38-.46-4.75-.94-7.09-.27-1.32-1.84-2.09-3.08-1.75-1.38.38-2.02,1.75-1.75,3.08,3.76,18.5-5.52,36.26-8.63,54.12-2.59,14.86-1.88,32.94,10.91,43.19,12.01,9.64,30.27,9.53,41.32-1.59,5.31-5.34,8.56-12.52,9.24-20,.76-8.42-2.69-16.08-6.74-23.23-2.13-3.76-4.39-7.46-6.14-11.42-1.56-3.54-2.61-7.42-3.04-11.27-.9-7.96.36-16.21,3.89-23.42.88-1.8,1.89-3.52,3.01-5.18s-.37-3.72-2.16-3.76c-13.4-.32-26.81-.64-40.21-.96-3.22-.08-3.22,4.92,0,5h0Z"/><path d="m355.17,380.16c-6.17-3.96-14.79-2.4-19.85,2.68-5.75,5.77-5.06,14.59.01,20.54,2.84,3.33,7.03,5.43,11.42,5.47,3.22.03,3.22-4.97,0-5-5.25-.05-10-4.89-10.53-10.02s3.47-9.44,8.47-10.62c2.71-.64,5.53-.29,7.96,1.27,2.72,1.74,5.23-2.58,2.52-4.32h0Z"/><path d="m387.35,401.93c6.63,0,13.66,1.59,18.49,6.41,4.04,4.03,6.31,10.29,3.65,15.69-1.35,2.74-3.56,4.93-6.55,5.76s-1.78,5.68,1.33,4.82c7.25-2.01,12.03-9.67,11.31-17.06-.79-8.08-6.56-14.72-13.87-17.87-4.54-1.95-9.43-2.74-14.36-2.75-3.22,0-3.22,5,0,5h0Z"/><path d="m501.25,463.96c13.4.32,26.81.64,40.21.96l-2.16-3.76c-9.28,13.72-10.25,31.8-3.08,46.62,3.54,7.32,8.74,13.99,10.78,21.97,1.68,6.62.41,13.69-3.03,19.55-3.44,5.87-8.96,10.25-15.6,11.87s-13.76.5-19.62-2.83c-13.25-7.53-15.11-24.02-13.19-37.73,2.48-17.61,11.08-34.26,9.99-52.36-.14-2.38-.46-4.75-.94-7.09-.27-1.32-1.84-2.09-3.08-1.75-1.38.38-2.02,1.75-1.75,3.08,3.76,18.5-5.52,36.26-8.63,54.12-2.59,14.86-1.88,32.94,10.91,43.19,12.01,9.64,30.27,9.53,41.32-1.59,5.31-5.34,8.56-12.52,9.24-20,.76-8.42-2.69-16.08-6.74-23.23-2.13-3.76-4.39-7.46-6.14-11.42-1.56-3.54-2.61-7.42-3.04-11.27-.9-7.96.36-16.21,3.89-23.42.88-1.8,1.89-3.52,3.01-5.18s-.37-3.72-2.16-3.76c-13.4-.32-26.81-.64-40.21-.96-3.22-.08-3.22,4.92,0,5h0Z"/><path d="m502.7,478.19c-6.17-3.96-14.79-2.4-19.85,2.68-5.75,5.77-5.06,14.59.01,20.54,2.84,3.33,7.03,5.43,11.42,5.47,3.22.03,3.22-4.97,0-5-5.25-.05-10-4.89-10.53-10.02s3.47-9.44,8.47-10.62c2.71-.64,5.53-.29,7.96,1.27,2.72,1.74,5.23-2.58,2.52-4.32h0Z"/><path d="m534.88,499.96c6.63,0,13.66,1.59,18.49,6.41,4.04,4.03,6.31,10.29,3.65,15.69-1.35,2.74-3.56,4.93-6.55,5.76s-1.78,5.68,1.33,4.82c7.25-2.01,12.03-9.67,11.31-17.06-.79-8.08-6.56-14.72-13.87-17.87-4.54-1.95-9.43-2.74-14.36-2.75-3.22,0-3.22,5,0,5h0Z"/><path d="m340.93,567.83c13.4.32,26.81.64,40.21.96l-2.16-3.76c-9.28,13.72-10.25,31.8-3.08,46.62,3.54,7.32,8.74,13.99,10.78,21.97,1.68,6.62.41,13.69-3.03,19.55-3.44,5.87-8.96,10.25-15.6,11.87s-13.76.5-19.62-2.83c-13.25-7.53-15.11-24.02-13.19-37.73,2.48-17.61,11.08-34.26,9.99-52.36-.14-2.38-.46-4.75-.94-7.09-.27-1.32-1.84-2.09-3.08-1.75-1.38.38-2.02,1.75-1.75,3.08,3.76,18.5-5.52,36.26-8.63,54.12-2.59,14.86-1.88,32.94,10.91,43.19,12.01,9.64,30.27,9.53,41.32-1.59,5.31-5.34,8.56-12.52,9.24-20,.76-8.42-2.69-16.08-6.74-23.23-2.13-3.76-4.39-7.46-6.14-11.42-1.56-3.54-2.61-7.42-3.04-11.27-.9-7.96.36-16.21,3.89-23.42.88-1.8,1.89-3.52,3.01-5.18s-.37-3.72-2.16-3.76c-13.4-.32-26.81-.64-40.21-.96-3.22-.08-3.22,4.92,0,5h0Z"/><path d="m342.38,582.07c-6.17-3.96-14.79-2.4-19.85,2.68-5.75,5.77-5.06,14.59.01,20.54,2.84,3.33,7.03,5.43,11.42,5.47,3.22.03,3.22-4.97,0-5-5.25-.05-10-4.89-10.53-10.02s3.47-9.44,8.47-10.62c2.71-.64,5.53-.29,7.96,1.27,2.72,1.74,5.23-2.58,2.52-4.32h0Z"/><path d="m374.56,603.84c6.63,0,13.66,1.59,18.49,6.41,4.04,4.03,6.31,10.29,3.65,15.69-1.35,2.74-3.56,4.93-6.55,5.76s-1.78,5.68,1.33,4.82c7.25-2.01,12.03-9.67,11.31-17.06-.79-8.08-6.56-14.72-13.87-17.87-4.54-1.95-9.43-2.74-14.36-2.75-3.22,0-3.22,5,0,5h0Z"/><path d="m72.71,567.83c13.4.32,26.81.64,40.21.96l-2.16-3.76c-9.28,13.72-10.25,31.8-3.08,46.62,3.54,7.32,8.74,13.99,10.78,21.97,1.68,6.62.41,13.69-3.03,19.55-3.44,5.87-8.96,10.25-15.6,11.87s-13.76.5-19.62-2.83c-13.25-7.53-15.11-24.02-13.19-37.73,2.48-17.61,11.08-34.26,9.99-52.36-.14-2.38-.46-4.75-.94-7.09-.27-1.32-1.84-2.09-3.08-1.75-1.38.38-2.02,1.75-1.75,3.08,3.76,18.5-5.52,36.26-8.63,54.12-2.59,14.86-1.88,32.94,10.91,43.19,12.01,9.64,30.27,9.53,41.32-1.59,5.31-5.34,8.56-12.52,9.24-20,.76-8.42-2.69-16.08-6.74-23.23-2.13-3.76-4.39-7.46-6.14-11.42-1.56-3.54-2.61-7.42-3.04-11.27-.9-7.96.36-16.21,3.89-23.42.88-1.8,1.89-3.52,3.01-5.18s-.37-3.72-2.16-3.76c-13.4-.32-26.81-.64-40.21-.96-3.22-.08-3.22,4.92,0,5h0Z"/><path d="m74.17,582.07c-6.17-3.96-14.79-2.4-19.85,2.68-5.75,5.77-5.06,14.59.01,20.54,2.84,3.33,7.03,5.43,11.42,5.47,3.22.03,3.22-4.97,0-5-5.25-.05-10-4.89-10.53-10.02s3.47-9.44,8.47-10.62c2.71-.64,5.53-.29,7.96,1.27,2.72,1.74,5.23-2.58,2.52-4.32h0Z"/><path d="m106.35,603.84c6.63,0,13.66,1.59,18.49,6.41,4.04,4.03,6.31,10.29,3.65,15.69-1.35,2.74-3.56,4.93-6.55,5.76s-1.78,5.68,1.33,4.82c7.25-2.01,12.03-9.67,11.31-17.06-.79-8.08-6.56-14.72-13.87-17.87-4.54-1.95-9.43-2.74-14.36-2.75-3.22,0-3.22,5,0,5h0Z"/><path d="m218.77,664.74c13.4.32,26.81.64,40.21.96l-2.16-3.76c-9.28,13.72-10.25,31.8-3.08,46.62,3.54,7.32,8.74,13.99,10.78,21.97,1.68,6.62.41,13.69-3.03,19.55-3.44,5.87-8.96,10.25-15.6,11.87s-13.76.5-19.62-2.83c-13.25-7.53-15.11-24.02-13.19-37.73,2.48-17.61,11.08-34.26,9.99-52.36-.14-2.38-.46-4.75-.94-7.09-.27-1.32-1.84-2.09-3.08-1.75-1.38.38-2.02,1.75-1.75,3.08,3.76,18.5-5.52,36.26-8.63,54.12-2.59,14.86-1.88,32.94,10.91,43.19,12.01,9.64,30.27,9.53,41.32-1.59,5.31-5.34,8.56-12.52,9.24-20,.76-8.42-2.69-16.08-6.74-23.23-2.13-3.76-4.39-7.46-6.14-11.42-1.56-3.54-2.61-7.42-3.04-11.27-.9-7.96.36-16.21,3.89-23.42.88-1.8,1.89-3.52,3.01-5.18s-.37-3.72-2.16-3.76c-13.4-.32-26.81-.64-40.21-.96-3.22-.08-3.22,4.92,0,5h0Z"/><path d="m220.23,678.97c-6.17-3.96-14.79-2.4-19.85,2.68-5.75,5.77-5.06,14.59.01,20.54,2.84,3.33,7.03,5.43,11.42,5.47,3.22.03,3.22-4.97,0-5-5.25-.05-10-4.89-10.53-10.02s3.47-9.44,8.47-10.62c2.71-.64,5.53-.29,7.96,1.27,2.72,1.74,5.23-2.58,2.52-4.32h0Z"/><path d="m252.41,700.74c6.63,0,13.66,1.59,18.49,6.41,4.04,4.03,6.31,10.29,3.65,15.69-1.35,2.74-3.56,4.93-6.55,5.76s-1.78,5.68,1.33,4.82c7.25-2.01,12.03-9.67,11.31-17.06-.79-8.08-6.56-14.72-13.87-17.87-4.54-1.95-9.43-2.74-14.36-2.75-3.22,0-3.22,5,0,5h0Z"/><path d="m81.64,772.05c13.4.32,26.81.64,40.21.96l-2.16-3.76c-9.28,13.72-10.25,31.8-3.08,46.62,3.54,7.32,8.74,13.99,10.78,21.97,1.68,6.62.41,13.69-3.03,19.55-3.44,5.87-8.96,10.25-15.6,11.87s-13.76.5-19.62-2.83c-13.25-7.53-15.11-24.02-13.19-37.73,2.48-17.61,11.08-34.26,9.99-52.36-.14-2.38-.46-4.75-.94-7.09-.27-1.32-1.84-2.09-3.08-1.75-1.38.38-2.02,1.75-1.75,3.08,3.76,18.5-5.52,36.26-8.63,54.12-2.59,14.86-1.88,32.94,10.91,43.19,12.01,9.64,30.27,9.53,41.32-1.59,5.31-5.34,8.56-12.52,9.24-20,.76-8.42-2.69-16.08-6.74-23.23-2.13-3.76-4.39-7.46-6.14-11.42-1.56-3.54-2.61-7.42-3.04-11.27-.9-7.96.36-16.21,3.89-23.42.88-1.8,1.89-3.52,3.01-5.18s-.37-3.72-2.16-3.76c-13.4-.32-26.81-.64-40.21-.96-3.22-.08-3.22,4.92,0,5h0Z"/><path d="m83.09,786.28c-6.17-3.96-14.79-2.4-19.85,2.68-5.75,5.77-5.06,14.59.01,20.54,2.84,3.33,7.03,5.43,11.42,5.47,3.22.03,3.22-4.97,0-5-5.25-.05-10-4.89-10.53-10.02s3.47-9.44,8.47-10.62c2.71-.64,5.53-.29,7.96,1.27,2.72,1.74,5.23-2.58,2.52-4.32h0Z"/><path d="m115.28,808.06c6.63,0,13.66,1.59,18.49,6.41,4.04,4.03,6.31,10.29,3.65,15.69-1.35,2.74-3.56,4.93-6.55,5.76s-1.78,5.68,1.33,4.82c7.25-2.01,12.03-9.67,11.31-17.06-.79-8.08-6.56-14.72-13.87-17.87-4.54-1.95-9.43-2.74-14.36-2.75-3.22,0-3.22,5,0,5h0Z"/><path d="m239.67,887.23c13.4.32,26.81.64,40.21.96l-2.16-3.76c-9.28,13.72-10.25,31.8-3.08,46.62,3.54,7.32,8.74,13.99,10.78,21.97,1.68,6.62.41,13.69-3.03,19.55-3.44,5.87-8.96,10.25-15.6,11.87s-13.76.5-19.62-2.83c-13.25-7.53-15.11-24.02-13.19-37.73,2.48-17.61,11.08-34.26,9.99-52.36-.14-2.38-.46-4.75-.94-7.09-.27-1.32-1.84-2.09-3.08-1.75-1.38.38-2.02,1.75-1.75,3.08,3.76,18.5-5.52,36.26-8.63,54.12-2.59,14.86-1.88,32.94,10.91,43.19,12.01,9.64,30.27,9.53,41.32-1.59,5.31-5.34,8.56-12.52,9.24-20,.76-8.42-2.69-16.08-6.74-23.23-2.13-3.76-4.39-7.46-6.14-11.42-1.56-3.54-2.61-7.42-3.04-11.27-.9-7.96.36-16.21,3.89-23.42.88-1.8,1.89-3.52,3.01-5.18s-.37-3.72-2.16-3.76c-13.4-.32-26.81-.64-40.21-.96-3.22-.08-3.22,4.92,0,5h0Z"/><path d="m241.12,901.47c-6.17-3.96-14.79-2.4-19.85,2.68-5.75,5.77-5.06,14.59.01,20.54,2.84,3.33,7.03,5.43,11.42,5.47,3.22.03,3.22-4.97,0-5-5.25-.05-10-4.89-10.53-10.02s3.47-9.44,8.47-10.62c2.71-.64,5.53-.29,7.96,1.27,2.72,1.74,5.23-2.58,2.52-4.32h0Z"/><path d="m273.31,923.24c6.63,0,13.66,1.59,18.49,6.41,4.04,4.03,6.31,10.29,3.65,15.69-1.35,2.74-3.56,4.93-6.55,5.76s-1.78,5.68,1.33,4.82c7.25-2.01,12.03-9.67,11.31-17.06-.79-8.08-6.56-14.72-13.87-17.87-4.54-1.95-9.43-2.74-14.36-2.75-3.22,0-3.22,5,0,5h0Z"/><path d="m356.94,768.65c13.4.32,26.81.64,40.21.96l-2.16-3.76c-9.28,13.72-10.25,31.8-3.08,46.62,3.54,7.32,8.74,13.99,10.78,21.97,1.68,6.62.41,13.69-3.03,19.55-3.44,5.87-8.96,10.25-15.6,11.87s-13.76.5-19.62-2.83c-13.25-7.53-15.11-24.02-13.19-37.73,2.48-17.61,11.08-34.26,9.99-52.36-.14-2.38-.46-4.75-.94-7.09-.27-1.32-1.84-2.09-3.08-1.75-1.38.38-2.02,1.75-1.75,3.08,3.76,18.5-5.52,36.26-8.63,54.12-2.59,14.86-1.88,32.94,10.91,43.19,12.01,9.64,30.27,9.53,41.32-1.59,5.31-5.34,8.56-12.52,9.24-20,.76-8.42-2.69-16.08-6.74-23.23-2.13-3.76-4.39-7.46-6.14-11.42-1.56-3.54-2.61-7.42-3.04-11.27-.9-7.96.36-16.21,3.89-23.42.88-1.8,1.89-3.52,3.01-5.18s-.37-3.72-2.16-3.76c-13.4-.32-26.81-.64-40.21-.96-3.22-.08-3.22,4.92,0,5h0Z"/><path d="m358.39,782.89c-6.17-3.96-14.79-2.4-19.85,2.68-5.75,5.77-5.06,14.59.01,20.54,2.84,3.33,7.03,5.43,11.42,5.47,3.22.03,3.22-4.97,0-5-5.25-.05-10-4.89-10.53-10.02s3.47-9.44,8.47-10.62c2.71-.64,5.53-.29,7.96,1.27,2.72,1.74,5.23-2.58,2.52-4.32h0Z"/><path d="m390.57,804.66c6.63,0,13.66,1.59,18.49,6.41,4.04,4.03,6.31,10.29,3.65,15.69-1.35,2.74-3.56,4.93-6.55,5.76s-1.78,5.68,1.33,4.82c7.25-2.01,12.03-9.67,11.31-17.06-.79-8.08-6.56-14.72-13.87-17.87-4.54-1.95-9.43-2.74-14.36-2.75-3.22,0-3.22,5,0,5h0Z"/><path d="m488.14,866.61c13.4.32,26.81.64,40.21.96l-2.16-3.76c-9.28,13.72-10.25,31.8-3.08,46.62,3.54,7.32,8.74,13.99,10.78,21.97,1.68,6.62.41,13.69-3.03,19.55-3.44,5.87-8.96,10.25-15.6,11.87s-13.76.5-19.62-2.83c-13.25-7.53-15.11-24.02-13.19-37.73,2.48-17.61,11.08-34.26,9.99-52.36-.14-2.38-.46-4.75-.94-7.09-.27-1.32-1.84-2.09-3.08-1.75-1.38.38-2.02,1.75-1.75,3.08,3.76,18.5-5.52,36.26-8.63,54.12-2.59,14.86-1.88,32.94,10.91,43.19,12.01,9.64,30.27,9.53,41.32-1.59,5.31-5.34,8.56-12.52,9.24-20,.76-8.42-2.69-16.08-6.74-23.23-2.13-3.76-4.39-7.46-6.14-11.42-1.56-3.54-2.61-7.42-3.04-11.27-.9-7.96.36-16.21,3.89-23.42.88-1.8,1.89-3.52,3.01-5.18s-.37-3.72-2.16-3.76c-13.4-.32-26.81-.64-40.21-.96-3.22-.08-3.22,4.92,0,5h0Z"/><path d="m489.59,880.84c-6.17-3.96-14.79-2.4-19.85,2.68-5.75,5.77-5.06,14.59.01,20.54,2.84,3.33,7.03,5.43,11.42,5.47,3.22.03,3.22-4.97,0-5-5.25-.05-10-4.89-10.53-10.02s3.47-9.44,8.47-10.62c2.71-.64,5.53-.29,7.96,1.27,2.72,1.74,5.23-2.58,2.52-4.32h0Z"/><path d="m521.77,902.61c6.63,0,13.66,1.59,18.49,6.41,4.04,4.03,6.31,10.29,3.65,15.69-1.35,2.74-3.56,4.93-6.55,5.76s-1.78,5.68,1.33,4.82c7.25-2.01,12.03-9.67,11.31-17.06-.79-8.08-6.56-14.72-13.87-17.87-4.54-1.95-9.43-2.74-14.36-2.75-3.22,0-3.22,5,0,5h0Z"/><path d="m367.77,972.09c13.4.32,26.81.64,40.21.96l-2.16-3.76c-9.28,13.72-10.25,31.8-3.08,46.62,3.54,7.32,8.74,13.99,10.78,21.97,1.68,6.62.41,13.69-3.03,19.55-3.44,5.87-8.96,10.25-15.6,11.87s-13.76.5-19.62-2.83c-13.25-7.53-15.11-24.02-13.19-37.73,2.48-17.61,11.08-34.26,9.99-52.36-.14-2.38-.46-4.75-.94-7.09-.27-1.32-1.84-2.09-3.08-1.75-1.38.38-2.02,1.75-1.75,3.08,3.76,18.5-5.52,36.26-8.63,54.12-2.59,14.86-1.88,32.94,10.91,43.19,12.01,9.64,30.27,9.53,41.32-1.59,5.31-5.34,8.56-12.52,9.24-20,.76-8.42-2.69-16.08-6.74-23.23-2.13-3.76-4.39-7.46-6.14-11.42-1.56-3.54-2.61-7.42-3.04-11.27-.9-7.96.36-16.21,3.89-23.42.88-1.8,1.89-3.52,3.01-5.18s-.37-3.72-2.16-3.76c-13.4-.32-26.81-.64-40.21-.96-3.22-.08-3.22,4.92,0,5h0Z"/><path d="m369.23,986.33c-6.17-3.96-14.79-2.4-19.85,2.68-5.75,5.77-5.06,14.59.01,20.54,2.84,3.33,7.03,5.43,11.42,5.47,3.22.03,3.22-4.97,0-5-5.25-.05-10-4.89-10.53-10.02s3.47-9.44,8.47-10.62c2.71-.64,5.53-.29,7.96,1.27,2.72,1.74,5.23-2.58,2.52-4.32h0Z"/><path d="m401.41,1008.1c6.63,0,13.66,1.59,18.49,6.41,4.04,4.03,6.31,10.29,3.65,15.69-1.35,2.74-3.56,4.93-6.55,5.76s-1.78,5.68,1.33,4.82c7.25-2.01,12.03-9.67,11.31-17.06-.79-8.08-6.56-14.72-13.87-17.87-4.54-1.95-9.43-2.74-14.36-2.75-3.22,0-3.22,5,0,5h0Z"/><path d="m626.5,965.71c13.4.32,26.81.64,40.21.96l-2.16-3.76c-9.28,13.72-10.25,31.8-3.08,46.62,3.54,7.32,8.74,13.99,10.78,21.97,1.68,6.62.41,13.69-3.03,19.55-3.44,5.87-8.96,10.25-15.6,11.87s-13.76.5-19.62-2.83c-13.25-7.53-15.11-24.02-13.19-37.73,2.48-17.61,11.08-34.26,9.99-52.36-.14-2.38-.46-4.75-.94-7.09-.27-1.32-1.84-2.09-3.08-1.75-1.38.38-2.02,1.75-1.75,3.08,3.76,18.5-5.52,36.26-8.63,54.12-2.59,14.86-1.88,32.94,10.91,43.19,12.01,9.64,30.27,9.53,41.32-1.59,5.31-5.34,8.56-12.52,9.24-20,.76-8.42-2.69-16.08-6.74-23.23-2.13-3.76-4.39-7.46-6.14-11.42-1.56-3.54-2.61-7.42-3.04-11.27-.9-7.96.36-16.21,3.89-23.42.88-1.8,1.89-3.52,3.01-5.18s-.37-3.72-2.16-3.76c-13.4-.32-26.81-.64-40.21-.96-3.22-.08-3.22,4.92,0,5h0Z"/><path d="m627.95,979.94c-6.17-3.96-14.79-2.4-19.85,2.68-5.75,5.77-5.06,14.59.01,20.54,2.84,3.33,7.03,5.43,11.42,5.47,3.22.03,3.22-4.97,0-5-5.25-.05-10-4.89-10.53-10.02s3.47-9.44,8.47-10.62c2.71-.64,5.53-.29,7.96,1.27,2.72,1.74,5.23-2.58,2.52-4.32h0Z"/><path d="m660.13,1001.72c6.63,0,13.66,1.59,18.49,6.41,4.04,4.03,6.31,10.29,3.65,15.69-1.35,2.74-3.56,4.93-6.55,5.76s-1.78,5.68,1.33,4.82c7.25-2.01,12.03-9.67,11.31-17.06-.79-8.08-6.56-14.72-13.87-17.87-4.54-1.95-9.43-2.74-14.36-2.75-3.22,0-3.22,5,0,5h0Z"/><path d="m763.77,866.06c13.4.32,26.81.64,40.21.96l-2.16-3.76c-9.28,13.72-10.25,31.8-3.08,46.62,3.54,7.32,8.74,13.99,10.78,21.97,1.68,6.62.41,13.69-3.03,19.55-3.44,5.87-8.96,10.25-15.6,11.87s-13.76.5-19.62-2.83c-13.25-7.53-15.11-24.02-13.19-37.73,2.48-17.61,11.08-34.26,9.99-52.36-.14-2.38-.46-4.75-.94-7.09-.27-1.32-1.84-2.09-3.08-1.75-1.38.38-2.02,1.75-1.75,3.08,3.76,18.5-5.52,36.26-8.63,54.12-2.59,14.86-1.88,32.94,10.91,43.19,12.01,9.64,30.27,9.53,41.32-1.59,5.31-5.34,8.56-12.52,9.24-20,.76-8.42-2.69-16.08-6.74-23.23-2.13-3.76-4.39-7.46-6.14-11.42-1.56-3.54-2.61-7.42-3.04-11.27-.9-7.96.36-16.21,3.89-23.42.88-1.8,1.89-3.52,3.01-5.18s-.37-3.72-2.16-3.76c-13.4-.32-26.81-.64-40.21-.96-3.22-.08-3.22,4.92,0,5h0Z"/><path d="m765.22,880.3c-6.17-3.96-14.79-2.4-19.85,2.68-5.75,5.77-5.06,14.59.01,20.54,2.84,3.33,7.03,5.43,11.42,5.47,3.22.03,3.22-4.97,0-5-5.25-.05-10-4.89-10.53-10.02s3.47-9.44,8.47-10.62c2.71-.64,5.53-.29,7.96,1.27,2.72,1.74,5.23-2.58,2.52-4.32h0Z"/><path d="m797.41,902.07c6.63,0,13.66,1.59,18.49,6.41,4.04,4.03,6.31,10.29,3.65,15.69-1.35,2.74-3.56,4.93-6.55,5.76s-1.78,5.68,1.33,4.82c7.25-2.01,12.03-9.67,11.31-17.06-.79-8.08-6.56-14.72-13.87-17.87-4.54-1.95-9.43-2.74-14.36-2.75-3.22,0-3.22,5,0,5h0Z"/><path d="m640.96,764.12c13.4.32,26.81.64,40.21.96l-2.16-3.76c-9.28,13.72-10.25,31.8-3.08,46.62,3.54,7.32,8.74,13.99,10.78,21.97,1.68,6.62.41,13.69-3.03,19.55-3.44,5.87-8.96,10.25-15.6,11.87s-13.76.5-19.62-2.83c-13.25-7.53-15.11-24.02-13.19-37.73,2.48-17.61,11.08-34.26,9.99-52.36-.14-2.38-.46-4.75-.94-7.09-.27-1.32-1.84-2.09-3.08-1.75-1.38.38-2.02,1.75-1.75,3.08,3.76,18.5-5.52,36.26-8.63,54.12-2.59,14.86-1.88,32.94,10.91,43.19,12.01,9.64,30.27,9.53,41.32-1.59,5.31-5.34,8.56-12.52,9.24-20,.76-8.42-2.69-16.08-6.74-23.23-2.13-3.76-4.39-7.46-6.14-11.42-1.56-3.54-2.61-7.42-3.04-11.27-.9-7.96.36-16.21,3.89-23.42.88-1.8,1.89-3.52,3.01-5.18s-.37-3.72-2.16-3.76c-13.4-.32-26.81-.64-40.21-.96-3.22-.08-3.22,4.92,0,5h0Z"/><path d="m642.41,778.35c-6.17-3.96-14.79-2.4-19.85,2.68-5.75,5.77-5.06,14.59.01,20.54,2.84,3.33,7.03,5.43,11.42,5.47,3.22.03,3.22-4.97,0-5-5.25-.05-10-4.89-10.53-10.02s3.47-9.44,8.47-10.62c2.71-.64,5.53-.29,7.96,1.27,2.72,1.74,5.23-2.58,2.52-4.32h0Z"/><path d="m674.59,800.12c6.63,0,13.66,1.59,18.49,6.41,4.04,4.03,6.31,10.29,3.65,15.69-1.35,2.74-3.56,4.93-6.55,5.76s-1.78,5.68,1.33,4.82c7.25-2.01,12.03-9.67,11.31-17.06-.79-8.08-6.56-14.72-13.87-17.87-4.54-1.95-9.43-2.74-14.36-2.75-3.22,0-3.22,5,0,5h0Z"/><path d="m494.2,662.55c13.4.32,26.81.64,40.21.96l-2.16-3.76c-9.28,13.72-10.25,31.8-3.08,46.62,3.54,7.32,8.74,13.99,10.78,21.97,1.68,6.62.41,13.69-3.03,19.55-3.44,5.87-8.96,10.25-15.6,11.87s-13.76.5-19.62-2.83c-13.25-7.53-15.11-24.02-13.19-37.73,2.48-17.61,11.08-34.26,9.99-52.36-.14-2.38-.46-4.75-.94-7.09-.27-1.32-1.84-2.09-3.08-1.75-1.38.38-2.02,1.75-1.75,3.08,3.76,18.5-5.52,36.26-8.63,54.12-2.59,14.86-1.88,32.94,10.91,43.19,12.01,9.64,30.27,9.53,41.32-1.59,5.31-5.34,8.56-12.52,9.24-20,.76-8.42-2.69-16.08-6.74-23.23-2.13-3.76-4.39-7.46-6.14-11.42-1.56-3.54-2.61-7.42-3.04-11.27-.9-7.96.36-16.21,3.89-23.42.88-1.8,1.89-3.52,3.01-5.18s-.37-3.72-2.16-3.76c-13.4-.32-26.81-.64-40.21-.96-3.22-.08-3.22,4.92,0,5h0Z"/><path d="m495.65,676.78c-6.17-3.96-14.79-2.4-19.85,2.68-5.75,5.77-5.06,14.59.01,20.54,2.84,3.33,7.03,5.43,11.42,5.47,3.22.03,3.22-4.97,0-5-5.25-.05-10-4.89-10.53-10.02s3.47-9.44,8.47-10.62c2.71-.64,5.53-.29,7.96,1.27,2.72,1.74,5.23-2.58,2.52-4.32h0Z"/><path d="m527.83,698.55c6.63,0,13.66,1.59,18.49,6.41,4.04,4.03,6.31,10.29,3.65,15.69-1.35,2.74-3.56,4.93-6.55,5.76s-1.78,5.68,1.33,4.82c7.25-2.01,12.03-9.67,11.31-17.06-.79-8.08-6.56-14.72-13.87-17.87-4.54-1.95-9.43-2.74-14.36-2.75-3.22,0-3.22,5,0,5h0Z"/><path d="m655.81,558.87c13.4.32,26.81.64,40.21.96l-2.16-3.76c-9.28,13.72-10.25,31.8-3.08,46.62,3.54,7.32,8.74,13.99,10.78,21.97,1.68,6.62.41,13.69-3.03,19.55-3.44,5.87-8.96,10.25-15.6,11.87s-13.76.5-19.62-2.83c-13.25-7.53-15.11-24.02-13.19-37.73,2.48-17.61,11.08-34.26,9.99-52.36-.14-2.38-.46-4.75-.94-7.09-.27-1.32-1.84-2.09-3.08-1.75-1.38.38-2.02,1.75-1.75,3.08,3.76,18.5-5.52,36.26-8.63,54.12-2.59,14.86-1.88,32.94,10.91,43.19,12.01,9.64,30.27,9.53,41.32-1.59,5.31-5.34,8.56-12.52,9.24-20,.76-8.42-2.69-16.08-6.74-23.23-2.13-3.76-4.39-7.46-6.14-11.42-1.56-3.54-2.61-7.42-3.04-11.27-.9-7.96.36-16.21,3.89-23.42.88-1.8,1.89-3.52,3.01-5.18s-.37-3.72-2.16-3.76c-13.4-.32-26.81-.64-40.21-.96-3.22-.08-3.22,4.92,0,5h0Z"/><path d="m657.26,573.1c-6.17-3.96-14.79-2.4-19.85,2.68-5.75,5.77-5.06,14.59.01,20.54,2.84,3.33,7.03,5.43,11.42,5.47,3.22.03,3.22-4.97,0-5-5.25-.05-10-4.89-10.53-10.02s3.47-9.44,8.47-10.62c2.71-.64,5.53-.29,7.96,1.27,2.72,1.74,5.23-2.58,2.52-4.32h0Z"/><path d="m689.45,594.87c6.63,0,13.66,1.59,18.49,6.41,4.04,4.03,6.31,10.29,3.65,15.69-1.35,2.74-3.56,4.93-6.55,5.76s-1.78,5.68,1.33,4.82c7.25-2.01,12.03-9.67,11.31-17.06-.79-8.08-6.56-14.72-13.87-17.87-4.54-1.95-9.43-2.74-14.36-2.75-3.22,0-3.22,5,0,5h0Z"/><path d="m764.16,635.7c13.4.32,26.81.64,40.21.96l-2.16-3.76c-9.28,13.72-10.25,31.8-3.08,46.62,3.54,7.32,8.74,13.99,10.78,21.97,1.68,6.62.41,13.69-3.03,19.55-3.44,5.87-8.96,10.25-15.6,11.87s-13.76.5-19.62-2.83c-13.25-7.53-15.11-24.02-13.19-37.73,2.48-17.61,11.08-34.26,9.99-52.36-.14-2.38-.46-4.75-.94-7.09-.27-1.32-1.84-2.09-3.08-1.75-1.38.38-2.02,1.75-1.75,3.08,3.76,18.5-5.52,36.26-8.63,54.12-2.59,14.86-1.88,32.94,10.91,43.19,12.01,9.64,30.27,9.53,41.32-1.59,5.31-5.34,8.56-12.52,9.24-20,.76-8.42-2.69-16.08-6.74-23.23-2.13-3.76-4.39-7.46-6.14-11.42-1.56-3.54-2.61-7.42-3.04-11.27-.9-7.96.36-16.21,3.89-23.42.88-1.8,1.89-3.52,3.01-5.18s-.37-3.72-2.16-3.76c-13.4-.32-26.81-.64-40.21-.96-3.22-.08-3.22,4.92,0,5h0Z"/><path d="m765.61,649.94c-6.17-3.96-14.79-2.4-19.85,2.68-5.75,5.77-5.06,14.59.01,20.54,2.84,3.33,7.03,5.43,11.42,5.47,3.22.03,3.22-4.97,0-5-5.25-.05-10-4.89-10.53-10.02s3.47-9.44,8.47-10.62c2.71-.64,5.53-.29,7.96,1.27,2.72,1.74,5.23-2.58,2.52-4.32h0Z"/><path d="m797.8,671.71c6.63,0,13.66,1.59,18.49,6.41,4.04,4.03,6.31,10.29,3.65,15.69-1.35,2.74-3.56,4.93-6.55,5.76s-1.78,5.68,1.33,4.82c7.25-2.01,12.03-9.67,11.31-17.06-.79-8.08-6.56-14.72-13.87-17.87-4.54-1.95-9.43-2.74-14.36-2.75-3.22,0-3.22,5,0,5h0Z"/><path d="m779.66,478.07c13.4.32,26.81.64,40.21.96l-2.16-3.76c-9.28,13.72-10.25,31.8-3.08,46.62,3.54,7.32,8.74,13.99,10.78,21.97,1.68,6.62.41,13.69-3.03,19.55-3.44,5.87-8.96,10.25-15.6,11.87s-13.76.5-19.62-2.83c-13.25-7.53-15.11-24.02-13.19-37.73,2.48-17.61,11.08-34.26,9.99-52.36-.14-2.38-.46-4.75-.94-7.09-.27-1.32-1.84-2.09-3.08-1.75-1.38.38-2.02,1.75-1.75,3.08,3.76,18.5-5.52,36.26-8.63,54.12-2.59,14.86-1.88,32.94,10.91,43.19,12.01,9.64,30.27,9.53,41.32-1.59,5.31-5.34,8.56-12.52,9.24-20,.76-8.42-2.69-16.08-6.74-23.23-2.13-3.76-4.39-7.46-6.14-11.42-1.56-3.54-2.61-7.42-3.04-11.27-.9-7.96.36-16.21,3.89-23.42.88-1.8,1.89-3.52,3.01-5.18s-.37-3.72-2.16-3.76c-13.4-.32-26.81-.64-40.21-.96-3.22-.08-3.22,4.92,0,5h0Z"/><path d="m781.11,492.3c-6.17-3.96-14.79-2.4-19.85,2.68-5.75,5.77-5.06,14.59.01,20.54,2.84,3.33,7.03,5.43,11.42,5.47,3.22.03,3.22-4.97,0-5-5.25-.05-10-4.89-10.53-10.02s3.47-9.44,8.47-10.62c2.71-.64,5.53-.29,7.96,1.27,2.72,1.74,5.23-2.58,2.52-4.32h0Z"/><path d="m813.29,514.07c6.63,0,13.66,1.59,18.49,6.41,4.04,4.03,6.31,10.29,3.65,15.69-1.35,2.74-3.56,4.93-6.55,5.76s-1.78,5.68,1.33,4.82c7.25-2.01,12.03-9.67,11.31-17.06-.79-8.08-6.56-14.72-13.87-17.87-4.54-1.95-9.43-2.74-14.36-2.75-3.22,0-3.22,5,0,5h0Z"/><path d="m631.5,337.14c13.4.32,26.81.64,40.21.96l-2.16-3.76c-9.28,13.72-10.25,31.8-3.08,46.62,3.54,7.32,8.74,13.99,10.78,21.97,1.68,6.62.41,13.69-3.03,19.55-3.44,5.87-8.96,10.25-15.6,11.87s-13.76.5-19.62-2.83c-13.25-7.53-15.11-24.02-13.19-37.73,2.48-17.61,11.08-34.26,9.99-52.36-.14-2.38-.46-4.75-.94-7.09-.27-1.32-1.84-2.09-3.08-1.75-1.38.38-2.02,1.75-1.75,3.08,3.76,18.5-5.52,36.26-8.63,54.12-2.59,14.86-1.88,32.94,10.91,43.19,12.01,9.64,30.27,9.53,41.32-1.59,5.31-5.34,8.56-12.52,9.24-20,.76-8.42-2.69-16.08-6.74-23.23-2.13-3.76-4.39-7.46-6.14-11.42-1.56-3.54-2.61-7.42-3.04-11.27-.9-7.96.36-16.21,3.89-23.42.88-1.8,1.89-3.52,3.01-5.18s-.37-3.72-2.16-3.76c-13.4-.32-26.81-.64-40.21-.96-3.22-.08-3.22,4.92,0,5h0Z"/><path d="m632.95,351.37c-6.17-3.96-14.79-2.4-19.85,2.68-5.75,5.77-5.06,14.59.01,20.54,2.84,3.33,7.03,5.43,11.42,5.47,3.22.03,3.22-4.97,0-5-5.25-.05-10-4.89-10.53-10.02s3.47-9.44,8.47-10.62c2.71-.64,5.53-.29,7.96,1.27,2.72,1.74,5.23-2.58,2.52-4.32h0Z"/><path d="m665.13,373.15c6.63,0,13.66,1.59,18.49,6.41,4.04,4.03,6.31,10.29,3.65,15.69-1.35,2.74-3.56,4.93-6.55,5.76s-1.78,5.68,1.33,4.82c7.25-2.01,12.03-9.67,11.31-17.06-.79-8.08-6.56-14.72-13.87-17.87-4.54-1.95-9.43-2.74-14.36-2.75-3.22,0-3.22,5,0,5h0Z"/><path d="m918.3,765.25c13.4.32,26.81.64,40.21.96l-2.16-3.76c-9.28,13.72-10.25,31.8-3.08,46.62,3.54,7.32,8.74,13.99,10.78,21.97,1.68,6.62.41,13.69-3.03,19.55-3.44,5.87-8.96,10.25-15.6,11.87s-13.76.5-19.62-2.83c-13.25-7.53-15.11-24.02-13.19-37.73,2.48-17.61,11.08-34.26,9.99-52.36-.14-2.38-.46-4.75-.94-7.09-.27-1.32-1.84-2.09-3.08-1.75-1.38.38-2.02,1.75-1.75,3.08,3.76,18.5-5.52,36.26-8.63,54.12-2.59,14.86-1.88,32.94,10.91,43.19,12.01,9.64,30.27,9.53,41.32-1.59,5.31-5.34,8.56-12.52,9.24-20,.76-8.42-2.69-16.08-6.74-23.23-2.13-3.76-4.39-7.46-6.14-11.42-1.56-3.54-2.61-7.42-3.04-11.27-.9-7.96.36-16.21,3.89-23.42.88-1.8,1.89-3.52,3.01-5.18s-.37-3.72-2.16-3.76c-13.4-.32-26.81-.64-40.21-.96-3.22-.08-3.22,4.92,0,5h0Z"/><path d="m919.75,779.48c-6.17-3.96-14.79-2.4-19.85,2.68-5.75,5.77-5.06,14.59.01,20.54,2.84,3.33,7.03,5.43,11.42,5.47,3.22.03,3.22-4.97,0-5-5.25-.05-10-4.89-10.53-10.02s3.47-9.44,8.47-10.62c2.71-.64,5.53-.29,7.96,1.27,2.72,1.74,5.23-2.58,2.52-4.32h0Z"/><path d="m951.93,801.25c6.63,0,13.66,1.59,18.49,6.41,4.04,4.03,6.31,10.29,3.65,15.69-1.35,2.74-3.56,4.93-6.55,5.76s-1.78,5.68,1.33,4.82c7.25-2.01,12.03-9.67,11.31-17.06-.79-8.08-6.56-14.72-13.87-17.87-4.54-1.95-9.43-2.74-14.36-2.75-3.22,0-3.22,5,0,5h0Z"/><path d="m1030.08,668.82c13.4.32,26.81.64,40.21.96l-2.16-3.76c-9.28,13.72-10.25,31.8-3.08,46.62,3.54,7.32,8.74,13.99,10.78,21.97,1.68,6.62.41,13.69-3.03,19.55-3.44,5.87-8.96,10.25-15.6,11.87s-13.76.5-19.62-2.83c-13.25-7.53-15.11-24.02-13.19-37.73,2.48-17.61,11.08-34.26,9.99-52.36-.14-2.38-.46-4.75-.94-7.09-.27-1.32-1.84-2.09-3.08-1.75-1.38.38-2.02,1.75-1.75,3.08,3.76,18.5-5.52,36.26-8.63,54.12-2.59,14.86-1.88,32.94,10.91,43.19,12.01,9.64,30.27,9.53,41.32-1.59,5.31-5.34,8.56-12.52,9.24-20,.76-8.42-2.69-16.08-6.74-23.23-2.13-3.76-4.39-7.46-6.14-11.42-1.56-3.54-2.61-7.42-3.04-11.27-.9-7.96.36-16.21,3.89-23.42.88-1.8,1.89-3.52,3.01-5.18s-.37-3.72-2.16-3.76c-13.4-.32-26.81-.64-40.21-.96-3.22-.08-3.22,4.92,0,5h0Z"/><path d="m1031.54,683.05c-6.17-3.96-14.79-2.4-19.85,2.68-5.75,5.77-5.06,14.59.01,20.54,2.84,3.33,7.03,5.43,11.42,5.47,3.22.03,3.22-4.97,0-5-5.25-.05-10-4.89-10.53-10.02s3.47-9.44,8.47-10.62c2.71-.64,5.53-.29,7.96,1.27,2.72,1.74,5.23-2.58,2.52-4.32h0Z"/><path d="m1063.72,704.82c6.63,0,13.66,1.59,18.49,6.41,4.04,4.03,6.31,10.29,3.65,15.69-1.35,2.74-3.56,4.93-6.55,5.76s-1.78,5.68,1.33,4.82c7.25-2.01,12.03-9.67,11.31-17.06-.79-8.08-6.56-14.72-13.87-17.87-4.54-1.95-9.43-2.74-14.36-2.75-3.22,0-3.22,5,0,5h0Z"/><path d="m1074.22,891.18c13.4.32,26.81.64,40.21.96l-2.16-3.76c-9.28,13.72-10.25,31.8-3.08,46.62,3.54,7.32,8.74,13.99,10.78,21.97,1.68,6.62.41,13.69-3.03,19.55-3.44,5.87-8.96,10.25-15.6,11.87s-13.76.5-19.62-2.83c-13.25-7.53-15.11-24.02-13.19-37.73,2.48-17.61,11.08-34.26,9.99-52.36-.14-2.38-.46-4.75-.94-7.09-.27-1.32-1.84-2.09-3.08-1.75-1.38.38-2.02,1.75-1.75,3.08,3.76,18.5-5.52,36.26-8.63,54.12-2.59,14.86-1.88,32.94,10.91,43.19,12.01,9.64,30.27,9.53,41.32-1.59,5.31-5.34,8.56-12.52,9.24-20,.76-8.42-2.69-16.08-6.74-23.23-2.13-3.76-4.39-7.46-6.14-11.42-1.56-3.54-2.61-7.42-3.04-11.27-.9-7.96.36-16.21,3.89-23.42.88-1.8,1.89-3.52,3.01-5.18s-.37-3.72-2.16-3.76c-13.4-.32-26.81-.64-40.21-.96-3.22-.08-3.22,4.92,0,5h0Z"/><path d="m1075.68,905.41c-6.17-3.96-14.79-2.4-19.85,2.68-5.75,5.77-5.06,14.59.01,20.54,2.84,3.33,7.03,5.43,11.42,5.47,3.22.03,3.22-4.97,0-5-5.25-.05-10-4.89-10.53-10.02s3.47-9.44,8.47-10.62c2.71-.64,5.53-.29,7.96,1.27,2.72,1.74,5.23-2.58,2.52-4.32h0Z"/><path d="m1107.86,927.18c6.63,0,13.66,1.59,18.49,6.41,4.04,4.03,6.31,10.29,3.65,15.69-1.35,2.74-3.56,4.93-6.55,5.76s-1.78,5.68,1.33,4.82c7.25-2.01,12.03-9.67,11.31-17.06-.79-8.08-6.56-14.72-13.87-17.87-4.54-1.95-9.43-2.74-14.36-2.75-3.22,0-3.22,5,0,5h0Z"/><path d="m923.06,972.66c13.4.32,26.81.64,40.21.96l-2.16-3.76c-9.28,13.72-10.25,31.8-3.08,46.62,3.54,7.32,8.74,13.99,10.78,21.97,1.68,6.62.41,13.69-3.03,19.55-3.44,5.87-8.96,10.25-15.6,11.87s-13.76.5-19.62-2.83c-13.25-7.53-15.11-24.02-13.19-37.73,2.48-17.61,11.08-34.26,9.99-52.36-.14-2.38-.46-4.75-.94-7.09-.27-1.32-1.84-2.09-3.08-1.75-1.38.38-2.02,1.75-1.75,3.08,3.76,18.5-5.52,36.26-8.63,54.12-2.59,14.86-1.88,32.94,10.91,43.19,12.01,9.64,30.27,9.53,41.32-1.59,5.31-5.34,8.56-12.52,9.24-20,.76-8.42-2.69-16.08-6.74-23.23-2.13-3.76-4.39-7.46-6.14-11.42-1.56-3.54-2.61-7.42-3.04-11.27-.9-7.96.36-16.21,3.89-23.42.88-1.8,1.89-3.52,3.01-5.18s-.37-3.72-2.16-3.76c-13.4-.32-26.81-.64-40.21-.96-3.22-.08-3.22,4.92,0,5h0Z"/><path d="m924.51,986.89c-6.17-3.96-14.79-2.4-19.85,2.68-5.75,5.77-5.06,14.59.01,20.54,2.84,3.33,7.03,5.43,11.42,5.47,3.22.03,3.22-4.97,0-5-5.25-.05-10-4.89-10.53-10.02s3.47-9.44,8.47-10.62c2.71-.64,5.53-.29,7.96,1.27,2.72,1.74,5.23-2.58,2.52-4.32h0Z"/><path d="m956.69,1008.66c6.63,0,13.66,1.59,18.49,6.41,4.04,4.03,6.31,10.29,3.65,15.69-1.35,2.74-3.56,4.93-6.55,5.76s-1.78,5.68,1.33,4.82c7.25-2.01,12.03-9.67,11.31-17.06-.79-8.08-6.56-14.72-13.87-17.87-4.54-1.95-9.43-2.74-14.36-2.75-3.22,0-3.22,5,0,5h0Z"/><path d="m1217.06,762.75c13.4.32,26.81.64,40.21.96l-2.16-3.76c-9.28,13.72-10.25,31.8-3.08,46.62,3.54,7.32,8.74,13.99,10.78,21.97,1.68,6.62.41,13.69-3.03,19.55-3.44,5.87-8.96,10.25-15.6,11.87s-13.76.5-19.62-2.83c-13.25-7.53-15.11-24.02-13.19-37.73,2.48-17.61,11.08-34.26,9.99-52.36-.14-2.38-.46-4.75-.94-7.09-.27-1.32-1.84-2.09-3.08-1.75-1.38.38-2.02,1.75-1.75,3.08,3.76,18.5-5.52,36.26-8.63,54.12-2.59,14.86-1.88,32.94,10.91,43.19,12.01,9.64,30.27,9.53,41.32-1.59,5.31-5.34,8.56-12.52,9.24-20,.76-8.42-2.69-16.08-6.74-23.23-2.13-3.76-4.39-7.46-6.14-11.42-1.56-3.54-2.61-7.42-3.04-11.27-.9-7.96.36-16.21,3.89-23.42.88-1.8,1.89-3.52,3.01-5.18s-.37-3.72-2.16-3.76c-13.4-.32-26.81-.64-40.21-.96-3.22-.08-3.22,4.92,0,5h0Z"/><path d="m1218.51,776.98c-6.17-3.96-14.79-2.4-19.85,2.68-5.75,5.77-5.06,14.59.01,20.54,2.84,3.33,7.03,5.43,11.42,5.47,3.22.03,3.22-4.97,0-5-5.25-.05-10-4.89-10.53-10.02s3.47-9.44,8.47-10.62c2.71-.64,5.53-.29,7.96,1.27,2.72,1.74,5.23-2.58,2.52-4.32h0Z"/><path d="m1250.69,798.75c6.63,0,13.66,1.59,18.49,6.41,4.04,4.03,6.31,10.29,3.65,15.69-1.35,2.74-3.56,4.93-6.55,5.76s-1.78,5.68,1.33,4.82c7.25-2.01,12.03-9.67,11.31-17.06-.79-8.08-6.56-14.72-13.87-17.87-4.54-1.95-9.43-2.74-14.36-2.75-3.22,0-3.22,5,0,5h0Z"/><path d="m1199.09,963.49c13.4.32,26.81.64,40.21.96l-2.16-3.76c-9.28,13.72-10.25,31.8-3.08,46.62,3.54,7.32,8.74,13.99,10.78,21.97,1.68,6.62.41,13.69-3.03,19.55-3.44,5.87-8.96,10.25-15.6,11.87s-13.76.5-19.62-2.83c-13.25-7.53-15.11-24.02-13.19-37.73,2.48-17.61,11.08-34.26,9.99-52.36-.14-2.38-.46-4.75-.94-7.09-.27-1.32-1.84-2.09-3.08-1.75-1.38.38-2.02,1.75-1.75,3.08,3.76,18.5-5.52,36.26-8.63,54.12-2.59,14.86-1.88,32.94,10.91,43.19,12.01,9.64,30.27,9.53,41.32-1.59,5.31-5.34,8.56-12.52,9.24-20,.76-8.42-2.69-16.08-6.74-23.23-2.13-3.76-4.39-7.46-6.14-11.42-1.56-3.54-2.61-7.42-3.04-11.27-.9-7.96.36-16.21,3.89-23.42.88-1.8,1.89-3.52,3.01-5.18s-.37-3.72-2.16-3.76c-13.4-.32-26.81-.64-40.21-.96-3.22-.08-3.22,4.92,0,5h0Z"/><path d="m1200.54,977.72c-6.17-3.96-14.79-2.4-19.85,2.68-5.75,5.77-5.06,14.59.01,20.54,2.84,3.33,7.03,5.43,11.42,5.47,3.22.03,3.22-4.97,0-5-5.25-.05-10-4.89-10.53-10.02s3.47-9.44,8.47-10.62c2.71-.64,5.53-.29,7.96,1.27,2.72,1.74,5.23-2.58,2.52-4.32h0Z"/><path d="m1232.72,999.49c6.63,0,13.66,1.59,18.49,6.41,4.04,4.03,6.31,10.29,3.65,15.69-1.35,2.74-3.56,4.93-6.55,5.76s-1.78,5.68,1.33,4.82c7.25-2.01,12.03-9.67,11.31-17.06-.79-8.08-6.56-14.72-13.87-17.87-4.54-1.95-9.43-2.74-14.36-2.75-3.22,0-3.22,5,0,5h0Z"/><path d="m1454.13,974.03c13.4.32,26.81.64,40.21.96l-2.16-3.76c-9.28,13.72-10.25,31.8-3.08,46.62,3.54,7.32,8.74,13.99,10.78,21.97,1.68,6.62.41,13.69-3.03,19.55-3.44,5.87-8.96,10.25-15.6,11.87s-13.76.5-19.62-2.83c-13.25-7.53-15.11-24.02-13.19-37.73,2.48-17.61,11.08-34.26,9.99-52.36-.14-2.38-.46-4.75-.94-7.09-.27-1.32-1.84-2.09-3.08-1.75-1.38.38-2.02,1.75-1.75,3.08,3.76,18.5-5.52,36.26-8.63,54.12-2.59,14.86-1.88,32.94,10.91,43.19,12.01,9.64,30.27,9.53,41.32-1.59,5.31-5.34,8.56-12.52,9.24-20,.76-8.42-2.69-16.08-6.74-23.23-2.13-3.76-4.39-7.46-6.14-11.42-1.56-3.54-2.61-7.42-3.04-11.27-.9-7.96.36-16.21,3.89-23.42.88-1.8,1.89-3.52,3.01-5.18s-.37-3.72-2.16-3.76c-13.4-.32-26.81-.64-40.21-.96-3.22-.08-3.22,4.92,0,5h0Z"/><path d="m1455.58,988.26c-6.17-3.96-14.79-2.4-19.85,2.68-5.75,5.77-5.06,14.59.01,20.54,2.84,3.33,7.03,5.43,11.42,5.47,3.22.03,3.22-4.97,0-5-5.25-.05-10-4.89-10.53-10.02s3.47-9.44,8.47-10.62c2.71-.64,5.53-.29,7.96,1.27,2.72,1.74,5.23-2.58,2.52-4.32h0Z"/><path d="m1487.77,1010.03c6.63,0,13.66,1.59,18.49,6.41,4.04,4.03,6.31,10.29,3.65,15.69-1.35,2.74-3.56,4.93-6.55,5.76s-1.78,5.68,1.33,4.82c7.25-2.01,12.03-9.67,11.31-17.06-.79-8.08-6.56-14.72-13.87-17.87-4.54-1.95-9.43-2.74-14.36-2.75-3.22,0-3.22,5,0,5h0Z"/><path d="m1318.32,873.98c13.4.32,26.81.64,40.21.96l-2.16-3.76c-9.28,13.72-10.25,31.8-3.08,46.62,3.54,7.32,8.74,13.99,10.78,21.97,1.68,6.62.41,13.69-3.03,19.55-3.44,5.87-8.96,10.25-15.6,11.87s-13.76.5-19.62-2.83c-13.25-7.53-15.11-24.02-13.19-37.73,2.48-17.61,11.08-34.26,9.99-52.36-.14-2.38-.46-4.75-.94-7.09-.27-1.32-1.84-2.09-3.08-1.75-1.38.38-2.02,1.75-1.75,3.08,3.76,18.5-5.52,36.26-8.63,54.12-2.59,14.86-1.88,32.94,10.91,43.19,12.01,9.64,30.27,9.53,41.32-1.59,5.31-5.34,8.56-12.52,9.24-20,.76-8.42-2.69-16.08-6.74-23.23-2.13-3.76-4.39-7.46-6.14-11.42-1.56-3.54-2.61-7.42-3.04-11.27-.9-7.96.36-16.21,3.89-23.42.88-1.8,1.89-3.52,3.01-5.18s-.37-3.72-2.16-3.76c-13.4-.32-26.81-.64-40.21-.96-3.22-.08-3.22,4.92,0,5h0Z"/><path d="m1319.77,888.21c-6.17-3.96-14.79-2.4-19.85,2.68-5.75,5.77-5.06,14.59.01,20.54,2.84,3.33,7.03,5.43,11.42,5.47,3.22.03,3.22-4.97,0-5-5.25-.05-10-4.89-10.53-10.02s3.47-9.44,8.47-10.62c2.71-.64,5.53-.29,7.96,1.27,2.72,1.74,5.23-2.58,2.52-4.32h0Z"/><path d="m1351.95,909.99c6.63,0,13.66,1.59,18.49,6.41,4.04,4.03,6.31,10.29,3.65,15.69-1.35,2.74-3.56,4.93-6.55,5.76s-1.78,5.68,1.33,4.82c7.25-2.01,12.03-9.67,11.31-17.06-.79-8.08-6.56-14.72-13.87-17.87-4.54-1.95-9.43-2.74-14.36-2.75-3.22,0-3.22,5,0,5h0Z"/><path d="m1448.87,771.06c13.4.32,26.81.64,40.21.96l-2.16-3.76c-9.28,13.72-10.25,31.8-3.08,46.62,3.54,7.32,8.74,13.99,10.78,21.97,1.68,6.62.41,13.69-3.03,19.55-3.44,5.87-8.96,10.25-15.6,11.87s-13.76.5-19.62-2.83c-13.25-7.53-15.11-24.02-13.19-37.73,2.48-17.61,11.08-34.26,9.99-52.36-.14-2.38-.46-4.75-.94-7.09-.27-1.32-1.84-2.09-3.08-1.75-1.38.38-2.02,1.75-1.75,3.08,3.76,18.5-5.52,36.26-8.63,54.12-2.59,14.86-1.88,32.94,10.91,43.19,12.01,9.64,30.27,9.53,41.32-1.59,5.31-5.34,8.56-12.52,9.24-20,.76-8.42-2.69-16.08-6.74-23.23-2.13-3.76-4.39-7.46-6.14-11.42-1.56-3.54-2.61-7.42-3.04-11.27-.9-7.96.36-16.21,3.89-23.42.88-1.8,1.89-3.52,3.01-5.18s-.37-3.72-2.16-3.76c-13.4-.32-26.81-.64-40.21-.96-3.22-.08-3.22,4.92,0,5h0Z"/><path d="m1450.32,785.29c-6.17-3.96-14.79-2.4-19.85,2.68-5.75,5.77-5.06,14.59.01,20.54,2.84,3.33,7.03,5.43,11.42,5.47,3.22.03,3.22-4.97,0-5-5.25-.05-10-4.89-10.53-10.02s3.47-9.44,8.47-10.62c2.71-.64,5.53-.29,7.96,1.27,2.72,1.74,5.23-2.58,2.52-4.32h0Z"/><path d="m1482.5,807.07c6.63,0,13.66,1.59,18.49,6.41,4.04,4.03,6.31,10.29,3.65,15.69-1.35,2.74-3.56,4.93-6.55,5.76s-1.78,5.68,1.33,4.82c7.25-2.01,12.03-9.67,11.31-17.06-.79-8.08-6.56-14.72-13.87-17.87-4.54-1.95-9.43-2.74-14.36-2.75-3.22,0-3.22,5,0,5h0Z"/><path d="m1596.95,861.79c13.4.32,26.81.64,40.21.96l-2.16-3.76c-9.28,13.72-10.25,31.8-3.08,46.62,3.54,7.32,8.74,13.99,10.78,21.97,1.68,6.62.41,13.69-3.03,19.55-3.44,5.87-8.96,10.25-15.6,11.87s-13.76.5-19.62-2.83c-13.25-7.53-15.11-24.02-13.19-37.73,2.48-17.61,11.08-34.26,9.99-52.36-.14-2.38-.46-4.75-.94-7.09-.27-1.32-1.84-2.09-3.08-1.75-1.38.38-2.02,1.75-1.75,3.08,3.76,18.5-5.52,36.26-8.63,54.12-2.59,14.86-1.88,32.94,10.91,43.19,12.01,9.64,30.27,9.53,41.32-1.59,5.31-5.34,8.56-12.52,9.24-20,.76-8.42-2.69-16.08-6.74-23.23-2.13-3.76-4.39-7.46-6.14-11.42-1.56-3.54-2.61-7.42-3.04-11.27-.9-7.96.36-16.21,3.89-23.42.88-1.8,1.89-3.52,3.01-5.18s-.37-3.72-2.16-3.76c-13.4-.32-26.81-.64-40.21-.96-3.22-.08-3.22,4.92,0,5h0Z"/><path d="m1598.4,876.03c-6.17-3.96-14.79-2.4-19.85,2.68-5.75,5.77-5.06,14.59.01,20.54,2.84,3.33,7.03,5.43,11.42,5.47,3.22.03,3.22-4.97,0-5-5.25-.05-10-4.89-10.53-10.02s3.47-9.44,8.47-10.62c2.71-.64,5.53-.29,7.96,1.27,2.72,1.74,5.23-2.58,2.52-4.32h0Z"/><path d="m1630.58,897.8c6.63,0,13.66,1.59,18.49,6.41,4.04,4.03,6.31,10.29,3.65,15.69-1.35,2.74-3.56,4.93-6.55,5.76s-1.78,5.68,1.33,4.82c7.25-2.01,12.03-9.67,11.31-17.06-.79-8.08-6.56-14.72-13.87-17.87-4.54-1.95-9.43-2.74-14.36-2.75-3.22,0-3.22,5,0,5h0Z"/><path d="m1729.29,976.43c13.4.32,26.81.64,40.21.96l-2.16-3.76c-9.28,13.72-10.25,31.8-3.08,46.62,3.54,7.32,8.74,13.99,10.78,21.97,1.68,6.62.41,13.69-3.03,19.55-3.44,5.87-8.96,10.25-15.6,11.87s-13.76.5-19.62-2.83c-13.25-7.53-15.11-24.02-13.19-37.73,2.48-17.61,11.08-34.26,9.99-52.36-.14-2.38-.46-4.75-.94-7.09-.27-1.32-1.84-2.09-3.08-1.75-1.38.38-2.02,1.75-1.75,3.08,3.76,18.5-5.52,36.26-8.63,54.12-2.59,14.86-1.88,32.94,10.91,43.19,12.01,9.64,30.27,9.53,41.32-1.59,5.31-5.34,8.56-12.52,9.24-20,.76-8.42-2.69-16.08-6.74-23.23-2.13-3.76-4.39-7.46-6.14-11.42-1.56-3.54-2.61-7.42-3.04-11.27-.9-7.96.36-16.21,3.89-23.42.88-1.8,1.89-3.52,3.01-5.18s-.37-3.72-2.16-3.76c-13.4-.32-26.81-.64-40.21-.96-3.22-.08-3.22,4.92,0,5h0Z"/><path d="m1730.74,990.67c-6.17-3.96-14.79-2.4-19.85,2.68-5.75,5.77-5.06,14.59.01,20.54,2.84,3.33,7.03,5.43,11.42,5.47,3.22.03,3.22-4.97,0-5-5.25-.05-10-4.89-10.53-10.02s3.47-9.44,8.47-10.62c2.71-.64,5.53-.29,7.96,1.27,2.72,1.74,5.23-2.58,2.52-4.32h0Z"/><path d="m1762.92,1012.44c6.63,0,13.66,1.59,18.49,6.41,4.04,4.03,6.31,10.29,3.65,15.69-1.35,2.74-3.56,4.93-6.55,5.76s-1.78,5.68,1.33,4.82c7.25-2.01,12.03-9.67,11.31-17.06-.79-8.08-6.56-14.72-13.87-17.87-4.54-1.95-9.43-2.74-14.36-2.75-3.22,0-3.22,5,0,5h0Z"/><path d="m1831.94,873.98c13.4.32,26.81.64,40.21.96l-2.16-3.76c-9.28,13.72-10.25,31.8-3.08,46.62,3.54,7.32,8.74,13.99,10.78,21.97,1.68,6.62.41,13.69-3.03,19.55-3.44,5.87-8.96,10.25-15.6,11.87s-13.76.5-19.62-2.83c-13.25-7.53-15.11-24.02-13.19-37.73,2.48-17.61,11.08-34.26,9.99-52.36-.14-2.38-.46-4.75-.94-7.09-.27-1.32-1.84-2.09-3.08-1.75-1.38.38-2.02,1.75-1.75,3.08,3.76,18.5-5.52,36.26-8.63,54.12-2.59,14.86-1.88,32.94,10.91,43.19,12.01,9.64,30.27,9.53,41.32-1.59,5.31-5.34,8.56-12.52,9.24-20,.76-8.42-2.69-16.08-6.74-23.23-2.13-3.76-4.39-7.46-6.14-11.42-1.56-3.54-2.61-7.42-3.04-11.27-.9-7.96.36-16.21,3.89-23.42.88-1.8,1.89-3.52,3.01-5.18s-.37-3.72-2.16-3.76c-13.4-.32-26.81-.64-40.21-.96-3.22-.08-3.22,4.92,0,5h0Z"/><path d="m1833.39,888.21c-6.17-3.96-14.79-2.4-19.85,2.68-5.75,5.77-5.06,14.59.01,20.54,2.84,3.33,7.03,5.43,11.42,5.47,3.22.03,3.22-4.97,0-5-5.25-.05-10-4.89-10.53-10.02s3.47-9.44,8.47-10.62c2.71-.64,5.53-.29,7.96,1.27,2.72,1.74,5.23-2.58,2.52-4.32h0Z"/><path d="m1865.57,909.99c6.63,0,13.66,1.59,18.49,6.41,4.04,4.03,6.31,10.29,3.65,15.69-1.35,2.74-3.56,4.93-6.55,5.76s-1.78,5.68,1.33,4.82c7.25-2.01,12.03-9.67,11.31-17.06-.79-8.08-6.56-14.72-13.87-17.87-4.54-1.95-9.43-2.74-14.36-2.75-3.22,0-3.22,5,0,5h0Z"/><path d="m1706.86,770.41c13.4.32,26.81.64,40.21.96l-2.16-3.76c-9.28,13.72-10.25,31.8-3.08,46.62,3.54,7.32,8.74,13.99,10.78,21.97,1.68,6.62.41,13.69-3.03,19.55-3.44,5.87-8.96,10.25-15.6,11.87s-13.76.5-19.62-2.83c-13.25-7.53-15.11-24.02-13.19-37.73,2.48-17.61,11.08-34.26,9.99-52.36-.14-2.38-.46-4.75-.94-7.09-.27-1.32-1.84-2.09-3.08-1.75-1.38.38-2.02,1.75-1.75,3.08,3.76,18.5-5.52,36.26-8.63,54.12-2.59,14.86-1.88,32.94,10.91,43.19,12.01,9.64,30.27,9.53,41.32-1.59,5.31-5.34,8.56-12.52,9.24-20,.76-8.42-2.69-16.08-6.74-23.23-2.13-3.76-4.39-7.46-6.14-11.42-1.56-3.54-2.61-7.42-3.04-11.27-.9-7.96.36-16.21,3.89-23.42.88-1.8,1.89-3.52,3.01-5.18s-.37-3.72-2.16-3.76c-13.4-.32-26.81-.64-40.21-.96-3.22-.08-3.22,4.92,0,5h0Z"/><path d="m1708.31,784.64c-6.17-3.96-14.79-2.4-19.85,2.68-5.75,5.77-5.06,14.59.01,20.54,2.84,3.33,7.03,5.43,11.42,5.47,3.22.03,3.22-4.97,0-5-5.25-.05-10-4.89-10.53-10.02s3.47-9.44,8.47-10.62c2.71-.64,5.53-.29,7.96,1.27,2.72,1.74,5.23-2.58,2.52-4.32h0Z"/><path d="m1740.5,806.41c6.63,0,13.66,1.59,18.49,6.41,4.04,4.03,6.31,10.29,3.65,15.69-1.35,2.74-3.56,4.93-6.55,5.76s-1.78,5.68,1.33,4.82c7.25-2.01,12.03-9.67,11.31-17.06-.79-8.08-6.56-14.72-13.87-17.87-4.54-1.95-9.43-2.74-14.36-2.75-3.22,0-3.22,5,0,5h0Z"/><path d="m1844.86,661.65c13.4.32,26.81.64,40.21.96l-2.16-3.76c-9.28,13.72-10.25,31.8-3.08,46.62,3.54,7.32,8.74,13.99,10.78,21.97,1.68,6.62.41,13.69-3.03,19.55-3.44,5.87-8.96,10.25-15.6,11.87s-13.76.5-19.62-2.83c-13.25-7.53-15.11-24.02-13.19-37.73,2.48-17.61,11.08-34.26,9.99-52.36-.14-2.38-.46-4.75-.94-7.09-.27-1.32-1.84-2.09-3.08-1.75-1.38.38-2.02,1.75-1.75,3.08,3.76,18.5-5.52,36.26-8.63,54.12-2.59,14.86-1.88,32.94,10.91,43.19,12.01,9.64,30.27,9.53,41.32-1.59,5.31-5.34,8.56-12.52,9.24-20,.76-8.42-2.69-16.08-6.74-23.23-2.13-3.76-4.39-7.46-6.14-11.42-1.56-3.54-2.61-7.42-3.04-11.27-.9-7.96.36-16.21,3.89-23.42.88-1.8,1.89-3.52,3.01-5.18s-.37-3.72-2.16-3.76c-13.4-.32-26.81-.64-40.21-.96-3.22-.08-3.22,4.92,0,5h0Z"/><path d="m1846.32,675.88c-6.17-3.96-14.79-2.4-19.85,2.68-5.75,5.77-5.06,14.59.01,20.54,2.84,3.33,7.03,5.43,11.42,5.47,3.22.03,3.22-4.97,0-5-5.25-.05-10-4.89-10.53-10.02s3.47-9.44,8.47-10.62c2.71-.64,5.53-.29,7.96,1.27,2.72,1.74,5.23-2.58,2.52-4.32h0Z"/><path d="m1878.5,697.66c6.63,0,13.66,1.59,18.49,6.41,4.04,4.03,6.31,10.29,3.65,15.69-1.35,2.74-3.56,4.93-6.55,5.76s-1.78,5.68,1.33,4.82c7.25-2.01,12.03-9.67,11.31-17.06-.79-8.08-6.56-14.72-13.87-17.87-4.54-1.95-9.43-2.74-14.36-2.75-3.22,0-3.22,5,0,5h0Z"/><path d="m1723.5,549.17c13.4.32,26.81.64,40.21.96l-2.16-3.76c-9.28,13.72-10.25,31.8-3.08,46.62,3.54,7.32,8.74,13.99,10.78,21.97,1.68,6.62.41,13.69-3.03,19.55-3.44,5.87-8.96,10.25-15.6,11.87s-13.76.5-19.62-2.83c-13.25-7.53-15.11-24.02-13.19-37.73,2.48-17.61,11.08-34.26,9.99-52.36-.14-2.38-.46-4.75-.94-7.09-.27-1.32-1.84-2.09-3.08-1.75-1.38.38-2.02,1.75-1.75,3.08,3.76,18.5-5.52,36.26-8.63,54.12-2.59,14.86-1.88,32.94,10.91,43.19,12.01,9.64,30.27,9.53,41.32-1.59,5.31-5.34,8.56-12.52,9.24-20,.76-8.42-2.69-16.08-6.74-23.23-2.13-3.76-4.39-7.46-6.14-11.42-1.56-3.54-2.61-7.42-3.04-11.27-.9-7.96.36-16.21,3.89-23.42.88-1.8,1.89-3.52,3.01-5.18s-.37-3.72-2.16-3.76c-13.4-.32-26.81-.64-40.21-.96-3.22-.08-3.22,4.92,0,5h0Z"/><path d="m1724.96,563.4c-6.17-3.96-14.79-2.4-19.85,2.68-5.75,5.77-5.06,14.59.01,20.54,2.84,3.33,7.03,5.43,11.42,5.47,3.22.03,3.22-4.97,0-5-5.25-.05-10-4.89-10.53-10.02s3.47-9.44,8.47-10.62c2.71-.64,5.53-.29,7.96,1.27,2.72,1.74,5.23-2.58,2.52-4.32h0Z"/><path d="m1757.14,585.17c6.63,0,13.66,1.59,18.49,6.41,4.04,4.03,6.31,10.29,3.65,15.69-1.35,2.74-3.56,4.93-6.55,5.76s-1.78,5.68,1.33,4.82c7.25-2.01,12.03-9.67,11.31-17.06-.79-8.08-6.56-14.72-13.87-17.87-4.54-1.95-9.43-2.74-14.36-2.75-3.22,0-3.22,5,0,5h0Z"/><path d="m1592.43,660.28c13.4.32,26.81.64,40.21.96l-2.16-3.76c-9.28,13.72-10.25,31.8-3.08,46.62,3.54,7.32,8.74,13.99,10.78,21.97,1.68,6.62.41,13.69-3.03,19.55-3.44,5.87-8.96,10.25-15.6,11.87s-13.76.5-19.62-2.83c-13.25-7.53-15.11-24.02-13.19-37.73,2.48-17.61,11.08-34.26,9.99-52.36-.14-2.38-.46-4.75-.94-7.09-.27-1.32-1.84-2.09-3.08-1.75-1.38.38-2.02,1.75-1.75,3.08,3.76,18.5-5.52,36.26-8.63,54.12-2.59,14.86-1.88,32.94,10.91,43.19,12.01,9.64,30.27,9.53,41.32-1.59,5.31-5.34,8.56-12.52,9.24-20,.76-8.42-2.69-16.08-6.74-23.23-2.13-3.76-4.39-7.46-6.14-11.42-1.56-3.54-2.61-7.42-3.04-11.27-.9-7.96.36-16.21,3.89-23.42.88-1.8,1.89-3.52,3.01-5.18s-.37-3.72-2.16-3.76c-13.4-.32-26.81-.64-40.21-.96-3.22-.08-3.22,4.92,0,5h0Z"/><path d="m1593.88,674.51c-6.17-3.96-14.79-2.4-19.85,2.68-5.75,5.77-5.06,14.59.01,20.54,2.84,3.33,7.03,5.43,11.42,5.47,3.22.03,3.22-4.97,0-5-5.25-.05-10-4.89-10.53-10.02s3.47-9.44,8.47-10.62c2.71-.64,5.53-.29,7.96,1.27,2.72,1.74,5.23-2.58,2.52-4.32h0Z"/><path d="m1626.06,696.29c6.63,0,13.66,1.59,18.49,6.41,4.04,4.03,6.31,10.29,3.65,15.69-1.35,2.74-3.56,4.93-6.55,5.76s-1.78,5.68,1.33,4.82c7.25-2.01,12.03-9.67,11.31-17.06-.79-8.08-6.56-14.72-13.87-17.87-4.54-1.95-9.43-2.74-14.36-2.75-3.22,0-3.22,5,0,5h0Z"/><path d="m1839.48,459.85c13.4.32,26.81.64,40.21.96l-2.16-3.76c-9.28,13.72-10.25,31.8-3.08,46.62,3.54,7.32,8.74,13.99,10.78,21.97,1.68,6.62.41,13.69-3.03,19.55-3.44,5.87-8.96,10.25-15.6,11.87s-13.76.5-19.62-2.83c-13.25-7.53-15.11-24.02-13.19-37.73,2.48-17.61,11.08-34.26,9.99-52.36-.14-2.38-.46-4.75-.94-7.09-.27-1.32-1.84-2.09-3.08-1.75-1.38.38-2.02,1.75-1.75,3.08,3.76,18.5-5.52,36.26-8.63,54.12-2.59,14.86-1.88,32.94,10.91,43.19,12.01,9.64,30.27,9.53,41.32-1.59,5.31-5.34,8.56-12.52,9.24-20,.76-8.42-2.69-16.08-6.74-23.23-2.13-3.76-4.39-7.46-6.14-11.42-1.56-3.54-2.61-7.42-3.04-11.27-.9-7.96.36-16.21,3.89-23.42.88-1.8,1.89-3.52,3.01-5.18s-.37-3.72-2.16-3.76c-13.4-.32-26.81-.64-40.21-.96-3.22-.08-3.22,4.92,0,5h0Z"/><path d="m1840.94,474.08c-6.17-3.96-14.79-2.4-19.85,2.68-5.75,5.77-5.06,14.59.01,20.54,2.84,3.33,7.03,5.43,11.42,5.47,3.22.03,3.22-4.97,0-5-5.25-.05-10-4.89-10.53-10.02s3.47-9.44,8.47-10.62c2.71-.64,5.53-.29,7.96,1.27,2.72,1.74,5.23-2.58,2.52-4.32h0Z"/><path d="m1873.12,495.85c6.63,0,13.66,1.59,18.49,6.41,4.04,4.03,6.31,10.29,3.65,15.69-1.35,2.74-3.56,4.93-6.55,5.76s-1.78,5.68,1.33,4.82c7.25-2.01,12.03-9.67,11.31-17.06-.79-8.08-6.56-14.72-13.87-17.87-4.54-1.95-9.43-2.74-14.36-2.75-3.22,0-3.22,5,0,5h0Z"/><path d="m1605.75,469.15c13.4.32,26.81.64,40.21.96l-2.16-3.76c-9.28,13.72-10.25,31.8-3.08,46.62,3.54,7.32,8.74,13.99,10.78,21.97,1.68,6.62.41,13.69-3.03,19.55-3.44,5.87-8.96,10.25-15.6,11.87s-13.76.5-19.62-2.83c-13.25-7.53-15.11-24.02-13.19-37.73,2.48-17.61,11.08-34.26,9.99-52.36-.14-2.38-.46-4.75-.94-7.09-.27-1.32-1.84-2.09-3.08-1.75-1.38.38-2.02,1.75-1.75,3.08,3.76,18.5-5.52,36.26-8.63,54.12-2.59,14.86-1.88,32.94,10.91,43.19,12.01,9.64,30.27,9.53,41.32-1.59,5.31-5.34,8.56-12.52,9.24-20,.76-8.42-2.69-16.08-6.74-23.23-2.13-3.76-4.39-7.46-6.14-11.42-1.56-3.54-2.61-7.42-3.04-11.27-.9-7.96.36-16.21,3.89-23.42.88-1.8,1.89-3.52,3.01-5.18s-.37-3.72-2.16-3.76c-13.4-.32-26.81-.64-40.21-.96-3.22-.08-3.22,4.92,0,5h0Z"/><path d="m1607.2,483.39c-6.17-3.96-14.79-2.4-19.85,2.68-5.75,5.77-5.06,14.59.01,20.54,2.84,3.33,7.03,5.43,11.42,5.47,3.22.03,3.22-4.97,0-5-5.25-.05-10-4.89-10.53-10.02s3.47-9.44,8.47-10.62c2.71-.64,5.53-.29,7.96,1.27,2.72,1.74,5.23-2.58,2.52-4.32h0Z"/><path d="m1639.38,505.16c6.63,0,13.66,1.59,18.49,6.41,4.04,4.03,6.31,10.29,3.65,15.69-1.35,2.74-3.56,4.93-6.55,5.76s-1.78,5.68,1.33,4.82c7.25-2.01,12.03-9.67,11.31-17.06-.79-8.08-6.56-14.72-13.87-17.87-4.54-1.95-9.43-2.74-14.36-2.75-3.22,0-3.22,5,0,5h0Z"/><path d="m1726.36,370.53c13.4.32,26.81.64,40.21.96l-2.16-3.76c-9.28,13.72-10.25,31.8-3.08,46.62,3.54,7.32,8.74,13.99,10.78,21.97,1.68,6.62.41,13.69-3.03,19.55-3.44,5.87-8.96,10.25-15.6,11.87s-13.76.5-19.62-2.83c-13.25-7.53-15.11-24.02-13.19-37.73,2.48-17.61,11.08-34.26,9.99-52.36-.14-2.38-.46-4.75-.94-7.09-.27-1.32-1.84-2.09-3.08-1.75-1.38.38-2.02,1.75-1.75,3.08,3.76,18.5-5.52,36.26-8.63,54.12-2.59,14.86-1.88,32.94,10.91,43.19,12.01,9.64,30.27,9.53,41.32-1.59,5.31-5.34,8.56-12.52,9.24-20,.76-8.42-2.69-16.08-6.74-23.23-2.13-3.76-4.39-7.46-6.14-11.42-1.56-3.54-2.61-7.42-3.04-11.27-.9-7.96.36-16.21,3.89-23.42.88-1.8,1.89-3.52,3.01-5.18s-.37-3.72-2.16-3.76c-13.4-.32-26.81-.64-40.21-.96-3.22-.08-3.22,4.92,0,5h0Z"/><path d="m1727.81,384.76c-6.17-3.96-14.79-2.4-19.85,2.68-5.75,5.77-5.06,14.59.01,20.54,2.84,3.33,7.03,5.43,11.42,5.47,3.22.03,3.22-4.97,0-5-5.25-.05-10-4.89-10.53-10.02s3.47-9.44,8.47-10.62c2.71-.64,5.53-.29,7.96,1.27,2.72,1.74,5.23-2.58,2.52-4.32h0Z"/><path d="m1759.99,406.54c6.63,0,13.66,1.59,18.49,6.41,4.04,4.03,6.31,10.29,3.65,15.69-1.35,2.74-3.56,4.93-6.55,5.76s-1.78,5.68,1.33,4.82c7.25-2.01,12.03-9.67,11.31-17.06-.79-8.08-6.56-14.72-13.87-17.87-4.54-1.95-9.43-2.74-14.36-2.75-3.22,0-3.22,5,0,5h0Z"/><path d="m1452.67,361.9c13.4.32,26.81.64,40.21.96l-2.16-3.76c-9.28,13.72-10.25,31.8-3.08,46.62,3.54,7.32,8.74,13.99,10.78,21.97,1.68,6.62.41,13.69-3.03,19.55-3.44,5.87-8.96,10.25-15.6,11.87s-13.76.5-19.62-2.83c-13.25-7.53-15.11-24.02-13.19-37.73,2.48-17.61,11.08-34.26,9.99-52.36-.14-2.38-.46-4.75-.94-7.09-.27-1.32-1.84-2.09-3.08-1.75-1.38.38-2.02,1.75-1.75,3.08,3.76,18.5-5.52,36.26-8.63,54.12-2.59,14.86-1.88,32.94,10.91,43.19,12.01,9.64,30.27,9.53,41.32-1.59,5.31-5.34,8.56-12.52,9.24-20,.76-8.42-2.69-16.08-6.74-23.23-2.13-3.76-4.39-7.46-6.14-11.42-1.56-3.54-2.61-7.42-3.04-11.27-.9-7.96.36-16.21,3.89-23.42.88-1.8,1.89-3.52,3.01-5.18s-.37-3.72-2.16-3.76c-13.4-.32-26.81-.64-40.21-.96-3.22-.08-3.22,4.92,0,5h0Z"/><path d="m1454.12,376.14c-6.17-3.96-14.79-2.4-19.85,2.68-5.75,5.77-5.06,14.59.01,20.54,2.84,3.33,7.03,5.43,11.42,5.47,3.22.03,3.22-4.97,0-5-5.25-.05-10-4.89-10.53-10.02s3.47-9.44,8.47-10.62c2.71-.64,5.53-.29,7.96,1.27,2.72,1.74,5.23-2.58,2.52-4.32h0Z"/><path d="m1486.31,397.91c6.63,0,13.66,1.59,18.49,6.41,4.04,4.03,6.31,10.29,3.65,15.69-1.35,2.74-3.56,4.93-6.55,5.76s-1.78,5.68,1.33,4.82c7.25-2.01,12.03-9.67,11.31-17.06-.79-8.08-6.56-14.72-13.87-17.87-4.54-1.95-9.43-2.74-14.36-2.75-3.22,0-3.22,5,0,5h0Z"/><path d="m1581.49,253.08c13.4.32,26.81.64,40.21.96l-2.16-3.76c-9.28,13.72-10.25,31.8-3.08,46.62,3.54,7.32,8.74,13.99,10.78,21.97,1.68,6.62.41,13.69-3.03,19.55-3.44,5.87-8.96,10.25-15.6,11.87s-13.76.5-19.62-2.83c-13.25-7.53-15.11-24.02-13.19-37.73,2.48-17.61,11.08-34.26,9.99-52.36-.14-2.38-.46-4.75-.94-7.09-.27-1.32-1.84-2.09-3.08-1.75-1.38.38-2.02,1.75-1.75,3.08,3.76,18.5-5.52,36.26-8.63,54.12-2.59,14.86-1.88,32.94,10.91,43.19,12.01,9.64,30.27,9.53,41.32-1.59,5.31-5.34,8.56-12.52,9.24-20,.76-8.42-2.69-16.08-6.74-23.23-2.13-3.76-4.39-7.46-6.14-11.42-1.56-3.54-2.61-7.42-3.04-11.27-.9-7.96.36-16.21,3.89-23.42.88-1.8,1.89-3.52,3.01-5.18s-.37-3.72-2.16-3.76c-13.4-.32-26.81-.64-40.21-.96-3.22-.08-3.22,4.92,0,5h0Z"/><path d="m1582.94,267.31c-6.17-3.96-14.79-2.4-19.85,2.68-5.75,5.77-5.06,14.59.01,20.54,2.84,3.33,7.03,5.43,11.42,5.47,3.22.03,3.22-4.97,0-5-5.25-.05-10-4.89-10.53-10.02s3.47-9.44,8.47-10.62c2.71-.64,5.53-.29,7.96,1.27,2.72,1.74,5.23-2.58,2.52-4.32h0Z"/><path d="m1615.12,289.09c6.63,0,13.66,1.59,18.49,6.41,4.04,4.03,6.31,10.29,3.65,15.69-1.35,2.74-3.56,4.93-6.55,5.76s-1.78,5.68,1.33,4.82c7.25-2.01,12.03-9.67,11.31-17.06-.79-8.08-6.56-14.72-13.87-17.87-4.54-1.95-9.43-2.74-14.36-2.75-3.22,0-3.22,5,0,5h0Z"/><path d="m1320.76,246.45c13.4.32,26.81.64,40.21.96l-2.16-3.76c-9.28,13.72-10.25,31.8-3.08,46.62,3.54,7.32,8.74,13.99,10.78,21.97,1.68,6.62.41,13.69-3.03,19.55-3.44,5.87-8.96,10.25-15.6,11.87s-13.76.5-19.62-2.83c-13.25-7.53-15.11-24.02-13.19-37.73,2.48-17.61,11.08-34.26,9.99-52.36-.14-2.38-.46-4.75-.94-7.09-.27-1.32-1.84-2.09-3.08-1.75-1.38.38-2.02,1.75-1.75,3.08,3.76,18.5-5.52,36.26-8.63,54.12-2.59,14.86-1.88,32.94,10.91,43.19,12.01,9.64,30.27,9.53,41.32-1.59,5.31-5.34,8.56-12.52,9.24-20,.76-8.42-2.69-16.08-6.74-23.23-2.13-3.76-4.39-7.46-6.14-11.42-1.56-3.54-2.61-7.42-3.04-11.27-.9-7.96.36-16.21,3.89-23.42.88-1.8,1.89-3.52,3.01-5.18s-.37-3.72-2.16-3.76c-13.4-.32-26.81-.64-40.21-.96-3.22-.08-3.22,4.92,0,5h0Z"/><path d="m1322.21,260.68c-6.17-3.96-14.79-2.4-19.85,2.68-5.75,5.77-5.06,14.59.01,20.54,2.84,3.33,7.03,5.43,11.42,5.47,3.22.03,3.22-4.97,0-5-5.25-.05-10-4.89-10.53-10.02s3.47-9.44,8.47-10.62c2.71-.64,5.53-.29,7.96,1.27,2.72,1.74,5.23-2.58,2.52-4.32h0Z"/><path d="m1354.39,282.45c6.63,0,13.66,1.59,18.49,6.41,4.04,4.03,6.31,10.29,3.65,15.69-1.35,2.74-3.56,4.93-6.55,5.76s-1.78,5.68,1.33,4.82c7.25-2.01,12.03-9.67,11.31-17.06-.79-8.08-6.56-14.72-13.87-17.87-4.54-1.95-9.43-2.74-14.36-2.75-3.22,0-3.22,5,0,5h0Z"/><path d="m1315.76,477.13c13.4.32,26.81.64,40.21.96l-2.16-3.76c-9.28,13.72-10.25,31.8-3.08,46.62,3.54,7.32,8.74,13.99,10.78,21.97,1.68,6.62.41,13.69-3.03,19.55-3.44,5.87-8.96,10.25-15.6,11.87s-13.76.5-19.62-2.83c-13.25-7.53-15.11-24.02-13.19-37.73,2.48-17.61,11.08-34.26,9.99-52.36-.14-2.38-.46-4.75-.94-7.09-.27-1.32-1.84-2.09-3.08-1.75-1.38.38-2.02,1.75-1.75,3.08,3.76,18.5-5.52,36.26-8.63,54.12-2.59,14.86-1.88,32.94,10.91,43.19,12.01,9.64,30.27,9.53,41.32-1.59,5.31-5.34,8.56-12.52,9.24-20,.76-8.42-2.69-16.08-6.74-23.23-2.13-3.76-4.39-7.46-6.14-11.42-1.56-3.54-2.61-7.42-3.04-11.27-.9-7.96.36-16.21,3.89-23.42.88-1.8,1.89-3.52,3.01-5.18s-.37-3.72-2.16-3.76c-13.4-.32-26.81-.64-40.21-.96-3.22-.08-3.22,4.92,0,5h0Z"/><path d="m1317.21,491.37c-6.17-3.96-14.79-2.4-19.85,2.68-5.75,5.77-5.06,14.59.01,20.54,2.84,3.33,7.03,5.43,11.42,5.47,3.22.03,3.22-4.97,0-5-5.25-.05-10-4.89-10.53-10.02s3.47-9.44,8.47-10.62c2.71-.64,5.53-.29,7.96,1.27,2.72,1.74,5.23-2.58,2.52-4.32h0Z"/><path d="m1349.39,513.14c6.63,0,13.66,1.59,18.49,6.41,4.04,4.03,6.31,10.29,3.65,15.69-1.35,2.74-3.56,4.93-6.55,5.76s-1.78,5.68,1.33,4.82c7.25-2.01,12.03-9.67,11.31-17.06-.79-8.08-6.56-14.72-13.87-17.87-4.54-1.95-9.43-2.74-14.36-2.75-3.22,0-3.22,5,0,5h0Z"/><path d="m1192.22,563.79c13.4.32,26.81.64,40.21.96l-2.16-3.76c-9.28,13.72-10.25,31.8-3.08,46.62,3.54,7.32,8.74,13.99,10.78,21.97,1.68,6.62.41,13.69-3.03,19.55-3.44,5.87-8.96,10.25-15.6,11.87s-13.76.5-19.62-2.83c-13.25-7.53-15.11-24.02-13.19-37.73,2.48-17.61,11.08-34.26,9.99-52.36-.14-2.38-.46-4.75-.94-7.09-.27-1.32-1.84-2.09-3.08-1.75-1.38.38-2.02,1.75-1.75,3.08,3.76,18.5-5.52,36.26-8.63,54.12-2.59,14.86-1.88,32.94,10.91,43.19,12.01,9.64,30.27,9.53,41.32-1.59,5.31-5.34,8.56-12.52,9.24-20,.76-8.42-2.69-16.08-6.74-23.23-2.13-3.76-4.39-7.46-6.14-11.42-1.56-3.54-2.61-7.42-3.04-11.27-.9-7.96.36-16.21,3.89-23.42.88-1.8,1.89-3.52,3.01-5.18s-.37-3.72-2.16-3.76c-13.4-.32-26.81-.64-40.21-.96-3.22-.08-3.22,4.92,0,5h0Z"/><path d="m1193.67,578.03c-6.17-3.96-14.79-2.4-19.85,2.68-5.75,5.77-5.06,14.59.01,20.54,2.84,3.33,7.03,5.43,11.42,5.47,3.22.03,3.22-4.97,0-5-5.25-.05-10-4.89-10.53-10.02s3.47-9.44,8.47-10.62c2.71-.64,5.53-.29,7.96,1.27,2.72,1.74,5.23-2.58,2.52-4.32h0Z"/><path d="m1225.85,599.8c6.63,0,13.66,1.59,18.49,6.41,4.04,4.03,6.31,10.29,3.65,15.69-1.35,2.74-3.56,4.93-6.55,5.76s-1.78,5.68,1.33,4.82c7.25-2.01,12.03-9.67,11.31-17.06-.79-8.08-6.56-14.72-13.87-17.87-4.54-1.95-9.43-2.74-14.36-2.75-3.22,0-3.22,5,0,5h0Z"/><path d="m1042.5,464.86c13.4.32,26.81.64,40.21.96l-2.16-3.76c-9.28,13.72-10.25,31.8-3.08,46.62,3.54,7.32,8.74,13.99,10.78,21.97,1.68,6.62.41,13.69-3.03,19.55-3.44,5.87-8.96,10.25-15.6,11.87s-13.76.5-19.62-2.83c-13.25-7.53-15.11-24.02-13.19-37.73,2.48-17.61,11.08-34.26,9.99-52.36-.14-2.38-.46-4.75-.94-7.09-.27-1.32-1.84-2.09-3.08-1.75-1.38.38-2.02,1.75-1.75,3.08,3.76,18.5-5.52,36.26-8.63,54.12-2.59,14.86-1.88,32.94,10.91,43.19,12.01,9.64,30.27,9.53,41.32-1.59,5.31-5.34,8.56-12.52,9.24-20,.76-8.42-2.69-16.08-6.74-23.23-2.13-3.76-4.39-7.46-6.14-11.42-1.56-3.54-2.61-7.42-3.04-11.27-.9-7.96.36-16.21,3.89-23.42.88-1.8,1.89-3.52,3.01-5.18s-.37-3.72-2.16-3.76c-13.4-.32-26.81-.64-40.21-.96-3.22-.08-3.22,4.92,0,5h0Z"/><path d="m1043.95,479.09c-6.17-3.96-14.79-2.4-19.85,2.68-5.75,5.77-5.06,14.59.01,20.54,2.84,3.33,7.03,5.43,11.42,5.47,3.22.03,3.22-4.97,0-5-5.25-.05-10-4.89-10.53-10.02s3.47-9.44,8.47-10.62c2.71-.64,5.53-.29,7.96,1.27,2.72,1.74,5.23-2.58,2.52-4.32h0Z"/><path d="m1076.13,500.87c6.63,0,13.66,1.59,18.49,6.41,4.04,4.03,6.31,10.29,3.65,15.69-1.35,2.74-3.56,4.93-6.55,5.76s-1.78,5.68,1.33,4.82c7.25-2.01,12.03-9.67,11.31-17.06-.79-8.08-6.56-14.72-13.87-17.87-4.54-1.95-9.43-2.74-14.36-2.75-3.22,0-3.22,5,0,5h0Z"/><path d="m1174.38,358.31c13.4.32,26.81.64,40.21.96l-2.16-3.76c-9.28,13.72-10.25,31.8-3.08,46.62,3.54,7.32,8.74,13.99,10.78,21.97,1.68,6.62.41,13.69-3.03,19.55-3.44,5.87-8.96,10.25-15.6,11.87s-13.76.5-19.62-2.83c-13.25-7.53-15.11-24.02-13.19-37.73,2.48-17.61,11.08-34.26,9.99-52.36-.14-2.38-.46-4.75-.94-7.09-.27-1.32-1.84-2.09-3.08-1.75-1.38.38-2.02,1.75-1.75,3.08,3.76,18.5-5.52,36.26-8.63,54.12-2.59,14.86-1.88,32.94,10.91,43.19,12.01,9.64,30.27,9.53,41.32-1.59,5.31-5.34,8.56-12.52,9.24-20,.76-8.42-2.69-16.08-6.74-23.23-2.13-3.76-4.39-7.46-6.14-11.42-1.56-3.54-2.61-7.42-3.04-11.27-.9-7.96.36-16.21,3.89-23.42.88-1.8,1.89-3.52,3.01-5.18s-.37-3.72-2.16-3.76c-13.4-.32-26.81-.64-40.21-.96-3.22-.08-3.22,4.92,0,5h0Z"/><path d="m1175.83,372.54c-6.17-3.96-14.79-2.4-19.85,2.68-5.75,5.77-5.06,14.59.01,20.54,2.84,3.33,7.03,5.43,11.42,5.47,3.22.03,3.22-4.97,0-5-5.25-.05-10-4.89-10.53-10.02s3.47-9.44,8.47-10.62c2.71-.64,5.53-.29,7.96,1.27,2.72,1.74,5.23-2.58,2.52-4.32h0Z"/><path d="m1208.01,394.31c6.63,0,13.66,1.59,18.49,6.41,4.04,4.03,6.31,10.29,3.65,15.69-1.35,2.74-3.56,4.93-6.55,5.76s-1.78,5.68,1.33,4.82c7.25-2.01,12.03-9.67,11.31-17.06-.79-8.08-6.56-14.72-13.87-17.87-4.54-1.95-9.43-2.74-14.36-2.75-3.22,0-3.22,5,0,5h0Z"/><path d="m1049.9,259.59c13.4.32,26.81.64,40.21.96l-2.16-3.76c-9.28,13.72-10.25,31.8-3.08,46.62,3.54,7.32,8.74,13.99,10.78,21.97,1.68,6.62.41,13.69-3.03,19.55-3.44,5.87-8.96,10.25-15.6,11.87s-13.76.5-19.62-2.83c-13.25-7.53-15.11-24.02-13.19-37.73,2.48-17.61,11.08-34.26,9.99-52.36-.14-2.38-.46-4.75-.94-7.09-.27-1.32-1.84-2.09-3.08-1.75-1.38.38-2.02,1.75-1.75,3.08,3.76,18.5-5.52,36.26-8.63,54.12-2.59,14.86-1.88,32.94,10.91,43.19,12.01,9.64,30.27,9.53,41.32-1.59,5.31-5.34,8.56-12.52,9.24-20,.76-8.42-2.69-16.08-6.74-23.23-2.13-3.76-4.39-7.46-6.14-11.42-1.56-3.54-2.61-7.42-3.04-11.27-.9-7.96.36-16.21,3.89-23.42.88-1.8,1.89-3.52,3.01-5.18s-.37-3.72-2.16-3.76c-13.4-.32-26.81-.64-40.21-.96-3.22-.08-3.22,4.92,0,5h0Z"/><path d="m1051.36,273.83c-6.17-3.96-14.79-2.4-19.85,2.68-5.75,5.77-5.06,14.59.01,20.54,2.84,3.33,7.03,5.43,11.42,5.47,3.22.03,3.22-4.97,0-5-5.25-.05-10-4.89-10.53-10.02s3.47-9.44,8.47-10.62c2.71-.64,5.53-.29,7.96,1.27,2.72,1.74,5.23-2.58,2.52-4.32h0Z"/><path d="m1083.54,295.6c6.63,0,13.66,1.59,18.49,6.41,4.04,4.03,6.31,10.29,3.65,15.69-1.35,2.74-3.56,4.93-6.55,5.76s-1.78,5.68,1.33,4.82c7.25-2.01,12.03-9.67,11.31-17.06-.79-8.08-6.56-14.72-13.87-17.87-4.54-1.95-9.43-2.74-14.36-2.75-3.22,0-3.22,5,0,5h0Z"/><path d="m1167.11,151.33c13.4.32,26.81.64,40.21.96l-2.16-3.76c-9.28,13.72-10.25,31.8-3.08,46.62,3.54,7.32,8.74,13.99,10.78,21.97,1.68,6.62.41,13.69-3.03,19.55-3.44,5.87-8.96,10.25-15.6,11.87s-13.76.5-19.62-2.83c-13.25-7.53-15.11-24.02-13.19-37.73,2.48-17.61,11.08-34.26,9.99-52.36-.14-2.38-.46-4.75-.94-7.09-.27-1.32-1.84-2.09-3.08-1.75-1.38.38-2.02,1.75-1.75,3.08,3.76,18.5-5.52,36.26-8.63,54.12-2.59,14.86-1.88,32.94,10.91,43.19,12.01,9.64,30.27,9.53,41.32-1.59,5.31-5.34,8.56-12.52,9.24-20,.76-8.42-2.69-16.08-6.74-23.23-2.13-3.76-4.39-7.46-6.14-11.42-1.56-3.54-2.61-7.42-3.04-11.27-.9-7.96.36-16.21,3.89-23.42.88-1.8,1.89-3.52,3.01-5.18s-.37-3.72-2.16-3.76c-13.4-.32-26.81-.64-40.21-.96-3.22-.08-3.22,4.92,0,5h0Z"/><path d="m1168.56,165.57c-6.17-3.96-14.79-2.4-19.85,2.68-5.75,5.77-5.06,14.59.01,20.54,2.84,3.33,7.03,5.43,11.42,5.47,3.22.03,3.22-4.97,0-5-5.25-.05-10-4.89-10.53-10.02s3.47-9.44,8.47-10.62c2.71-.64,5.53-.29,7.96,1.27,2.72,1.74,5.23-2.58,2.52-4.32h0Z"/><path d="m1200.74,187.34c6.63,0,13.66,1.59,18.49,6.41,4.04,4.03,6.31,10.29,3.65,15.69-1.35,2.74-3.56,4.93-6.55,5.76s-1.78,5.68,1.33,4.82c7.25-2.01,12.03-9.67,11.31-17.06-.79-8.08-6.56-14.72-13.87-17.87-4.54-1.95-9.43-2.74-14.36-2.75-3.22,0-3.22,5,0,5h0Z"/><path d="m1036.94,31.07c13.4.32,26.81.64,40.21.96l-2.16-3.76c-9.28,13.72-10.25,31.8-3.08,46.62,3.54,7.32,8.74,13.99,10.78,21.97,1.68,6.62.41,13.69-3.03,19.55-3.44,5.87-8.96,10.25-15.6,11.87s-13.76.5-19.62-2.83c-13.25-7.53-15.11-24.02-13.19-37.73,2.48-17.61,11.08-34.26,9.99-52.36-.14-2.38-.46-4.75-.94-7.09-.27-1.32-1.84-2.09-3.08-1.75-1.38.38-2.02,1.75-1.75,3.08,3.76,18.5-5.52,36.26-8.63,54.12-2.59,14.86-1.88,32.94,10.91,43.19,12.01,9.64,30.27,9.53,41.32-1.59,5.31-5.34,8.56-12.52,9.24-20,.76-8.42-2.69-16.08-6.74-23.23-2.13-3.76-4.39-7.46-6.14-11.42-1.56-3.54-2.61-7.42-3.04-11.27-.9-7.96.36-16.21,3.89-23.42.88-1.8,1.89-3.52,3.01-5.18s-.37-3.72-2.16-3.76c-13.4-.32-26.81-.64-40.21-.96-3.22-.08-3.22,4.92,0,5h0Z"/><path d="m1038.39,45.31c-6.17-3.96-14.79-2.4-19.85,2.68-5.75,5.77-5.06,14.59.01,20.54,2.84,3.33,7.03,5.43,11.42,5.47,3.22.03,3.22-4.97,0-5-5.25-.05-10-4.89-10.53-10.02s3.47-9.44,8.47-10.62c2.71-.64,5.53-.29,7.96,1.27,2.72,1.74,5.23-2.58,2.52-4.32h0Z"/><path d="m1070.58,67.08c6.63,0,13.66,1.59,18.49,6.41,4.04,4.03,6.31,10.29,3.65,15.69-1.35,2.74-3.56,4.93-6.55,5.76s-1.78,5.68,1.33,4.82c7.25-2.01,12.03-9.67,11.31-17.06-.79-8.08-6.56-14.72-13.87-17.87-4.54-1.95-9.43-2.74-14.36-2.75-3.22,0-3.22,5,0,5h0Z"/><path d="m908.61,148.65c13.4.32,26.81.64,40.21.96l-2.16-3.76c-9.28,13.72-10.25,31.8-3.08,46.62,3.54,7.32,8.74,13.99,10.78,21.97,1.68,6.62.41,13.69-3.03,19.55-3.44,5.87-8.96,10.25-15.6,11.87s-13.76.5-19.62-2.83c-13.25-7.53-15.11-24.02-13.19-37.73,2.48-17.61,11.08-34.26,9.99-52.36-.14-2.38-.46-4.75-.94-7.09-.27-1.32-1.84-2.09-3.08-1.75-1.38.38-2.02,1.75-1.75,3.08,3.76,18.5-5.52,36.26-8.63,54.12-2.59,14.86-1.88,32.94,10.91,43.19,12.01,9.64,30.27,9.53,41.32-1.59,5.31-5.34,8.56-12.52,9.24-20,.76-8.42-2.69-16.08-6.74-23.23-2.13-3.76-4.39-7.46-6.14-11.42-1.56-3.54-2.61-7.42-3.04-11.27-.9-7.96.36-16.21,3.89-23.42.88-1.8,1.89-3.52,3.01-5.18s-.37-3.72-2.16-3.76c-13.4-.32-26.81-.64-40.21-.96-3.22-.08-3.22,4.92,0,5h0Z"/><path d="m910.07,162.88c-6.17-3.96-14.79-2.4-19.85,2.68-5.75,5.77-5.06,14.59.01,20.54,2.84,3.33,7.03,5.43,11.42,5.47,3.22.03,3.22-4.97,0-5-5.25-.05-10-4.89-10.53-10.02s3.47-9.44,8.47-10.62c2.71-.64,5.53-.29,7.96,1.27,2.72,1.74,5.23-2.58,2.52-4.32h0Z"/><path d="m942.25,184.65c6.63,0,13.66,1.59,18.49,6.41,4.04,4.03,6.31,10.29,3.65,15.69-1.35,2.74-3.56,4.93-6.55,5.76s-1.78,5.68,1.33,4.82c7.25-2.01,12.03-9.67,11.31-17.06-.79-8.08-6.56-14.72-13.87-17.87-4.54-1.95-9.43-2.74-14.36-2.75-3.22,0-3.22,5,0,5h0Z"/><path d="m759.32,32.4c13.4.32,26.81.64,40.21.96l-2.16-3.76c-9.28,13.72-10.25,31.8-3.08,46.62,3.54,7.32,8.74,13.99,10.78,21.97,1.68,6.62.41,13.69-3.03,19.55-3.44,5.87-8.96,10.25-15.6,11.87s-13.76.5-19.62-2.83c-13.25-7.53-15.11-24.02-13.19-37.73,2.48-17.61,11.08-34.26,9.99-52.36-.14-2.38-.46-4.75-.94-7.09-.27-1.32-1.84-2.09-3.08-1.75-1.38.38-2.02,1.75-1.75,3.08,3.76,18.5-5.52,36.26-8.63,54.12-2.59,14.86-1.88,32.94,10.91,43.19,12.01,9.64,30.27,9.53,41.32-1.59,5.31-5.34,8.56-12.52,9.24-20,.76-8.42-2.69-16.08-6.74-23.23-2.13-3.76-4.39-7.46-6.14-11.42-1.56-3.54-2.61-7.42-3.04-11.27-.9-7.96.36-16.21,3.89-23.42.88-1.8,1.89-3.52,3.01-5.18s-.37-3.72-2.16-3.76c-13.4-.32-26.81-.64-40.21-.96-3.22-.08-3.22,4.92,0,5h0Z"/><path d="m760.77,46.63c-6.17-3.96-14.79-2.4-19.85,2.68-5.75,5.77-5.06,14.59.01,20.54,2.84,3.33,7.03,5.43,11.42,5.47,3.22.03,3.22-4.97,0-5-5.25-.05-10-4.89-10.53-10.02s3.47-9.44,8.47-10.62c2.71-.64,5.53-.29,7.96,1.27,2.72,1.74,5.23-2.58,2.52-4.32h0Z"/><path d="m792.96,68.4c6.63,0,13.66,1.59,18.49,6.41,4.04,4.03,6.31,10.29,3.65,15.69-1.35,2.74-3.56,4.93-6.55,5.76s-1.78,5.68,1.33,4.82c7.25-2.01,12.03-9.67,11.31-17.06-.79-8.08-6.56-14.72-13.87-17.87-4.54-1.95-9.43-2.74-14.36-2.75-3.22,0-3.22,5,0,5h0Z"/><path d="m759.71,260.53c13.4.32,26.81.64,40.21.96l-2.16-3.76c-9.28,13.72-10.25,31.8-3.08,46.62,3.54,7.32,8.74,13.99,10.78,21.97,1.68,6.62.41,13.69-3.03,19.55-3.44,5.87-8.96,10.25-15.6,11.87s-13.76.5-19.62-2.83c-13.25-7.53-15.11-24.02-13.19-37.73,2.48-17.61,11.08-34.26,9.99-52.36-.14-2.38-.46-4.75-.94-7.09-.27-1.32-1.84-2.09-3.08-1.75-1.38.38-2.02,1.75-1.75,3.08,3.76,18.5-5.52,36.26-8.63,54.12-2.59,14.86-1.88,32.94,10.91,43.19,12.01,9.64,30.27,9.53,41.32-1.59,5.31-5.34,8.56-12.52,9.24-20,.76-8.42-2.69-16.08-6.74-23.23-2.13-3.76-4.39-7.46-6.14-11.42-1.56-3.54-2.61-7.42-3.04-11.27-.9-7.96.36-16.21,3.89-23.42.88-1.8,1.89-3.52,3.01-5.18s-.37-3.72-2.16-3.76c-13.4-.32-26.81-.64-40.21-.96-3.22-.08-3.22,4.92,0,5h0Z"/><path d="m761.16,274.76c-6.17-3.96-14.79-2.4-19.85,2.68-5.75,5.77-5.06,14.59.01,20.54,2.84,3.33,7.03,5.43,11.42,5.47,3.22.03,3.22-4.97,0-5-5.25-.05-10-4.89-10.53-10.02s3.47-9.44,8.47-10.62c2.71-.64,5.53-.29,7.96,1.27,2.72,1.74,5.23-2.58,2.52-4.32h0Z"/><path d="m793.35,296.54c6.63,0,13.66,1.59,18.49,6.41,4.04,4.03,6.31,10.29,3.65,15.69-1.35,2.74-3.56,4.93-6.55,5.76s-1.78,5.68,1.33,4.82c7.25-2.01,12.03-9.67,11.31-17.06-.79-8.08-6.56-14.72-13.87-17.87-4.54-1.95-9.43-2.74-14.36-2.75-3.22,0-3.22,5,0,5h0Z"/><path d="m627.96,190.12c13.4.32,26.81.64,40.21.96l-2.16-3.76c-9.28,13.72-10.25,31.8-3.08,46.62,3.54,7.32,8.74,13.99,10.78,21.97,1.68,6.62.41,13.69-3.03,19.55-3.44,5.87-8.96,10.25-15.6,11.87s-13.76.5-19.62-2.83c-13.25-7.53-15.11-24.02-13.19-37.73,2.48-17.61,11.08-34.26,9.99-52.36-.14-2.38-.46-4.75-.94-7.09-.27-1.32-1.84-2.09-3.08-1.75-1.38.38-2.02,1.75-1.75,3.08,3.76,18.5-5.52,36.26-8.63,54.12-2.59,14.86-1.88,32.94,10.91,43.19,12.01,9.64,30.27,9.53,41.32-1.59,5.31-5.34,8.56-12.52,9.24-20,.76-8.42-2.69-16.08-6.74-23.23-2.13-3.76-4.39-7.46-6.14-11.42-1.56-3.54-2.61-7.42-3.04-11.27-.9-7.96.36-16.21,3.89-23.42.88-1.8,1.89-3.52,3.01-5.18s-.37-3.72-2.16-3.76c-13.4-.32-26.81-.64-40.21-.96-3.22-.08-3.22,4.92,0,5h0Z"/><path d="m629.41,204.35c-6.17-3.96-14.79-2.4-19.85,2.68-5.75,5.77-5.06,14.59.01,20.54,2.84,3.33,7.03,5.43,11.42,5.47,3.22.03,3.22-4.97,0-5-5.25-.05-10-4.89-10.53-10.02s3.47-9.44,8.47-10.62c2.71-.64,5.53-.29,7.96,1.27,2.72,1.74,5.23-2.58,2.52-4.32h0Z"/><path d="m661.59,226.12c6.63,0,13.66,1.59,18.49,6.41,4.04,4.03,6.31,10.29,3.65,15.69-1.35,2.74-3.56,4.93-6.55,5.76s-1.78,5.68,1.33,4.82c7.25-2.01,12.03-9.67,11.31-17.06-.79-8.08-6.56-14.72-13.87-17.87-4.54-1.95-9.43-2.74-14.36-2.75-3.22,0-3.22,5,0,5h0Z"/><path d="m897.5,347.02c13.4.32,26.81.64,40.21.96l-2.16-3.76c-9.28,13.72-10.25,31.8-3.08,46.62,3.54,7.32,8.74,13.99,10.78,21.97,1.68,6.62.41,13.69-3.03,19.55-3.44,5.87-8.96,10.25-15.6,11.87s-13.76.5-19.62-2.83c-13.25-7.53-15.11-24.02-13.19-37.73,2.48-17.61,11.08-34.26,9.99-52.36-.14-2.38-.46-4.75-.94-7.09-.27-1.32-1.84-2.09-3.08-1.75-1.38.38-2.02,1.75-1.75,3.08,3.76,18.5-5.52,36.26-8.63,54.12-2.59,14.86-1.88,32.94,10.91,43.19,12.01,9.64,30.27,9.53,41.32-1.59,5.31-5.34,8.56-12.52,9.24-20,.76-8.42-2.69-16.08-6.74-23.23-2.13-3.76-4.39-7.46-6.14-11.42-1.56-3.54-2.61-7.42-3.04-11.27-.9-7.96.36-16.21,3.89-23.42.88-1.8,1.89-3.52,3.01-5.18s-.37-3.72-2.16-3.76c-13.4-.32-26.81-.64-40.21-.96-3.22-.08-3.22,4.92,0,5h0Z"/><path d="m898.95,361.26c-6.17-3.96-14.79-2.4-19.85,2.68-5.75,5.77-5.06,14.59.01,20.54,2.84,3.33,7.03,5.43,11.42,5.47,3.22.03,3.22-4.97,0-5-5.25-.05-10-4.89-10.53-10.02s3.47-9.44,8.47-10.62c2.71-.64,5.53-.29,7.96,1.27,2.72,1.74,5.23-2.58,2.52-4.32h0Z"/><path d="m931.13,383.03c6.63,0,13.66,1.59,18.49,6.41,4.04,4.03,6.31,10.29,3.65,15.69-1.35,2.74-3.56,4.93-6.55,5.76s-1.78,5.68,1.33,4.82c7.25-2.01,12.03-9.67,11.31-17.06-.79-8.08-6.56-14.72-13.87-17.87-4.54-1.95-9.43-2.74-14.36-2.75-3.22,0-3.22,5,0,5h0Z"/><path d="m894.84,561.93c13.4.32,26.81.64,40.21.96l-2.16-3.76c-9.28,13.72-10.25,31.8-3.08,46.62,3.54,7.32,8.74,13.99,10.78,21.97,1.68,6.62.41,13.69-3.03,19.55-3.44,5.87-8.96,10.25-15.6,11.87s-13.76.5-19.62-2.83c-13.25-7.53-15.11-24.02-13.19-37.73,2.48-17.61,11.08-34.26,9.99-52.36-.14-2.38-.46-4.75-.94-7.09-.27-1.32-1.84-2.09-3.08-1.75-1.38.38-2.02,1.75-1.75,3.08,3.76,18.5-5.52,36.26-8.63,54.12-2.59,14.86-1.88,32.94,10.91,43.19,12.01,9.64,30.27,9.53,41.32-1.59,5.31-5.34,8.56-12.52,9.24-20,.76-8.42-2.69-16.08-6.74-23.23-2.13-3.76-4.39-7.46-6.14-11.42-1.56-3.54-2.61-7.42-3.04-11.27-.9-7.96.36-16.21,3.89-23.42.88-1.8,1.89-3.52,3.01-5.18s-.37-3.72-2.16-3.76c-13.4-.32-26.81-.64-40.21-.96-3.22-.08-3.22,4.92,0,5h0Z"/><path d="m896.3,576.16c-6.17-3.96-14.79-2.4-19.85,2.68-5.75,5.77-5.06,14.59.01,20.54,2.84,3.33,7.03,5.43,11.42,5.47,3.22.03,3.22-4.97,0-5-5.25-.05-10-4.89-10.53-10.02s3.47-9.44,8.47-10.62c2.71-.64,5.53-.29,7.96,1.27,2.72,1.74,5.23-2.58,2.52-4.32h0Z"/><path d="m928.48,597.93c6.63,0,13.66,1.59,18.49,6.41,4.04,4.03,6.31,10.29,3.65,15.69-1.35,2.74-3.56,4.93-6.55,5.76s-1.78,5.68,1.33,4.82c7.25-2.01,12.03-9.67,11.31-17.06-.79-8.08-6.56-14.72-13.87-17.87-4.54-1.95-9.43-2.74-14.36-2.75-3.22,0-3.22,5,0,5h0Z"/><path d="m1306.52,45.19c13.4.32,26.81.64,40.21.96l-2.16-3.76c-9.28,13.72-10.25,31.8-3.08,46.62,3.54,7.32,8.74,13.99,10.78,21.97,1.68,6.62.41,13.69-3.03,19.55-3.44,5.87-8.96,10.25-15.6,11.87s-13.76.5-19.62-2.83c-13.25-7.53-15.11-24.02-13.19-37.73,2.48-17.61,11.08-34.26,9.99-52.36-.14-2.38-.46-4.75-.94-7.09-.27-1.32-1.84-2.09-3.08-1.75-1.38.38-2.02,1.75-1.75,3.08,3.76,18.5-5.52,36.26-8.63,54.12-2.59,14.86-1.88,32.94,10.91,43.19,12.01,9.64,30.27,9.53,41.32-1.59,5.31-5.34,8.56-12.52,9.24-20,.76-8.42-2.69-16.08-6.74-23.23-2.13-3.76-4.39-7.46-6.14-11.42-1.56-3.54-2.61-7.42-3.04-11.27-.9-7.96.36-16.21,3.89-23.42.88-1.8,1.89-3.52,3.01-5.18s-.37-3.72-2.16-3.76c-13.4-.32-26.81-.64-40.21-.96-3.22-.08-3.22,4.92,0,5h0Z"/><path d="m1307.97,59.42c-6.17-3.96-14.79-2.4-19.85,2.68-5.75,5.77-5.06,14.59.01,20.54,2.84,3.33,7.03,5.43,11.42,5.47,3.22.03,3.22-4.97,0-5-5.25-.05-10-4.89-10.53-10.02s3.47-9.44,8.47-10.62c2.71-.64,5.53-.29,7.96,1.27,2.72,1.74,5.23-2.58,2.52-4.32h0Z"/><path d="m1340.16,81.2c6.63,0,13.66,1.59,18.49,6.41,4.04,4.03,6.31,10.29,3.65,15.69-1.35,2.74-3.56,4.93-6.55,5.76s-1.78,5.68,1.33,4.82c7.25-2.01,12.03-9.67,11.31-17.06-.79-8.08-6.56-14.72-13.87-17.87-4.54-1.95-9.43-2.74-14.36-2.75-3.22,0-3.22,5,0,5h0Z"/><path d="m1454.71,160.91c13.4.32,26.81.64,40.21.96l-2.16-3.76c-9.28,13.72-10.25,31.8-3.08,46.62,3.54,7.32,8.74,13.99,10.78,21.97,1.68,6.62.41,13.69-3.03,19.55-3.44,5.87-8.96,10.25-15.6,11.87s-13.76.5-19.62-2.83c-13.25-7.53-15.11-24.02-13.19-37.73,2.48-17.61,11.08-34.26,9.99-52.36-.14-2.38-.46-4.75-.94-7.09-.27-1.32-1.84-2.09-3.08-1.75-1.38.38-2.02,1.75-1.75,3.08,3.76,18.5-5.52,36.26-8.63,54.12-2.59,14.86-1.88,32.94,10.91,43.19,12.01,9.64,30.27,9.53,41.32-1.59,5.31-5.34,8.56-12.52,9.24-20,.76-8.42-2.69-16.08-6.74-23.23-2.13-3.76-4.39-7.46-6.14-11.42-1.56-3.54-2.61-7.42-3.04-11.27-.9-7.96.36-16.21,3.89-23.42.88-1.8,1.89-3.52,3.01-5.18s-.37-3.72-2.16-3.76c-13.4-.32-26.81-.64-40.21-.96-3.22-.08-3.22,4.92,0,5h0Z"/><path d="m1456.16,175.14c-6.17-3.96-14.79-2.4-19.85,2.68-5.75,5.77-5.06,14.59.01,20.54,2.84,3.33,7.03,5.43,11.42,5.47,3.22.03,3.22-4.97,0-5-5.25-.05-10-4.89-10.53-10.02s3.47-9.44,8.47-10.62c2.71-.64,5.53-.29,7.96,1.27,2.72,1.74,5.23-2.58,2.52-4.32h0Z"/><path d="m1488.34,196.91c6.63,0,13.66,1.59,18.49,6.41,4.04,4.03,6.31,10.29,3.65,15.69-1.35,2.74-3.56,4.93-6.55,5.76s-1.78,5.68,1.33,4.82c7.25-2.01,12.03-9.67,11.31-17.06-.79-8.08-6.56-14.72-13.87-17.87-4.54-1.95-9.43-2.74-14.36-2.75-3.22,0-3.22,5,0,5h0Z"/><path d="m1562.78,25.52c13.4.32,26.81.64,40.21.96l-2.16-3.76c-9.28,13.72-10.25,31.8-3.08,46.62,3.54,7.32,8.74,13.99,10.78,21.97,1.68,6.62.41,13.69-3.03,19.55-3.44,5.87-8.96,10.25-15.6,11.87s-13.76.5-19.62-2.83c-13.25-7.53-15.11-24.02-13.19-37.73,2.48-17.61,11.08-34.26,9.99-52.36-.14-2.38-.46-4.75-.94-7.09-.27-1.32-1.84-2.09-3.08-1.75-1.38.38-2.02,1.75-1.75,3.08,3.76,18.5-5.52,36.26-8.63,54.12-2.59,14.86-1.88,32.94,10.91,43.19,12.01,9.64,30.27,9.53,41.32-1.59,5.31-5.34,8.56-12.52,9.24-20,.76-8.42-2.69-16.08-6.74-23.23-2.13-3.76-4.39-7.46-6.14-11.42-1.56-3.54-2.61-7.42-3.04-11.27-.9-7.96.36-16.21,3.89-23.42.88-1.8,1.89-3.52,3.01-5.18s-.37-3.72-2.16-3.76c-13.4-.32-26.81-.64-40.21-.96-3.22-.08-3.22,4.92,0,5h0Z"/><path d="m1564.23,39.75c-6.17-3.96-14.79-2.4-19.85,2.68-5.75,5.77-5.06,14.59.01,20.54,2.84,3.33,7.03,5.43,11.42,5.47,3.22.03,3.22-4.97,0-5-5.25-.05-10-4.89-10.53-10.02s3.47-9.44,8.47-10.62c2.71-.64,5.53-.29,7.96,1.27,2.72,1.74,5.23-2.58,2.52-4.32h0Z"/><path d="m1596.41,61.52c6.63,0,13.66,1.59,18.49,6.41,4.04,4.03,6.31,10.29,3.65,15.69-1.35,2.74-3.56,4.93-6.55,5.76s-1.78,5.68,1.33,4.82c7.25-2.01,12.03-9.67,11.31-17.06-.79-8.08-6.56-14.72-13.87-17.87-4.54-1.95-9.43-2.74-14.36-2.75-3.22,0-3.22,5,0,5h0Z"/><path d="m1316.15,655.99c13.4.32,26.81.64,40.21.96l-2.16-3.76c-9.28,13.72-10.25,31.8-3.08,46.62,3.54,7.32,8.74,13.99,10.78,21.97,1.68,6.62.41,13.69-3.03,19.55-3.44,5.87-8.96,10.25-15.6,11.87s-13.76.5-19.62-2.83c-13.25-7.53-15.11-24.02-13.19-37.73,2.48-17.61,11.08-34.26,9.99-52.36-.14-2.38-.46-4.75-.94-7.09-.27-1.32-1.84-2.09-3.08-1.75-1.38.38-2.02,1.75-1.75,3.08,3.76,18.5-5.52,36.26-8.63,54.12-2.59,14.86-1.88,32.94,10.91,43.19,12.01,9.64,30.27,9.53,41.32-1.59,5.31-5.34,8.56-12.52,9.24-20,.76-8.42-2.69-16.08-6.74-23.23-2.13-3.76-4.39-7.46-6.14-11.42-1.56-3.54-2.61-7.42-3.04-11.27-.9-7.96.36-16.21,3.89-23.42.88-1.8,1.89-3.52,3.01-5.18s-.37-3.72-2.16-3.76c-13.4-.32-26.81-.64-40.21-.96-3.22-.08-3.22,4.92,0,5h0Z"/><path d="m1317.6,670.22c-6.17-3.96-14.79-2.4-19.85,2.68-5.75,5.77-5.06,14.59.01,20.54,2.84,3.33,7.03,5.43,11.42,5.47,3.22.03,3.22-4.97,0-5-5.25-.05-10-4.89-10.53-10.02s3.47-9.44,8.47-10.62c2.71-.64,5.53-.29,7.96,1.27,2.72,1.74,5.23-2.58,2.52-4.32h0Z"/><path d="m1349.78,691.99c6.63,0,13.66,1.59,18.49,6.41,4.04,4.03,6.31,10.29,3.65,15.69-1.35,2.74-3.56,4.93-6.55,5.76s-1.78,5.68,1.33,4.82c7.25-2.01,12.03-9.67,11.31-17.06-.79-8.08-6.56-14.72-13.87-17.87-4.54-1.95-9.43-2.74-14.36-2.75-3.22,0-3.22,5,0,5h0Z"/><path d="m1462.85,562.87c13.4.32,26.81.64,40.21.96l-2.16-3.76c-9.28,13.72-10.25,31.8-3.08,46.62,3.54,7.32,8.74,13.99,10.78,21.97,1.68,6.62.41,13.69-3.03,19.55-3.44,5.87-8.96,10.25-15.6,11.87s-13.76.5-19.62-2.83c-13.25-7.53-15.11-24.02-13.19-37.73,2.48-17.61,11.08-34.26,9.99-52.36-.14-2.38-.46-4.75-.94-7.09-.27-1.32-1.84-2.09-3.08-1.75-1.38.38-2.02,1.75-1.75,3.08,3.76,18.5-5.52,36.26-8.63,54.12-2.59,14.86-1.88,32.94,10.91,43.19,12.01,9.64,30.27,9.53,41.32-1.59,5.31-5.34,8.56-12.52,9.24-20,.76-8.42-2.69-16.08-6.74-23.23-2.13-3.76-4.39-7.46-6.14-11.42-1.56-3.54-2.61-7.42-3.04-11.27-.9-7.96.36-16.21,3.89-23.42.88-1.8,1.89-3.52,3.01-5.18s-.37-3.72-2.16-3.76c-13.4-.32-26.81-.64-40.21-.96-3.22-.08-3.22,4.92,0,5h0Z"/><path d="m1464.3,577.1c-6.17-3.96-14.79-2.4-19.85,2.68-5.75,5.77-5.06,14.59.01,20.54,2.84,3.33,7.03,5.43,11.42,5.47,3.22.03,3.22-4.97,0-5-5.25-.05-10-4.89-10.53-10.02s3.47-9.44,8.47-10.62c2.71-.64,5.53-.29,7.96,1.27,2.72,1.74,5.23-2.58,2.52-4.32h0Z"/><path d="m1496.48,598.87c6.63,0,13.66,1.59,18.49,6.41,4.04,4.03,6.31,10.29,3.65,15.69-1.35,2.74-3.56,4.93-6.55,5.76s-1.78,5.68,1.33,4.82c7.25-2.01,12.03-9.67,11.31-17.06-.79-8.08-6.56-14.72-13.87-17.87-4.54-1.95-9.43-2.74-14.36-2.75-3.22,0-3.22,5,0,5h0Z"/><path d="m1723.34,147.36c13.4.32,26.81.64,40.21.96l-2.16-3.76c-9.28,13.72-10.25,31.8-3.08,46.62,3.54,7.32,8.74,13.99,10.78,21.97,1.68,6.62.41,13.69-3.03,19.55-3.44,5.87-8.96,10.25-15.6,11.87s-13.76.5-19.62-2.83c-13.25-7.53-15.11-24.02-13.19-37.73,2.48-17.61,11.08-34.26,9.99-52.36-.14-2.38-.46-4.75-.94-7.09-.27-1.32-1.84-2.09-3.08-1.75-1.38.38-2.02,1.75-1.75,3.08,3.76,18.5-5.52,36.26-8.63,54.12-2.59,14.86-1.88,32.94,10.91,43.19,12.01,9.64,30.27,9.53,41.32-1.59,5.31-5.34,8.56-12.52,9.24-20,.76-8.42-2.69-16.08-6.74-23.23-2.13-3.76-4.39-7.46-6.14-11.42-1.56-3.54-2.61-7.42-3.04-11.27-.9-7.96.36-16.21,3.89-23.42.88-1.8,1.89-3.52,3.01-5.18s-.37-3.72-2.16-3.76c-13.4-.32-26.81-.64-40.21-.96-3.22-.08-3.22,4.92,0,5h0Z"/><path d="m1724.79,161.59c-6.17-3.96-14.79-2.4-19.85,2.68-5.75,5.77-5.06,14.59.01,20.54,2.84,3.33,7.03,5.43,11.42,5.47,3.22.03,3.22-4.97,0-5-5.25-.05-10-4.89-10.53-10.02s3.47-9.44,8.47-10.62c2.71-.64,5.53-.29,7.96,1.27,2.72,1.74,5.23-2.58,2.52-4.32h0Z"/><path d="m1756.97,183.36c6.63,0,13.66,1.59,18.49,6.41,4.04,4.03,6.31,10.29,3.65,15.69-1.35,2.74-3.56,4.93-6.55,5.76s-1.78,5.68,1.33,4.82c7.25-2.01,12.03-9.67,11.31-17.06-.79-8.08-6.56-14.72-13.87-17.87-4.54-1.95-9.43-2.74-14.36-2.75-3.22,0-3.22,5,0,5h0Z"/><path d="m1859.51,86.99c13.4.32,26.81.64,40.21.96l-2.16-3.76c-9.28,13.72-10.25,31.8-3.08,46.62,3.54,7.32,8.74,13.99,10.78,21.97,1.68,6.62.41,13.69-3.03,19.55-3.44,5.87-8.96,10.25-15.6,11.87s-13.76.5-19.62-2.83c-13.25-7.53-15.11-24.02-13.19-37.73,2.48-17.61,11.08-34.26,9.99-52.36-.14-2.38-.46-4.75-.94-7.09-.27-1.32-1.84-2.09-3.08-1.75-1.38.38-2.02,1.75-1.75,3.08,3.76,18.5-5.52,36.26-8.63,54.12-2.59,14.86-1.88,32.94,10.91,43.19,12.01,9.64,30.27,9.53,41.32-1.59,5.31-5.34,8.56-12.52,9.24-20,.76-8.42-2.69-16.08-6.74-23.23-2.13-3.76-4.39-7.46-6.14-11.42-1.56-3.54-2.61-7.42-3.04-11.27-.9-7.96.36-16.21,3.89-23.42.88-1.8,1.89-3.52,3.01-5.18s-.37-3.72-2.16-3.76c-13.4-.32-26.81-.64-40.21-.96-3.22-.08-3.22,4.92,0,5h0Z"/><path d="m1860.96,101.22c-6.17-3.96-14.79-2.4-19.85,2.68-5.75,5.77-5.06,14.59.01,20.54,2.84,3.33,7.03,5.43,11.42,5.47,3.22.03,3.22-4.97,0-5-5.25-.05-10-4.89-10.53-10.02s3.47-9.44,8.47-10.62c2.71-.64,5.53-.29,7.96,1.27,2.72,1.74,5.23-2.58,2.52-4.32h0Z"/><path d="m1893.14,123c6.63,0,13.66,1.59,18.49,6.41,4.04,4.03,6.31,10.29,3.65,15.69-1.35,2.74-3.56,4.93-6.55,5.76s-1.78,5.68,1.33,4.82c7.25-2.01,12.03-9.67,11.31-17.06-.79-8.08-6.56-14.72-13.87-17.87-4.54-1.95-9.43-2.74-14.36-2.75-3.22,0-3.22,5,0,5h0Z"/></svg>