<?xml version="1.0" encoding="UTF-8"?><svg id="fond" xmlns="http://www.w3.org/2000/svg" viewBox="0 0 1920 1080"><defs><style>.cls-1{fill:#41644a;}</style></defs><path class="cls-1" d="m32.05,119.7C23.37,136.12-4.96,202.75,1.47,219.51c5.12,13.34,23.24,11.62,36.74,21.26,17.79,12.72,18.85,27.84,26.73,46.56,19.61,46.54,39.58,3.9,75.16-7.09,23.05-7.12,72.47,9.2,89.82-7.08,8.66-8.13,7.48-38.34,15.19-50.31,13.15-20.42,35-31.95,53.93-46.48,33.53-25.75,13.46-47.31,15.44-87.04.58-11.63,8.17-35.5.23-45.58-6.91-8.78-34.98-8.81-45.65-12.55-14.29-5-29.73-13.36-43.18-19.77-11.9-5.67-31.84-19.13-48.12-21.96-26.82-4.66-27.82,4.71-37.37,25.01-11.24,23.9-11.65,20.96-32.42,30.33-17.95,8.09-29.73,17.69-44.07,30.58-13.1,11.78-19.02,29.78-31.84,38.77"/><path class="cls-1" d="m282.03,545.97c-8.67,16.42-37.01,83.05-30.58,99.8,5.12,13.34,23.24,11.62,36.74,21.26,17.79,12.72,18.85,27.84,26.73,46.56,19.61,46.54,39.58,3.9,75.16-7.09,23.05-7.12,72.47,9.2,89.82-7.08,8.66-8.13,7.48-38.34,15.19-50.31,13.15-20.42,35-31.95,53.93-46.48,33.53-25.75,13.46-47.31,15.44-87.04.58-11.63,8.17-35.5.23-45.58-6.91-8.78-34.98-8.81-45.65-12.55-14.29-5-29.73-13.36-43.18-19.77-11.9-5.67-31.84-19.13-48.12-21.96-26.82-4.66-27.82,4.71-37.37,25.01-11.24,23.9-11.65,20.96-32.42,30.33-17.95,8.09-29.73,17.69-44.07,30.58-13.1,11.78-19.02,29.78-31.84,38.77"/><path class="cls-1" d="m700.08,201.26c-8.67,16.42-37.01,83.05-30.58,99.8,5.12,13.34,23.24,11.62,36.74,21.26,17.79,12.72,18.85,27.84,26.73,46.56,19.61,46.54,39.58,3.9,75.16-7.09,23.05-7.12,72.47,9.2,89.82-7.08,8.66-8.13,7.48-38.34,15.19-50.31,13.15-20.42,35-31.95,53.93-46.48,33.53-25.75,13.46-47.31,15.44-87.04.58-11.63,8.17-35.5.23-45.58-6.91-8.78-34.98-8.81-45.65-12.55-14.29-5-29.73-13.36-43.18-19.77-11.9-5.67-31.84-19.13-48.12-21.96-26.82-4.66-27.82,4.71-37.37,25.01-11.24,23.9-11.65,20.96-32.42,30.33-17.95,8.09-29.73,17.69-44.07,30.58-13.1,11.78-19.02,29.78-31.84,38.77"/><path class="cls-1" d="m792.49,686.73c-8.67,16.42-37.01,83.05-30.58,99.8,5.12,13.34,23.24,11.62,36.74,21.26,17.79,12.72,18.85,27.84,26.73,46.56,19.61,46.54,39.58,3.9,75.16-7.09,23.05-7.12,72.47,9.2,89.82-7.08,8.66-8.13,7.48-38.34,15.19-50.31,13.15-20.42,35-31.95,53.93-46.48,33.53-25.75,13.46-47.31,15.44-87.04.58-11.63,8.17-35.5.23-45.58-6.91-8.78-34.98-8.81-45.65-12.55-14.29-5-29.73-13.36-43.18-19.77-11.9-5.67-31.84-19.13-48.12-21.96-26.82-4.66-27.82,4.71-37.37,25.01-11.24,23.9-11.65,20.96-32.42,30.33-17.95,8.09-29.73,17.69-44.07,30.58-13.1,11.78-19.02,29.78-31.84,38.77"/><path class="cls-1" d="m32.05,971.34c-8.67,16.42-37.01,83.05-30.58,99.8,5.12,13.34,23.24,11.62,36.74,21.26,17.79,12.72,18.85,27.84,26.73,46.56,19.61,46.54,39.58,3.9,75.16-7.09,23.05-7.12,72.47,9.2,89.82-7.08,8.66-8.13,7.48-38.34,15.19-50.31,13.15-20.42,35-31.95,53.93-46.48,33.53-25.75,13.46-47.31,15.44-87.04.58-11.63,8.17-35.5.23-45.58-6.91-8.78-34.98-8.81-45.65-12.55-14.29-5-29.73-13.36-43.18-19.77-11.9-5.67-31.84-19.13-48.12-21.96-26.82-4.66-27.82,4.71-37.37,25.01-11.24,23.9-11.65,20.96-32.42,30.33-17.95,8.09-29.73,17.69-44.07,30.58-13.1,11.78-19.02,29.78-31.84,38.77"/><path class="cls-1" d="m1230.32,214.68c-8.67,16.42-37.01,83.05-30.58,99.8,5.12,13.34,23.24,11.62,36.74,21.26,17.79,12.72,18.85,27.84,26.73,46.56,19.61,46.54,39.58,3.9,75.16-7.09,23.05-7.12,72.47,9.2,89.82-7.08,8.66-8.13,7.48-38.34,15.19-50.31,13.15-20.42,35-31.95,53.93-46.48,33.53-25.75,13.46-47.31,15.44-87.04.58-11.63,8.17-35.5.23-45.58-6.91-8.78-34.98-8.81-45.65-12.55-14.29-5-29.73-13.36-43.18-19.77-11.9-5.67-31.84-19.13-48.12-21.96-26.82-4.66-27.82,4.71-37.37,25.01-11.24,23.9-11.65,20.96-32.42,30.33-17.95,8.09-29.73,17.69-44.07,30.58-13.1,11.78-19.02,29.78-31.84,38.77"/><path class="cls-1" d="m1396.78,700.92c-8.67,16.42-37.01,83.05-30.58,99.8,5.12,13.34,23.24,11.62,36.74,21.26,17.79,12.72,18.85,27.84,26.73,46.56,19.61,46.54,39.58,3.9,75.16-7.09,23.05-7.12,72.47,9.2,89.82-7.08,8.66-8.13,7.48-38.34,15.19-50.31,13.15-20.42,35-31.95,53.93-46.48,33.53-25.75,13.46-47.31,15.44-87.04.58-11.63,8.17-35.5.23-45.58-6.91-8.78-34.98-8.81-45.65-12.55-14.29-5-29.73-13.36-43.18-19.77-11.9-5.67-31.84-19.13-48.12-21.96-26.82-4.66-27.82,4.71-37.37,25.01-11.24,23.9-11.65,20.96-32.42,30.33-17.95,8.09-29.73,17.69-44.07,30.58-13.1,11.78-19.02,29.78-31.84,38.77"/><path class="cls-1" d="m500.62,1079.69c-8.67,16.42-37.01,83.05-30.58,99.8,5.12,13.34,23.24,11.62,36.74,21.26,17.79,12.72,18.85,27.84,26.73,46.56,19.61,46.54,39.58,3.9,75.16-7.09,23.05-7.12,72.47,9.2,89.82-7.08,8.66-8.13,7.48-38.34,15.19-50.31,13.15-20.42,35-31.95,53.93-46.48,33.53-25.75,13.46-47.31,15.44-87.04.58-11.63,8.17-35.5.23-45.58-6.91-8.78-34.98-8.81-45.65-12.55-14.29-5-29.73-13.36-43.18-19.77-11.9-5.67-31.84-19.13-48.12-21.96-26.82-4.66-27.82,4.71-37.37,25.01-11.24,23.9-11.65,20.96-32.42,30.33-17.95,8.09-29.73,17.69-44.07,30.58-13.1,11.78-19.02,29.78-31.84,38.77"/><path class="cls-1" d="m1037.09,1041.59c-8.67,16.42-37.01,83.05-30.58,99.8,5.12,13.34,23.24,11.62,36.74,21.26,17.79,12.72,18.85,27.84,26.73,46.56,19.61,46.54,39.58,3.9,75.16-7.09,23.05-7.12,72.47,9.2,89.82-7.08,8.66-8.13,7.48-38.34,15.19-50.31,13.15-20.42,35-31.95,53.93-46.48,33.53-25.75,13.46-47.31,15.44-87.04.58-11.63,8.17-35.5.23-45.58-6.91-8.78-34.98-8.81-45.65-12.55-14.29-5-29.73-13.36-43.18-19.77-11.9-5.67-31.84-19.13-48.12-21.96-26.82-4.66-27.82,4.71-37.37,25.01-11.24,23.9-11.65,20.96-32.42,30.33-17.95,8.09-29.73,17.69-44.07,30.58-13.1,11.78-19.02,29.78-31.84,38.77"/><path class="cls-1" d="m1708.48,98.56c-8.67,16.42-37.01,83.05-30.58,99.8,5.12,13.34,23.24,11.62,36.74,21.26,17.79,12.72,18.85,27.84,26.73,46.56,19.61,46.54,39.58,3.9,75.16-7.09,23.05-7.12,72.47,9.2,89.82-7.08,8.66-8.13,7.48-38.34,15.19-50.31,13.15-20.42,35-31.95,53.93-46.48,33.53-25.75,13.46-47.31,15.44-87.04.58-11.63,8.17-35.5.23-45.58-6.91-8.78-34.98-8.81-45.65-12.55-14.29-5-29.73-13.36-43.18-19.77-11.9-5.67-31.84-19.13-48.12-21.96-26.82-4.66-27.82,4.71-37.37,25.01-11.24,23.9-11.65,20.96-32.42,30.33-17.95,8.09-29.73,17.69-44.07,30.58-13.1,11.78-19.02,29.78-31.84,38.77"/><path class="cls-1" d="m1743.69,971.34c-8.67,16.42-37.01,83.05-30.58,99.8,5.12,13.34,23.24,11.62,36.74,21.26,17.79,12.72,18.85,27.84,26.73,46.56,19.61,46.54,39.58,3.9,75.16-7.09,23.05-7.12,72.47,9.2,89.82-7.08,8.66-8.13,7.48-38.34,15.19-50.31,13.15-20.42,35-31.95,53.93-46.48,33.53-25.75,13.46-47.31,15.44-87.04.58-11.63,8.17-35.5.23-45.58-6.91-8.78-34.98-8.81-45.65-12.55-14.29-5-29.73-13.36-43.18-19.77-11.9-5.67-31.84-19.13-48.12-21.96-26.82-4.66-27.82,4.71-37.37,25.01-11.24,23.9-11.65,20.96-32.42,30.33-17.95,8.09-29.73,17.69-44.07,30.58-13.1,11.78-19.02,29.78-31.84,38.77"/></svg>