<?xml version="1.0" encoding="UTF-8"?><svg id="fond" xmlns="http://www.w3.org/2000/svg" viewBox="0 0 1920 1080"><defs><style>.cls-1{fill:#394867;}</style></defs><path class="cls-1" d="m230.49,221.58c-7.67-2.73-16.55-3.48-23.69.43-7.14,3.92-11.38,13.55-7.42,20.67,1.28,2.3,3.27,4.18,4.33,6.59,2.88,6.55-1.91,13.66-5.66,19.75-6.63,10.78-10.55,23.21-11.31,35.85-.25,4.18-.13,8.53,1.68,12.3,1.81,3.77,5.67,6.83,9.85,6.53,7.55-.53,11.98-10.93,19.54-10.45,4.45.28,7.75,4.51,8.83,8.84s.55,8.87.76,13.32c.59,12.76,8.58,25.69,20.87,29.17,12.29,3.48,27.4-5.64,27.6-18.41.1-6.54-3.28-12.53-5.69-18.61-2.41-6.08-3.76-13.45,0-18.79,4.95-7.04,16.18-6.33,23.13-1.25,6.95,5.07,11.01,13.07,15.93,20.13s11.86,13.84,20.46,14.16c8.08.29,15.17-5.22,20.72-11.1,14.1-14.97,23.4-34.39,26.22-54.76.54-3.92.7-8.37-1.91-11.35-2.85-3.25-7.84-3.41-12.1-2.69-9.33,1.57-17.85,6.07-26.59,9.69-8.74,3.62-18.35,6.42-27.58,4.36-9.23-2.05-17.63-10.43-16.72-19.84.46-4.74,3.08-8.95,5.3-13.16,15.83-29.95,12.68-68.94-7.76-95.95-5.24-6.93-11.66-13.2-19.57-16.78s-17.49-4.15-25.15-.06-12.69,13.33-10.55,21.75c2.47,9.69,12.57,15.12,18.62,23.08,6.69,8.82,8.09,21.36,3.51,31.44-4.59,10.08-4.68,21.39-25.64,15.15"/><path class="cls-1" d="m617.25,42.23c-7.67-2.73-16.55-3.48-23.69.43-7.14,3.92-11.38,13.55-7.42,20.67,1.28,2.3,3.27,4.18,4.33,6.59,2.88,6.55-1.91,13.66-5.66,19.75-6.63,10.78-10.55,23.21-11.31,35.85-.25,4.18-.13,8.53,1.68,12.3,1.81,3.77,5.67,6.83,9.85,6.53,7.55-.53,11.98-10.93,19.54-10.45,4.45.28,7.75,4.51,8.83,8.84s.55,8.87.76,13.32c.59,12.76,8.58,25.69,20.87,29.17,12.29,3.48,27.4-5.64,27.6-18.41.1-6.54-3.28-12.53-5.69-18.61-2.41-6.08-3.76-13.45,0-18.79,4.95-7.04,16.18-6.33,23.13-1.25,6.95,5.07,11.01,13.07,15.93,20.13s11.86,13.84,20.46,14.16c8.08.29,15.17-5.22,20.72-11.1,14.1-14.97,23.4-34.39,26.22-54.76.54-3.92.7-8.37-1.91-11.35-2.85-3.25-7.84-3.41-12.1-2.69-9.33,1.57-17.85,6.07-26.59,9.69-8.74,3.62-18.35,6.42-27.58,4.36-9.23-2.05-17.63-10.43-16.72-19.84.46-4.74,3.08-8.95,5.3-13.16,15.83-29.95,12.68-68.94-7.76-95.95-5.24-6.93-11.66-13.2-19.57-16.78s-17.49-4.15-25.15-.06-12.69,13.33-10.55,21.75c2.47,9.69,12.57,15.12,18.62,23.08,6.69,8.82,8.09,21.36,3.51,31.44-4.59,10.08-4.68,21.39-25.64,15.15"/><path class="cls-1" d="m578.16,432.51c-7.67-2.73-16.55-3.48-23.69.43-7.14,3.92-11.38,13.55-7.42,20.67,1.28,2.3,3.27,4.18,4.33,6.59,2.88,6.55-1.91,13.66-5.66,19.75-6.63,10.78-10.55,23.21-11.31,35.85-.25,4.18-.13,8.53,1.68,12.3,1.81,3.77,5.67,6.83,9.85,6.53,7.55-.53,11.98-10.93,19.54-10.45,4.45.28,7.75,4.51,8.83,8.84s.55,8.87.76,13.32c.59,12.76,8.58,25.69,20.87,29.17,12.29,3.48,27.4-5.64,27.6-18.41.1-6.54-3.28-12.53-5.69-18.61-2.41-6.08-3.76-13.45,0-18.79,4.95-7.04,16.18-6.33,23.13-1.25,6.95,5.07,11.01,13.07,15.93,20.13s11.86,13.84,20.46,14.16c8.08.29,15.17-5.22,20.72-11.1,14.1-14.97,23.4-34.39,26.22-54.76.54-3.92.7-8.37-1.91-11.35-2.85-3.25-7.84-3.41-12.1-2.69-9.33,1.57-17.85,6.07-26.59,9.69-8.74,3.62-18.35,6.42-27.58,4.36-9.23-2.05-17.63-10.43-16.72-19.84.46-4.74,3.08-8.95,5.3-13.16,15.83-29.95,12.68-68.94-7.76-95.95-5.24-6.93-11.66-13.2-19.57-16.78s-17.49-4.15-25.15-.06-12.69,13.33-10.55,21.75c2.47,9.69,12.57,15.12,18.62,23.08,6.69,8.82,8.09,21.36,3.51,31.44-4.59,10.08-4.68,21.39-25.64,15.15"/><path class="cls-1" d="m230.49,580.22c-7.67-2.73-16.55-3.48-23.69.43-7.14,3.92-11.38,13.55-7.42,20.67,1.28,2.3,3.27,4.18,4.33,6.59,2.88,6.55-1.91,13.66-5.66,19.75-6.63,10.78-10.55,23.21-11.31,35.85-.25,4.18-.13,8.53,1.68,12.3,1.81,3.77,5.67,6.83,9.85,6.53,7.55-.53,11.98-10.93,19.54-10.45,4.45.28,7.75,4.51,8.83,8.84s.55,8.87.76,13.32c.59,12.76,8.58,25.69,20.87,29.17,12.29,3.48,27.4-5.64,27.6-18.41.1-6.54-3.28-12.53-5.69-18.61-2.41-6.08-3.76-13.45,0-18.79,4.95-7.04,16.18-6.33,23.13-1.25,6.95,5.07,11.01,13.07,15.93,20.13s11.86,13.84,20.46,14.16c8.08.29,15.17-5.22,20.72-11.1,14.1-14.97,23.4-34.39,26.22-54.76.54-3.92.7-8.37-1.91-11.35-2.85-3.25-7.84-3.41-12.1-2.69-9.33,1.57-17.85,6.07-26.59,9.69-8.74,3.62-18.35,6.42-27.58,4.36-9.23-2.05-17.63-10.43-16.72-19.84.46-4.74,3.08-8.95,5.3-13.16,15.83-29.95,12.68-68.94-7.76-95.95-5.24-6.93-11.66-13.2-19.57-16.78s-17.49-4.15-25.15-.06-12.69,13.33-10.55,21.75c2.47,9.69,12.57,15.12,18.62,23.08,6.69,8.82,8.09,21.36,3.51,31.44-4.59,10.08-4.68,21.39-25.64,15.15"/><path class="cls-1" d="m444.93,831.7c-7.67-2.73-16.55-3.48-23.69.43-7.14,3.92-11.38,13.55-7.42,20.67,1.28,2.3,3.27,4.18,4.33,6.59,2.88,6.55-1.91,13.66-5.66,19.75-6.63,10.78-10.55,23.21-11.31,35.85-.25,4.18-.13,8.53,1.68,12.3,1.81,3.77,5.67,6.83,9.85,6.53,7.55-.53,11.98-10.93,19.54-10.45,4.45.28,7.75,4.51,8.83,8.84s.55,8.87.76,13.32c.59,12.76,8.58,25.69,20.87,29.17,12.29,3.48,27.4-5.64,27.6-18.41.1-6.54-3.28-12.53-5.69-18.61-2.41-6.08-3.76-13.45,0-18.79,4.95-7.04,16.18-6.33,23.13-1.25,6.95,5.07,11.01,13.07,15.93,20.13s11.86,13.84,20.46,14.16c8.08.29,15.17-5.22,20.72-11.1,14.1-14.97,23.4-34.39,26.22-54.76.54-3.92.7-8.37-1.91-11.35-2.85-3.25-7.84-3.41-12.1-2.69-9.33,1.57-17.85,6.07-26.59,9.69-8.74,3.62-18.35,6.42-27.58,4.36-9.23-2.05-17.63-10.43-16.72-19.84.46-4.74,3.08-8.95,5.3-13.16,15.83-29.95,12.68-68.94-7.76-95.95-5.24-6.93-11.66-13.2-19.57-16.78s-17.49-4.15-25.15-.06-12.69,13.33-10.55,21.75c2.47,9.69,12.57,15.12,18.62,23.08,6.69,8.82,8.09,21.36,3.51,31.44-4.59,10.08-4.68,21.39-25.64,15.15"/><path class="cls-1" d="m46.02,997.73c-7.67-2.73-16.55-3.48-23.69.43-7.14,3.92-11.38,13.55-7.42,20.67,1.28,2.3,3.27,4.18,4.33,6.59,2.88,6.55-1.91,13.66-5.66,19.75-6.63,10.78-10.55,23.21-11.31,35.85-.25,4.18-.13,8.53,1.68,12.3,1.81,3.77,5.67,6.83,9.85,6.53,7.55-.53,11.98-10.93,19.54-10.45,4.45.28,7.75,4.51,8.83,8.84s.55,8.87.76,13.32c.59,12.76,8.58,25.69,20.87,29.17,12.29,3.48,27.4-5.64,27.6-18.41.1-6.54-3.28-12.53-5.69-18.61-2.41-6.08-3.76-13.45,0-18.79,4.95-7.04,16.18-6.33,23.13-1.25,6.95,5.07,11.01,13.07,15.93,20.13s11.86,13.84,20.46,14.16c8.08.29,15.17-5.22,20.72-11.1,14.1-14.97,23.4-34.39,26.22-54.76.54-3.92.7-8.37-1.91-11.35-2.85-3.25-7.84-3.41-12.1-2.69-9.33,1.57-17.85,6.07-26.59,9.69-8.74,3.62-18.35,6.42-27.58,4.36-9.23-2.05-17.63-10.43-16.72-19.84.46-4.74,3.08-8.95,5.3-13.16,15.83-29.95,12.68-68.94-7.76-95.95-5.24-6.93-11.66-13.2-19.57-16.78s-17.49-4.15-25.15-.06-12.69,13.33-10.55,21.75c2.47,9.69,12.57,15.12,18.62,23.08,6.69,8.82,8.09,21.36,3.51,31.44-4.59,10.08-4.68,21.39-25.64,15.15"/><path class="cls-1" d="m785.49,697.92c-7.67-2.73-16.55-3.48-23.69.43-7.14,3.92-11.38,13.55-7.42,20.67,1.28,2.3,3.27,4.18,4.33,6.59,2.88,6.55-1.91,13.66-5.66,19.75-6.63,10.78-10.55,23.21-11.31,35.85-.25,4.18-.13,8.53,1.68,12.3,1.81,3.77,5.67,6.83,9.85,6.53,7.55-.53,11.98-10.93,19.54-10.45,4.45.28,7.75,4.51,8.83,8.84s.55,8.87.76,13.32c.59,12.76,8.58,25.69,20.87,29.17,12.29,3.48,27.4-5.64,27.6-18.41.1-6.54-3.28-12.53-5.69-18.61-2.41-6.08-3.76-13.45,0-18.79,4.95-7.04,16.18-6.33,23.13-1.25,6.95,5.07,11.01,13.07,15.93,20.13s11.86,13.84,20.46,14.16c8.08.29,15.17-5.22,20.72-11.1,14.1-14.97,23.4-34.39,26.22-54.76.54-3.92.7-8.37-1.91-11.35-2.85-3.25-7.84-3.41-12.1-2.69-9.33,1.57-17.85,6.07-26.59,9.69-8.74,3.62-18.35,6.42-27.58,4.36-9.23-2.05-17.63-10.43-16.72-19.84.46-4.74,3.08-8.95,5.3-13.16,15.83-29.95,12.68-68.94-7.76-95.95-5.24-6.93-11.66-13.2-19.57-16.78s-17.49-4.15-25.15-.06-12.69,13.33-10.55,21.75c2.47,9.69,12.57,15.12,18.62,23.08,6.69,8.82,8.09,21.36,3.51,31.44-4.59,10.08-4.68,21.39-25.64,15.15"/><path class="cls-1" d="m773.27,1013.68c-7.67-2.73-16.55-3.48-23.69.43-7.14,3.92-11.38,13.55-7.42,20.67,1.28,2.3,3.27,4.18,4.33,6.59,2.88,6.55-1.91,13.66-5.66,19.75-6.63,10.78-10.55,23.21-11.31,35.85-.25,4.18-.13,8.53,1.68,12.3,1.81,3.77,5.67,6.83,9.85,6.53,7.55-.53,11.98-10.93,19.54-10.45,4.45.28,7.75,4.51,8.83,8.84s.55,8.87.76,13.32c.59,12.76,8.58,25.69,20.87,29.17,12.29,3.48,27.4-5.64,27.6-18.41.1-6.54-3.28-12.53-5.69-18.61-2.41-6.08-3.76-13.45,0-18.79,4.95-7.04,16.18-6.33,23.13-1.25,6.95,5.07,11.01,13.07,15.93,20.13s11.86,13.84,20.46,14.16c8.08.29,15.17-5.22,20.72-11.1,14.1-14.97,23.4-34.39,26.22-54.76.54-3.92.7-8.37-1.91-11.35-2.85-3.25-7.84-3.41-12.1-2.69-9.33,1.57-17.85,6.07-26.59,9.69-8.74,3.62-18.35,6.42-27.58,4.36-9.23-2.05-17.63-10.43-16.72-19.84.46-4.74,3.08-8.95,5.3-13.16,15.83-29.95,12.68-68.94-7.76-95.95-5.24-6.93-11.66-13.2-19.57-16.78s-17.49-4.15-25.15-.06-12.69,13.33-10.55,21.75c2.47,9.69,12.57,15.12,18.62,23.08,6.69,8.82,8.09,21.36,3.51,31.44-4.59,10.08-4.68,21.39-25.64,15.15"/><path class="cls-1" d="m908.7,297.64c-7.67-2.73-16.55-3.48-23.69.43-7.14,3.92-11.38,13.55-7.42,20.67,1.28,2.3,3.27,4.18,4.33,6.59,2.88,6.55-1.91,13.66-5.66,19.75-6.63,10.78-10.55,23.21-11.31,35.85-.25,4.18-.13,8.53,1.68,12.3,1.81,3.77,5.67,6.83,9.85,6.53,7.55-.53,11.98-10.93,19.54-10.45,4.45.28,7.75,4.51,8.83,8.84s.55,8.87.76,13.32c.59,12.76,8.58,25.69,20.87,29.17,12.29,3.48,27.4-5.64,27.6-18.41.1-6.54-3.28-12.53-5.69-18.61-2.41-6.08-3.76-13.45,0-18.79,4.95-7.04,16.18-6.33,23.13-1.25,6.95,5.07,11.01,13.07,15.93,20.13s11.86,13.84,20.46,14.16c8.08.29,15.17-5.22,20.72-11.1,14.1-14.97,23.4-34.39,26.22-54.76.54-3.92.7-8.37-1.91-11.35-2.85-3.25-7.84-3.41-12.1-2.69-9.33,1.57-17.85,6.07-26.59,9.69-8.74,3.62-18.35,6.42-27.58,4.36-9.23-2.05-17.63-10.43-16.72-19.84.46-4.74,3.08-8.95,5.3-13.16,15.83-29.95,12.68-68.94-7.76-95.95-5.24-6.93-11.66-13.2-19.57-16.78s-17.49-4.15-25.15-.06-12.69,13.33-10.55,21.75c2.47,9.69,12.57,15.12,18.62,23.08,6.69,8.82,8.09,21.36,3.51,31.44-4.59,10.08-4.68,21.39-25.64,15.15"/><path class="cls-1" d="m1118.9,80.56c-7.67-2.73-16.55-3.48-23.69.43-7.14,3.92-11.38,13.55-7.42,20.67,1.28,2.3,3.27,4.18,4.33,6.59,2.88,6.55-1.91,13.66-5.66,19.75-6.63,10.78-10.55,23.21-11.31,35.85-.25,4.18-.13,8.53,1.68,12.3,1.81,3.77,5.67,6.83,9.85,6.53,7.55-.53,11.98-10.93,19.54-10.45,4.45.28,7.75,4.51,8.83,8.84s.55,8.87.76,13.32c.59,12.76,8.58,25.69,20.87,29.17,12.29,3.48,27.4-5.64,27.6-18.41.1-6.54-3.28-12.53-5.69-18.61-2.41-6.08-3.76-13.45,0-18.79,4.95-7.04,16.18-6.33,23.13-1.25,6.95,5.07,11.01,13.07,15.93,20.13s11.86,13.84,20.46,14.16c8.08.29,15.17-5.22,20.72-11.1,14.1-14.97,23.4-34.39,26.22-54.76.54-3.92.7-8.37-1.91-11.35-2.85-3.25-7.84-3.41-12.1-2.69-9.33,1.57-17.85,6.07-26.59,9.69-8.74,3.62-18.35,6.42-27.58,4.36-9.23-2.05-17.63-10.43-16.72-19.84.46-4.74,3.08-8.95,5.3-13.16,15.83-29.95,12.68-68.94-7.76-95.95-5.24-6.93-11.66-13.2-19.57-16.78s-17.49-4.15-25.15-.06-12.69,13.33-10.55,21.75c2.47,9.69,12.57,15.12,18.62,23.08,6.69,8.82,8.09,21.36,3.51,31.44-4.59,10.08-4.68,21.39-25.64,15.15"/><path class="cls-1" d="m1108.62,572.1c-7.67-2.73-16.55-3.48-23.69.43-7.14,3.92-11.38,13.55-7.42,20.67,1.28,2.3,3.27,4.18,4.33,6.59,2.88,6.55-1.91,13.66-5.66,19.75-6.63,10.78-10.55,23.21-11.31,35.85-.25,4.18-.13,8.53,1.68,12.3,1.81,3.77,5.67,6.83,9.85,6.53,7.55-.53,11.98-10.93,19.54-10.45,4.45.28,7.75,4.51,8.83,8.84s.55,8.87.76,13.32c.59,12.76,8.58,25.69,20.87,29.17,12.29,3.48,27.4-5.64,27.6-18.41.1-6.54-3.28-12.53-5.69-18.61-2.41-6.08-3.76-13.45,0-18.79,4.95-7.04,16.18-6.33,23.13-1.25,6.95,5.07,11.01,13.07,15.93,20.13s11.86,13.84,20.46,14.16c8.08.29,15.17-5.22,20.72-11.1,14.1-14.97,23.4-34.39,26.22-54.76.54-3.92.7-8.37-1.91-11.35-2.85-3.25-7.84-3.41-12.1-2.69-9.33,1.57-17.85,6.07-26.59,9.69-8.74,3.62-18.35,6.42-27.58,4.36-9.23-2.05-17.63-10.43-16.72-19.84.46-4.74,3.08-8.95,5.3-13.16,15.83-29.95,12.68-68.94-7.76-95.95-5.24-6.93-11.66-13.2-19.57-16.78s-17.49-4.15-25.15-.06-12.69,13.33-10.55,21.75c2.47,9.69,12.57,15.12,18.62,23.08,6.69,8.82,8.09,21.36,3.51,31.44-4.59,10.08-4.68,21.39-25.64,15.15"/><path class="cls-1" d="m1169.97,952.35c-7.67-2.73-16.55-3.48-23.69.43-7.14,3.92-11.38,13.55-7.42,20.67,1.28,2.3,3.27,4.18,4.33,6.59,2.88,6.55-1.91,13.66-5.66,19.75-6.63,10.78-10.55,23.21-11.31,35.85-.25,4.18-.13,8.53,1.68,12.3,1.81,3.77,5.67,6.83,9.85,6.53,7.55-.53,11.98-10.93,19.54-10.45,4.45.28,7.75,4.51,8.83,8.84s.55,8.87.76,13.32c.59,12.76,8.58,25.69,20.87,29.17,12.29,3.48,27.4-5.64,27.6-18.41.1-6.54-3.28-12.53-5.69-18.61-2.41-6.08-3.76-13.45,0-18.79,4.95-7.04,16.18-6.33,23.13-1.25,6.95,5.07,11.01,13.07,15.93,20.13s11.86,13.84,20.46,14.16c8.08.29,15.17-5.22,20.72-11.1,14.1-14.97,23.4-34.39,26.22-54.76.54-3.92.7-8.37-1.91-11.35-2.85-3.25-7.84-3.41-12.1-2.69-9.33,1.57-17.85,6.07-26.59,9.69-8.74,3.62-18.35,6.42-27.58,4.36-9.23-2.05-17.63-10.43-16.72-19.84.46-4.74,3.08-8.95,5.3-13.16,15.83-29.95,12.68-68.94-7.76-95.95-5.24-6.93-11.66-13.2-19.57-16.78s-17.49-4.15-25.15-.06-12.69,13.33-10.55,21.75c2.47,9.69,12.57,15.12,18.62,23.08,6.69,8.82,8.09,21.36,3.51,31.44-4.59,10.08-4.68,21.39-25.64,15.15"/><path class="cls-1" d="m1490.82,759.72c-7.67-2.73-16.55-3.48-23.69.43-7.14,3.92-11.38,13.55-7.42,20.67,1.28,2.3,3.27,4.18,4.33,6.59,2.88,6.55-1.91,13.66-5.66,19.75-6.63,10.78-10.55,23.21-11.31,35.85-.25,4.18-.13,8.53,1.68,12.3,1.81,3.77,5.67,6.83,9.85,6.53,7.55-.53,11.98-10.93,19.54-10.45,4.45.28,7.75,4.51,8.83,8.84s.55,8.87.76,13.32c.59,12.76,8.58,25.69,20.87,29.17,12.29,3.48,27.4-5.64,27.6-18.41.1-6.54-3.28-12.53-5.69-18.61-2.41-6.08-3.76-13.45,0-18.79,4.95-7.04,16.18-6.33,23.13-1.25,6.95,5.07,11.01,13.07,15.93,20.13s11.86,13.84,20.46,14.16c8.08.29,15.17-5.22,20.72-11.1,14.1-14.97,23.4-34.39,26.22-54.76.54-3.92.7-8.37-1.91-11.35-2.85-3.25-7.84-3.41-12.1-2.69-9.33,1.57-17.85,6.07-26.59,9.69-8.74,3.62-18.35,6.42-27.58,4.36-9.23-2.05-17.63-10.43-16.72-19.84.46-4.74,3.08-8.95,5.3-13.16,15.83-29.95,12.68-68.94-7.76-95.95-5.24-6.93-11.66-13.2-19.57-16.78s-17.49-4.15-25.15-.06-12.69,13.33-10.55,21.75c2.47,9.69,12.57,15.12,18.62,23.08,6.69,8.82,8.09,21.36,3.51,31.44-4.59,10.08-4.68,21.39-25.64,15.15"/><path class="cls-1" d="m1370.14,395.74c-7.67-2.73-16.55-3.48-23.69.43-7.14,3.92-11.38,13.55-7.42,20.67,1.28,2.3,3.27,4.18,4.33,6.59,2.88,6.55-1.91,13.66-5.66,19.75-6.63,10.78-10.55,23.21-11.31,35.85-.25,4.18-.13,8.53,1.68,12.3,1.81,3.77,5.67,6.83,9.85,6.53,7.55-.53,11.98-10.93,19.54-10.45,4.45.28,7.75,4.51,8.83,8.84s.55,8.87.76,13.32c.59,12.76,8.58,25.69,20.87,29.17,12.29,3.48,27.4-5.64,27.6-18.41.1-6.54-3.28-12.53-5.69-18.61-2.41-6.08-3.76-13.45,0-18.79,4.95-7.04,16.18-6.33,23.13-1.25,6.95,5.07,11.01,13.07,15.93,20.13s11.86,13.84,20.46,14.16c8.08.29,15.17-5.22,20.72-11.1,14.1-14.97,23.4-34.39,26.22-54.76.54-3.92.7-8.37-1.91-11.35-2.85-3.25-7.84-3.41-12.1-2.69-9.33,1.57-17.85,6.07-26.59,9.69-8.74,3.62-18.35,6.42-27.58,4.36-9.23-2.05-17.63-10.43-16.72-19.84.46-4.74,3.08-8.95,5.3-13.16,15.83-29.95,12.68-68.94-7.76-95.95-5.24-6.93-11.66-13.2-19.57-16.78s-17.49-4.15-25.15-.06-12.69,13.33-10.55,21.75c2.47,9.69,12.57,15.12,18.62,23.08,6.69,8.82,8.09,21.36,3.51,31.44-4.59,10.08-4.68,21.39-25.64,15.15"/><path class="cls-1" d="m1465.3,58.54c-7.67-2.73-16.55-3.48-23.69.43-7.14,3.92-11.38,13.55-7.42,20.67,1.28,2.3,3.27,4.18,4.33,6.59,2.88,6.55-1.91,13.66-5.66,19.75-6.63,10.78-10.55,23.21-11.31,35.85-.25,4.18-.13,8.53,1.68,12.3,1.81,3.77,5.67,6.83,9.85,6.53,7.55-.53,11.98-10.93,19.54-10.45,4.45.28,7.75,4.51,8.83,8.84s.55,8.87.76,13.32c.59,12.76,8.58,25.69,20.87,29.17,12.29,3.48,27.4-5.64,27.6-18.41.1-6.54-3.28-12.53-5.69-18.61-2.41-6.08-3.76-13.45,0-18.79,4.95-7.04,16.18-6.33,23.13-1.25,6.95,5.07,11.01,13.07,15.93,20.13s11.86,13.84,20.46,14.16c8.08.29,15.17-5.22,20.72-11.1,14.1-14.97,23.4-34.39,26.22-54.76.54-3.92.7-8.37-1.91-11.35-2.85-3.25-7.84-3.41-12.1-2.69-9.33,1.57-17.85,6.07-26.59,9.69-8.74,3.62-18.35,6.42-27.58,4.36-9.23-2.05-17.63-10.43-16.72-19.84.46-4.74,3.08-8.95,5.3-13.16,15.83-29.95,12.68-68.94-7.76-95.95-5.24-6.93-11.66-13.2-19.57-16.78s-17.49-4.15-25.15-.06-12.69,13.33-10.55,21.75c2.47,9.69,12.57,15.12,18.62,23.08,6.69,8.82,8.09,21.36,3.51,31.44-4.59,10.08-4.68,21.39-25.64,15.15"/><path class="cls-1" d="m-6.05-12.4c-7.67-2.73-16.55-3.48-23.69.43-7.14,3.92-11.38,13.55-7.42,20.67,1.28,2.3,3.27,4.18,4.33,6.59,2.88,6.55-1.91,13.66-5.66,19.75-6.63,10.78-10.55,23.21-11.31,35.85-.25,4.18-.13,8.53,1.68,12.3,1.81,3.77,5.67,6.83,9.85,6.53,7.55-.53,11.98-10.93,19.54-10.45,4.45.28,7.75,4.51,8.83,8.84s.55,8.87.76,13.32c.59,12.76,8.58,25.69,20.87,29.17,12.29,3.48,27.4-5.64,27.6-18.41.1-6.54-3.28-12.53-5.69-18.61-2.41-6.08-3.76-13.45,0-18.79,4.95-7.04,16.18-6.33,23.13-1.25,6.95,5.07,11.01,13.07,15.93,20.13s11.86,13.84,20.46,14.16c8.08.29,15.17-5.22,20.72-11.1,14.1-14.97,23.4-34.39,26.22-54.76.54-3.92.7-8.37-1.91-11.35-2.85-3.25-7.84-3.41-12.1-2.69-9.33,1.57-17.85,6.07-26.59,9.69-8.74,3.62-18.35,6.42-27.58,4.36-9.23-2.05-17.63-10.43-16.72-19.84.46-4.74,3.08-8.95,5.3-13.16,15.83-29.95,12.68-68.94-7.76-95.95-5.24-6.93-11.66-13.2-19.57-16.78s-17.49-4.15-25.15-.06-12.69,13.33-10.55,21.75c2.47,9.69,12.57,15.12,18.62,23.08,6.69,8.82,8.09,21.36,3.51,31.44C15.01-17.47,14.91-6.16-6.05-12.4"/><path class="cls-1" d="m1797.54,364.61c-7.67-2.73-16.55-3.48-23.69.43-7.14,3.92-11.38,13.55-7.42,20.67,1.28,2.3,3.27,4.18,4.33,6.59,2.88,6.55-1.91,13.66-5.66,19.75-6.63,10.78-10.55,23.21-11.31,35.85-.25,4.18-.13,8.53,1.68,12.3,1.81,3.77,5.67,6.83,9.85,6.53,7.55-.53,11.98-10.93,19.54-10.45,4.45.28,7.75,4.51,8.83,8.84s.55,8.87.76,13.32c.59,12.76,8.58,25.69,20.87,29.17,12.29,3.48,27.4-5.64,27.6-18.41.1-6.54-3.28-12.53-5.69-18.61-2.41-6.08-3.76-13.45,0-18.79,4.95-7.04,16.18-6.33,23.13-1.25,6.95,5.07,11.01,13.07,15.93,20.13s11.86,13.84,20.46,14.16c8.08.29,15.17-5.22,20.72-11.1,14.1-14.97,23.4-34.39,26.22-54.76.54-3.92.7-8.37-1.91-11.35-2.85-3.25-7.84-3.41-12.1-2.69-9.33,1.57-17.85,6.07-26.59,9.69-8.74,3.62-18.35,6.42-27.58,4.36-9.23-2.05-17.63-10.43-16.72-19.84.46-4.74,3.08-8.95,5.3-13.16,15.83-29.95,12.68-68.94-7.76-95.95-5.24-6.93-11.66-13.2-19.57-16.78s-17.49-4.15-25.15-.06-12.69,13.33-10.55,21.75c2.47,9.69,12.57,15.12,18.62,23.08,6.69,8.82,8.09,21.36,3.51,31.44-4.59,10.08-4.68,21.39-25.64,15.15"/><path class="cls-1" d="m1841.18,950.7c-7.67-2.73-16.55-3.48-23.69.43-7.14,3.92-11.38,13.55-7.42,20.67,1.28,2.3,3.27,4.18,4.33,6.59,2.88,6.55-1.91,13.66-5.66,19.75-6.63,10.78-10.55,23.21-11.31,35.85-.25,4.18-.13,8.53,1.68,12.3,1.81,3.77,5.67,6.83,9.85,6.53,7.55-.53,11.98-10.93,19.54-10.45,4.45.28,7.75,4.51,8.83,8.84s.55,8.87.76,13.32c.59,12.76,8.58,25.69,20.87,29.17,12.29,3.48,27.4-5.64,27.6-18.41.1-6.54-3.28-12.53-5.69-18.61-2.41-6.08-3.76-13.45,0-18.79,4.95-7.04,16.18-6.33,23.13-1.25,6.95,5.07,11.01,13.07,15.93,20.13s11.86,13.84,20.46,14.16c8.08.29,15.17-5.22,20.72-11.1,14.1-14.97,23.4-34.39,26.22-54.76.54-3.92.7-8.37-1.91-11.35-2.85-3.25-7.84-3.41-12.1-2.69-9.33,1.57-17.85,6.07-26.59,9.69-8.74,3.62-18.35,6.42-27.58,4.36-9.23-2.05-17.63-10.43-16.72-19.84.46-4.74,3.08-8.95,5.3-13.16,15.83-29.95,12.68-68.94-7.76-95.95-5.24-6.93-11.66-13.2-19.57-16.78s-17.49-4.15-25.15-.06-12.69,13.33-10.55,21.75c2.47,9.69,12.57,15.12,18.62,23.08,6.69,8.82,8.09,21.36,3.51,31.44-4.59,10.08-4.68,21.39-25.64,15.15"/><path class="cls-1" d="m1868.7-24.73c-7.67-2.73-16.55-3.48-23.69.43-7.14,3.92-11.38,13.55-7.42,20.67,1.28,2.3,3.27,4.18,4.33,6.59,2.88,6.55-1.91,13.66-5.66,19.75-6.63,10.78-10.55,23.21-11.31,35.85-.25,4.18-.13,8.53,1.68,12.3,1.81,3.77,5.67,6.83,9.85,6.53,7.55-.53,11.98-10.93,19.54-10.45,4.45.28,7.75,4.51,8.83,8.84s.55,8.87.76,13.32c.59,12.76,8.58,25.69,20.87,29.17,12.29,3.48,27.4-5.64,27.6-18.41.1-6.54-3.28-12.53-5.69-18.61-2.41-6.08-3.76-13.45,0-18.79,4.95-7.04,16.18-6.33,23.13-1.25,6.95,5.07,11.01,13.07,15.93,20.13s11.86,13.84,20.46,14.16c8.08.29,15.17-5.22,20.72-11.1,14.1-14.97,23.4-34.39,26.22-54.76.54-3.92.7-8.37-1.91-11.35-2.85-3.25-7.84-3.41-12.1-2.69-9.33,1.57-17.85,6.07-26.59,9.69-8.74,3.62-18.35,6.42-27.58,4.36-9.23-2.05-17.63-10.43-16.72-19.84.46-4.74,3.08-8.95,5.3-13.16,15.83-29.95,12.68-68.94-7.76-95.95-5.24-6.93-11.66-13.2-19.57-16.78s-17.49-4.15-25.15-.06-12.69,13.33-10.55,21.75c2.47,9.69,12.57,15.12,18.62,23.08,6.69,8.82,8.09,21.36,3.51,31.44-4.59,10.08-4.68,21.39-25.64,15.15"/></svg>