<?xml version="1.0" encoding="UTF-8"?><svg id="fond" xmlns="http://www.w3.org/2000/svg" viewBox="0 0 1920 1080"><defs><style>.cls-1{fill:#f99b7d;}</style></defs><path class="cls-1" d="m403.38,621.54c70.68-8.05,130.05-73.87,130.79-145,.17-16.34-2.69-33.41-12.47-46.49-15.22-20.37-43.27-26.32-68.69-25.84-25.42.48-51,5.81-76.09,1.73-27.03-4.4-54.46-24.2-55.6-51.56-.77-18.43,10.21-34.97,19.58-50.85,16.2-27.47,28.92-57.84,30.55-89.69,1.63-31.85-9.13-65.42-33.39-86.13-32.24-27.53-80.49-26.97-120.9-14.13-59.03,18.75-111.86,63.55-129.43,122.95-17.57,59.4,7.12,131.61,62.57,159.2,27.22,13.54,58.67,15.89,86.91,27.12,28.25,11.24,55.23,37.21,51.11,67.33-4.04,29.46-34.45,46.72-51.77,70.88-23.24,32.42-19.7,82.06,9.72,109,29.41,26.94,81.41,24.92,106.8-5.84,8.5-10.3,14.02-22.98,23.56-32.33,9.53-9.36,16.37-18.74,26.75-10.33"/><path class="cls-1" d="m981.65,1042.76c70.68-8.05,130.05-73.87,130.79-145,.17-16.34-2.69-33.41-12.47-46.49-15.22-20.37-43.27-26.32-68.69-25.84-25.42.48-51,5.81-76.09,1.73-27.03-4.4-54.46-24.2-55.6-51.56-.77-18.43,10.21-34.97,19.58-50.85,16.2-27.47,28.92-57.84,30.55-89.69,1.63-31.85-9.13-65.42-33.39-86.13-32.24-27.53-80.49-26.97-120.9-14.13-59.03,18.75-111.86,63.55-129.43,122.95-17.57,59.4,7.12,131.61,62.57,159.2,27.22,13.54,58.67,15.89,86.91,27.12,28.25,11.24,55.23,37.21,51.11,67.33-4.04,29.46-34.45,46.72-51.77,70.88-23.24,32.42-19.7,82.06,9.72,109,29.41,26.94,81.41,24.92,106.8-5.84,8.5-10.3,14.02-22.98,23.56-32.33,9.53-9.36,16.37-18.74,26.75-10.33"/><path class="cls-1" d="m284.49,1329.55c70.68-8.05,130.05-73.87,130.79-145,.17-16.34-2.69-33.41-12.47-46.49-15.22-20.37-43.27-26.32-68.69-25.84-25.42.48-51,5.81-76.09,1.73-27.03-4.4-54.46-24.2-55.6-51.56-.77-18.43,10.21-34.97,19.58-50.85,16.2-27.47,28.92-57.84,30.55-89.69,1.63-31.85-9.13-65.42-33.39-86.13-32.24-27.53-80.49-26.97-120.9-14.13-59.03,18.75-111.86,63.55-129.43,122.95-17.57,59.4,7.12,131.61,62.57,159.2,27.22,13.54,58.67,15.89,86.91,27.12,28.25,11.24,55.23,37.21,51.11,67.33-4.04,29.46-34.45,46.72-51.77,70.88-23.24,32.42-19.7,82.06,9.72,109,29.41,26.94,81.41,24.92,106.8-5.84,8.5-10.3,14.02-22.98,23.56-32.33s16.37-18.74,26.75-10.33"/><path class="cls-1" d="m1219.45,454.59c70.68-8.05,130.05-73.87,130.79-145,.17-16.34-2.69-33.41-12.47-46.49-15.22-20.37-43.27-26.32-68.69-25.84-25.42.48-51,5.81-76.09,1.73-27.03-4.4-54.46-24.2-55.6-51.56-.77-18.43,10.21-34.97,19.58-50.85,16.2-27.47,28.92-57.84,30.55-89.69,1.63-31.85-9.13-65.42-33.39-86.13-32.24-27.53-80.49-26.97-120.9-14.13-59.03,18.75-111.86,63.55-129.43,122.95-17.57,59.4,7.12,131.61,62.57,159.2,27.22,13.54,58.67,15.89,86.91,27.12,28.25,11.24,55.23,37.21,51.11,67.33-4.04,29.46-34.45,46.72-51.77,70.88-23.24,32.42-19.7,82.06,9.72,109,29.41,26.94,81.41,24.92,106.8-5.84,8.5-10.3,14.02-22.98,23.56-32.33,9.53-9.36,16.37-18.74,26.75-10.33"/><path class="cls-1" d="m1732.51,1064.78c70.68-8.05,130.05-73.87,130.79-145,.17-16.34-2.69-33.41-12.47-46.49-15.22-20.37-43.27-26.32-68.69-25.84-25.42.48-51,5.81-76.09,1.73-27.03-4.4-54.46-24.2-55.6-51.56-.77-18.43,10.21-34.97,19.58-50.85,16.2-27.47,28.92-57.84,30.55-89.69,1.63-31.85-9.13-65.42-33.39-86.13-32.24-27.53-80.49-26.97-120.9-14.13-59.03,18.75-111.86,63.55-129.43,122.95-17.57,59.4,7.12,131.61,62.57,159.2,27.22,13.54,58.67,15.89,86.91,27.12,28.25,11.24,55.23,37.21,51.11,67.33-4.04,29.46-34.45,46.72-51.77,70.88-23.24,32.42-19.7,82.06,9.72,109,29.41,26.94,81.41,24.92,106.8-5.84,8.5-10.3,14.02-22.98,23.56-32.33,9.53-9.36,16.37-18.74,26.75-10.33"/><path class="cls-1" d="m1944.07,410.55c70.68-8.05,130.05-73.87,130.79-145,.17-16.34-2.69-33.41-12.47-46.49-15.22-20.37-43.27-26.32-68.69-25.84-25.42.48-51,5.81-76.09,1.73-27.03-4.4-54.46-24.2-55.6-51.56-.77-18.43,10.21-34.97,19.58-50.85,16.2-27.47,28.92-57.84,30.55-89.69,1.63-31.85-9.13-65.42-33.39-86.13-32.24-27.53-80.49-26.97-120.9-14.13-59.03,18.75-111.86,63.55-129.43,122.95-17.57,59.4,7.12,131.61,62.57,159.2,27.22,13.54,58.67,15.89,86.91,27.12,28.25,11.24,55.23,37.21,51.11,67.33-4.04,29.46-34.45,46.72-51.77,70.88-23.24,32.42-19.7,82.06,9.72,109,29.41,26.94,81.41,24.92,106.8-5.84,8.5-10.3,14.02-22.98,23.56-32.33,9.53-9.36,16.37-18.74,26.75-10.33"/></svg>