<?xml version="1.0" encoding="UTF-8"?><svg id="fond" xmlns="http://www.w3.org/2000/svg" viewBox="0 0 1920 1080"><defs><style>.cls-1{fill:#fffba9;}</style></defs><path class="cls-1" d="m67.9,64.45c-24.93-3.24-45.5,19.06-36.39,43.54,4.82-2.53,16.26-12.93,22.81-11.37,15.89,3.78-.35,12.6-3.06,19.32-9.28,23.01,7.72,23.21,18.82,4.36,9.07-15.4,7.67-35.69,27.1-27.92,7.06,2.82,9.79,15.84,20.94,8.51,5.48-3.6,6.6-16.46,5.46-22.21-5,.49-10.73-.56-15.67,1.27-18.47-20.04,19.63-20.55,29.8-28.55,18.38-14.46,12.06-44.1-13.96-33.11-12.47,5.27-8.43,15.34-16.37,22.69-11.61,10.75-13.01,1.59-23.34-6.19-7.64-5.76-59.22-16.01-46.64,6.19,3.19,5.64,22.59-1.65,29.65,4.21,7.48,6.21,7.66,20.06-.89,22.77"/><path class="cls-1" d="m345.2,94.86c-24.93-3.24-45.5,19.06-36.39,43.54,4.82-2.53,16.26-12.93,22.81-11.37,15.89,3.78-.35,12.6-3.06,19.32-9.28,23.01,7.72,23.21,18.82,4.36,9.07-15.4,7.67-35.69,27.1-27.92,7.06,2.82,9.79,15.84,20.94,8.51,5.48-3.6,6.6-16.46,5.46-22.21-5,.49-10.73-.56-15.67,1.27-18.47-20.04,19.63-20.55,29.8-28.55,18.38-14.46,12.06-44.1-13.96-33.11-12.47,5.27-8.43,15.34-16.37,22.69-11.61,10.75-13.01,1.59-23.34-6.19-7.64-5.76-59.22-16.01-46.64,6.19,3.19,5.64,22.59-1.65,29.65,4.21,7.48,6.21,7.66,20.06-.89,22.77"/><path class="cls-1" d="m119.66,276.22c-24.93-3.24-45.5,19.06-36.39,43.54,4.82-2.53,16.26-12.93,22.81-11.37,15.89,3.78-.35,12.6-3.06,19.32-9.28,23.01,7.72,23.21,18.82,4.36,9.07-15.4,7.67-35.69,27.1-27.92,7.06,2.82,9.79,15.84,20.94,8.51,5.48-3.6,6.6-16.46,5.46-22.21-5,.49-10.73-.56-15.67,1.27-18.47-20.04,19.63-20.55,29.8-28.55,18.38-14.46,12.06-44.1-13.96-33.11-12.47,5.27-8.43,15.34-16.37,22.69-11.61,10.75-13.01,1.59-23.34-6.19-7.64-5.76-59.22-16.01-46.64,6.19,3.19,5.64,22.59-1.65,29.65,4.21,7.48,6.21,7.66,20.06-.89,22.77"/><path class="cls-1" d="m345.2,317.07c-24.93-3.24-45.5,19.06-36.39,43.54,4.82-2.53,16.26-12.93,22.81-11.37,15.89,3.78-.35,12.6-3.06,19.32-9.28,23.01,7.72,23.21,18.82,4.36,9.07-15.4,7.67-35.69,27.1-27.92,7.06,2.82,9.79,15.84,20.94,8.51,5.48-3.6,6.6-16.46,5.46-22.21-5,.49-10.73-.56-15.67,1.27-18.47-20.04,19.63-20.55,29.8-28.55,18.38-14.46,12.06-44.1-13.96-33.11-12.47,5.27-8.43,15.34-16.37,22.69-11.61,10.75-13.01,1.59-23.34-6.19-7.64-5.76-59.22-16.01-46.64,6.19,3.19,5.64,22.59-1.65,29.65,4.21,7.48,6.21,7.66,20.06-.89,22.77"/><path class="cls-1" d="m627.48,320.26c-24.93-3.24-45.5,19.06-36.39,43.54,4.82-2.53,16.26-12.93,22.81-11.37,15.89,3.78-.35,12.6-3.06,19.32-9.28,23.01,7.72,23.21,18.82,4.36,9.07-15.4,7.67-35.69,27.1-27.92,7.06,2.82,9.79,15.84,20.94,8.51,5.48-3.6,6.6-16.46,5.46-22.21-5,.49-10.73-.56-15.67,1.27-18.47-20.04,19.63-20.55,29.8-28.55,18.38-14.46,12.06-44.1-13.96-33.11-12.47,5.27-8.43,15.34-16.37,22.69-11.61,10.75-13.01,1.59-23.34-6.19-7.64-5.76-59.22-16.01-46.64,6.19,3.19,5.64,22.59-1.65,29.65,4.21,7.48,6.21,7.66,20.06-.89,22.77"/><path class="cls-1" d="m182.26,473.91c-24.93-3.24-45.5,19.06-36.39,43.54,4.82-2.53,16.26-12.93,22.81-11.37,15.89,3.78-.35,12.6-3.06,19.32-9.28,23.01,7.72,23.21,18.82,4.36,9.07-15.4,7.67-35.69,27.1-27.92,7.06,2.82,9.79,15.84,20.94,8.51,5.48-3.6,6.6-16.46,5.46-22.21-5,.49-10.73-.56-15.67,1.27-18.47-20.04,19.63-20.55,29.8-28.55,18.38-14.46,12.06-44.1-13.96-33.11-12.47,5.27-8.43,15.34-16.37,22.69-11.61,10.75-13.01,1.59-23.34-6.19-7.64-5.76-59.22-16.01-46.64,6.19,3.19,5.64,22.59-1.65,29.65,4.21,7.48,6.21,7.66,20.06-.89,22.77"/><path class="cls-1" d="m47.31,663.61c-24.93-3.24-45.5,19.06-36.39,43.54,4.82-2.53,16.26-12.93,22.81-11.37,15.89,3.78-.35,12.6-3.06,19.32-9.28,23.01,7.72,23.21,18.82,4.36,9.07-15.4,7.67-35.69,27.1-27.92,7.06,2.82,9.79,15.84,20.94,8.51,5.48-3.6,6.6-16.46,5.46-22.21-5,.49-10.73-.56-15.67,1.27-18.47-20.04,19.63-20.55,29.8-28.55,18.38-14.46,12.06-44.1-13.96-33.11-12.47,5.27-8.43,15.34-16.37,22.69-11.61,10.75-13.01,1.59-23.34-6.19-7.64-5.76-59.22-16.01-46.64,6.19,3.19,5.64,22.59-1.65,29.65,4.21,7.48,6.21,7.66,20.06-.89,22.77"/><path class="cls-1" d="m324.6,694.02c-24.93-3.24-45.5,19.06-36.39,43.54,4.82-2.53,16.26-12.93,22.81-11.37,15.89,3.78-.35,12.6-3.06,19.32-9.28,23.01,7.72,23.21,18.82,4.36,9.07-15.4,7.67-35.69,27.1-27.92,7.06,2.82,9.79,15.84,20.94,8.51,5.48-3.6,6.6-16.46,5.46-22.21-5,.49-10.73-.56-15.67,1.27-18.47-20.04,19.63-20.55,29.8-28.55,18.38-14.46,12.06-44.1-13.96-33.11-12.47,5.27-8.43,15.34-16.37,22.69-11.61,10.75-13.01,1.59-23.34-6.19-7.64-5.76-59.22-16.01-46.64,6.19,3.19,5.64,22.59-1.65,29.65,4.21,7.48,6.21,7.66,20.06-.89,22.77"/><path class="cls-1" d="m99.07,875.37c-24.93-3.24-45.5,19.06-36.39,43.54,4.82-2.53,16.26-12.93,22.81-11.37,15.89,3.78-.35,12.6-3.06,19.32-9.28,23.01,7.72,23.21,18.82,4.36,9.07-15.4,7.67-35.69,27.1-27.92,7.06,2.82,9.79,15.84,20.94,8.51,5.48-3.6,6.6-16.46,5.46-22.21-5,.49-10.73-.56-15.67,1.27-18.47-20.04,19.63-20.55,29.8-28.55,18.38-14.46,12.06-44.1-13.96-33.11-12.47,5.27-8.43,15.34-16.37,22.69-11.61,10.75-13.01,1.59-23.34-6.19-7.64-5.76-59.22-16.01-46.64,6.19,3.19,5.64,22.59-1.65,29.65,4.21,7.48,6.21,7.66,20.06-.89,22.77"/><path class="cls-1" d="m532.16,679.77c-24.93-3.24-45.5,19.06-36.39,43.54,4.82-2.53,16.26-12.93,22.81-11.37,15.89,3.78-.35,12.6-3.06,19.32-9.28,23.01,7.72,23.21,18.82,4.36,9.07-15.4,7.67-35.69,27.1-27.92,7.06,2.82,9.79,15.84,20.94,8.51,5.48-3.6,6.6-16.46,5.46-22.21-5,.49-10.73-.56-15.67,1.27-18.47-20.04,19.63-20.55,29.8-28.55,18.38-14.46,12.06-44.1-13.96-33.11-12.47,5.27-8.43,15.34-16.37,22.69-11.61,10.75-13.01,1.59-23.34-6.19-7.64-5.76-59.22-16.01-46.64,6.19,3.19,5.64,22.59-1.65,29.65,4.21,7.48,6.21,7.66,20.06-.89,22.77"/><path class="cls-1" d="m809.45,710.18c-24.93-3.24-45.5,19.06-36.39,43.54,4.82-2.53,16.26-12.93,22.81-11.37,15.89,3.78-.35,12.6-3.06,19.32-9.28,23.01,7.72,23.21,18.82,4.36,9.07-15.4,7.67-35.69,27.1-27.92,7.06,2.82,9.79,15.84,20.94,8.51,5.48-3.6,6.6-16.46,5.46-22.21-5,.49-10.73-.56-15.67,1.27-18.47-20.04,19.63-20.55,29.8-28.55,18.38-14.46,12.06-44.1-13.96-33.11-12.47,5.27-8.43,15.34-16.37,22.69-11.61,10.75-13.01,1.59-23.34-6.19-7.64-5.76-59.22-16.01-46.64,6.19,3.19,5.64,22.59-1.65,29.65,4.21,7.48,6.21,7.66,20.06-.89,22.77"/><path class="cls-1" d="m583.92,891.54c-24.93-3.24-45.5,19.06-36.39,43.54,4.82-2.53,16.26-12.93,22.81-11.37,15.89,3.78-.35,12.6-3.06,19.32-9.28,23.01,7.72,23.21,18.82,4.36,9.07-15.4,7.67-35.69,27.1-27.92,7.06,2.82,9.79,15.84,20.94,8.51,5.48-3.6,6.6-16.46,5.46-22.21-5,.49-10.73-.56-15.67,1.27-18.47-20.04,19.63-20.55,29.8-28.55,18.38-14.46,12.06-44.1-13.96-33.11-12.47,5.27-8.43,15.34-16.37,22.69-11.61,10.75-13.01,1.59-23.34-6.19-7.64-5.76-59.22-16.01-46.64,6.19,3.19,5.64,22.59-1.65,29.65,4.21,7.48,6.21,7.66,20.06-.89,22.77"/><path class="cls-1" d="m285.73,984.64c-24.93-3.24-45.5,19.06-36.39,43.54,4.82-2.53,16.26-12.93,22.81-11.37,15.89,3.78-.35,12.6-3.06,19.32-9.28,23.01,7.72,23.21,18.82,4.36,9.07-15.4,7.67-35.69,27.1-27.92,7.06,2.82,9.79,15.84,20.94,8.51,5.48-3.6,6.6-16.46,5.46-22.21-5,.49-10.73-.56-15.67,1.27-18.47-20.04,19.63-20.55,29.8-28.55,18.38-14.46,12.06-44.1-13.96-33.11-12.47,5.27-8.43,15.34-16.37,22.69-11.61,10.75-13.01,1.59-23.34-6.19-7.64-5.76-59.22-16.01-46.64,6.19,3.19,5.64,22.59-1.65,29.65,4.21,7.48,6.21,7.66,20.06-.89,22.77"/><path class="cls-1" d="m912.71,209.49c-24.93-3.24-45.5,19.06-36.39,43.54,4.82-2.53,16.26-12.93,22.81-11.37,15.89,3.78-.35,12.6-3.06,19.32-9.28,23.01,7.72,23.21,18.82,4.36,9.07-15.4,7.67-35.69,27.1-27.92,7.06,2.82,9.79,15.84,20.94,8.51,5.48-3.6,6.6-16.46,5.46-22.21-5,.49-10.73-.56-15.67,1.27-18.47-20.04,19.63-20.55,29.8-28.55,18.38-14.46,12.06-44.1-13.96-33.11-12.47,5.27-8.43,15.34-16.37,22.69-11.61,10.75-13.01,1.59-23.34-6.19-7.64-5.76-59.22-16.01-46.64,6.19,3.19,5.64,22.59-1.65,29.65,4.21,7.48,6.21,7.66,20.06-.89,22.77"/><path class="cls-1" d="m1190,239.9c-24.93-3.24-45.5,19.06-36.39,43.54,4.82-2.53,16.26-12.93,22.81-11.37,15.89,3.78-.35,12.6-3.06,19.32-9.28,23.01,7.72,23.21,18.82,4.36,9.07-15.4,7.67-35.69,27.1-27.92,7.06,2.82,9.79,15.84,20.94,8.51,5.48-3.6,6.6-16.46,5.46-22.21-5,.49-10.73-.56-15.67,1.27-18.47-20.04,19.63-20.55,29.8-28.55,18.38-14.46,12.06-44.1-13.96-33.11-12.47,5.27-8.43,15.34-16.37,22.69-11.61,10.75-13.01,1.59-23.34-6.19-7.64-5.76-59.22-16.01-46.64,6.19,3.19,5.64,22.59-1.65,29.65,4.21,7.48,6.21,7.66,20.06-.89,22.77"/><path class="cls-1" d="m964.47,421.25c-24.93-3.24-45.5,19.06-36.39,43.54,4.82-2.53,16.26-12.93,22.81-11.37,15.89,3.78-.35,12.6-3.06,19.32-9.28,23.01,7.72,23.21,18.82,4.36,9.07-15.4,7.67-35.69,27.1-27.92,7.06,2.82,9.79,15.84,20.94,8.51,5.48-3.6,6.6-16.46,5.46-22.21-5,.49-10.73-.56-15.67,1.27-18.47-20.04,19.63-20.55,29.8-28.55,18.38-14.46,12.06-44.1-13.96-33.11-12.47,5.27-8.43,15.34-16.37,22.69-11.61,10.75-13.01,1.59-23.34-6.19-7.64-5.76-59.22-16.01-46.64,6.19,3.19,5.64,22.59-1.65,29.65,4.21,7.48,6.21,7.66,20.06-.89,22.77"/><path class="cls-1" d="m1066.54,679.77c-24.93-3.24-45.5,19.06-36.39,43.54,4.82-2.53,16.26-12.93,22.81-11.37,15.89,3.78-.35,12.6-3.06,19.32-9.28,23.01,7.72,23.21,18.82,4.36,9.07-15.4,7.67-35.69,27.1-27.92,7.06,2.82,9.79,15.84,20.94,8.51,5.48-3.6,6.6-16.46,5.46-22.21-5,.49-10.73-.56-15.67,1.27-18.47-20.04,19.63-20.55,29.8-28.55,18.38-14.46,12.06-44.1-13.96-33.11-12.47,5.27-8.43,15.34-16.37,22.69-11.61,10.75-13.01,1.59-23.34-6.19-7.64-5.76-59.22-16.01-46.64,6.19,3.19,5.64,22.59-1.65,29.65,4.21,7.48,6.21,7.66,20.06-.89,22.77"/><path class="cls-1" d="m1343.83,710.18c-24.93-3.24-45.5,19.06-36.39,43.54,4.82-2.53,16.26-12.93,22.81-11.37,15.89,3.78-.35,12.6-3.06,19.32-9.28,23.01,7.72,23.21,18.82,4.36,9.07-15.4,7.67-35.69,27.1-27.92,7.06,2.82,9.79,15.84,20.94,8.51,5.48-3.6,6.6-16.46,5.46-22.21-5,.49-10.73-.56-15.67,1.27-18.47-20.04,19.63-20.55,29.8-28.55,18.38-14.46,12.06-44.1-13.96-33.11-12.47,5.27-8.43,15.34-16.37,22.69-11.61,10.75-13.01,1.59-23.34-6.19-7.64-5.76-59.22-16.01-46.64,6.19,3.19,5.64,22.59-1.65,29.65,4.21,7.48,6.21,7.66,20.06-.89,22.77"/><path class="cls-1" d="m1504.01,866.66c-24.93-3.24-45.5,19.06-36.39,43.54,4.82-2.53,16.26-12.93,22.81-11.37,15.89,3.78-.35,12.6-3.06,19.32-9.28,23.01,7.72,23.21,18.82,4.36,9.07-15.4,7.67-35.69,27.1-27.92,7.06,2.82,9.79,15.84,20.94,8.51,5.48-3.6,6.6-16.46,5.46-22.21-5,.49-10.73-.56-15.67,1.27-18.47-20.04,19.63-20.55,29.8-28.55,18.38-14.46,12.06-44.1-13.96-33.11-12.47,5.27-8.43,15.34-16.37,22.69-11.61,10.75-13.01,1.59-23.34-6.19-7.64-5.76-59.22-16.01-46.64,6.19,3.19,5.64,22.59-1.65,29.65,4.21,7.48,6.21,7.66,20.06-.89,22.77"/><path class="cls-1" d="m1635.48,539.23c-24.93-3.24-45.5,19.06-36.39,43.54,4.82-2.53,16.26-12.93,22.81-11.37,15.89,3.78-.35,12.6-3.06,19.32-9.28,23.01,7.72,23.21,18.82,4.36,9.07-15.4,7.67-35.69,27.1-27.92,7.06,2.82,9.79,15.84,20.94,8.51,5.48-3.6,6.6-16.46,5.46-22.21-5,.49-10.73-.56-15.67,1.27-18.47-20.04,19.63-20.55,29.8-28.55,18.38-14.46,12.06-44.1-13.96-33.11-12.47,5.27-8.43,15.34-16.37,22.69-11.61,10.75-13.01,1.59-23.34-6.19-7.64-5.76-59.22-16.01-46.64,6.19,3.19,5.64,22.59-1.65,29.65,4.21,7.48,6.21,7.66,20.06-.89,22.77"/><path class="cls-1" d="m1696.88,345.64c-24.93-3.24-45.5,19.06-36.39,43.54,4.82-2.53,16.26-12.93,22.81-11.37,15.89,3.78-.35,12.6-3.06,19.32-9.28,23.01,7.72,23.21,18.82,4.36,9.07-15.4,7.67-35.69,27.1-27.92,7.06,2.82,9.79,15.84,20.94,8.51,5.48-3.6,6.6-16.46,5.46-22.21-5,.49-10.73-.56-15.67,1.27-18.47-20.04,19.63-20.55,29.8-28.55,18.38-14.46,12.06-44.1-13.96-33.11-12.47,5.27-8.43,15.34-16.37,22.69-11.61,10.75-13.01,1.59-23.34-6.19-7.64-5.76-59.22-16.01-46.64,6.19,3.19,5.64,22.59-1.65,29.65,4.21,7.48,6.21,7.66,20.06-.89,22.77"/><path class="cls-1" d="m1259.44,453.83c-24.93-3.24-45.5,19.06-36.39,43.54,4.82-2.53,16.26-12.93,22.81-11.37,15.89,3.78-.35,12.6-3.06,19.32-9.28,23.01,7.72,23.21,18.82,4.36,9.07-15.4,7.67-35.69,27.1-27.92,7.06,2.82,9.79,15.84,20.94,8.51,5.48-3.6,6.6-16.46,5.46-22.21-5,.49-10.73-.56-15.67,1.27-18.47-20.04,19.63-20.55,29.8-28.55,18.38-14.46,12.06-44.1-13.96-33.11-12.47,5.27-8.43,15.34-16.37,22.69-11.61,10.75-13.01,1.59-23.34-6.19-7.64-5.76-59.22-16.01-46.64,6.19,3.19,5.64,22.59-1.65,29.65,4.21,7.48,6.21,7.66,20.06-.89,22.77"/><path class="cls-1" d="m1118.3,891.54c-24.93-3.24-45.5,19.06-36.39,43.54,4.82-2.53,16.26-12.93,22.81-11.37,15.89,3.78-.35,12.6-3.06,19.32-9.28,23.01,7.72,23.21,18.82,4.36,9.07-15.4,7.67-35.69,27.1-27.92,7.06,2.82,9.79,15.84,20.94,8.51,5.48-3.6,6.6-16.46,5.46-22.21-5,.49-10.73-.56-15.67,1.27-18.47-20.04,19.63-20.55,29.8-28.55,18.38-14.46,12.06-44.1-13.96-33.11-12.47,5.27-8.43,15.34-16.37,22.69-11.61,10.75-13.01,1.59-23.34-6.19-7.64-5.76-59.22-16.01-46.64,6.19,3.19,5.64,22.59-1.65,29.65,4.21,7.48,6.21,7.66,20.06-.89,22.77"/><path class="cls-1" d="m1750.76,1001.89c-24.93-3.24-45.5,19.06-36.39,43.54,4.82-2.53,16.26-12.93,22.81-11.37,15.89,3.78-.35,12.6-3.06,19.32-9.28,23.01,7.72,23.21,18.82,4.36,9.07-15.4,7.67-35.69,27.1-27.92,7.06,2.82,9.79,15.84,20.94,8.51,5.48-3.6,6.6-16.46,5.46-22.21-5,.49-10.73-.56-15.67,1.27-18.47-20.04,19.63-20.55,29.8-28.55,18.38-14.46,12.06-44.1-13.96-33.11-12.47,5.27-8.43,15.34-16.37,22.69-11.61,10.75-13.01,1.59-23.34-6.19-7.64-5.76-59.22-16.01-46.64,6.19,3.19,5.64,22.59-1.65,29.65,4.21,7.48,6.21,7.66,20.06-.89,22.77"/><path class="cls-1" d="m749.98,1022.45c-24.93-3.24-45.5,19.06-36.39,43.54,4.82-2.53,16.26-12.93,22.81-11.37,15.89,3.78-.35,12.6-3.06,19.32-9.28,23.01,7.72,23.21,18.82,4.36,9.07-15.4,7.67-35.69,27.1-27.92,7.06,2.82,9.79,15.84,20.94,8.51,5.48-3.6,6.6-16.46,5.46-22.21-5,.49-10.73-.56-15.67,1.27-18.47-20.04,19.63-20.55,29.8-28.55,18.38-14.46,12.06-44.1-13.96-33.11-12.47,5.27-8.43,15.34-16.37,22.69-11.61,10.75-13.01,1.59-23.34-6.19-7.64-5.76-59.22-16.01-46.64,6.19,3.19,5.64,22.59-1.65,29.65,4.21,7.48,6.21,7.66,20.06-.89,22.77"/><path class="cls-1" d="m1385.08,69.66c-24.93-3.24-45.5,19.06-36.39,43.54,4.82-2.53,16.26-12.93,22.81-11.37,15.89,3.78-.35,12.6-3.06,19.32-9.28,23.01,7.72,23.21,18.82,4.36,9.07-15.4,7.67-35.69,27.1-27.92,7.06,2.82,9.79,15.84,20.94,8.51,5.48-3.6,6.6-16.46,5.46-22.21-5,.49-10.73-.56-15.67,1.27-18.47-20.04,19.63-20.55,29.8-28.55,18.38-14.46,12.06-44.1-13.96-33.11-12.47,5.27-8.43,15.34-16.37,22.69-11.61,10.75-13.01,1.59-23.34-6.19-7.64-5.76-59.22-16.01-46.64,6.19,3.19,5.64,22.59-1.65,29.65,4.21,7.48,6.21,7.66,20.06-.89,22.77"/><path class="cls-1" d="m1662.37,100.07c-24.93-3.24-45.5,19.06-36.39,43.54,4.82-2.53,16.26-12.93,22.81-11.37,15.89,3.78-.35,12.6-3.06,19.32-9.28,23.01,7.72,23.21,18.82,4.36,9.07-15.4,7.67-35.69,27.1-27.92,7.06,2.82,9.79,15.84,20.94,8.51,5.48-3.6,6.6-16.46,5.46-22.21-5,.49-10.73-.56-15.67,1.27-18.47-20.04,19.63-20.55,29.8-28.55,18.38-14.46,12.06-44.1-13.96-33.11-12.47,5.27-8.43,15.34-16.37,22.69-11.61,10.75-13.01,1.59-23.34-6.19-7.64-5.76-59.22-16.01-46.64,6.19,3.19,5.64,22.59-1.65,29.65,4.21,7.48,6.21,7.66,20.06-.89,22.77"/><path class="cls-1" d="m1436.84,281.42c-24.93-3.24-45.5,19.06-36.39,43.54,4.82-2.53,16.26-12.93,22.81-11.37,15.89,3.78-.35,12.6-3.06,19.32-9.28,23.01,7.72,23.21,18.82,4.36,9.07-15.4,7.67-35.69,27.1-27.92,7.06,2.82,9.79,15.84,20.94,8.51,5.48-3.6,6.6-16.46,5.46-22.21-5,.49-10.73-.56-15.67,1.27-18.47-20.04,19.63-20.55,29.8-28.55,18.38-14.46,12.06-44.1-13.96-33.11-12.47,5.27-8.43,15.34-16.37,22.69-11.61,10.75-13.01,1.59-23.34-6.19-7.64-5.76-59.22-16.01-46.64,6.19,3.19,5.64,22.59-1.65,29.65,4.21,7.48,6.21,7.66,20.06-.89,22.77"/></svg>