<?xml version="1.0" encoding="UTF-8"?><svg id="fond" xmlns="http://www.w3.org/2000/svg" viewBox="0 0 1920 1080"><defs><style>.cls-1{fill:#a6d0dd;}</style></defs><path class="cls-1" d="m199.43,29.14c-57.07,77.69-114.14,155.38-171.21,233.07-14.5,19.74-29.62,45.27-18.44,67.06,4.68,9.13,13.29,15.6,19.01,24.11,11.67,17.37,9.72,40.04,10.63,60.94.91,20.9,7.9,45.11,27.57,52.25,16.07,5.83,33.87-2.54,47.14-13.31,13.27-10.78,24.7-24.33,40.19-31.54,17.42-8.11,37.53-7.08,56.4-10.74,32.46-6.3,60.85-26.63,82.75-51.39,21.91-24.76,38.11-53.94,54.14-82.86,8.11-14.63,16.35-29.64,19-46.16,2.65-16.52-1.37-35.13-14.29-45.76-14.33-11.79-37.31-12.45-47.09-28.23-16.8-27.11,22.91-67.88,1.42-91.45-10.95-12.01-31.82-10.24-42.63-22.37-5.15-5.78-7.06-13.77-11.48-20.13-6.57-9.44-18.91-14.48-30.21-12.33-11.3,2.15-17.19,10.13-22.9,18.84"/><path class="cls-1" d="m351.28,541.68c-57.07,77.69-114.14,155.38-171.21,233.07-14.5,19.74-29.62,45.27-18.44,67.06,4.68,9.13,13.29,15.6,19.01,24.11,11.67,17.37,9.72,40.04,10.63,60.94.91,20.9,7.9,45.11,27.57,52.25,16.07,5.83,33.87-2.54,47.14-13.31,13.27-10.78,24.7-24.33,40.19-31.54,17.42-8.11,37.53-7.08,56.4-10.74,32.46-6.3,60.85-26.63,82.75-51.39,21.91-24.76,38.11-53.94,54.14-82.86,8.11-14.63,16.35-29.64,19-46.16,2.65-16.52-1.37-35.13-14.29-45.76-14.33-11.79-37.31-12.45-47.09-28.23-16.8-27.11,22.91-67.88,1.42-91.45-10.95-12.01-31.82-10.24-42.63-22.37-5.15-5.78-7.06-13.77-11.48-20.13-6.57-9.44-18.91-14.48-30.21-12.33-11.3,2.15-17.19,10.13-22.9,18.84"/><path class="cls-1" d="m727.49,90.34c-57.07,77.69-114.14,155.38-171.21,233.07-14.5,19.74-29.62,45.27-18.44,67.06,4.68,9.13,13.29,15.6,19.01,24.11,11.67,17.37,9.72,40.04,10.63,60.94.91,20.9,7.9,45.11,27.57,52.25,16.07,5.83,33.87-2.54,47.14-13.31,13.27-10.78,24.7-24.33,40.19-31.54,17.42-8.11,37.53-7.08,56.4-10.74,32.46-6.3,60.85-26.63,82.75-51.39,21.91-24.76,38.11-53.94,54.14-82.86,8.11-14.63,16.35-29.64,19-46.16,2.65-16.52-1.37-35.13-14.29-45.76-14.33-11.79-37.31-12.45-47.09-28.23-16.8-27.11,22.91-67.88,1.42-91.45-10.95-12.01-31.82-10.24-42.63-22.37-5.15-5.78-7.06-13.77-11.48-20.13-6.57-9.44-18.91-14.48-30.21-12.33-11.3,2.15-17.19,10.13-22.9,18.84"/><path class="cls-1" d="m919.41,630.11c-57.07,77.69-114.14,155.38-171.21,233.07-14.5,19.74-29.62,45.27-18.44,67.06,4.68,9.13,13.29,15.6,19.01,24.11,11.67,17.37,9.72,40.04,10.63,60.94.91,20.9,7.9,45.11,27.57,52.25,16.07,5.83,33.87-2.54,47.14-13.31,13.27-10.78,24.7-24.33,40.19-31.54,17.42-8.11,37.53-7.08,56.4-10.74,32.46-6.3,60.85-26.63,82.75-51.39,21.91-24.76,38.11-53.94,54.14-82.86,8.11-14.63,16.35-29.64,19-46.16,2.65-16.52-1.37-35.13-14.29-45.76-14.33-11.79-37.31-12.45-47.09-28.23-16.8-27.11,22.91-67.88,1.42-91.45-10.95-12.01-31.82-10.24-42.63-22.37-5.15-5.78-7.06-13.77-11.48-20.13-6.57-9.44-18.91-14.48-30.21-12.33-11.3,2.15-17.19,10.13-22.9,18.84"/><path class="cls-1" d="m1256.02,32.76c-57.07,77.69-114.14,155.38-171.21,233.07-14.5,19.74-29.62,45.27-18.44,67.06,4.68,9.13,13.29,15.6,19.01,24.11,11.67,17.37,9.72,40.04,10.63,60.94.91,20.9,7.9,45.11,27.57,52.25,16.07,5.83,33.87-2.54,47.14-13.31,13.27-10.78,24.7-24.33,40.19-31.54,17.42-8.11,37.53-7.08,56.4-10.74,32.46-6.3,60.85-26.63,82.75-51.39,21.91-24.76,38.11-53.94,54.14-82.86,8.11-14.63,16.35-29.64,19-46.16,2.65-16.52-1.37-35.13-14.29-45.76-14.33-11.79-37.31-12.45-47.09-28.23-16.8-27.11,22.91-67.88,1.42-91.45-10.95-12.01-31.82-10.24-42.63-22.37-5.15-5.78-7.06-13.77-11.48-20.13-6.57-9.44-18.91-14.48-30.21-12.33-11.3,2.15-17.19,10.13-22.9,18.84"/><path class="cls-1" d="m1451.19,526.09c-57.07,77.69-114.14,155.38-171.21,233.07-14.5,19.74-29.62,45.27-18.44,67.06,4.68,9.13,13.29,15.6,19.01,24.11,11.67,17.37,9.72,40.04,10.63,60.94.91,20.9,7.9,45.11,27.57,52.25,16.07,5.83,33.87-2.54,47.14-13.31,13.27-10.78,24.7-24.33,40.19-31.54,17.42-8.11,37.53-7.08,56.4-10.74,32.46-6.3,60.85-26.63,82.75-51.39,21.91-24.76,38.11-53.94,54.14-82.86,8.11-14.63,16.35-29.64,19-46.16,2.65-16.52-1.37-35.13-14.29-45.76-14.33-11.79-37.31-12.45-47.09-28.23-16.8-27.11,22.91-67.88,1.42-91.45-10.95-12.01-31.82-10.24-42.63-22.37-5.15-5.78-7.06-13.77-11.48-20.13-6.57-9.44-18.91-14.48-30.21-12.33-11.3,2.15-17.19,10.13-22.9,18.84"/><path class="cls-1" d="m1790.41-24.04c-57.07,77.69-114.14,155.38-171.21,233.07-14.5,19.74-29.62,45.27-18.44,67.06,4.68,9.13,13.29,15.6,19.01,24.11,11.67,17.37,9.72,40.04,10.63,60.94.91,20.9,7.9,45.11,27.57,52.25,16.07,5.83,33.87-2.54,47.14-13.31,13.27-10.78,24.7-24.33,40.19-31.54,17.42-8.11,37.53-7.08,56.4-10.74,32.46-6.3,60.85-26.63,82.75-51.39,21.91-24.76,38.11-53.94,54.14-82.86,8.11-14.63,16.35-29.64,19-46.16,2.65-16.52-1.37-35.13-14.29-45.76-14.33-11.79-37.31-12.45-47.09-28.23-16.8-27.11,22.91-67.88,1.42-91.45-10.95-12.01-31.82-10.24-42.63-22.37-5.15-5.78-7.06-13.77-11.48-20.13-6.57-9.44-18.91-14.48-30.21-12.33-11.3,2.15-17.19,10.13-22.9,18.84"/><path class="cls-1" d="m1795.49,758.68c-57.07,77.69-114.14,155.38-171.21,233.07-14.5,19.74-29.62,45.27-18.44,67.06,4.68,9.13,13.29,15.6,19.01,24.11,11.67,17.37,9.72,40.04,10.63,60.94.91,20.9,7.9,45.11,27.57,52.25,16.07,5.83,33.87-2.54,47.14-13.31,13.27-10.78,24.7-24.33,40.19-31.54,17.42-8.11,37.53-7.08,56.4-10.74,32.46-6.3,60.85-26.63,82.75-51.39,21.91-24.76,38.11-53.94,54.14-82.86,8.11-14.63,16.35-29.64,19-46.16,2.65-16.52-1.37-35.13-14.29-45.76-14.33-11.79-37.31-12.45-47.09-28.23-16.8-27.11,22.91-67.88,1.42-91.45-10.95-12.01-31.82-10.24-42.63-22.37-5.15-5.78-7.06-13.77-11.48-20.13-6.57-9.44-18.91-14.48-30.21-12.33-11.3,2.15-17.19,10.13-22.9,18.84"/></svg>