<?xml version="1.0" encoding="UTF-8"?><svg id="fond" xmlns="http://www.w3.org/2000/svg" viewBox="0 0 1920 1080"><defs><style>.cls-1{fill:#ffa1a1;}</style></defs><path class="cls-1" d="m201.46-17.16c-5.67-10.99-16.44-21.3-29.08-21.1-8.32.13-15.75,6.07-17.11,14.28-2.37,14.25,16.23,15.61,15.53,27.84-.29,5.07-4.25,9.13-9.18,10.38-10.18,2.58-18.63-3.28-26.93-8.05-7.87-4.52-17.39-8.36-25.77-3.09-7.98,5.02-10.43,15.41-6.96,24.17,6.29,15.87,22.53,21.51,37.54,26.31-21.43,5.91-42.85,11.82-64.28,17.73-7.25,2-14.91,4.23-19.12,11.07-2.24,3.65-2.55,8.36-.19,11.94,4.01,6.09,12.45,5.08,18.88,2.61,10.39-3.99,20.7-10.71,32.07-5.78,5.69,2.47,8.93,8.94,6.51,14.65-2.27,5.35-7.57,6.15-12.41,6.44-12.01.72-24.2-.46-35.99,1.89-13.42,2.68-26.98,11.29-28.63,25.67-1.04,9.04,4.1,17.99,12.92,20.23,12.47,3.16,20.25-10.29,32.34-9.49,2.83.19,5.59,1.46,7.27,3.74,3.69,5.01.52,10.67-3.41,14.28-8.51,7.83-20.52,10.18-31.36,14.23-11.84,4.43-24.17,13.22-23.33,26.57.52,8.39,6.49,15.48,14.41,18.31,17.5,6.25,34.95-7.34,40.72-23.06,1.82-4.95,6.35-8.63,11.62-8.63,9.72.01,10.58,10.9,7.37,17.94-3.3,7.25-9.42,13.65-7.34,22.3,2.27,9.4,12.5,14.46,21.86,12.01,17.33-4.53,22.27-26.28,17.43-41.5-1.78-5.61-.77-11.91,3.37-16.08,8.95-9.02,20.75,2.61,22.17,13.34,1.29,9.76-1.3,20.33,3.12,29.13,7.3,14.53,34.15,16.87,37.22-8.37.33-2.69.07-5.46-.93-7.98-3.56-8.88-13.03-14.28-15.55-23.96-.95-3.66-.49-7.68,1.89-10.62,6.05-7.46,17.66-1.81,22.09,6.06,4.21,7.48,5.2,16.6,10.3,23.5,7.54,10.19,23.93,12.25,33.77,4.25,9.83-8.01,11.14-24.47,2.69-33.92-9.14-10.22-25.58-11.04-33.3-23.7-3.15-5.17-3.05-11.97,1.18-16.29,6.77-6.91,18.12-1.77,24.53,5.05,6.5,6.91,12.12,15.97,21.71,17.45,10.19,1.57,19.18-6.11,21.25-16.22,2.7-13.22-6.06-25.65-17.22-32.32-9.99-5.97-21.7-8.2-33.15-10.31-5.57-8.45,4.11-19.68,14.11-21.26,13.54-2.14,27.33,5.39,40.94-1.24,5.87-2.86,9.49-9.33,7.82-15.63-2.67-10.12-15.98-10.98-26.23-10.69-10.07.29-23.41-3.28-23.41-13.35,0-13.97,24.33-13.68,30.49-25.81,3.96-7.79-1.33-16.72-9.81-18.85-9.74-2.44-19.95,4.53-24.09,13.25-1.44,3.02-3.39,5.83-6.2,7.65-11.1,7.21-18.29-6.41-15.59-15.73,2.26-7.78,8.36-13.85,11.56-21.3.03-.07.06-.15.09-.22,4.17-10.09-7.42-19.54-16.77-13.89l-23.44,14.16"/><path class="cls-1" d="m204.35,336.56c-5.67-10.99-16.44-21.3-29.08-21.1-8.32.13-15.75,6.07-17.11,14.28-2.37,14.25,16.23,15.61,15.53,27.84-.29,5.07-4.25,9.13-9.18,10.38-10.18,2.58-18.63-3.28-26.93-8.05-7.87-4.52-17.39-8.36-25.77-3.09-7.98,5.02-10.43,15.41-6.96,24.17,6.29,15.87,22.53,21.51,37.54,26.31-21.43,5.91-42.85,11.82-64.28,17.73-7.25,2-14.91,4.23-19.12,11.07-2.24,3.65-2.55,8.36-.19,11.94,4.01,6.09,12.45,5.08,18.88,2.61,10.39-3.99,20.7-10.71,32.07-5.78,5.69,2.47,8.93,8.94,6.51,14.65-2.27,5.35-7.57,6.15-12.41,6.44-12.01.72-24.2-.46-35.99,1.89-13.42,2.68-26.98,11.29-28.63,25.67-1.04,9.04,4.1,17.99,12.92,20.23,12.47,3.16,20.25-10.29,32.34-9.49,2.83.19,5.59,1.46,7.27,3.74,3.69,5.01.52,10.67-3.41,14.28-8.51,7.83-20.52,10.18-31.36,14.23-11.84,4.43-24.17,13.22-23.33,26.57.52,8.39,6.49,15.48,14.41,18.31,17.5,6.25,34.95-7.34,40.72-23.06,1.82-4.95,6.35-8.63,11.62-8.63,9.72.01,10.58,10.9,7.37,17.94-3.3,7.25-9.42,13.65-7.34,22.3,2.27,9.4,12.5,14.46,21.86,12.01,17.33-4.53,22.27-26.28,17.43-41.5-1.78-5.61-.77-11.91,3.37-16.08,8.95-9.02,20.75,2.61,22.17,13.34,1.29,9.76-1.3,20.33,3.12,29.13,7.3,14.53,34.15,16.87,37.22-8.37.33-2.69.07-5.46-.93-7.98-3.56-8.88-13.03-14.28-15.55-23.96-.95-3.66-.49-7.68,1.89-10.62,6.05-7.46,17.66-1.81,22.09,6.06,4.21,7.48,5.2,16.6,10.3,23.5,7.54,10.19,23.93,12.25,33.77,4.25,9.83-8.01,11.14-24.47,2.69-33.92-9.14-10.22-25.58-11.04-33.3-23.7-3.15-5.17-3.05-11.97,1.18-16.29,6.77-6.91,18.12-1.77,24.53,5.05,6.5,6.91,12.12,15.97,21.71,17.45,10.19,1.57,19.18-6.11,21.25-16.22,2.7-13.22-6.06-25.65-17.22-32.32-9.99-5.97-21.7-8.2-33.15-10.31-5.57-8.45,4.11-19.68,14.11-21.26,13.54-2.14,27.33,5.39,40.94-1.24,5.87-2.86,9.49-9.33,7.82-15.63-2.67-10.12-15.98-10.98-26.23-10.69-10.07.29-23.41-3.28-23.41-13.35,0-13.97,24.33-13.68,30.49-25.81,3.96-7.79-1.33-16.72-9.81-18.85-9.74-2.44-19.95,4.53-24.09,13.25-1.44,3.02-3.39,5.83-6.2,7.65-11.1,7.21-18.29-6.41-15.59-15.73,2.26-7.78,8.36-13.85,11.56-21.3.03-.07.06-.15.09-.22,4.17-10.09-7.42-19.54-16.77-13.89l-23.44,14.16"/><path class="cls-1" d="m602.93,34.35c-5.67-10.99-16.44-21.3-29.08-21.1-8.32.13-15.75,6.07-17.11,14.28-2.37,14.25,16.23,15.61,15.53,27.84-.29,5.07-4.25,9.13-9.18,10.38-10.18,2.58-18.63-3.28-26.93-8.05-7.87-4.52-17.39-8.36-25.77-3.09-7.98,5.02-10.43,15.41-6.96,24.17,6.29,15.87,22.53,21.51,37.54,26.31-21.43,5.91-42.85,11.82-64.28,17.73-7.25,2-14.91,4.23-19.12,11.07-2.24,3.65-2.55,8.36-.19,11.94,4.01,6.09,12.45,5.08,18.88,2.61,10.39-3.99,20.7-10.71,32.07-5.78,5.69,2.47,8.93,8.94,6.51,14.65-2.27,5.35-7.57,6.15-12.41,6.44-12.01.72-24.2-.46-35.99,1.89-13.42,2.68-26.98,11.29-28.63,25.67-1.04,9.04,4.1,17.99,12.92,20.23,12.47,3.16,20.25-10.29,32.34-9.49,2.83.19,5.59,1.46,7.27,3.74,3.69,5.01.52,10.67-3.41,14.28-8.51,7.83-20.52,10.18-31.36,14.23-11.84,4.43-24.17,13.22-23.33,26.57.52,8.39,6.49,15.48,14.41,18.31,17.5,6.25,34.95-7.34,40.72-23.06,1.82-4.95,6.35-8.63,11.62-8.63,9.72.01,10.58,10.9,7.37,17.94-3.3,7.25-9.42,13.65-7.34,22.3,2.27,9.4,12.5,14.46,21.86,12.01,17.33-4.53,22.27-26.28,17.43-41.5-1.78-5.61-.77-11.91,3.37-16.08,8.95-9.02,20.75,2.61,22.17,13.34,1.29,9.76-1.3,20.33,3.12,29.13,7.3,14.53,34.15,16.87,37.22-8.37.33-2.69.07-5.46-.93-7.98-3.56-8.88-13.03-14.28-15.55-23.96-.95-3.66-.49-7.68,1.89-10.62,6.05-7.46,17.66-1.81,22.09,6.06,4.21,7.48,5.2,16.6,10.3,23.5,7.54,10.19,23.93,12.25,33.77,4.25,9.83-8.01,11.14-24.47,2.69-33.92-9.14-10.22-25.58-11.04-33.3-23.7-3.15-5.17-3.05-11.97,1.18-16.29,6.77-6.91,18.12-1.77,24.53,5.05,6.5,6.91,12.12,15.97,21.71,17.45,10.19,1.57,19.18-6.11,21.25-16.22,2.7-13.22-6.06-25.65-17.22-32.32-9.99-5.97-21.7-8.2-33.15-10.31-5.57-8.45,4.11-19.68,14.11-21.26,13.54-2.14,27.33,5.39,40.94-1.24,5.87-2.86,9.49-9.33,7.82-15.63-2.67-10.12-15.98-10.98-26.23-10.69-10.07.29-23.41-3.28-23.41-13.35,0-13.97,24.33-13.68,30.49-25.81,3.96-7.79-1.33-16.72-9.81-18.85-9.74-2.44-19.95,4.53-24.09,13.25-1.44,3.02-3.39,5.83-6.2,7.65-11.1,7.21-18.29-6.41-15.59-15.73,2.26-7.78,8.36-13.85,11.56-21.3.03-.07.06-.15.09-.22,4.17-10.09-7.42-19.54-16.77-13.89l-23.44,14.16"/><path class="cls-1" d="m588.23,406.87c-5.67-10.99-16.44-21.3-29.08-21.1-8.32.13-15.75,6.07-17.11,14.28-2.37,14.25,16.23,15.61,15.53,27.84-.29,5.07-4.25,9.13-9.18,10.38-10.18,2.58-18.63-3.28-26.93-8.05-7.87-4.52-17.39-8.36-25.77-3.09-7.98,5.02-10.43,15.41-6.96,24.17,6.29,15.87,22.53,21.51,37.54,26.31-21.43,5.91-42.85,11.82-64.28,17.73-7.25,2-14.91,4.23-19.12,11.07-2.24,3.65-2.55,8.36-.19,11.94,4.01,6.09,12.45,5.08,18.88,2.61,10.39-3.99,20.7-10.71,32.07-5.78,5.69,2.47,8.93,8.94,6.51,14.65-2.27,5.35-7.57,6.15-12.41,6.44-12.01.72-24.2-.46-35.99,1.89-13.42,2.68-26.98,11.29-28.63,25.67-1.04,9.04,4.1,17.99,12.92,20.23,12.47,3.16,20.25-10.29,32.34-9.49,2.83.19,5.59,1.46,7.27,3.74,3.69,5.01.52,10.67-3.41,14.28-8.51,7.83-20.52,10.18-31.36,14.23-11.84,4.43-24.17,13.22-23.33,26.57.52,8.39,6.49,15.48,14.41,18.31,17.5,6.25,34.95-7.34,40.72-23.06,1.82-4.95,6.35-8.63,11.62-8.63,9.72.01,10.58,10.9,7.37,17.94-3.3,7.25-9.42,13.65-7.34,22.3,2.27,9.4,12.5,14.46,21.86,12.01,17.33-4.53,22.27-26.28,17.43-41.5-1.78-5.61-.77-11.91,3.37-16.08,8.95-9.02,20.75,2.61,22.17,13.34,1.29,9.76-1.3,20.33,3.12,29.13,7.3,14.53,34.15,16.87,37.22-8.37.33-2.69.07-5.46-.93-7.98-3.56-8.88-13.03-14.28-15.55-23.96-.95-3.66-.49-7.68,1.89-10.62,6.05-7.46,17.66-1.81,22.09,6.06,4.21,7.48,5.2,16.6,10.3,23.5,7.54,10.19,23.93,12.25,33.77,4.25,9.83-8.01,11.14-24.47,2.69-33.92-9.14-10.22-25.58-11.04-33.3-23.7-3.15-5.17-3.05-11.97,1.18-16.29,6.77-6.91,18.12-1.77,24.53,5.05,6.5,6.91,12.12,15.97,21.71,17.45,10.19,1.57,19.18-6.11,21.25-16.22,2.7-13.22-6.06-25.65-17.22-32.32-9.99-5.97-21.7-8.2-33.15-10.31-5.57-8.45,4.11-19.68,14.11-21.26,13.54-2.14,27.33,5.39,40.94-1.24,5.87-2.86,9.49-9.33,7.82-15.63-2.67-10.12-15.98-10.98-26.23-10.69-10.07.29-23.41-3.28-23.41-13.35,0-13.97,24.33-13.68,30.49-25.81,3.96-7.79-1.33-16.72-9.81-18.85-9.74-2.44-19.95,4.53-24.09,13.25-1.44,3.02-3.39,5.83-6.2,7.65-11.1,7.21-18.29-6.41-15.59-15.73,2.26-7.78,8.36-13.85,11.56-21.3.03-.07.06-.15.09-.22,4.17-10.09-7.42-19.54-16.77-13.89l-23.44,14.16"/><path class="cls-1" d="m269.09,727.45c-5.67-10.99-16.44-21.3-29.08-21.1-8.32.13-15.75,6.07-17.11,14.28-2.37,14.25,16.23,15.61,15.53,27.84-.29,5.07-4.25,9.13-9.18,10.38-10.18,2.58-18.63-3.28-26.93-8.05-7.87-4.52-17.39-8.36-25.77-3.09-7.98,5.02-10.43,15.41-6.96,24.17,6.29,15.87,22.53,21.51,37.54,26.31-21.43,5.91-42.85,11.82-64.28,17.73-7.25,2-14.91,4.23-19.12,11.07-2.24,3.65-2.55,8.36-.19,11.94,4.01,6.09,12.45,5.08,18.88,2.61,10.39-3.99,20.7-10.71,32.07-5.78,5.69,2.47,8.93,8.94,6.51,14.65-2.27,5.35-7.57,6.15-12.41,6.44-12.01.72-24.2-.46-35.99,1.89-13.42,2.68-26.98,11.29-28.63,25.67-1.04,9.04,4.1,17.99,12.92,20.23,12.47,3.16,20.25-10.29,32.34-9.49,2.83.19,5.59,1.46,7.27,3.74,3.69,5.01.52,10.67-3.41,14.28-8.51,7.83-20.52,10.18-31.36,14.23-11.84,4.43-24.17,13.22-23.33,26.57.52,8.39,6.49,15.48,14.41,18.31,17.5,6.25,34.95-7.34,40.72-23.06,1.82-4.95,6.35-8.63,11.62-8.63,9.72.01,10.58,10.9,7.37,17.94-3.3,7.25-9.42,13.65-7.34,22.3,2.27,9.4,12.5,14.46,21.86,12.01,17.33-4.53,22.27-26.28,17.43-41.5-1.78-5.61-.77-11.91,3.37-16.08,8.95-9.02,20.75,2.61,22.17,13.34,1.29,9.76-1.3,20.33,3.12,29.13,7.3,14.53,34.15,16.87,37.22-8.37.33-2.69.07-5.46-.93-7.98-3.56-8.88-13.03-14.28-15.55-23.96-.95-3.66-.49-7.68,1.89-10.62,6.05-7.46,17.66-1.81,22.09,6.06,4.21,7.48,5.2,16.6,10.3,23.5,7.54,10.19,23.93,12.25,33.77,4.25,9.83-8.01,11.14-24.47,2.69-33.92-9.14-10.22-25.58-11.04-33.3-23.7-3.15-5.17-3.05-11.97,1.18-16.29,6.77-6.91,18.12-1.77,24.53,5.05,6.5,6.91,12.12,15.97,21.71,17.45,10.19,1.57,19.18-6.11,21.25-16.22,2.7-13.22-6.06-25.65-17.22-32.32-9.99-5.97-21.7-8.2-33.15-10.31-5.57-8.45,4.11-19.68,14.11-21.26,13.54-2.14,27.33,5.39,40.94-1.24,5.87-2.86,9.49-9.33,7.82-15.63-2.67-10.12-15.98-10.98-26.23-10.69-10.07.29-23.41-3.28-23.41-13.35,0-13.97,24.33-13.68,30.49-25.81,3.96-7.79-1.33-16.72-9.81-18.85-9.74-2.44-19.95,4.53-24.09,13.25-1.44,3.02-3.39,5.83-6.2,7.65-11.1,7.21-18.29-6.41-15.59-15.73,2.26-7.78,8.36-13.85,11.56-21.3.03-.07.06-.15.09-.22,4.17-10.09-7.42-19.54-16.77-13.89l-23.44,14.16"/><path class="cls-1" d="m702.02,765.69c-5.67-10.99-16.44-21.3-29.08-21.1-8.32.13-15.75,6.07-17.11,14.28-2.37,14.25,16.23,15.61,15.53,27.84-.29,5.07-4.25,9.13-9.18,10.38-10.18,2.58-18.63-3.28-26.93-8.05-7.87-4.52-17.39-8.36-25.77-3.09-7.98,5.02-10.43,15.41-6.96,24.17,6.29,15.87,22.53,21.51,37.54,26.31-21.43,5.91-42.85,11.82-64.28,17.73-7.25,2-14.91,4.23-19.12,11.07-2.24,3.65-2.55,8.36-.19,11.94,4.01,6.09,12.45,5.08,18.88,2.61,10.39-3.99,20.7-10.71,32.07-5.78,5.69,2.47,8.93,8.94,6.51,14.65-2.27,5.35-7.57,6.15-12.41,6.44-12.01.72-24.2-.46-35.99,1.89-13.42,2.68-26.98,11.29-28.63,25.67-1.04,9.04,4.1,17.99,12.92,20.23,12.47,3.16,20.25-10.29,32.34-9.49,2.83.19,5.59,1.46,7.27,3.74,3.69,5.01.52,10.67-3.41,14.28-8.51,7.83-20.52,10.18-31.36,14.23-11.84,4.43-24.17,13.22-23.33,26.57.52,8.39,6.49,15.48,14.41,18.31,17.5,6.25,34.95-7.34,40.72-23.06,1.82-4.95,6.35-8.63,11.62-8.63,9.72.01,10.58,10.9,7.37,17.94-3.3,7.25-9.42,13.65-7.34,22.3,2.27,9.4,12.5,14.46,21.86,12.01,17.33-4.53,22.27-26.28,17.43-41.5-1.78-5.61-.77-11.91,3.37-16.08,8.95-9.02,20.75,2.61,22.17,13.34,1.29,9.76-1.3,20.33,3.12,29.13,7.3,14.53,34.15,16.87,37.22-8.37.33-2.69.07-5.46-.93-7.98-3.56-8.88-13.03-14.28-15.55-23.96-.95-3.66-.49-7.68,1.89-10.62,6.05-7.46,17.66-1.81,22.09,6.06,4.21,7.48,5.2,16.6,10.3,23.5,7.54,10.19,23.93,12.25,33.77,4.25,9.83-8.01,11.14-24.47,2.69-33.92-9.14-10.22-25.58-11.04-33.3-23.7-3.15-5.17-3.05-11.97,1.18-16.29,6.77-6.91,18.12-1.77,24.53,5.05,6.5,6.91,12.12,15.97,21.71,17.45,10.19,1.57,19.18-6.11,21.25-16.22,2.7-13.22-6.06-25.65-17.22-32.32-9.99-5.97-21.7-8.2-33.15-10.31-5.57-8.45,4.11-19.68,14.11-21.26,13.54-2.14,27.33,5.39,40.94-1.24,5.87-2.86,9.49-9.33,7.82-15.63-2.67-10.12-15.98-10.98-26.23-10.69-10.07.29-23.41-3.28-23.41-13.35,0-13.97,24.33-13.68,30.49-25.81,3.96-7.79-1.33-16.72-9.81-18.85-9.74-2.44-19.95,4.53-24.09,13.25-1.44,3.02-3.39,5.83-6.2,7.65-11.1,7.21-18.29-6.41-15.59-15.73,2.26-7.78,8.36-13.85,11.56-21.3.03-.07.06-.15.09-.22,4.17-10.09-7.42-19.54-16.77-13.89l-23.44,14.16"/><path class="cls-1" d="m993.46,336.56c-5.67-10.99-16.44-21.3-29.08-21.1-8.32.13-15.75,6.07-17.11,14.28-2.37,14.25,16.23,15.61,15.53,27.84-.29,5.07-4.25,9.13-9.18,10.38-10.18,2.58-18.63-3.28-26.93-8.05-7.87-4.52-17.39-8.36-25.77-3.09-7.98,5.02-10.43,15.41-6.96,24.17,6.29,15.87,22.53,21.51,37.54,26.31-21.43,5.91-42.85,11.82-64.28,17.73-7.25,2-14.91,4.23-19.12,11.07-2.24,3.65-2.55,8.36-.19,11.94,4.01,6.09,12.45,5.08,18.88,2.61,10.39-3.99,20.7-10.71,32.07-5.78,5.69,2.47,8.93,8.94,6.51,14.65-2.27,5.35-7.57,6.15-12.41,6.44-12.01.72-24.2-.46-35.99,1.89-13.42,2.68-26.98,11.29-28.63,25.67-1.04,9.04,4.1,17.99,12.92,20.23,12.47,3.16,20.25-10.29,32.34-9.49,2.83.19,5.59,1.46,7.27,3.74,3.69,5.01.52,10.67-3.41,14.28-8.51,7.83-20.52,10.18-31.36,14.23-11.84,4.43-24.17,13.22-23.33,26.57.52,8.39,6.49,15.48,14.41,18.31,17.5,6.25,34.95-7.34,40.72-23.06,1.82-4.95,6.35-8.63,11.62-8.63,9.72.01,10.58,10.9,7.37,17.94-3.3,7.25-9.42,13.65-7.34,22.3,2.27,9.4,12.5,14.46,21.86,12.01,17.33-4.53,22.27-26.28,17.43-41.5-1.78-5.61-.77-11.91,3.37-16.08,8.95-9.02,20.75,2.61,22.17,13.34,1.29,9.76-1.3,20.33,3.12,29.13,7.3,14.53,34.15,16.87,37.22-8.37.33-2.69.07-5.46-.93-7.98-3.56-8.88-13.03-14.28-15.55-23.96-.95-3.66-.49-7.68,1.89-10.62,6.05-7.46,17.66-1.81,22.09,6.06,4.21,7.48,5.2,16.6,10.3,23.5,7.54,10.19,23.93,12.25,33.77,4.25,9.83-8.01,11.14-24.47,2.69-33.92-9.14-10.22-25.58-11.04-33.3-23.7-3.15-5.17-3.05-11.97,1.18-16.29,6.77-6.91,18.12-1.77,24.53,5.05,6.5,6.91,12.12,15.97,21.71,17.45,10.19,1.57,19.18-6.11,21.25-16.22,2.7-13.22-6.06-25.65-17.22-32.32-9.99-5.97-21.7-8.2-33.15-10.31-5.57-8.45,4.11-19.68,14.11-21.26,13.54-2.14,27.33,5.39,40.94-1.24,5.87-2.86,9.49-9.33,7.82-15.63-2.67-10.12-15.98-10.98-26.23-10.69-10.07.29-23.41-3.28-23.41-13.35,0-13.97,24.33-13.68,30.49-25.81,3.96-7.79-1.33-16.72-9.81-18.85-9.74-2.44-19.95,4.53-24.09,13.25-1.44,3.02-3.39,5.83-6.2,7.65-11.1,7.21-18.29-6.41-15.59-15.73,2.26-7.78,8.36-13.85,11.56-21.3.03-.07.06-.15.09-.22,4.17-10.09-7.42-19.54-16.77-13.89l-23.44,14.16"/><path class="cls-1" d="m1232.25-28.14c-5.67-10.99-16.44-21.3-29.08-21.1-8.32.13-15.75,6.07-17.11,14.28-2.37,14.25,16.23,15.61,15.53,27.84-.29,5.07-4.25,9.13-9.18,10.38-10.18,2.58-18.63-3.28-26.93-8.05-7.87-4.52-17.39-8.36-25.77-3.09-7.98,5.02-10.43,15.41-6.96,24.17,6.29,15.87,22.53,21.51,37.54,26.31-21.43,5.91-42.85,11.82-64.28,17.73-7.25,2-14.91,4.23-19.12,11.07-2.24,3.65-2.55,8.36-.19,11.94,4.01,6.09,12.45,5.08,18.88,2.61,10.39-3.99,20.7-10.71,32.07-5.78,5.69,2.47,8.93,8.94,6.51,14.65-2.27,5.35-7.57,6.15-12.41,6.44-12.01.72-24.2-.46-35.99,1.89-13.42,2.68-26.98,11.29-28.63,25.67-1.04,9.04,4.1,17.99,12.92,20.23,12.47,3.16,20.25-10.29,32.34-9.49,2.83.19,5.59,1.46,7.27,3.74,3.69,5.01.52,10.67-3.41,14.28-8.51,7.83-20.52,10.18-31.36,14.23-11.84,4.43-24.17,13.22-23.33,26.57.52,8.39,6.49,15.48,14.41,18.31,17.5,6.25,34.95-7.34,40.72-23.06,1.82-4.95,6.35-8.63,11.62-8.63,9.72.01,10.58,10.9,7.37,17.94-3.3,7.25-9.42,13.65-7.34,22.3,2.27,9.4,12.5,14.46,21.86,12.01,17.33-4.53,22.27-26.28,17.43-41.5-1.78-5.61-.77-11.91,3.37-16.08,8.95-9.02,20.75,2.61,22.17,13.34,1.29,9.76-1.3,20.33,3.12,29.13,7.3,14.53,34.15,16.87,37.22-8.37.33-2.69.07-5.46-.93-7.98-3.56-8.88-13.03-14.28-15.55-23.96-.95-3.66-.49-7.68,1.89-10.62,6.05-7.46,17.66-1.81,22.09,6.06,4.21,7.48,5.2,16.6,10.3,23.5,7.54,10.19,23.93,12.25,33.77,4.25,9.83-8.01,11.14-24.47,2.69-33.92-9.14-10.22-25.58-11.04-33.3-23.7-3.15-5.17-3.05-11.97,1.18-16.29,6.77-6.91,18.12-1.77,24.53,5.05,6.5,6.91,12.12,15.97,21.71,17.45,10.19,1.57,19.18-6.11,21.25-16.22,2.7-13.22-6.06-25.65-17.22-32.32-9.99-5.97-21.7-8.2-33.15-10.31-5.57-8.45,4.11-19.68,14.11-21.26,13.54-2.14,27.33,5.39,40.94-1.24,5.87-2.86,9.49-9.33,7.82-15.63-2.67-10.12-15.98-10.98-26.23-10.69-10.07.29-23.41-3.28-23.41-13.35,0-13.97,24.33-13.68,30.49-25.81,3.96-7.79-1.33-16.72-9.81-18.85-9.74-2.44-19.95,4.53-24.09,13.25-1.44,3.02-3.39,5.83-6.2,7.65-11.1,7.21-18.29-6.41-15.59-15.73,2.26-7.78,8.36-13.85,11.56-21.3.03-.07.06-.15.09-.22,4.17-10.09-7.42-19.54-16.77-13.89l-23.44,14.16"/><path class="cls-1" d="m1441.11,263.15c-5.67-10.99-16.44-21.3-29.08-21.1-8.32.13-15.75,6.07-17.11,14.28-2.37,14.25,16.23,15.61,15.53,27.84-.29,5.07-4.25,9.13-9.18,10.38-10.18,2.58-18.63-3.28-26.93-8.05-7.87-4.52-17.39-8.36-25.77-3.09-7.98,5.02-10.43,15.41-6.96,24.17,6.29,15.87,22.53,21.51,37.54,26.31-21.43,5.91-42.85,11.82-64.28,17.73-7.25,2-14.91,4.23-19.12,11.07-2.24,3.65-2.55,8.36-.19,11.94,4.01,6.09,12.45,5.08,18.88,2.61,10.39-3.99,20.7-10.71,32.07-5.78,5.69,2.47,8.93,8.94,6.51,14.65-2.27,5.35-7.57,6.15-12.41,6.44-12.01.72-24.2-.46-35.99,1.89-13.42,2.68-26.98,11.29-28.63,25.67-1.04,9.04,4.1,17.99,12.92,20.23,12.47,3.16,20.25-10.29,32.34-9.49,2.83.19,5.59,1.46,7.27,3.74,3.69,5.01.52,10.67-3.41,14.28-8.51,7.83-20.52,10.18-31.36,14.23-11.84,4.43-24.17,13.22-23.33,26.57.52,8.39,6.49,15.48,14.41,18.31,17.5,6.25,34.95-7.34,40.72-23.06,1.82-4.95,6.35-8.63,11.62-8.63,9.72.01,10.58,10.9,7.37,17.94-3.3,7.25-9.42,13.65-7.34,22.3,2.27,9.4,12.5,14.46,21.86,12.01,17.33-4.53,22.27-26.28,17.43-41.5-1.78-5.61-.77-11.91,3.37-16.08,8.95-9.02,20.75,2.61,22.17,13.34,1.29,9.76-1.3,20.33,3.12,29.13,7.3,14.53,34.15,16.87,37.22-8.37.33-2.69.07-5.46-.93-7.98-3.56-8.88-13.03-14.28-15.55-23.96-.95-3.66-.49-7.68,1.89-10.62,6.05-7.46,17.66-1.81,22.09,6.06,4.21,7.48,5.2,16.6,10.3,23.5,7.54,10.19,23.93,12.25,33.77,4.25,9.83-8.01,11.14-24.47,2.69-33.92-9.14-10.22-25.58-11.04-33.3-23.7-3.15-5.17-3.05-11.97,1.18-16.29,6.77-6.91,18.12-1.77,24.53,5.05,6.5,6.91,12.12,15.97,21.71,17.45,10.19,1.57,19.18-6.11,21.25-16.22,2.7-13.22-6.06-25.65-17.22-32.32-9.99-5.97-21.7-8.2-33.15-10.31-5.57-8.45,4.11-19.68,14.11-21.26,13.54-2.14,27.33,5.39,40.94-1.24,5.87-2.86,9.49-9.33,7.82-15.63-2.67-10.12-15.98-10.98-26.23-10.69-10.07.29-23.41-3.28-23.41-13.35,0-13.97,24.33-13.68,30.49-25.81,3.96-7.79-1.33-16.72-9.81-18.85-9.74-2.44-19.95,4.53-24.09,13.25-1.44,3.02-3.39,5.83-6.2,7.65-11.1,7.21-18.29-6.41-15.59-15.73,2.26-7.78,8.36-13.85,11.56-21.3.03-.07.06-.15.09-.22,4.17-10.09-7.42-19.54-16.77-13.89l-23.44,14.16"/><path class="cls-1" d="m1157.69,658.17c-5.67-10.99-16.44-21.3-29.08-21.1-8.32.13-15.75,6.07-17.11,14.28-2.37,14.25,16.23,15.61,15.53,27.84-.29,5.07-4.25,9.13-9.18,10.38-10.18,2.58-18.63-3.28-26.93-8.05-7.87-4.52-17.39-8.36-25.77-3.09-7.98,5.02-10.43,15.41-6.96,24.17,6.29,15.87,22.53,21.51,37.54,26.31-21.43,5.91-42.85,11.82-64.28,17.73-7.25,2-14.91,4.23-19.12,11.07-2.24,3.65-2.55,8.36-.19,11.94,4.01,6.09,12.45,5.08,18.88,2.61,10.39-3.99,20.7-10.71,32.07-5.78,5.69,2.47,8.93,8.94,6.51,14.65-2.27,5.35-7.57,6.15-12.41,6.44-12.01.72-24.2-.46-35.99,1.89-13.42,2.68-26.98,11.29-28.63,25.67-1.04,9.04,4.1,17.99,12.92,20.23,12.47,3.16,20.25-10.29,32.34-9.49,2.83.19,5.59,1.46,7.27,3.74,3.69,5.01.52,10.67-3.41,14.28-8.51,7.83-20.52,10.18-31.36,14.23-11.84,4.43-24.17,13.22-23.33,26.57.52,8.39,6.49,15.48,14.41,18.31,17.5,6.25,34.95-7.34,40.72-23.06,1.82-4.95,6.35-8.63,11.62-8.63,9.72.01,10.58,10.9,7.37,17.94-3.3,7.25-9.42,13.65-7.34,22.3,2.27,9.4,12.5,14.46,21.86,12.01,17.33-4.53,22.27-26.28,17.43-41.5-1.78-5.61-.77-11.91,3.37-16.08,8.95-9.02,20.75,2.61,22.17,13.34,1.29,9.76-1.3,20.33,3.12,29.13,7.3,14.53,34.15,16.87,37.22-8.37.33-2.69.07-5.46-.93-7.98-3.56-8.88-13.03-14.28-15.55-23.96-.95-3.66-.49-7.68,1.89-10.62,6.05-7.46,17.66-1.81,22.09,6.06,4.21,7.48,5.2,16.6,10.3,23.5,7.54,10.19,23.93,12.25,33.77,4.25,9.83-8.01,11.14-24.47,2.69-33.92-9.14-10.22-25.58-11.04-33.3-23.7-3.15-5.17-3.05-11.97,1.18-16.29,6.77-6.91,18.12-1.77,24.53,5.05,6.5,6.91,12.12,15.97,21.71,17.45,10.19,1.57,19.18-6.11,21.25-16.22,2.7-13.22-6.06-25.65-17.22-32.32-9.99-5.97-21.7-8.2-33.15-10.31-5.57-8.45,4.11-19.68,14.11-21.26,13.54-2.14,27.33,5.39,40.94-1.24,5.87-2.86,9.49-9.33,7.82-15.63-2.67-10.12-15.98-10.98-26.23-10.69-10.07.29-23.41-3.28-23.41-13.35,0-13.97,24.33-13.68,30.49-25.81,3.96-7.79-1.33-16.72-9.81-18.85-9.74-2.44-19.95,4.53-24.09,13.25-1.44,3.02-3.39,5.83-6.2,7.65-11.1,7.21-18.29-6.41-15.59-15.73,2.26-7.78,8.36-13.85,11.56-21.3.03-.07.06-.15.09-.22,4.17-10.09-7.42-19.54-16.77-13.89l-23.44,14.16"/><path class="cls-1" d="m1466.83,846.68c-5.67-10.99-16.44-21.3-29.08-21.1-8.32.13-15.75,6.07-17.11,14.28-2.37,14.25,16.23,15.61,15.53,27.84-.29,5.07-4.25,9.13-9.18,10.38-10.18,2.58-18.63-3.28-26.93-8.05-7.87-4.52-17.39-8.36-25.77-3.09-7.98,5.02-10.43,15.41-6.96,24.17,6.29,15.87,22.53,21.51,37.54,26.31-21.43,5.91-42.85,11.82-64.28,17.73-7.25,2-14.91,4.23-19.12,11.07-2.24,3.65-2.55,8.36-.19,11.94,4.01,6.09,12.45,5.08,18.88,2.61,10.39-3.99,20.7-10.71,32.07-5.78,5.69,2.47,8.93,8.94,6.51,14.65-2.27,5.35-7.57,6.15-12.41,6.44-12.01.72-24.2-.46-35.99,1.89-13.42,2.68-26.98,11.29-28.63,25.67-1.04,9.04,4.1,17.99,12.92,20.23,12.47,3.16,20.25-10.29,32.34-9.49,2.83.19,5.59,1.46,7.27,3.74,3.69,5.01.52,10.67-3.41,14.28-8.51,7.83-20.52,10.18-31.36,14.23-11.84,4.43-24.17,13.22-23.33,26.57.52,8.39,6.49,15.48,14.41,18.31,17.5,6.25,34.95-7.34,40.72-23.06,1.82-4.95,6.35-8.63,11.62-8.63,9.72.01,10.58,10.9,7.37,17.94-3.3,7.25-9.42,13.65-7.34,22.3,2.27,9.4,12.5,14.46,21.86,12.01,17.33-4.53,22.27-26.28,17.43-41.5-1.78-5.61-.77-11.91,3.37-16.08,8.95-9.02,20.75,2.61,22.17,13.34,1.29,9.76-1.3,20.33,3.12,29.13,7.3,14.53,34.15,16.87,37.22-8.37.33-2.69.07-5.46-.93-7.98-3.56-8.88-13.03-14.28-15.55-23.96-.95-3.66-.49-7.68,1.89-10.62,6.05-7.46,17.66-1.81,22.09,6.06,4.21,7.48,5.2,16.6,10.3,23.5,7.54,10.19,23.93,12.25,33.77,4.25,9.83-8.01,11.14-24.47,2.69-33.92-9.14-10.22-25.58-11.04-33.3-23.7-3.15-5.17-3.05-11.97,1.18-16.29,6.77-6.91,18.12-1.77,24.53,5.05,6.5,6.91,12.12,15.97,21.71,17.45,10.19,1.57,19.18-6.11,21.25-16.22,2.7-13.22-6.06-25.65-17.22-32.32-9.99-5.97-21.7-8.2-33.15-10.31-5.57-8.45,4.11-19.68,14.11-21.26,13.54-2.14,27.33,5.39,40.94-1.24,5.87-2.86,9.49-9.33,7.82-15.63-2.67-10.12-15.98-10.98-26.23-10.69-10.07.29-23.41-3.28-23.41-13.35,0-13.97,24.33-13.68,30.49-25.81,3.96-7.79-1.33-16.72-9.81-18.85-9.74-2.44-19.95,4.53-24.09,13.25-1.44,3.02-3.39,5.83-6.2,7.65-11.1,7.21-18.29-6.41-15.59-15.73,2.26-7.78,8.36-13.85,11.56-21.3.03-.07.06-.15.09-.22,4.17-10.09-7.42-19.54-16.77-13.89l-23.44,14.16"/><path class="cls-1" d="m1778.7,442.88c-5.67-10.99-16.44-21.3-29.08-21.1-8.32.13-15.75,6.07-17.11,14.28-2.37,14.25,16.23,15.61,15.53,27.84-.29,5.07-4.25,9.13-9.18,10.38-10.18,2.58-18.63-3.28-26.93-8.05-7.87-4.52-17.39-8.36-25.77-3.09-7.98,5.02-10.43,15.41-6.96,24.17,6.29,15.87,22.53,21.51,37.54,26.31-21.43,5.91-42.85,11.82-64.28,17.73-7.25,2-14.91,4.23-19.12,11.07-2.24,3.65-2.55,8.36-.19,11.94,4.01,6.09,12.45,5.08,18.88,2.61,10.39-3.99,20.7-10.71,32.07-5.78,5.69,2.47,8.93,8.94,6.51,14.65-2.27,5.35-7.57,6.15-12.41,6.44-12.01.72-24.2-.46-35.99,1.89-13.42,2.68-26.98,11.29-28.63,25.67-1.04,9.04,4.1,17.99,12.92,20.23,12.47,3.16,20.25-10.29,32.34-9.49,2.83.19,5.59,1.46,7.27,3.74,3.69,5.01.52,10.67-3.41,14.28-8.51,7.83-20.52,10.18-31.36,14.23-11.84,4.43-24.17,13.22-23.33,26.57.52,8.39,6.49,15.48,14.41,18.31,17.5,6.25,34.95-7.34,40.72-23.06,1.82-4.95,6.35-8.63,11.62-8.63,9.72.01,10.58,10.9,7.37,17.94-3.3,7.25-9.42,13.65-7.34,22.3,2.27,9.4,12.5,14.46,21.86,12.01,17.33-4.53,22.27-26.28,17.43-41.5-1.78-5.61-.77-11.91,3.37-16.08,8.95-9.02,20.75,2.61,22.17,13.34,1.29,9.76-1.3,20.33,3.12,29.13,7.3,14.53,34.15,16.87,37.22-8.37.33-2.69.07-5.46-.93-7.98-3.56-8.88-13.03-14.28-15.55-23.96-.95-3.66-.49-7.68,1.89-10.62,6.05-7.46,17.66-1.81,22.09,6.06,4.21,7.48,5.2,16.6,10.3,23.5,7.54,10.19,23.93,12.25,33.77,4.25,9.83-8.01,11.14-24.47,2.69-33.92-9.14-10.22-25.58-11.04-33.3-23.7-3.15-5.17-3.05-11.97,1.18-16.29,6.77-6.91,18.12-1.77,24.53,5.05,6.5,6.91,12.12,15.97,21.71,17.45,10.19,1.57,19.18-6.11,21.25-16.22,2.7-13.22-6.06-25.65-17.22-32.32-9.99-5.97-21.7-8.2-33.15-10.31-5.57-8.45,4.11-19.68,14.11-21.26,13.54-2.14,27.33,5.39,40.94-1.24,5.87-2.86,9.49-9.33,7.82-15.63-2.67-10.12-15.98-10.98-26.23-10.69-10.07.29-23.41-3.28-23.41-13.35,0-13.97,24.33-13.68,30.49-25.81,3.96-7.79-1.33-16.72-9.81-18.85-9.74-2.44-19.95,4.53-24.09,13.25-1.44,3.02-3.39,5.83-6.2,7.65-11.1,7.21-18.29-6.41-15.59-15.73,2.26-7.78,8.36-13.85,11.56-21.3.03-.07.06-.15.09-.22,4.17-10.09-7.42-19.54-16.77-13.89l-23.44,14.16"/><path class="cls-1" d="m1841.91.41c-5.67-10.99-16.44-21.3-29.08-21.1-8.32.13-15.75,6.07-17.11,14.28-2.37,14.25,16.23,15.61,15.53,27.84-.29,5.07-4.25,9.13-9.18,10.38-10.18,2.58-18.63-3.28-26.93-8.05-7.87-4.52-17.39-8.36-25.77-3.09-7.98,5.02-10.43,15.41-6.96,24.17,6.29,15.87,22.53,21.51,37.54,26.31-21.43,5.91-42.85,11.82-64.28,17.73-7.25,2-14.91,4.23-19.12,11.07-2.24,3.65-2.55,8.36-.19,11.94,4.01,6.09,12.45,5.08,18.88,2.61,10.39-3.99,20.7-10.71,32.07-5.78,5.69,2.47,8.93,8.94,6.51,14.65-2.27,5.35-7.57,6.15-12.41,6.44-12.01.72-24.2-.46-35.99,1.89-13.42,2.68-26.98,11.29-28.63,25.67-1.04,9.04,4.1,17.99,12.92,20.23,12.47,3.16,20.25-10.29,32.34-9.49,2.83.19,5.59,1.46,7.27,3.74,3.69,5.01.52,10.67-3.41,14.28-8.51,7.83-20.52,10.18-31.36,14.23-11.84,4.43-24.17,13.22-23.33,26.57.52,8.39,6.49,15.48,14.41,18.31,17.5,6.25,34.95-7.34,40.72-23.06,1.82-4.95,6.35-8.63,11.62-8.63,9.72.01,10.58,10.9,7.37,17.94-3.3,7.25-9.42,13.65-7.34,22.3,2.27,9.4,12.5,14.46,21.86,12.01,17.33-4.53,22.27-26.28,17.43-41.5-1.78-5.61-.77-11.91,3.37-16.08,8.95-9.02,20.75,2.61,22.17,13.34,1.29,9.76-1.3,20.33,3.12,29.13,7.3,14.53,34.15,16.87,37.22-8.37.33-2.69.07-5.46-.93-7.98-3.56-8.88-13.03-14.28-15.55-23.96-.95-3.66-.49-7.68,1.89-10.62,6.05-7.46,17.66-1.81,22.09,6.06,4.21,7.48,5.2,16.6,10.3,23.5,7.54,10.19,23.93,12.25,33.77,4.25,9.83-8.01,11.14-24.47,2.69-33.92-9.14-10.22-25.58-11.04-33.3-23.7-3.15-5.17-3.05-11.97,1.18-16.29,6.77-6.91,18.12-1.77,24.53,5.05,6.5,6.91,12.12,15.97,21.71,17.45,10.19,1.57,19.18-6.11,21.25-16.22,2.7-13.22-6.06-25.65-17.22-32.32-9.99-5.97-21.7-8.2-33.15-10.31-5.57-8.45,4.11-19.68,14.11-21.26,13.54-2.14,27.33,5.39,40.94-1.24,5.87-2.86,9.49-9.33,7.82-15.63-2.67-10.12-15.98-10.98-26.23-10.69-10.07.29-23.41-3.28-23.41-13.35,0-13.97,24.33-13.68,30.49-25.81,3.96-7.79-1.33-16.72-9.81-18.85-9.74-2.44-19.95,4.53-24.09,13.25-1.44,3.02-3.39,5.83-6.2,7.65-11.1,7.21-18.29-6.41-15.59-15.73,2.26-7.78,8.36-13.85,11.56-21.3.03-.07.06-.15.09-.22,4.17-10.09-7.42-19.54-16.77-13.89l-23.44,14.16"/></svg>