<?xml version="1.0" encoding="UTF-8"?><svg id="fond" xmlns="http://www.w3.org/2000/svg" viewBox="0 0 1920 1080"><defs><style>.cls-1{fill:#f9e2af;}</style></defs><path class="cls-1" d="m383.87,239.99c-2.41-3.29-6.61-6.74-3.99-10.93,2.26-3.62,13.84-4.57,17.76-5.43,10-2.2,27.34-3.32,35.64-8.86-1.09-12.28-4.57-23.71-5.87-35.74-13.88-1.71-27.27,3.94-40.98,6.87-14.8,3.17-29.75,4.86-44.25,10.45-17.77,6.85-35.61,9.28-54.15,12.19-6.53,1.02-13.99,1.56-17.41,7.67-3.08,5.51-1.4,16.67-1.09,22.95.47,9.57-.11,14.31,9.81,11.13,7.41-2.38,14.98-9.75,23.21-8.66-.25,4.8,4.64,10.97,3.01,14.94-1.85,4.51-11.48,6.05-15.56,7.42-3.81,1.28-11.97,2.13-14.24,5.66-1.92,2.98-.32,13.96-.15,17.49.15,3.29.16,14.13,2.67,16.09,3.71,2.89,12.37-1.83,16.11-2.62,9.96-2.1,20.01-4.27,29.91-7.17,19.14-5.61,38.85-6.81,58.23-10.67,13.07-2.6,50.02-2.08,48.35-18.75-.28-2.85-2.33-15.15-4.41-16.94-4.51-3.89-13.05,1.92-17.68,2.54-3.82.51-11.63.61-15.36-1.06-4.58-2.05-8.46-10.4-11.35-9.45"/><path class="cls-1" d="m259.86,527.87c-2.41-3.29-6.61-6.74-3.99-10.93,2.26-3.62,13.84-4.57,17.76-5.43,10-2.2,27.34-3.32,35.64-8.86-1.09-12.28-4.57-23.71-5.87-35.74-13.88-1.71-27.27,3.94-40.98,6.87-14.8,3.17-29.75,4.86-44.25,10.45-17.77,6.85-35.61,9.28-54.15,12.19-6.53,1.02-13.99,1.56-17.41,7.67-3.08,5.51-1.4,16.67-1.09,22.95.47,9.57-.11,14.31,9.81,11.13,7.41-2.38,14.98-9.75,23.21-8.66-.25,4.8,4.64,10.97,3.01,14.94-1.85,4.51-11.48,6.05-15.56,7.42-3.81,1.28-11.97,2.13-14.24,5.66-1.92,2.98-.32,13.96-.15,17.49.15,3.29.16,14.13,2.67,16.09,3.71,2.89,12.37-1.83,16.11-2.62,9.96-2.1,20.01-4.27,29.91-7.17,19.14-5.61,38.85-6.81,58.23-10.67,13.07-2.6,50.02-2.08,48.35-18.75-.28-2.85-2.33-15.15-4.41-16.94-4.51-3.89-13.05,1.92-17.68,2.54-3.82.51-11.63.61-15.36-1.06-4.58-2.05-8.46-10.4-11.35-9.45"/><path class="cls-1" d="m593.04,562.31c-2.41-3.29-6.61-6.74-3.99-10.93,2.26-3.62,13.84-4.57,17.76-5.43,10-2.2,27.34-3.32,35.64-8.86-1.09-12.28-4.57-23.71-5.87-35.74-13.88-1.71-27.27,3.94-40.98,6.87-14.8,3.17-29.75,4.86-44.25,10.45-17.77,6.85-35.61,9.28-54.15,12.19-6.53,1.02-13.99,1.56-17.41,7.67-3.08,5.51-1.4,16.67-1.09,22.95.47,9.57-.11,14.31,9.81,11.13,7.41-2.38,14.98-9.75,23.21-8.66-.25,4.8,4.64,10.97,3.01,14.94-1.85,4.51-11.48,6.05-15.56,7.42-3.81,1.28-11.97,2.13-14.24,5.66-1.92,2.98-.32,13.96-.15,17.49.15,3.29.16,14.13,2.67,16.09,3.71,2.89,12.37-1.83,16.11-2.62,9.96-2.1,20.01-4.27,29.91-7.17,19.14-5.61,38.85-6.81,58.23-10.67,13.07-2.6,50.02-2.08,48.35-18.75-.28-2.85-2.33-15.15-4.41-16.94-4.51-3.89-13.05,1.92-17.68,2.54-3.82.51-11.63.61-15.36-1.06-4.58-2.05-8.46-10.4-11.35-9.45"/><path class="cls-1" d="m649.03,41.12c-2.41-3.29-6.61-6.74-3.99-10.93,2.26-3.62,13.84-4.57,17.76-5.43,10-2.2,27.34-3.32,35.64-8.86-1.09-12.28-4.57-23.71-5.87-35.74-13.88-1.71-27.27,3.94-40.98,6.87-14.8,3.17-29.75,4.86-44.25,10.45-17.77,6.85-35.61,9.28-54.15,12.19-6.53,1.02-13.99,1.56-17.41,7.67-3.08,5.51-1.4,16.67-1.09,22.95.47,9.57-.11,14.31,9.81,11.13,7.41-2.38,14.98-9.75,23.21-8.66-.25,4.8,4.64,10.97,3.01,14.94-1.85,4.51-11.48,6.05-15.56,7.42-3.81,1.28-11.97,2.13-14.24,5.66-1.92,2.98-.32,13.96-.15,17.49.15,3.29.16,14.13,2.67,16.09,3.71,2.89,12.37-1.83,16.11-2.62,9.96-2.1,20.01-4.27,29.91-7.17,19.14-5.61,38.85-6.81,58.23-10.67,13.07-2.6,50.02-2.08,48.35-18.75-.28-2.85-2.33-15.15-4.41-16.94-4.51-3.89-13.05,1.92-17.68,2.54-3.82.51-11.63.61-15.36-1.06-4.58-2.05-8.46-10.4-11.35-9.45"/><path class="cls-1" d="m147.12,34.14c-2.41-3.29-6.61-6.74-3.99-10.93,2.26-3.62,13.84-4.57,17.76-5.43,10-2.2,27.34-3.32,35.64-8.86-1.09-12.28-4.57-23.71-5.87-35.74-13.88-1.71-27.27,3.94-40.98,6.87-14.8,3.17-29.75,4.86-44.25,10.45C87.67-2.64,69.83-.21,51.29,2.7c-6.53,1.02-13.99,1.56-17.41,7.67-3.08,5.51-1.4,16.67-1.09,22.95.47,9.57-.11,14.31,9.81,11.13,7.41-2.38,14.98-9.75,23.21-8.66-.25,4.8,4.64,10.97,3.01,14.94-1.85,4.51-11.48,6.05-15.56,7.42-3.81,1.28-11.97,2.13-14.24,5.66-1.92,2.98-.32,13.96-.15,17.49.15,3.29.16,14.13,2.67,16.09,3.71,2.89,12.37-1.83,16.11-2.62,9.96-2.1,20.01-4.27,29.91-7.17,19.14-5.61,38.85-6.81,58.23-10.67,13.07-2.6,50.02-2.08,48.35-18.75-.28-2.85-2.33-15.15-4.41-16.94-4.51-3.89-13.05,1.92-17.68,2.54-3.82.51-11.63.61-15.36-1.06-4.58-2.05-8.46-10.4-11.35-9.45"/><path class="cls-1" d="m106.72,855.25c-2.41-3.29-6.61-6.74-3.99-10.93,2.26-3.62,13.84-4.57,17.76-5.43,10-2.2,27.34-3.32,35.64-8.86-1.09-12.28-4.57-23.71-5.87-35.74-13.88-1.71-27.27,3.94-40.98,6.87-14.8,3.17-29.75,4.86-44.25,10.45-17.77,6.85-35.61,9.28-54.15,12.19-6.53,1.02-13.99,1.56-17.41,7.67-3.08,5.51-1.4,16.67-1.09,22.95.47,9.57-.11,14.31,9.81,11.13,7.41-2.38,14.98-9.75,23.21-8.66-.25,4.8,4.64,10.97,3.01,14.94-1.85,4.51-11.48,6.05-15.56,7.42-3.81,1.28-11.97,2.13-14.24,5.66-1.92,2.98-.32,13.96-.15,17.49.15,3.29.16,14.13,2.67,16.09,3.71,2.89,12.37-1.83,16.11-2.62,9.96-2.1,20.01-4.27,29.91-7.17,19.14-5.61,38.85-6.81,58.23-10.67,13.07-2.6,50.02-2.08,48.35-18.75-.28-2.85-2.33-15.15-4.41-16.94-4.51-3.89-13.05,1.92-17.68,2.54-3.82.51-11.63.61-15.36-1.06-4.58-2.05-8.46-10.4-11.35-9.45"/><path class="cls-1" d="m398.9,869.21c-2.41-3.29-6.61-6.74-3.99-10.93,2.26-3.62,13.84-4.57,17.76-5.43,10-2.2,27.34-3.32,35.64-8.86-1.09-12.28-4.57-23.71-5.87-35.74-13.88-1.71-27.27,3.94-40.98,6.87-14.8,3.17-29.75,4.86-44.25,10.45-17.77,6.85-35.61,9.28-54.15,12.19-6.53,1.02-13.99,1.56-17.41,7.67-3.08,5.51-1.4,16.67-1.09,22.95.47,9.57-.11,14.31,9.81,11.13,7.41-2.38,14.98-9.75,23.21-8.66-.25,4.8,4.64,10.97,3.01,14.94-1.85,4.51-11.48,6.05-15.56,7.42-3.81,1.28-11.97,2.13-14.24,5.66-1.92,2.98-.32,13.96-.15,17.49.15,3.29.16,14.13,2.67,16.09,3.71,2.89,12.37-1.83,16.11-2.62,9.96-2.1,20.01-4.27,29.91-7.17,19.14-5.61,38.85-6.81,58.23-10.67,13.07-2.6,50.02-2.08,48.35-18.75-.28-2.85-2.33-15.15-4.41-16.94-4.51-3.89-13.05,1.92-17.68,2.54-3.82.51-11.63.61-15.36-1.06-4.58-2.05-8.46-10.4-11.35-9.45"/><path class="cls-1" d="m690.39,879.38c-2.41-3.29-6.61-6.74-3.99-10.93,2.26-3.62,13.84-4.57,17.76-5.43,10-2.2,27.34-3.32,35.64-8.86-1.09-12.28-4.57-23.71-5.87-35.74-13.88-1.71-27.27,3.94-40.98,6.87-14.8,3.17-29.75,4.86-44.25,10.45-17.77,6.85-35.61,9.28-54.15,12.19-6.53,1.02-13.99,1.56-17.41,7.67-3.08,5.51-1.4,16.67-1.09,22.95.47,9.57-.11,14.31,9.81,11.13,7.41-2.38,14.98-9.75,23.21-8.66-.25,4.8,4.64,10.97,3.01,14.94-1.85,4.51-11.48,6.05-15.56,7.42-3.81,1.28-11.97,2.13-14.24,5.66-1.92,2.98-.32,13.96-.15,17.49.15,3.29.16,14.13,2.67,16.09,3.71,2.89,12.37-1.83,16.11-2.62,9.96-2.1,20.01-4.27,29.91-7.17,19.14-5.61,38.85-6.81,58.23-10.67,13.07-2.6,50.02-2.08,48.35-18.75-.28-2.85-2.33-15.15-4.41-16.94-4.51-3.89-13.05,1.92-17.68,2.54-3.82.51-11.63.61-15.36-1.06-4.58-2.05-8.46-10.4-11.35-9.45"/><path class="cls-1" d="m205.96,1059.68c-2.41-3.29-6.61-6.74-3.99-10.93,2.26-3.62,13.84-4.57,17.76-5.43,10-2.2,27.34-3.32,35.64-8.86-1.09-12.28-4.57-23.71-5.87-35.74-13.88-1.71-27.27,3.94-40.98,6.87-14.8,3.17-29.75,4.86-44.25,10.45-17.77,6.85-35.61,9.28-54.15,12.19-6.53,1.02-13.99,1.56-17.41,7.67-3.08,5.51-1.4,16.67-1.09,22.95.47,9.57-.11,14.31,9.81,11.13,7.41-2.38,14.98-9.75,23.21-8.66-.25,4.8,4.64,10.97,3.01,14.94-1.85,4.51-11.48,6.05-15.56,7.42-3.81,1.28-11.97,2.13-14.24,5.66-1.92,2.98-.32,13.96-.15,17.49.15,3.29.16,14.13,2.67,16.09,3.71,2.89,12.37-1.83,16.11-2.62,9.96-2.1,20.01-4.27,29.91-7.17,19.14-5.61,38.85-6.81,58.23-10.67,13.07-2.6,50.02-2.08,48.35-18.75-.28-2.85-2.33-15.15-4.41-16.94-4.51-3.89-13.05,1.92-17.68,2.54-3.82.51-11.63.61-15.36-1.06-4.58-2.05-8.46-10.4-11.35-9.45"/><path class="cls-1" d="m903.65,647.55c-2.41-3.29-6.61-6.74-3.99-10.93,2.26-3.62,13.84-4.57,17.76-5.43,10-2.2,27.34-3.32,35.64-8.86-1.09-12.28-4.57-23.71-5.87-35.74-13.88-1.71-27.27,3.94-40.98,6.87-14.8,3.17-29.75,4.86-44.25,10.45-17.77,6.85-35.61,9.28-54.15,12.19-6.53,1.02-13.99,1.56-17.41,7.67-3.08,5.51-1.4,16.67-1.09,22.95.47,9.57-.11,14.31,9.81,11.13,7.41-2.38,14.98-9.75,23.21-8.66-.25,4.8,4.64,10.97,3.01,14.94-1.85,4.51-11.48,6.05-15.56,7.42-3.81,1.28-11.97,2.13-14.24,5.66-1.92,2.98-.32,13.96-.15,17.49.15,3.29.16,14.13,2.67,16.09,3.71,2.89,12.37-1.83,16.11-2.62,9.96-2.1,20.01-4.27,29.91-7.17,19.14-5.61,38.85-6.81,58.23-10.67,13.07-2.6,50.02-2.08,48.35-18.75-.28-2.85-2.33-15.15-4.41-16.94-4.51-3.89-13.05,1.92-17.68,2.54-3.82.51-11.63.61-15.36-1.06-4.58-2.05-8.46-10.4-11.35-9.45"/><path class="cls-1" d="m854.86,298.91c-2.41-3.29-6.61-6.74-3.99-10.93,2.26-3.62,13.84-4.57,17.76-5.43,10-2.2,27.34-3.32,35.64-8.86-1.09-12.28-4.57-23.71-5.87-35.74-13.88-1.71-27.27,3.94-40.98,6.87-14.8,3.17-29.75,4.86-44.25,10.45-17.77,6.85-35.61,9.28-54.15,12.19-6.53,1.02-13.99,1.56-17.41,7.67-3.08,5.51-1.4,16.67-1.09,22.95.47,9.57-.11,14.31,9.81,11.13,7.41-2.38,14.98-9.75,23.21-8.66-.25,4.8,4.64,10.97,3.01,14.94-1.85,4.51-11.48,6.05-15.56,7.42-3.81,1.28-11.97,2.13-14.24,5.66-1.92,2.98-.32,13.96-.15,17.49.15,3.29.16,14.13,2.67,16.09,3.71,2.89,12.37-1.83,16.11-2.62,9.96-2.1,20.01-4.27,29.91-7.17,19.14-5.61,38.85-6.81,58.23-10.67,13.07-2.6,50.02-2.08,48.35-18.75-.28-2.85-2.33-15.15-4.41-16.94-4.51-3.89-13.05,1.92-17.68,2.54-3.82.51-11.63.61-15.36-1.06-4.58-2.05-8.46-10.4-11.35-9.45"/><path class="cls-1" d="m1031.98,41.12c-2.41-3.29-6.61-6.74-3.99-10.93,2.26-3.62,13.84-4.57,17.76-5.43,10-2.2,27.34-3.32,35.64-8.86-1.09-12.28-4.57-23.71-5.87-35.74-13.88-1.71-27.27,3.94-40.98,6.87-14.8,3.17-29.75,4.86-44.25,10.45-17.77,6.85-35.61,9.28-54.15,12.19-6.53,1.02-13.99,1.56-17.41,7.67-3.08,5.51-1.4,16.67-1.09,22.95.47,9.57-.11,14.31,9.81,11.13,7.41-2.38,14.98-9.75,23.21-8.66-.25,4.8,4.64,10.97,3.01,14.94-1.85,4.51-11.48,6.05-15.56,7.42-3.81,1.28-11.97,2.13-14.24,5.66-1.92,2.98-.32,13.96-.15,17.49.15,3.29.16,14.13,2.67,16.09,3.71,2.89,12.37-1.83,16.11-2.62,9.96-2.1,20.01-4.27,29.91-7.17,19.14-5.61,38.85-6.81,58.23-10.67,13.07-2.6,50.02-2.08,48.35-18.75-.28-2.85-2.33-15.15-4.41-16.94-4.51-3.89-13.05,1.92-17.68,2.54-3.82.51-11.63.61-15.36-1.06-4.58-2.05-8.46-10.4-11.35-9.45"/><path class="cls-1" d="m1142.2,361.63c-2.41-3.29-6.61-6.74-3.99-10.93,2.26-3.62,13.84-4.57,17.76-5.43,10-2.2,27.34-3.32,35.64-8.86-1.09-12.28-4.57-23.71-5.87-35.74-13.88-1.71-27.27,3.94-40.98,6.87-14.8,3.17-29.75,4.86-44.25,10.45-17.77,6.85-35.61,9.28-54.15,12.19-6.53,1.02-13.99,1.56-17.41,7.67-3.08,5.51-1.4,16.67-1.09,22.95.47,9.57-.11,14.31,9.81,11.13,7.41-2.38,14.98-9.75,23.21-8.66-.25,4.8,4.64,10.97,3.01,14.94-1.85,4.51-11.48,6.05-15.56,7.42-3.81,1.28-11.97,2.13-14.24,5.66-1.92,2.98-.32,13.96-.15,17.49.15,3.29.16,14.13,2.67,16.09,3.71,2.89,12.37-1.83,16.11-2.62,9.96-2.1,20.01-4.27,29.91-7.17,19.14-5.61,38.85-6.81,58.23-10.67,13.07-2.6,50.02-2.08,48.35-18.75-.28-2.85-2.33-15.15-4.41-16.94-4.51-3.89-13.05,1.92-17.68,2.54-3.82.51-11.63.61-15.36-1.06-4.58-2.05-8.46-10.4-11.35-9.45"/><path class="cls-1" d="m1259.49,654.3c-2.41-3.29-6.61-6.74-3.99-10.93,2.26-3.62,13.84-4.57,17.76-5.43,10-2.2,27.34-3.32,35.64-8.86-1.09-12.28-4.57-23.71-5.87-35.74-13.88-1.71-27.27,3.94-40.98,6.87-14.8,3.17-29.75,4.86-44.25,10.45-17.77,6.85-35.61,9.28-54.15,12.19-6.53,1.02-13.99,1.56-17.41,7.67-3.08,5.51-1.4,16.67-1.09,22.95.47,9.57-.11,14.31,9.81,11.13,7.41-2.38,14.98-9.75,23.21-8.66-.25,4.8,4.64,10.97,3.01,14.94-1.85,4.51-11.48,6.05-15.56,7.42-3.81,1.28-11.97,2.13-14.24,5.66-1.92,2.98-.32,13.96-.15,17.49.15,3.29.16,14.13,2.67,16.09,3.71,2.89,12.37-1.83,16.11-2.62,9.96-2.1,20.01-4.27,29.91-7.17,19.14-5.61,38.85-6.81,58.23-10.67,13.07-2.6,50.02-2.08,48.35-18.75-.28-2.85-2.33-15.15-4.41-16.94-4.51-3.89-13.05,1.92-17.68,2.54-3.82.51-11.63.61-15.36-1.06-4.58-2.05-8.46-10.4-11.35-9.45"/><path class="cls-1" d="m1132.97,898.39c-2.41-3.29-6.61-6.74-3.99-10.93,2.26-3.62,13.84-4.57,17.76-5.43,10-2.2,27.34-3.32,35.64-8.86-1.09-12.28-4.57-23.71-5.87-35.74-13.88-1.71-27.27,3.94-40.98,6.87-14.8,3.17-29.75,4.86-44.25,10.45-17.77,6.85-35.61,9.28-54.15,12.19-6.53,1.02-13.99,1.56-17.41,7.67-3.08,5.51-1.4,16.67-1.09,22.95.47,9.57-.11,14.31,9.81,11.13,7.41-2.38,14.98-9.75,23.21-8.66-.25,4.8,4.64,10.97,3.01,14.94-1.85,4.51-11.48,6.05-15.56,7.42-3.81,1.28-11.97,2.13-14.24,5.66-1.92,2.98-.32,13.96-.15,17.49.15,3.29.16,14.13,2.67,16.09,3.71,2.89,12.37-1.83,16.11-2.62,9.96-2.1,20.01-4.27,29.91-7.17,19.14-5.61,38.85-6.81,58.23-10.67,13.07-2.6,50.02-2.08,48.35-18.75-.28-2.85-2.33-15.15-4.41-16.94-4.51-3.89-13.05,1.92-17.68,2.54-3.82.51-11.63.61-15.36-1.06-4.58-2.05-8.46-10.4-11.35-9.45"/><path class="cls-1" d="m985.89,1083.39c-2.41-3.29-6.61-6.74-3.99-10.93,2.26-3.62,13.84-4.57,17.76-5.43,10-2.2,27.34-3.32,35.64-8.86-1.09-12.28-4.57-23.71-5.87-35.74-13.88-1.71-27.27,3.94-40.98,6.87-14.8,3.17-29.75,4.86-44.25,10.45-17.77,6.85-35.61,9.28-54.15,12.19-6.53,1.02-13.99,1.56-17.41,7.67-3.08,5.51-1.4,16.67-1.09,22.95.47,9.57-.11,14.31,9.81,11.13,7.41-2.38,14.98-9.75,23.21-8.66-.25,4.8,4.64,10.97,3.01,14.94-1.85,4.51-11.48,6.05-15.56,7.42-3.81,1.28-11.97,2.13-14.24,5.66-1.92,2.98-.32,13.96-.15,17.49.15,3.29.16,14.13,2.67,16.09,3.71,2.89,12.37-1.83,16.11-2.62,9.96-2.1,20.01-4.27,29.91-7.17,19.14-5.61,38.85-6.81,58.23-10.67,13.07-2.6,50.02-2.08,48.35-18.75-.28-2.85-2.33-15.15-4.41-16.94-4.51-3.89-13.05,1.92-17.68,2.54-3.82.51-11.63.61-15.36-1.06-4.58-2.05-8.46-10.4-11.35-9.45"/><path class="cls-1" d="m1348.92,1050.4c-2.41-3.29-6.61-6.74-3.99-10.93,2.26-3.62,13.84-4.57,17.76-5.43,10-2.2,27.34-3.32,35.64-8.86-1.09-12.28-4.57-23.71-5.87-35.74-13.88-1.71-27.27,3.94-40.98,6.87-14.8,3.17-29.75,4.86-44.25,10.45-17.77,6.85-35.61,9.28-54.15,12.19-6.53,1.02-13.99,1.56-17.41,7.67-3.08,5.51-1.4,16.67-1.09,22.95.47,9.57-.11,14.31,9.81,11.13,7.41-2.38,14.98-9.75,23.21-8.66-.25,4.8,4.64,10.97,3.01,14.94-1.85,4.51-11.48,6.05-15.56,7.42-3.81,1.28-11.97,2.13-14.24,5.66-1.92,2.98-.32,13.96-.15,17.49.15,3.29.16,14.13,2.67,16.09,3.71,2.89,12.37-1.83,16.11-2.62,9.96-2.1,20.01-4.27,29.91-7.17,19.14-5.61,38.85-6.81,58.23-10.67,13.07-2.6,50.02-2.08,48.35-18.75-.28-2.85-2.33-15.15-4.41-16.94-4.51-3.89-13.05,1.92-17.68,2.54-3.82.51-11.63.61-15.36-1.06-4.58-2.05-8.46-10.4-11.35-9.45"/><path class="cls-1" d="m1461.55,855.25c-2.41-3.29-6.61-6.74-3.99-10.93,2.26-3.62,13.84-4.57,17.76-5.43,10-2.2,27.34-3.32,35.64-8.86-1.09-12.28-4.57-23.71-5.87-35.74-13.88-1.71-27.27,3.94-40.98,6.87-14.8,3.17-29.75,4.86-44.25,10.45-17.77,6.85-35.61,9.28-54.15,12.19-6.53,1.02-13.99,1.56-17.41,7.67-3.08,5.51-1.4,16.67-1.09,22.95.47,9.57-.11,14.31,9.81,11.13,7.41-2.38,14.98-9.75,23.21-8.66-.25,4.8,4.64,10.97,3.01,14.94-1.85,4.51-11.48,6.05-15.56,7.42-3.81,1.28-11.97,2.13-14.24,5.66-1.92,2.98-.32,13.96-.15,17.49.15,3.29.16,14.13,2.67,16.09,3.71,2.89,12.37-1.83,16.11-2.62,9.96-2.1,20.01-4.27,29.91-7.17,19.14-5.61,38.85-6.81,58.23-10.67,13.07-2.6,50.02-2.08,48.35-18.75-.28-2.85-2.33-15.15-4.41-16.94-4.51-3.89-13.05,1.92-17.68,2.54-3.82.51-11.63.61-15.36-1.06-4.58-2.05-8.46-10.4-11.35-9.45"/><path class="cls-1" d="m1554.25,654.05c-2.41-3.29-6.61-6.74-3.99-10.93,2.26-3.62,13.84-4.57,17.76-5.43,10-2.2,27.34-3.32,35.64-8.86-1.09-12.28-4.57-23.71-5.87-35.74-13.88-1.71-27.27,3.94-40.98,6.87-14.8,3.17-29.75,4.86-44.25,10.45-17.77,6.85-35.61,9.28-54.15,12.19-6.53,1.02-13.99,1.56-17.41,7.67-3.08,5.51-1.4,16.67-1.09,22.95.47,9.57-.11,14.31,9.81,11.13,7.41-2.38,14.98-9.75,23.21-8.66-.25,4.8,4.64,10.97,3.01,14.94-1.85,4.51-11.48,6.05-15.56,7.42-3.81,1.28-11.97,2.13-14.24,5.66-1.92,2.98-.32,13.96-.15,17.49.15,3.29.16,14.13,2.67,16.09,3.71,2.89,12.37-1.83,16.11-2.62,9.96-2.1,20.01-4.27,29.91-7.17,19.14-5.61,38.85-6.81,58.23-10.67,13.07-2.6,50.02-2.08,48.35-18.75-.28-2.85-2.33-15.15-4.41-16.94-4.51-3.89-13.05,1.92-17.68,2.54-3.82.51-11.63.61-15.36-1.06-4.58-2.05-8.46-10.4-11.35-9.45"/><path class="cls-1" d="m1435.61,466.93c-2.41-3.29-6.61-6.74-3.99-10.93,2.26-3.62,13.84-4.57,17.76-5.43,10-2.2,27.34-3.32,35.64-8.86-1.09-12.28-4.57-23.71-5.87-35.74-13.88-1.71-27.27,3.94-40.98,6.87-14.8,3.17-29.75,4.86-44.25,10.45-17.77,6.85-35.61,9.28-54.15,12.19-6.53,1.02-13.99,1.56-17.41,7.67-3.08,5.51-1.4,16.67-1.09,22.95.47,9.57-.11,14.31,9.81,11.13,7.41-2.38,14.98-9.75,23.21-8.66-.25,4.8,4.64,10.97,3.01,14.94-1.85,4.51-11.48,6.05-15.56,7.42-3.81,1.28-11.97,2.13-14.24,5.66-1.92,2.98-.32,13.96-.15,17.49.15,3.29.16,14.13,2.67,16.09,3.71,2.89,12.37-1.83,16.11-2.62,9.96-2.1,20.01-4.27,29.91-7.17,19.14-5.61,38.85-6.81,58.23-10.67,13.07-2.6,50.02-2.08,48.35-18.75-.28-2.85-2.33-15.15-4.41-16.94-4.51-3.89-13.05,1.92-17.68,2.54-3.82.51-11.63.61-15.36-1.06-4.58-2.05-8.46-10.4-11.35-9.45"/><path class="cls-1" d="m1435.66,231.9c-2.41-3.29-6.61-6.74-3.99-10.93,2.26-3.62,13.84-4.57,17.76-5.43,10-2.2,27.34-3.32,35.64-8.86-1.09-12.28-4.57-23.71-5.87-35.74-13.88-1.71-27.27,3.94-40.98,6.87-14.8,3.17-29.75,4.86-44.25,10.45-17.77,6.85-35.61,9.28-54.15,12.19-6.53,1.02-13.99,1.56-17.41,7.67-3.08,5.51-1.4,16.67-1.09,22.95.47,9.57-.11,14.31,9.81,11.13,7.41-2.38,14.98-9.75,23.21-8.66-.25,4.8,4.64,10.97,3.01,14.94-1.85,4.51-11.48,6.05-15.56,7.42-3.81,1.28-11.97,2.13-14.24,5.66-1.92,2.98-.32,13.96-.15,17.49.15,3.29.16,14.13,2.67,16.09,3.71,2.89,12.37-1.83,16.11-2.62,9.96-2.1,20.01-4.27,29.91-7.17,19.14-5.61,38.85-6.81,58.23-10.67,13.07-2.6,50.02-2.08,48.35-18.75-.28-2.85-2.33-15.15-4.41-16.94-4.51-3.89-13.05,1.92-17.68,2.54-3.82.51-11.63.61-15.36-1.06-4.58-2.05-8.46-10.4-11.35-9.45"/><path class="cls-1" d="m1379.31,61.28c-2.41-3.29-6.61-6.74-3.99-10.93,2.26-3.62,13.84-4.57,17.76-5.43,10-2.2,27.34-3.32,35.64-8.86-1.09-12.28-4.57-23.71-5.87-35.74-13.88-1.71-27.27,3.94-40.98,6.87-14.8,3.17-29.75,4.86-44.25,10.45-17.77,6.85-35.61,9.28-54.15,12.19-6.53,1.02-13.99,1.56-17.41,7.67-3.08,5.51-1.4,16.67-1.09,22.95.47,9.57-.11,14.31,9.81,11.13,7.41-2.38,14.98-9.75,23.21-8.66-.25,4.8,4.64,10.97,3.01,14.94-1.85,4.51-11.48,6.05-15.56,7.42-3.81,1.28-11.97,2.13-14.24,5.66-1.92,2.98-.32,13.96-.15,17.49.15,3.29.16,14.13,2.67,16.09,3.71,2.89,12.37-1.83,16.11-2.62,9.96-2.1,20.01-4.27,29.91-7.17,19.14-5.61,38.85-6.81,58.23-10.67,13.07-2.6,50.02-2.08,48.35-18.75-.28-2.85-2.33-15.15-4.41-16.94-4.51-3.89-13.05,1.92-17.68,2.54-3.82.51-11.63.61-15.36-1.06-4.58-2.05-8.46-10.4-11.35-9.45"/><path class="cls-1" d="m1670.1,132.84c-2.41-3.29-6.61-6.74-3.99-10.93,2.26-3.62,13.84-4.57,17.76-5.43,10-2.2,27.34-3.32,35.64-8.86-1.09-12.28-4.57-23.71-5.87-35.74-13.88-1.71-27.27,3.94-40.98,6.87-14.8,3.17-29.75,4.86-44.25,10.45-17.77,6.85-35.61,9.28-54.15,12.19-6.53,1.02-13.99,1.56-17.41,7.67-3.08,5.51-1.4,16.67-1.09,22.95.47,9.57-.11,14.31,9.81,11.13,7.41-2.38,14.98-9.75,23.21-8.66-.25,4.8,4.64,10.97,3.01,14.94-1.85,4.51-11.48,6.05-15.56,7.42-3.81,1.28-11.97,2.13-14.24,5.66-1.92,2.98-.32,13.96-.15,17.49.15,3.29.16,14.13,2.67,16.09,3.71,2.89,12.37-1.83,16.11-2.62,9.96-2.1,20.01-4.27,29.91-7.17,19.14-5.61,38.85-6.81,58.23-10.67,13.07-2.6,50.02-2.08,48.35-18.75-.28-2.85-2.33-15.15-4.41-16.94-4.51-3.89-13.05,1.92-17.68,2.54-3.82.51-11.63.61-15.36-1.06-4.58-2.05-8.46-10.4-11.35-9.45"/><path class="cls-1" d="m1726.1,387.9c-2.41-3.29-6.61-6.74-3.99-10.93,2.26-3.62,13.84-4.57,17.76-5.43,10-2.2,27.34-3.32,35.64-8.86-1.09-12.28-4.57-23.71-5.87-35.74-13.88-1.71-27.27,3.94-40.98,6.87-14.8,3.17-29.75,4.86-44.25,10.45-17.77,6.85-35.61,9.28-54.15,12.19-6.53,1.02-13.99,1.56-17.41,7.67-3.08,5.51-1.4,16.67-1.09,22.95.47,9.57-.11,14.31,9.81,11.13,7.41-2.38,14.98-9.75,23.21-8.66-.25,4.8,4.64,10.97,3.01,14.94-1.85,4.51-11.48,6.05-15.56,7.42-3.81,1.28-11.97,2.13-14.24,5.66-1.92,2.98-.32,13.96-.15,17.49.15,3.29.16,14.13,2.67,16.09,3.71,2.89,12.37-1.83,16.11-2.62,9.96-2.1,20.01-4.27,29.91-7.17,19.14-5.61,38.85-6.81,58.23-10.67,13.07-2.6,50.02-2.08,48.35-18.75-.28-2.85-2.33-15.15-4.41-16.94-4.51-3.89-13.05,1.92-17.68,2.54-3.82.51-11.63.61-15.36-1.06-4.58-2.05-8.46-10.4-11.35-9.45"/><path class="cls-1" d="m1867.63,692.02c-2.41-3.29-6.61-6.74-3.99-10.93,2.26-3.62,13.84-4.57,17.76-5.43,10-2.2,27.34-3.32,35.64-8.86-1.09-12.28-4.57-23.71-5.87-35.74-13.88-1.71-27.27,3.94-40.98,6.87-14.8,3.17-29.75,4.86-44.25,10.45-17.77,6.85-35.61,9.28-54.15,12.19-6.53,1.02-13.99,1.56-17.41,7.67-3.08,5.51-1.4,16.67-1.09,22.95.47,9.57-.11,14.31,9.81,11.13,7.41-2.38,14.98-9.75,23.21-8.66-.25,4.8,4.64,10.97,3.01,14.94-1.85,4.51-11.48,6.05-15.56,7.42-3.81,1.28-11.97,2.13-14.24,5.66-1.92,2.98-.32,13.96-.15,17.49.15,3.29.16,14.13,2.67,16.09,3.71,2.89,12.37-1.83,16.11-2.62,9.96-2.1,20.01-4.27,29.91-7.17,19.14-5.61,38.85-6.81,58.23-10.67,13.07-2.6,50.02-2.08,48.35-18.75-.28-2.85-2.33-15.15-4.41-16.94-4.51-3.89-13.05,1.92-17.68,2.54-3.82.51-11.63.61-15.36-1.06-4.58-2.05-8.46-10.4-11.35-9.45"/><path class="cls-1" d="m1765.19,998.64c-2.41-3.29-6.61-6.74-3.99-10.93,2.26-3.62,13.84-4.57,17.76-5.43,10-2.2,27.34-3.32,35.64-8.86-1.09-12.28-4.57-23.71-5.87-35.74-13.88-1.71-27.27,3.94-40.98,6.87-14.8,3.17-29.75,4.86-44.25,10.45-17.77,6.85-35.61,9.28-54.15,12.19-6.53,1.02-13.99,1.56-17.41,7.67-3.08,5.51-1.4,16.67-1.09,22.95.47,9.57-.11,14.31,9.81,11.13,7.41-2.38,14.98-9.75,23.21-8.66-.25,4.8,4.64,10.97,3.01,14.94-1.85,4.51-11.48,6.05-15.56,7.42-3.81,1.28-11.97,2.13-14.24,5.66-1.92,2.98-.32,13.96-.15,17.49.15,3.29.16,14.13,2.67,16.09,3.71,2.89,12.37-1.83,16.11-2.62,9.96-2.1,20.01-4.27,29.91-7.17,19.14-5.61,38.85-6.81,58.23-10.67,13.07-2.6,50.02-2.08,48.35-18.75-.28-2.85-2.33-15.15-4.41-16.94-4.51-3.89-13.05,1.92-17.68,2.54-3.82.51-11.63.61-15.36-1.06-4.58-2.05-8.46-10.4-11.35-9.45"/><path class="cls-1" d="m1785.39,397.01c-2.41-3.29-6.61-6.74-3.99-10.93,2.26-3.62,13.84-4.57,17.76-5.43,10-2.2,27.34-3.32,35.64-8.86-1.09-12.28-4.57-23.71-5.87-35.74-13.88-1.71-27.27,3.94-40.98,6.87-14.8,3.17-29.75,4.86-44.25,10.45-17.77,6.85-35.61,9.28-54.15,12.19-6.53,1.02-13.99,1.56-17.41,7.67-3.08,5.51-1.4,16.67-1.09,22.95.47,9.57-.11,14.31,9.81,11.13,7.41-2.38,14.98-9.75,23.21-8.66-.25,4.8,4.64,10.97,3.01,14.94-1.85,4.51-11.48,6.05-15.56,7.42-3.81,1.28-11.97,2.13-14.24,5.66-1.92,2.98-.32,13.96-.15,17.49.15,3.29.16,14.13,2.67,16.09,3.71,2.89,12.37-1.83,16.11-2.62,9.96-2.1,20.01-4.27,29.91-7.17,19.14-5.61,38.85-6.81,58.23-10.67,13.07-2.6,50.02-2.08,48.35-18.75-.28-2.85-2.33-15.15-4.41-16.94-4.51-3.89-13.05,1.92-17.68,2.54-3.82.51-11.63.61-15.36-1.06-4.58-2.05-8.46-10.4-11.35-9.45"/></svg>