<?xml version="1.0" encoding="UTF-8"?><svg id="fond" xmlns="http://www.w3.org/2000/svg" viewBox="0 0 1920 1080"><defs><style>.cls-1{fill:#acb1d6;}</style></defs><path class="cls-1" d="m331.54,75.71c7.01-2.72,13.42-7.85,16.05-14.89s.61-16.01-5.73-20.06c-4.41-2.82-10.06-2.95-15.21-1.97s-10.06,2.93-15.19,3.99c-11.2,2.32-22.83.26-33.91-2.55-11.09-2.81-22.09-6.39-33.5-7.16-11.41-.77-23.61,1.65-32.01,9.41-3.33,3.08-6.1,7.58-4.93,11.97,1.12,4.23,5.44,6.74,9.55,8.22,4.12,1.48,8.62,2.49,11.78,5.52,4.27,4.08,4.89,10.79,3.66,16.57-1.23,5.78-3.98,11.13-5.52,16.84-1.64,6.08-1.83,12.67.34,18.58,2.17,5.91,6.91,11.02,12.94,12.81,6.04,1.79,13.23-.21,16.85-5.37,7.04-10.03-1.73-24.64,3.05-35.93,3.8-8.97,16.27-12.46,24.72-7.62,4.33,2.48,7.48,6.54,10.86,10.22,13.15,14.3,31.37,23.85,50.61,26.53,12.38,1.72,26.27.15,35.1-8.7,2.94-2.95,5.22-6.75,5.57-10.9s-1.54-8.62-5.21-10.59c-3.34-1.8-7.4-1.32-11.13-.61-7.86,1.49-15.59,3.75-23.55,4.6-7.96.85-16.37.15-23.27-3.9-3.92-2.3-7.48-7.15-5.22-11.08,2.03-3.53,8.1-2.75,13.27-3.91"/><path class="cls-1" d="m217.32,288.35c7.01-2.72,13.42-7.85,16.05-14.89s.61-16.01-5.73-20.06c-4.41-2.82-10.06-2.95-15.21-1.97s-10.06,2.93-15.19,3.99c-11.2,2.32-22.83.26-33.91-2.55-11.09-2.81-22.09-6.39-33.5-7.16-11.41-.77-23.61,1.65-32.01,9.41-3.33,3.08-6.1,7.58-4.93,11.97,1.12,4.23,5.44,6.74,9.55,8.22,4.12,1.48,8.62,2.49,11.78,5.52,4.27,4.08,4.89,10.79,3.66,16.57-1.23,5.78-3.98,11.13-5.52,16.84-1.64,6.08-1.83,12.67.34,18.58,2.17,5.91,6.91,11.02,12.94,12.81,6.04,1.79,13.23-.21,16.85-5.37,7.04-10.03-1.73-24.64,3.05-35.93,3.8-8.97,16.27-12.46,24.72-7.62,4.33,2.48,7.48,6.54,10.86,10.22,13.15,14.3,31.37,23.85,50.61,26.53,12.38,1.72,26.27.15,35.1-8.7,2.94-2.95,5.22-6.75,5.57-10.9s-1.54-8.62-5.21-10.59c-3.34-1.8-7.4-1.32-11.13-.61-7.86,1.49-15.59,3.75-23.55,4.6-7.96.85-16.37.15-23.27-3.9-3.92-2.3-7.48-7.15-5.22-11.08,2.03-3.53,8.1-2.75,13.27-3.91"/><path class="cls-1" d="m561.64,264.46c7.01-2.72,13.42-7.85,16.05-14.89s.61-16.01-5.73-20.06c-4.41-2.82-10.06-2.95-15.21-1.97s-10.06,2.93-15.19,3.99c-11.2,2.32-22.83.26-33.91-2.55-11.09-2.81-22.09-6.39-33.5-7.16-11.41-.77-23.61,1.65-32.01,9.41-3.33,3.08-6.1,7.58-4.93,11.97,1.12,4.23,5.44,6.74,9.55,8.22,4.12,1.48,8.62,2.49,11.78,5.52,4.27,4.08,4.89,10.79,3.66,16.57-1.23,5.78-3.98,11.13-5.52,16.84-1.64,6.08-1.83,12.67.34,18.58,2.17,5.91,6.91,11.02,12.94,12.81,6.04,1.79,13.23-.21,16.85-5.37,7.04-10.03-1.73-24.64,3.05-35.93,3.8-8.97,16.27-12.46,24.72-7.62,4.33,2.48,7.48,6.54,10.86,10.22,13.15,14.3,31.37,23.85,50.61,26.53,12.38,1.72,26.27.15,35.1-8.7,2.94-2.95,5.22-6.75,5.57-10.9s-1.54-8.62-5.21-10.59c-3.34-1.8-7.4-1.32-11.13-.61-7.86,1.49-15.59,3.75-23.55,4.6-7.96.85-16.37.15-23.27-3.9-3.92-2.3-7.48-7.15-5.22-11.08,2.03-3.53,8.1-2.75,13.27-3.91"/><path class="cls-1" d="m380.65,485.28c7.01-2.72,13.42-7.85,16.05-14.89s.61-16.01-5.73-20.06c-4.41-2.82-10.06-2.95-15.21-1.97s-10.06,2.93-15.19,3.99c-11.2,2.32-22.83.26-33.91-2.55-11.09-2.81-22.09-6.39-33.5-7.16-11.41-.77-23.61,1.65-32.01,9.41-3.33,3.08-6.1,7.58-4.93,11.97,1.12,4.23,5.44,6.74,9.55,8.22,4.12,1.48,8.62,2.49,11.78,5.52,4.27,4.08,4.89,10.79,3.66,16.57-1.23,5.78-3.98,11.13-5.52,16.84-1.64,6.08-1.83,12.67.34,18.58,2.17,5.91,6.91,11.02,12.94,12.81,6.04,1.79,13.23-.21,16.85-5.37,7.04-10.03-1.73-24.64,3.05-35.93,3.8-8.97,16.27-12.46,24.72-7.62,4.33,2.48,7.48,6.54,10.86,10.22,13.15,14.3,31.37,23.85,50.61,26.53,12.38,1.72,26.27.15,35.1-8.7,2.94-2.95,5.22-6.75,5.57-10.9s-1.54-8.62-5.21-10.59c-3.34-1.8-7.4-1.32-11.13-.61-7.86,1.49-15.59,3.75-23.55,4.6-7.96.85-16.37.15-23.27-3.9-3.92-2.3-7.48-7.15-5.22-11.08,2.03-3.53,8.1-2.75,13.27-3.91"/><path class="cls-1" d="m987.05,17.66c7.01-2.72,13.42-7.85,16.05-14.89s.61-16.01-5.73-20.06c-4.41-2.82-10.06-2.95-15.21-1.97s-10.06,2.93-15.19,3.99c-11.2,2.32-22.83.26-33.91-2.55-11.09-2.81-22.09-6.39-33.5-7.16-11.41-.77-23.61,1.65-32.01,9.41-3.33,3.08-6.1,7.58-4.93,11.97,1.12,4.23,5.44,6.74,9.55,8.22,4.12,1.48,8.62,2.49,11.78,5.52,4.27,4.08,4.89,10.79,3.66,16.57-1.23,5.78-3.98,11.13-5.52,16.84-1.64,6.08-1.83,12.67.34,18.58,2.17,5.91,6.91,11.02,12.94,12.81,6.04,1.79,13.23-.21,16.85-5.37,7.04-10.03-1.73-24.64,3.05-35.93,3.8-8.97,16.27-12.46,24.72-7.62,4.33,2.48,7.48,6.54,10.86,10.22,13.15,14.3,31.37,23.85,50.61,26.53,12.38,1.72,26.27.15,35.1-8.7,2.94-2.95,5.22-6.75,5.57-10.9s-1.54-8.62-5.21-10.59c-3.34-1.8-7.4-1.32-11.13-.61-7.86,1.49-15.59,3.75-23.55,4.6-7.96.85-16.37.15-23.27-3.9-3.92-2.3-7.48-7.15-5.22-11.08,2.03-3.53,8.1-2.75,13.27-3.91"/><path class="cls-1" d="m872.83,230.3c7.01-2.72,13.42-7.85,16.05-14.89s.61-16.01-5.73-20.06c-4.41-2.82-10.06-2.95-15.21-1.97s-10.06,2.93-15.19,3.99c-11.2,2.32-22.83.26-33.91-2.55-11.09-2.81-22.09-6.39-33.5-7.16-11.41-.77-23.61,1.65-32.01,9.41-3.33,3.08-6.1,7.58-4.93,11.97,1.12,4.23,5.44,6.74,9.55,8.22,4.12,1.48,8.62,2.49,11.78,5.52,4.27,4.08,4.89,10.79,3.66,16.57-1.23,5.78-3.98,11.13-5.52,16.84-1.64,6.08-1.83,12.67.34,18.58,2.17,5.91,6.91,11.02,12.94,12.81,6.04,1.79,13.23-.21,16.85-5.37,7.04-10.03-1.73-24.64,3.05-35.93,3.8-8.97,16.27-12.46,24.72-7.62,4.33,2.48,7.48,6.54,10.86,10.22,13.15,14.3,31.37,23.85,50.61,26.53,12.38,1.72,26.27.15,35.1-8.7,2.94-2.95,5.22-6.75,5.57-10.9s-1.54-8.62-5.21-10.59c-3.34-1.8-7.4-1.32-11.13-.61-7.86,1.49-15.59,3.75-23.55,4.6-7.96.85-16.37.15-23.27-3.9-3.92-2.3-7.48-7.15-5.22-11.08,2.03-3.53,8.1-2.75,13.27-3.91"/><path class="cls-1" d="m1217.15,206.41c7.01-2.72,13.42-7.85,16.05-14.89s.61-16.01-5.73-20.06c-4.41-2.82-10.06-2.95-15.21-1.97s-10.06,2.93-15.19,3.99c-11.2,2.32-22.83.26-33.91-2.55-11.09-2.81-22.09-6.39-33.5-7.16-11.41-.77-23.61,1.65-32.01,9.41-3.33,3.08-6.1,7.58-4.93,11.97,1.12,4.23,5.44,6.74,9.55,8.22,4.12,1.48,8.62,2.49,11.78,5.52,4.27,4.08,4.89,10.79,3.66,16.57-1.23,5.78-3.98,11.13-5.52,16.84-1.64,6.08-1.83,12.67.34,18.58,2.17,5.91,6.91,11.02,12.94,12.81,6.04,1.79,13.23-.21,16.85-5.37,7.04-10.03-1.73-24.64,3.05-35.93,3.8-8.97,16.27-12.46,24.72-7.62,4.33,2.48,7.48,6.54,10.86,10.22,13.15,14.3,31.37,23.85,50.61,26.53,12.38,1.72,26.27.15,35.1-8.7,2.94-2.95,5.22-6.75,5.57-10.9s-1.54-8.62-5.21-10.59c-3.34-1.8-7.4-1.32-11.13-.61-7.86,1.49-15.59,3.75-23.55,4.6-7.96.85-16.37.15-23.27-3.9-3.92-2.3-7.48-7.15-5.22-11.08,2.03-3.53,8.1-2.75,13.27-3.91"/><path class="cls-1" d="m1036.17,427.23c7.01-2.72,13.42-7.85,16.05-14.89s.61-16.01-5.73-20.06c-4.41-2.82-10.06-2.95-15.21-1.97s-10.06,2.93-15.19,3.99c-11.2,2.32-22.83.26-33.91-2.55-11.09-2.81-22.09-6.39-33.5-7.16-11.41-.77-23.61,1.65-32.01,9.41-3.33,3.08-6.1,7.58-4.93,11.97,1.12,4.23,5.44,6.74,9.55,8.22,4.12,1.48,8.62,2.49,11.78,5.52,4.27,4.08,4.89,10.79,3.66,16.57-1.23,5.78-3.98,11.13-5.52,16.84-1.64,6.08-1.83,12.67.34,18.58,2.17,5.91,6.91,11.02,12.94,12.81,6.04,1.79,13.23-.21,16.85-5.37,7.04-10.03-1.73-24.64,3.05-35.93,3.8-8.97,16.27-12.46,24.72-7.62,4.33,2.48,7.48,6.54,10.86,10.22,13.15,14.3,31.37,23.85,50.61,26.53,12.38,1.72,26.27.15,35.1-8.7,2.94-2.95,5.22-6.75,5.57-10.9s-1.54-8.62-5.21-10.59c-3.34-1.8-7.4-1.32-11.13-.61-7.86,1.49-15.59,3.75-23.55,4.6-7.96.85-16.37.15-23.27-3.9-3.92-2.3-7.48-7.15-5.22-11.08,2.03-3.53,8.1-2.75,13.27-3.91"/><path class="cls-1" d="m721.82,514.3c7.01-2.72,13.42-7.85,16.05-14.89s.61-16.01-5.73-20.06c-4.41-2.82-10.06-2.95-15.21-1.97s-10.06,2.93-15.19,3.99c-11.2,2.32-22.83.26-33.91-2.55-11.09-2.81-22.09-6.39-33.5-7.16-11.41-.77-23.61,1.65-32.01,9.41-3.33,3.08-6.1,7.58-4.93,11.97,1.12,4.23,5.44,6.74,9.55,8.22,4.12,1.48,8.62,2.49,11.78,5.52,4.27,4.08,4.89,10.79,3.66,16.57-1.23,5.78-3.98,11.13-5.52,16.84-1.64,6.08-1.83,12.67.34,18.58,2.17,5.91,6.91,11.02,12.94,12.81,6.04,1.79,13.23-.21,16.85-5.37,7.04-10.03-1.73-24.64,3.05-35.93,3.8-8.97,16.27-12.46,24.72-7.62,4.33,2.48,7.48,6.54,10.86,10.22,13.15,14.3,31.37,23.85,50.61,26.53,12.38,1.72,26.27.15,35.1-8.7,2.94-2.95,5.22-6.75,5.57-10.9s-1.54-8.62-5.21-10.59c-3.34-1.8-7.4-1.32-11.13-.61-7.86,1.49-15.59,3.75-23.55,4.6-7.96.85-16.37.15-23.27-3.9-3.92-2.3-7.48-7.15-5.22-11.08,2.03-3.53,8.1-2.75,13.27-3.91"/><path class="cls-1" d="m607.6,726.94c7.01-2.72,13.42-7.85,16.05-14.89s.61-16.01-5.73-20.06c-4.41-2.82-10.06-2.95-15.21-1.97s-10.06,2.93-15.19,3.99c-11.2,2.32-22.83.26-33.91-2.55-11.09-2.81-22.09-6.39-33.5-7.16-11.41-.77-23.61,1.65-32.01,9.41-3.33,3.08-6.1,7.58-4.93,11.97,1.12,4.23,5.44,6.74,9.55,8.22,4.12,1.48,8.62,2.49,11.78,5.52,4.27,4.08,4.89,10.79,3.66,16.57-1.23,5.78-3.98,11.13-5.52,16.84-1.64,6.08-1.83,12.67.34,18.58,2.17,5.91,6.91,11.02,12.94,12.81,6.04,1.79,13.23-.21,16.85-5.37,7.04-10.03-1.73-24.64,3.05-35.93,3.8-8.97,16.27-12.46,24.72-7.62,4.33,2.48,7.48,6.54,10.86,10.22,13.15,14.3,31.37,23.85,50.61,26.53,12.38,1.72,26.27.15,35.1-8.7,2.94-2.95,5.22-6.75,5.57-10.9s-1.54-8.62-5.21-10.59c-3.34-1.8-7.4-1.32-11.13-.61-7.86,1.49-15.59,3.75-23.55,4.6-7.96.85-16.37.15-23.27-3.9-3.92-2.3-7.48-7.15-5.22-11.08,2.03-3.53,8.1-2.75,13.27-3.91"/><path class="cls-1" d="m951.92,703.06c7.01-2.72,13.42-7.85,16.05-14.89s.61-16.01-5.73-20.06c-4.41-2.82-10.06-2.95-15.21-1.97s-10.06,2.93-15.19,3.99c-11.2,2.32-22.83.26-33.91-2.55-11.09-2.81-22.09-6.39-33.5-7.16-11.41-.77-23.61,1.65-32.01,9.41-3.33,3.08-6.1,7.58-4.93,11.97,1.12,4.23,5.44,6.74,9.55,8.22,4.12,1.48,8.62,2.49,11.78,5.52,4.27,4.08,4.89,10.79,3.66,16.57-1.23,5.78-3.98,11.13-5.52,16.84-1.64,6.08-1.83,12.67.34,18.58,2.17,5.91,6.91,11.02,12.94,12.81,6.04,1.79,13.23-.21,16.85-5.37,7.04-10.03-1.73-24.64,3.05-35.93,3.8-8.97,16.27-12.46,24.72-7.62,4.33,2.48,7.48,6.54,10.86,10.22,13.15,14.3,31.37,23.85,50.61,26.53,12.38,1.72,26.27.15,35.1-8.7,2.94-2.95,5.22-6.75,5.57-10.9s-1.54-8.62-5.21-10.59c-3.34-1.8-7.4-1.32-11.13-.61-7.86,1.49-15.59,3.75-23.55,4.6-7.96.85-16.37.15-23.27-3.9-3.92-2.3-7.48-7.15-5.22-11.08,2.03-3.53,8.1-2.75,13.27-3.91"/><path class="cls-1" d="m770.94,923.87c7.01-2.72,13.42-7.85,16.05-14.89s.61-16.01-5.73-20.06c-4.41-2.82-10.06-2.95-15.21-1.97s-10.06,2.93-15.19,3.99c-11.2,2.32-22.83.26-33.91-2.55-11.09-2.81-22.09-6.39-33.5-7.16-11.41-.77-23.61,1.65-32.01,9.41-3.33,3.08-6.1,7.58-4.93,11.97,1.12,4.23,5.44,6.74,9.55,8.22,4.12,1.48,8.62,2.49,11.78,5.52,4.27,4.08,4.89,10.79,3.66,16.57-1.23,5.78-3.98,11.13-5.52,16.84-1.64,6.08-1.83,12.67.34,18.58,2.17,5.91,6.91,11.02,12.94,12.81,6.04,1.79,13.23-.21,16.85-5.37,7.04-10.03-1.73-24.64,3.05-35.93,3.8-8.97,16.27-12.46,24.72-7.62,4.33,2.48,7.48,6.54,10.86,10.22,13.15,14.3,31.37,23.85,50.61,26.53,12.38,1.72,26.27.15,35.1-8.7,2.94-2.95,5.22-6.75,5.57-10.9s-1.54-8.62-5.21-10.59c-3.34-1.8-7.4-1.32-11.13-.61-7.86,1.49-15.59,3.75-23.55,4.6-7.96.85-16.37.15-23.27-3.9-3.92-2.3-7.48-7.15-5.22-11.08,2.03-3.53,8.1-2.75,13.27-3.91"/><path class="cls-1" d="m1398.13,564.65c7.01-2.72,13.42-7.85,16.05-14.89s.61-16.01-5.73-20.06c-4.41-2.82-10.06-2.95-15.21-1.97s-10.06,2.93-15.19,3.99c-11.2,2.32-22.83.26-33.91-2.55-11.09-2.81-22.09-6.39-33.5-7.16-11.41-.77-23.61,1.65-32.01,9.41-3.33,3.08-6.1,7.58-4.93,11.97,1.12,4.23,5.44,6.74,9.55,8.22,4.12,1.48,8.62,2.49,11.78,5.52,4.27,4.08,4.89,10.79,3.66,16.57-1.23,5.78-3.98,11.13-5.52,16.84-1.64,6.08-1.83,12.67.34,18.58,2.17,5.91,6.91,11.02,12.94,12.81,6.04,1.79,13.23-.21,16.85-5.37,7.04-10.03-1.73-24.64,3.05-35.93,3.8-8.97,16.27-12.46,24.72-7.62,4.33,2.48,7.48,6.54,10.86,10.22,13.15,14.3,31.37,23.85,50.61,26.53,12.38,1.72,26.27.15,35.1-8.7,2.94-2.95,5.22-6.75,5.57-10.9s-1.54-8.62-5.21-10.59c-3.34-1.8-7.4-1.32-11.13-.61-7.86,1.49-15.59,3.75-23.55,4.6-7.96.85-16.37.15-23.27-3.9-3.92-2.3-7.48-7.15-5.22-11.08,2.03-3.53,8.1-2.75,13.27-3.91"/><path class="cls-1" d="m1283.91,777.29c7.01-2.72,13.42-7.85,16.05-14.89s.61-16.01-5.73-20.06c-4.41-2.82-10.06-2.95-15.21-1.97s-10.06,2.93-15.19,3.99c-11.2,2.32-22.83.26-33.91-2.55-11.09-2.81-22.09-6.39-33.5-7.16-11.41-.77-23.61,1.65-32.01,9.41-3.33,3.08-6.1,7.58-4.93,11.97,1.12,4.23,5.44,6.74,9.55,8.22,4.12,1.48,8.62,2.49,11.78,5.52,4.27,4.08,4.89,10.79,3.66,16.57-1.23,5.78-3.98,11.13-5.52,16.84-1.64,6.08-1.83,12.67.34,18.58,2.17,5.91,6.91,11.02,12.94,12.81,6.04,1.79,13.23-.21,16.85-5.37,7.04-10.03-1.73-24.64,3.05-35.93,3.8-8.97,16.27-12.46,24.72-7.62,4.33,2.48,7.48,6.54,10.86,10.22,13.15,14.3,31.37,23.85,50.61,26.53,12.38,1.72,26.27.15,35.1-8.7,2.94-2.95,5.22-6.75,5.57-10.9s-1.54-8.62-5.21-10.59c-3.34-1.8-7.4-1.32-11.13-.61-7.86,1.49-15.59,3.75-23.55,4.6-7.96.85-16.37.15-23.27-3.9-3.92-2.3-7.48-7.15-5.22-11.08,2.03-3.53,8.1-2.75,13.27-3.91"/><path class="cls-1" d="m1628.23,753.4c7.01-2.72,13.42-7.85,16.05-14.89s.61-16.01-5.73-20.06c-4.41-2.82-10.06-2.95-15.21-1.97s-10.06,2.93-15.19,3.99c-11.2,2.32-22.83.26-33.91-2.55-11.09-2.81-22.09-6.39-33.5-7.16-11.41-.77-23.61,1.65-32.01,9.41-3.33,3.08-6.1,7.58-4.93,11.97,1.12,4.23,5.44,6.74,9.55,8.22,4.12,1.48,8.62,2.49,11.78,5.52,4.27,4.08,4.89,10.79,3.66,16.57-1.23,5.78-3.98,11.13-5.52,16.84-1.64,6.08-1.83,12.67.34,18.58,2.17,5.91,6.91,11.02,12.94,12.81,6.04,1.79,13.23-.21,16.85-5.37,7.04-10.03-1.73-24.64,3.05-35.93,3.8-8.97,16.27-12.46,24.72-7.62,4.33,2.48,7.48,6.54,10.86,10.22,13.15,14.3,31.37,23.85,50.61,26.53,12.38,1.72,26.27.15,35.1-8.7,2.94-2.95,5.22-6.75,5.57-10.9s-1.54-8.62-5.21-10.59c-3.34-1.8-7.4-1.32-11.13-.61-7.86,1.49-15.59,3.75-23.55,4.6-7.96.85-16.37.15-23.27-3.9-3.92-2.3-7.48-7.15-5.22-11.08,2.03-3.53,8.1-2.75,13.27-3.91"/><path class="cls-1" d="m1447.25,974.22c7.01-2.72,13.42-7.85,16.05-14.89s.61-16.01-5.73-20.06c-4.41-2.82-10.06-2.95-15.21-1.97s-10.06,2.93-15.19,3.99c-11.2,2.32-22.83.26-33.91-2.55-11.09-2.81-22.09-6.39-33.5-7.16-11.41-.77-23.61,1.65-32.01,9.41-3.33,3.08-6.1,7.58-4.93,11.97,1.12,4.23,5.44,6.74,9.55,8.22,4.12,1.48,8.62,2.49,11.78,5.52,4.27,4.08,4.89,10.79,3.66,16.57-1.23,5.78-3.98,11.13-5.52,16.84-1.64,6.08-1.83,12.67.34,18.58,2.17,5.91,6.91,11.02,12.94,12.81,6.04,1.79,13.23-.21,16.85-5.37,7.04-10.03-1.73-24.64,3.05-35.93,3.8-8.97,16.27-12.46,24.72-7.62,4.33,2.48,7.48,6.54,10.86,10.22,13.15,14.3,31.37,23.85,50.61,26.53,12.38,1.72,26.27.15,35.1-8.7,2.94-2.95,5.22-6.75,5.57-10.9s-1.54-8.62-5.21-10.59c-3.34-1.8-7.4-1.32-11.13-.61-7.86,1.49-15.59,3.75-23.55,4.6-7.96.85-16.37.15-23.27-3.9-3.92-2.3-7.48-7.15-5.22-11.08,2.03-3.53,8.1-2.75,13.27-3.91"/><path class="cls-1" d="m192.27,627.78c7.01-2.72,13.42-7.85,16.05-14.89s.61-16.01-5.73-20.06c-4.41-2.82-10.06-2.95-15.21-1.97s-10.06,2.93-15.19,3.99c-11.2,2.32-22.83.26-33.91-2.55-11.09-2.81-22.09-6.39-33.5-7.16-11.41-.77-23.61,1.65-32.01,9.41-3.33,3.08-6.1,7.58-4.93,11.97,1.12,4.23,5.44,6.74,9.55,8.22,4.12,1.48,8.62,2.49,11.78,5.52,4.27,4.08,4.89,10.79,3.66,16.57-1.23,5.78-3.98,11.13-5.52,16.84-1.64,6.08-1.83,12.67.34,18.58,2.17,5.91,6.91,11.02,12.94,12.81,6.04,1.79,13.23-.21,16.85-5.37,7.04-10.03-1.73-24.64,3.05-35.93,3.8-8.97,16.27-12.46,24.72-7.62,4.33,2.48,7.48,6.54,10.86,10.22,13.15,14.3,31.37,23.85,50.61,26.53,12.38,1.72,26.27.15,35.1-8.7,2.94-2.95,5.22-6.75,5.57-10.9s-1.54-8.62-5.21-10.59c-3.34-1.8-7.4-1.32-11.13-.61-7.86,1.49-15.59,3.75-23.55,4.6-7.96.85-16.37.15-23.27-3.9-3.92-2.3-7.48-7.15-5.22-11.08,2.03-3.53,8.1-2.75,13.27-3.91"/><path class="cls-1" d="m78.05,840.41c7.01-2.72,13.42-7.85,16.05-14.89s.61-16.01-5.73-20.06c-4.41-2.82-10.06-2.95-15.21-1.97s-10.06,2.93-15.19,3.99c-11.2,2.32-22.83.26-33.91-2.55-11.09-2.81-22.09-6.39-33.5-7.16-11.41-.77-23.61,1.65-32.01,9.41-3.33,3.08-6.1,7.58-4.93,11.97,1.12,4.23,5.44,6.74,9.55,8.22,4.12,1.48,8.62,2.49,11.78,5.52,4.27,4.08,4.89,10.79,3.66,16.57-1.23,5.78-3.98,11.13-5.52,16.84-1.64,6.08-1.83,12.67.34,18.58,2.17,5.91,6.91,11.02,12.94,12.81,6.04,1.79,13.23-.21,16.85-5.37,7.04-10.03-1.73-24.64,3.05-35.93,3.8-8.97,16.27-12.46,24.72-7.62,4.33,2.48,7.48,6.54,10.86,10.22,13.15,14.3,31.37,23.85,50.61,26.53,12.38,1.72,26.27.15,35.1-8.7,2.94-2.95,5.22-6.75,5.57-10.9s-1.54-8.62-5.21-10.59c-3.34-1.8-7.4-1.32-11.13-.61-7.86,1.49-15.59,3.75-23.55,4.6-7.96.85-16.37.15-23.27-3.9-3.92-2.3-7.48-7.15-5.22-11.08,2.03-3.53,8.1-2.75,13.27-3.91"/><path class="cls-1" d="m422.37,816.53c7.01-2.72,13.42-7.85,16.05-14.89s.61-16.01-5.73-20.06c-4.41-2.82-10.06-2.95-15.21-1.97s-10.06,2.93-15.19,3.99c-11.2,2.32-22.83.26-33.91-2.55-11.09-2.81-22.09-6.39-33.5-7.16-11.41-.77-23.61,1.65-32.01,9.41-3.33,3.08-6.1,7.58-4.93,11.97,1.12,4.23,5.44,6.74,9.55,8.22,4.12,1.48,8.62,2.49,11.78,5.52,4.27,4.08,4.89,10.79,3.66,16.57-1.23,5.78-3.98,11.13-5.52,16.84-1.64,6.08-1.83,12.67.34,18.58,2.17,5.91,6.91,11.02,12.94,12.81,6.04,1.79,13.23-.21,16.85-5.37,7.04-10.03-1.73-24.64,3.05-35.93,3.8-8.97,16.27-12.46,24.72-7.62,4.33,2.48,7.48,6.54,10.86,10.22,13.15,14.3,31.37,23.85,50.61,26.53,12.38,1.72,26.27.15,35.1-8.7,2.94-2.95,5.22-6.75,5.57-10.9s-1.54-8.62-5.21-10.59c-3.34-1.8-7.4-1.32-11.13-.61-7.86,1.49-15.59,3.75-23.55,4.6-7.96.85-16.37.15-23.27-3.9-3.92-2.3-7.48-7.15-5.22-11.08,2.03-3.53,8.1-2.75,13.27-3.91"/><path class="cls-1" d="m241.38,1037.35c7.01-2.72,13.42-7.85,16.05-14.89s.61-16.01-5.73-20.06c-4.41-2.82-10.06-2.95-15.21-1.97s-10.06,2.93-15.19,3.99c-11.2,2.32-22.83.26-33.91-2.55-11.09-2.81-22.09-6.39-33.5-7.16-11.41-.77-23.61,1.65-32.01,9.41-3.33,3.08-6.1,7.58-4.93,11.97,1.12,4.23,5.44,6.74,9.55,8.22,4.12,1.48,8.62,2.49,11.78,5.52,4.27,4.08,4.89,10.79,3.66,16.57-1.23,5.78-3.98,11.13-5.52,16.84-1.64,6.08-1.83,12.67.34,18.58,2.17,5.91,6.91,11.02,12.94,12.81,6.04,1.79,13.23-.21,16.85-5.37,7.04-10.03-1.73-24.64,3.05-35.93,3.8-8.97,16.27-12.46,24.72-7.62,4.33,2.48,7.48,6.54,10.86,10.22,13.15,14.3,31.37,23.85,50.61,26.53,12.38,1.72,26.27.15,35.1-8.7,2.94-2.95,5.22-6.75,5.57-10.9s-1.54-8.62-5.21-10.59c-3.34-1.8-7.4-1.32-11.13-.61-7.86,1.49-15.59,3.75-23.55,4.6-7.96.85-16.37.15-23.27-3.9-3.92-2.3-7.48-7.15-5.22-11.08,2.03-3.53,8.1-2.75,13.27-3.91"/><path class="cls-1" d="m1660.22,74.3c7.01-2.72,13.42-7.85,16.05-14.89s.61-16.01-5.73-20.06c-4.41-2.82-10.06-2.95-15.21-1.97s-10.06,2.93-15.19,3.99c-11.2,2.32-22.83.26-33.91-2.55-11.09-2.81-22.09-6.39-33.5-7.16-11.41-.77-23.61,1.65-32.01,9.41-3.33,3.08-6.1,7.58-4.93,11.97,1.12,4.23,5.44,6.74,9.55,8.22,4.12,1.48,8.62,2.49,11.78,5.52,4.27,4.08,4.89,10.79,3.66,16.57-1.23,5.78-3.98,11.13-5.52,16.84-1.64,6.08-1.83,12.67.34,18.58,2.17,5.91,6.91,11.02,12.94,12.81,6.04,1.79,13.23-.21,16.85-5.37,7.04-10.03-1.73-24.64,3.05-35.93,3.8-8.97,16.27-12.46,24.72-7.62,4.33,2.48,7.48,6.54,10.86,10.22,13.15,14.3,31.37,23.85,50.61,26.53,12.38,1.72,26.27.15,35.1-8.7,2.94-2.95,5.22-6.75,5.57-10.9s-1.54-8.62-5.21-10.59c-3.34-1.8-7.4-1.32-11.13-.61-7.86,1.49-15.59,3.75-23.55,4.6-7.96.85-16.37.15-23.27-3.9-3.92-2.3-7.48-7.15-5.22-11.08,2.03-3.53,8.1-2.75,13.27-3.91"/><path class="cls-1" d="m1546,286.93c7.01-2.72,13.42-7.85,16.05-14.89s.61-16.01-5.73-20.06c-4.41-2.82-10.06-2.95-15.21-1.97s-10.06,2.93-15.19,3.99c-11.2,2.32-22.83.26-33.91-2.55-11.09-2.81-22.09-6.39-33.5-7.16-11.41-.77-23.61,1.65-32.01,9.41-3.33,3.08-6.1,7.58-4.93,11.97,1.12,4.23,5.44,6.74,9.55,8.22,4.12,1.48,8.62,2.49,11.78,5.52,4.27,4.08,4.89,10.79,3.66,16.57-1.23,5.78-3.98,11.13-5.52,16.84-1.64,6.08-1.83,12.67.34,18.58,2.17,5.91,6.91,11.02,12.94,12.81,6.04,1.79,13.23-.21,16.85-5.37,7.04-10.03-1.73-24.64,3.05-35.93,3.8-8.97,16.27-12.46,24.72-7.62,4.33,2.48,7.48,6.54,10.86,10.22,13.15,14.3,31.37,23.85,50.61,26.53,12.38,1.72,26.27.15,35.1-8.7,2.94-2.95,5.22-6.75,5.57-10.9s-1.54-8.62-5.21-10.59c-3.34-1.8-7.4-1.32-11.13-.61-7.86,1.49-15.59,3.75-23.55,4.6-7.96.85-16.37.15-23.27-3.9-3.92-2.3-7.48-7.15-5.22-11.08,2.03-3.53,8.1-2.75,13.27-3.91"/><path class="cls-1" d="m1890.32,263.05c7.01-2.72,13.42-7.85,16.05-14.89s.61-16.01-5.73-20.06c-4.41-2.82-10.06-2.95-15.21-1.97s-10.06,2.93-15.19,3.99c-11.2,2.32-22.83.26-33.91-2.55-11.09-2.81-22.09-6.39-33.5-7.16-11.41-.77-23.61,1.65-32.01,9.41-3.33,3.08-6.1,7.58-4.93,11.97,1.12,4.23,5.44,6.74,9.55,8.22,4.12,1.48,8.62,2.49,11.78,5.52,4.27,4.08,4.89,10.79,3.66,16.57-1.23,5.78-3.98,11.13-5.52,16.84-1.64,6.08-1.83,12.67.34,18.58,2.17,5.91,6.91,11.02,12.94,12.81,6.04,1.79,13.23-.21,16.85-5.37,7.04-10.03-1.73-24.64,3.05-35.93,3.8-8.97,16.27-12.46,24.72-7.62,4.33,2.48,7.48,6.54,10.86,10.22,13.15,14.3,31.37,23.85,50.61,26.53,12.38,1.72,26.27.15,35.1-8.7,2.94-2.95,5.22-6.75,5.57-10.9s-1.54-8.62-5.21-10.59c-3.34-1.8-7.4-1.32-11.13-.61-7.86,1.49-15.59,3.75-23.55,4.6-7.96.85-16.37.15-23.27-3.9-3.92-2.3-7.48-7.15-5.22-11.08,2.03-3.53,8.1-2.75,13.27-3.91"/><path class="cls-1" d="m1709.33,483.87c7.01-2.72,13.42-7.85,16.05-14.89s.61-16.01-5.73-20.06c-4.41-2.82-10.06-2.95-15.21-1.97s-10.06,2.93-15.19,3.99c-11.2,2.32-22.83.26-33.91-2.55-11.09-2.81-22.09-6.39-33.5-7.16-11.41-.77-23.61,1.65-32.01,9.41-3.33,3.08-6.1,7.58-4.93,11.97,1.12,4.23,5.44,6.74,9.55,8.22,4.12,1.48,8.62,2.49,11.78,5.52,4.27,4.08,4.89,10.79,3.66,16.57-1.23,5.78-3.98,11.13-5.52,16.84-1.64,6.08-1.83,12.67.34,18.58,2.17,5.91,6.91,11.02,12.94,12.81,6.04,1.79,13.23-.21,16.85-5.37,7.04-10.03-1.73-24.64,3.05-35.93,3.8-8.97,16.27-12.46,24.72-7.62,4.33,2.48,7.48,6.54,10.86,10.22,13.15,14.3,31.37,23.85,50.61,26.53,12.38,1.72,26.27.15,35.1-8.7,2.94-2.95,5.22-6.75,5.57-10.9s-1.54-8.62-5.21-10.59c-3.34-1.8-7.4-1.32-11.13-.61-7.86,1.49-15.59,3.75-23.55,4.6-7.96.85-16.37.15-23.27-3.9-3.92-2.3-7.48-7.15-5.22-11.08,2.03-3.53,8.1-2.75,13.27-3.91"/></svg>